<svg xmlns="http://www.w3.org/2000/svg" xmlns:xlink="http://www.w3.org/1999/xlink" width="50" zoomAndPan="magnify" viewBox="0 0 37.5 37.499999" height="50" preserveAspectRatio="xMidYMid meet" version="1.0"><defs><clipPath id="0c96ba883f"><path d="M 21 25 L 31.511719 25 L 31.511719 33.246094 L 21 33.246094 Z M 21 25 " clip-rule="nonzero"/></clipPath><clipPath id="856b2086b5"><path d="M 7 4.382812 L 31.511719 4.382812 L 31.511719 19 L 7 19 Z M 7 4.382812 " clip-rule="nonzero"/></clipPath><clipPath id="45f749949c"><path d="M 4.867188 11 L 22 11 L 22 31 L 4.867188 31 Z M 4.867188 11 " clip-rule="nonzero"/></clipPath><clipPath id="389d757ef1"><path d="M 7 23 L 24 23 L 24 33.246094 L 7 33.246094 Z M 7 23 " clip-rule="nonzero"/></clipPath></defs><path fill="#fbf3ee" d="M 18.953125 21.460938 C 18.554688 21.566406 18.132812 21.488281 17.792969 21.25 C 17.457031 21.011719 17.246094 20.636719 17.214844 20.222656 L 16.835938 15.097656 C 16.820312 14.851562 16.605469 14.667969 16.359375 14.683594 C 16.113281 14.703125 15.929688 14.917969 15.949219 15.164062 L 16.324219 20.289062 C 16.375 20.96875 16.722656 21.582031 17.277344 21.976562 C 17.667969 22.253906 18.125 22.398438 18.59375 22.398438 C 18.789062 22.398438 18.988281 22.375 19.183594 22.320312 C 19.421875 22.257812 19.5625 22.015625 19.5 21.777344 C 19.433594 21.539062 19.191406 21.394531 18.953125 21.460938 Z M 18.953125 21.460938 " fill-opacity="1" fill-rule="nonzero"/><path fill="#fbf3ee" d="M 13.378906 14.609375 C 13.378906 14.789062 13.316406 14.941406 13.1875 15.066406 C 13.0625 15.195312 12.90625 15.257812 12.730469 15.257812 C 12.550781 15.257812 12.394531 15.195312 12.269531 15.066406 C 12.144531 14.941406 12.078125 14.789062 12.078125 14.609375 C 12.078125 14.429688 12.144531 14.277344 12.269531 14.148438 C 12.394531 14.023438 12.550781 13.960938 12.730469 13.960938 C 12.90625 13.960938 13.0625 14.023438 13.1875 14.148438 C 13.316406 14.277344 13.378906 14.429688 13.378906 14.609375 Z M 13.378906 14.609375 " fill-opacity="1" fill-rule="nonzero"/><path fill="#fbf3ee" d="M 28.871094 15.648438 C 28.78125 15.550781 28.648438 15.5 28.515625 15.511719 C 28.457031 15.515625 27.351562 15.601562 26.546875 16.191406 L 26.34375 15.054688 C 26.320312 14.910156 26.226562 14.785156 26.089844 14.726562 C 25.957031 14.664062 25.804688 14.671875 25.679688 14.746094 C 22.894531 16.398438 22.113281 17.839844 21.324219 20.644531 L 21.296875 20.75 C 21.15625 21.246094 21.105469 21.429688 20.976562 22.054688 C 20.925781 22.296875 21.082031 22.53125 21.324219 22.582031 C 21.566406 22.628906 21.800781 22.472656 21.851562 22.234375 C 21.972656 21.640625 22.015625 21.476562 22.15625 20.992188 L 22.183594 20.886719 C 22.890625 18.371094 23.523438 17.1875 25.582031 15.855469 L 26.039062 18.429688 C 26.070312 18.613281 26.21875 18.761719 26.40625 18.789062 L 28.019531 19.050781 C 28.023438 19.050781 28.027344 19.050781 28.027344 19.054688 C 28.347656 19.097656 28.613281 19.316406 28.722656 19.617188 C 28.753906 19.703125 28.785156 19.796875 28.816406 19.894531 C 28.988281 20.429688 29.21875 21.140625 29.949219 21.644531 L 29.820312 22.199219 C 29.613281 23.027344 29.070312 23.5 28.171875 23.648438 C 27.46875 23.761719 26.808594 23.621094 26.746094 23.609375 L 25.480469 23.265625 C 25.242188 23.199219 24.996094 23.339844 24.933594 23.578125 C 24.867188 23.816406 25.007812 24.058594 25.246094 24.125 L 26.097656 24.355469 C 26.019531 24.726562 25.941406 25.289062 26 25.917969 C 26.089844 26.957031 26.570312 28.382812 28.316406 29.273438 C 28.382812 29.308594 28.453125 29.324219 28.519531 29.324219 C 28.683594 29.324219 28.839844 29.234375 28.917969 29.082031 C 29.03125 28.863281 28.941406 28.59375 28.722656 28.480469 C 26.605469 27.398438 26.789062 25.371094 26.964844 24.546875 C 27.292969 24.585938 27.773438 24.613281 28.285156 24.535156 C 29.558594 24.335938 30.386719 23.601562 30.6875 22.410156 C 30.6875 22.410156 30.6875 22.40625 30.6875 22.402344 L 30.890625 21.53125 C 30.9375 21.332031 30.84375 21.125 30.660156 21.035156 C 30.011719 20.699219 29.835938 20.148438 29.664062 19.617188 C 29.632812 19.519531 29.597656 19.414062 29.5625 19.316406 C 29.40625 18.882812 29.09375 18.539062 28.699219 18.339844 L 28.988281 16.011719 C 29.007812 15.878906 28.964844 15.746094 28.871094 15.648438 Z M 26.738281 17.273438 C 26.984375 16.847656 27.5625 16.609375 28.03125 16.492188 L 27.828125 18.117188 L 26.859375 17.960938 Z M 26.738281 17.273438 " fill-opacity="1" fill-rule="nonzero"/><path fill="#fbf3ee" d="M 27.691406 20.527344 C 27.757812 20.183594 27.535156 19.855469 27.191406 19.785156 C 26.851562 19.71875 26.519531 19.945312 26.453125 20.285156 C 26.386719 20.628906 26.609375 20.960938 26.949219 21.027344 C 27.292969 21.09375 27.625 20.871094 27.691406 20.527344 Z M 27.691406 20.527344 " fill-opacity="1" fill-rule="nonzero"/><g clip-path="url(#0c96ba883f)"><path fill="#fbf3ee" d="M 31.058594 25.121094 C 30.8125 25.121094 30.613281 25.324219 30.613281 25.570312 L 30.613281 32.417969 L 21.617188 32.417969 C 21.371094 32.417969 21.171875 32.617188 21.171875 32.863281 C 21.171875 33.109375 21.371094 33.308594 21.617188 33.308594 L 31.058594 33.308594 C 31.304688 33.308594 31.503906 33.109375 31.503906 32.863281 L 31.503906 25.570312 C 31.503906 25.324219 31.304688 25.121094 31.058594 25.121094 Z M 31.058594 25.121094 " fill-opacity="1" fill-rule="nonzero"/></g><g clip-path="url(#856b2086b5)"><path fill="#fbf3ee" d="M 31.269531 10.730469 L 19.53125 4.453125 C 19.398438 4.382812 19.242188 4.382812 19.109375 4.453125 L 7.371094 10.730469 C 7.226562 10.808594 7.136719 10.960938 7.136719 11.125 L 7.136719 12.59375 C 7.136719 12.839844 7.335938 13.039062 7.582031 13.039062 C 7.828125 13.039062 8.027344 12.839844 8.027344 12.59375 L 8.027344 11.390625 L 19.320312 5.351562 L 30.613281 11.390625 L 30.613281 18.230469 C 30.613281 18.476562 30.8125 18.675781 31.058594 18.675781 C 31.304688 18.675781 31.503906 18.476562 31.503906 18.230469 L 31.503906 11.125 C 31.503906 10.960938 31.414062 10.808594 31.269531 10.730469 Z M 31.269531 10.730469 " fill-opacity="1" fill-rule="nonzero"/></g><g clip-path="url(#45f749949c)"><path fill="#fbf3ee" d="M 8.121094 20.4375 C 8.234375 20.464844 8.351562 20.488281 8.472656 20.507812 C 8.484375 20.511719 8.5 20.511719 8.511719 20.515625 L 10.574219 20.667969 L 11.382812 29.816406 C 11.402344 30.050781 11.597656 30.222656 11.824219 30.222656 C 11.839844 30.222656 11.851562 30.222656 11.867188 30.222656 C 12.109375 30.199219 12.292969 29.984375 12.269531 29.738281 L 11.472656 20.734375 L 12.675781 20.824219 C 12.6875 20.824219 12.699219 20.824219 12.707031 20.824219 C 12.941406 20.824219 13.136719 20.644531 13.152344 20.410156 C 13.171875 20.167969 12.988281 19.953125 12.742188 19.933594 L 8.597656 19.625 C 7.613281 19.460938 7.128906 19.054688 6.875 18.179688 L 6.339844 15.378906 L 9.914062 14.886719 C 10.058594 14.867188 10.183594 14.777344 10.25 14.648438 L 11.117188 12.941406 C 11.324219 12.535156 11.734375 12.285156 12.1875 12.285156 L 16.902344 12.285156 C 17.707031 12.320312 18.445312 12.78125 18.824219 13.492188 L 20.328125 16.75 C 20.429688 16.972656 20.695312 17.070312 20.917969 16.96875 C 21.140625 16.863281 21.238281 16.597656 21.136719 16.375 L 19.628906 13.109375 C 19.625 13.101562 19.621094 13.09375 19.617188 13.085938 C 19.089844 12.085938 18.058594 11.4375 16.929688 11.394531 C 16.925781 11.394531 16.917969 11.390625 16.914062 11.390625 L 12.1875 11.394531 C 11.394531 11.394531 10.679688 11.832031 10.320312 12.539062 L 9.5625 14.035156 L 5.75 14.558594 C 5.628906 14.578125 5.519531 14.640625 5.449219 14.742188 C 5.378906 14.839844 5.351562 14.964844 5.375 15.085938 L 6.003906 18.367188 C 6.007812 18.382812 6.007812 18.394531 6.011719 18.40625 C 6.082031 18.648438 6.167969 18.871094 6.269531 19.070312 C 5.140625 19.769531 4.878906 20.820312 4.914062 21.378906 C 4.949219 21.90625 5.425781 22.511719 6.171875 22.609375 C 6.226562 22.613281 6.285156 22.617188 6.339844 22.617188 C 6.835938 22.617188 7.234375 22.324219 7.402344 21.820312 C 7.617188 21.164062 7.972656 20.640625 8.121094 20.4375 Z M 6.554688 21.542969 C 6.503906 21.691406 6.429688 21.742188 6.285156 21.722656 C 6.058594 21.695312 5.816406 21.492188 5.804688 21.324219 C 5.804688 21.3125 5.761719 20.394531 6.808594 19.785156 C 6.945312 19.910156 7.09375 20.019531 7.261719 20.113281 C 7.054688 20.421875 6.753906 20.929688 6.554688 21.542969 Z M 6.554688 21.542969 " fill-opacity="1" fill-rule="nonzero"/></g><g clip-path="url(#389d757ef1)"><path fill="#fbf3ee" d="M 23.957031 26.964844 C 23.957031 26.324219 23.707031 25.722656 23.257812 25.269531 C 22.324219 24.335938 20.804688 24.335938 19.871094 25.269531 L 19.320312 25.820312 L 18.796875 25.296875 C 18.34375 24.839844 17.710938 24.582031 17.0625 24.582031 C 17.054688 24.582031 17.046875 24.582031 17.042969 24.582031 C 16.394531 24.585938 15.792969 24.84375 15.351562 25.304688 C 14.460938 26.226562 14.46875 27.714844 15.359375 28.632812 L 17.539062 31.507812 C 17.6875 31.703125 17.96875 31.742188 18.164062 31.59375 C 18.363281 31.445312 18.398438 31.164062 18.25 30.96875 L 16.054688 28.070312 C 16.042969 28.054688 16.027344 28.039062 16.015625 28.023438 C 15.441406 27.449219 15.429688 26.507812 15.992188 25.921875 C 16.269531 25.636719 16.644531 25.476562 17.050781 25.472656 C 17.46875 25.46875 17.875 25.636719 18.167969 25.925781 L 19.003906 26.765625 C 19.179688 26.9375 19.460938 26.9375 19.636719 26.765625 L 20.5 25.898438 C 21.085938 25.316406 22.039062 25.3125 22.625 25.898438 C 22.910156 26.183594 23.066406 26.5625 23.066406 26.960938 C 23.066406 27.363281 22.910156 27.742188 22.625 28.023438 C 22.613281 28.039062 22.601562 28.050781 22.589844 28.0625 L 19.554688 31.882812 C 19.242188 32.222656 18.796875 32.417969 18.332031 32.417969 L 8.027344 32.417969 L 8.027344 24.042969 C 8.027344 23.796875 7.828125 23.597656 7.582031 23.597656 C 7.335938 23.597656 7.136719 23.796875 7.136719 24.042969 L 7.136719 32.863281 C 7.136719 33.109375 7.335938 33.308594 7.582031 33.308594 L 18.332031 33.308594 C 19.050781 33.308594 19.742188 33.003906 20.226562 32.472656 C 20.230469 32.464844 20.238281 32.457031 20.242188 32.449219 L 23.273438 28.636719 C 23.714844 28.1875 23.957031 27.59375 23.957031 26.964844 Z M 23.957031 26.964844 " fill-opacity="1" fill-rule="nonzero"/></g></svg>