<svg xmlns="http://www.w3.org/2000/svg" xmlns:xlink="http://www.w3.org/1999/xlink" width="50" zoomAndPan="magnify" viewBox="0 0 37.5 37.499999" height="50" preserveAspectRatio="xMidYMid meet" version="1.0"><defs><filter x="0%" y="0%" width="100%" height="100%" id="9dd3709a72"><feColorMatrix values="0 0 0 0 1 0 0 0 0 1 0 0 0 0 1 0 0 0 1 0" color-interpolation-filters="sRGB"/></filter><clipPath id="ac4ad4f2be"><path d="M 4.542969 6.65625 L 32.667969 6.65625 L 32.667969 30.339844 L 4.542969 30.339844 Z M 4.542969 6.65625 " clip-rule="nonzero"/></clipPath><mask id="7c32969c1b"><g filter="url(#9dd3709a72)"><rect x="-3.75" width="45" fill="#000000" y="-3.75" height="44.999999" fill-opacity="0.983"/></g></mask><clipPath id="26800c9681"><path d="M 0.542969 0.65625 L 28.449219 0.65625 L 28.449219 24.339844 L 0.542969 24.339844 Z M 0.542969 0.65625 " clip-rule="nonzero"/></clipPath><clipPath id="01b6861d7d"><rect x="0" width="29" y="0" height="25"/></clipPath></defs><g clip-path="url(#ac4ad4f2be)"><g mask="url(#7c32969c1b)"><g transform="matrix(1, 0, 0, 1, 4, 6)"><g clip-path="url(#01b6861d7d)"><g clip-path="url(#26800c9681)"><path fill="#fbf3ee" d="M 6.953125 0.664062 C 7.300781 0.660156 7.648438 0.671875 7.996094 0.695312 C 8.292969 0.738281 8.59375 0.785156 8.890625 0.828125 C 9.527344 0.9375 10.125 1.160156 10.675781 1.496094 C 11.253906 1.839844 11.808594 2.214844 12.34375 2.621094 C 12.597656 2.816406 12.839844 3.027344 13.0625 3.257812 C 13.5625 3.8125 14.039062 4.386719 14.5 4.972656 C 14.957031 4.386719 15.4375 3.8125 15.933594 3.257812 C 16.214844 2.972656 16.519531 2.714844 16.847656 2.480469 C 17.324219 2.128906 17.816406 1.800781 18.324219 1.496094 C 18.765625 1.234375 19.230469 1.035156 19.726562 0.90625 C 19.835938 0.878906 19.941406 0.859375 20.050781 0.839844 C 20.273438 0.808594 20.496094 0.773438 20.71875 0.734375 C 21.097656 0.679688 21.476562 0.65625 21.859375 0.664062 C 21.976562 0.664062 22.089844 0.667969 22.207031 0.675781 C 22.625 0.722656 23.039062 0.792969 23.445312 0.886719 C 23.84375 1 24.214844 1.167969 24.5625 1.390625 C 24.945312 1.636719 25.300781 1.914062 25.632812 2.226562 C 25.84375 2.4375 26.039062 2.664062 26.21875 2.902344 C 26.828125 3.734375 27.332031 4.632812 27.726562 5.59375 C 27.945312 6.195312 28.109375 6.8125 28.210938 7.445312 C 28.453125 8.695312 28.4375 9.941406 28.164062 11.183594 C 27.964844 11.988281 27.671875 12.753906 27.277344 13.484375 C 27.007812 14 26.722656 14.503906 26.417969 15 C 26.109375 15.457031 25.78125 15.902344 25.4375 16.335938 C 25.050781 16.796875 24.660156 17.25 24.261719 17.699219 C 23.628906 18.351562 22.960938 18.964844 22.253906 19.535156 C 21.949219 19.769531 21.636719 19.996094 21.320312 20.210938 C 20.835938 20.535156 20.347656 20.855469 19.859375 21.175781 C 18.71875 22.007812 17.515625 22.757812 16.253906 23.417969 C 16.011719 23.570312 15.761719 23.710938 15.5 23.835938 C 15.277344 24.019531 15.035156 24.164062 14.765625 24.277344 C 14.558594 24.339844 14.355469 24.328125 14.15625 24.246094 C 13.921875 24.132812 13.703125 23.996094 13.5 23.835938 C 13.035156 23.574219 12.566406 23.320312 12.097656 23.074219 C 11.070312 22.5 10.085938 21.867188 9.140625 21.175781 C 8.484375 20.753906 7.839844 20.324219 7.203125 19.878906 C 6.390625 19.273438 5.628906 18.609375 4.917969 17.890625 C 4.398438 17.324219 3.894531 16.742188 3.410156 16.144531 C 3.09375 15.738281 2.796875 15.324219 2.515625 14.894531 C 2.058594 14.140625 1.648438 13.363281 1.285156 12.558594 C 0.765625 11.3125 0.550781 10.019531 0.636719 8.675781 C 0.699219 7.839844 0.839844 7.019531 1.0625 6.214844 C 1.25 5.605469 1.492188 5.023438 1.796875 4.46875 C 2.179688 3.75 2.625 3.078125 3.144531 2.457031 C 3.675781 1.894531 4.285156 1.441406 4.980469 1.097656 C 5.300781 0.949219 5.632812 0.847656 5.980469 0.789062 C 6.304688 0.738281 6.628906 0.695312 6.953125 0.664062 Z M 12.019531 7.625 C 12.644531 7.597656 13.117188 7.851562 13.4375 8.390625 C 13.730469 8.957031 13.71875 9.515625 13.398438 10.066406 C 13.066406 10.542969 12.613281 10.722656 12.039062 10.617188 C 11.726562 10.53125 11.46875 10.363281 11.261719 10.117188 C 10.925781 9.671875 10.789062 9.171875 10.859375 8.617188 C 10.960938 8.160156 11.234375 7.851562 11.675781 7.695312 C 11.789062 7.664062 11.90625 7.640625 12.019531 7.625 Z M 16.65625 7.625 C 16.945312 7.605469 17.226562 7.652344 17.496094 7.765625 C 17.84375 7.949219 18.058594 8.230469 18.140625 8.617188 C 18.214844 9.207031 18.0625 9.730469 17.679688 10.183594 C 17.246094 10.636719 16.734375 10.757812 16.140625 10.539062 C 15.800781 10.371094 15.570312 10.109375 15.449219 9.753906 C 15.257812 9.164062 15.355469 8.625 15.734375 8.140625 C 15.980469 7.855469 16.285156 7.683594 16.65625 7.625 Z M 8.984375 10.335938 C 9.386719 10.304688 9.730469 10.433594 10.015625 10.710938 C 10.253906 10.949219 10.410156 11.234375 10.488281 11.566406 C 10.558594 11.914062 10.488281 12.222656 10.269531 12.5 C 9.964844 12.800781 9.605469 12.902344 9.1875 12.808594 C 8.730469 12.683594 8.417969 12.398438 8.246094 11.957031 C 8.136719 11.683594 8.105469 11.40625 8.152344 11.117188 C 8.257812 10.671875 8.539062 10.414062 8.984375 10.335938 Z M 19.71875 10.335938 C 20.078125 10.292969 20.378906 10.402344 20.628906 10.660156 C 20.792969 10.863281 20.875 11.09375 20.871094 11.359375 C 20.855469 11.832031 20.679688 12.230469 20.335938 12.550781 C 19.925781 12.871094 19.480469 12.925781 19.003906 12.714844 C 18.664062 12.515625 18.492188 12.214844 18.488281 11.816406 C 18.527344 11.242188 18.789062 10.800781 19.269531 10.492188 C 19.410156 10.414062 19.558594 10.359375 19.71875 10.335938 Z M 14.320312 11.726562 C 14.714844 11.722656 15.109375 11.753906 15.5 11.828125 C 16.140625 11.992188 16.722656 12.265625 17.257812 12.648438 C 17.820312 13.109375 18.296875 13.648438 18.683594 14.265625 C 18.964844 14.761719 19.078125 15.292969 19.027344 15.859375 C 18.933594 16.253906 18.746094 16.597656 18.457031 16.882812 C 18.328125 16.996094 18.195312 17.105469 18.058594 17.207031 C 17.75 17.402344 17.417969 17.527344 17.054688 17.578125 C 16.71875 17.636719 16.382812 17.660156 16.039062 17.652344 C 15.667969 17.644531 15.296875 17.636719 14.917969 17.621094 C 14.640625 17.636719 14.359375 17.636719 14.078125 17.621094 C 13.835938 17.625 13.59375 17.636719 13.351562 17.652344 C 13.035156 17.65625 12.71875 17.648438 12.402344 17.636719 C 12.011719 17.609375 11.632812 17.527344 11.265625 17.390625 C 10.972656 17.238281 10.710938 17.050781 10.480469 16.820312 C 10.25 16.570312 10.089844 16.28125 9.992188 15.953125 C 9.925781 15.601562 9.945312 15.253906 10.050781 14.914062 C 10.148438 14.554688 10.3125 14.226562 10.535156 13.929688 C 10.832031 13.523438 11.167969 13.152344 11.542969 12.808594 C 12.023438 12.40625 12.570312 12.113281 13.175781 11.921875 C 13.394531 11.84375 13.617188 11.792969 13.851562 11.769531 C 14.007812 11.753906 14.164062 11.742188 14.320312 11.726562 Z M 14.320312 11.726562 " fill-opacity="1" fill-rule="evenodd"/></g></g></g></g></g></svg>