<svg xmlns="http://www.w3.org/2000/svg" xmlns:xlink="http://www.w3.org/1999/xlink" width="50" zoomAndPan="magnify" viewBox="0 0 37.5 37.499999" height="50" preserveAspectRatio="xMidYMid meet" version="1.0"><defs><clipPath id="eea3e86282"><path d="M 9 4.230469 L 16 4.230469 L 16 14 L 9 14 Z M 9 4.230469 " clip-rule="nonzero"/></clipPath><clipPath id="468010c871"><path d="M 9 4.230469 L 16 4.230469 L 16 12 L 9 12 Z M 9 4.230469 " clip-rule="nonzero"/></clipPath><clipPath id="2beaaa500d"><path d="M 17 4.230469 L 22 4.230469 L 22 14 L 17 14 Z M 17 4.230469 " clip-rule="nonzero"/></clipPath><clipPath id="4d3b90dac3"><path d="M 16 4.230469 L 22 4.230469 L 22 12 L 16 12 Z M 16 4.230469 " clip-rule="nonzero"/></clipPath><clipPath id="5bcda6519a"><path d="M 10 10 L 28 10 L 28 33.09375 L 10 33.09375 Z M 10 10 " clip-rule="nonzero"/></clipPath><clipPath id="85e123f906"><path d="M 26 24 L 28.492188 24 L 28.492188 31 L 26 31 Z M 26 24 " clip-rule="nonzero"/></clipPath><clipPath id="81f0deba65"><path d="M 9 4.230469 L 16 4.230469 L 16 14 L 9 14 Z M 9 4.230469 " clip-rule="nonzero"/></clipPath><clipPath id="d611df5fce"><path d="M 9 4.230469 L 15 4.230469 L 15 12 L 9 12 Z M 9 4.230469 " clip-rule="nonzero"/></clipPath><clipPath id="155c0f9bba"><path d="M 16 4.230469 L 23 4.230469 L 23 14 L 16 14 Z M 16 4.230469 " clip-rule="nonzero"/></clipPath><clipPath id="4b4f0d6e17"><path d="M 17 4.230469 L 22 4.230469 L 22 12 L 17 12 Z M 17 4.230469 " clip-rule="nonzero"/></clipPath><clipPath id="26642a051a"><path d="M 12 26 L 20 26 L 20 33.09375 L 12 33.09375 Z M 12 26 " clip-rule="nonzero"/></clipPath><clipPath id="97308c0503"><path d="M 26 24 L 28.492188 24 L 28.492188 31 L 26 31 Z M 26 24 " clip-rule="nonzero"/></clipPath></defs><g clip-path="url(#eea3e86282)"><path fill="#f6cfd0" d="M 12.367188 13.394531 C 12.222656 13.765625 12.140625 13.117188 11.871094 12.367188 C 11.667969 11.796875 11.25 11.316406 10.976562 11.089844 C 10.070312 10.332031 8.507812 5.0625 9.84375 4.714844 C 11.179688 4.363281 12.480469 6.859375 13.683594 7.675781 C 14.890625 8.496094 15.132812 10.945312 15.132812 10.945312 C 15.132812 10.945312 13.304688 11.003906 12.367188 13.394531 Z M 12.367188 13.394531 " fill-opacity="1" fill-rule="nonzero"/></g><g clip-path="url(#468010c871)"><path fill="#b2b2b2" d="M 9.84375 4.714844 C 9.84375 4.714844 11.148438 5.4375 11.917969 6.511719 C 12.6875 7.585938 13.28125 8.820312 13.441406 9.335938 C 13.601562 9.851562 13.992188 11.351562 13.992188 11.351562 C 13.992188 11.351562 14.5 10.988281 15.128906 10.945312 C 15.128906 10.945312 14.742188 8.738281 14.214844 8.207031 C 13.683594 7.675781 12.917969 6.996094 12.703125 6.753906 C 12.492188 6.515625 10.828125 4.234375 9.84375 4.714844 Z M 9.84375 4.714844 " fill-opacity="1" fill-rule="nonzero"/></g><g clip-path="url(#2beaaa500d)"><path fill="#f6cfd0" d="M 17.253906 11.28125 C 17.253906 11.28125 18.566406 11.765625 18.996094 13.378906 C 18.996094 13.378906 19.523438 12.117188 19.722656 11.835938 C 19.921875 11.550781 20.46875 10.988281 20.5625 10.839844 C 20.660156 10.6875 21.355469 9.402344 21.609375 8.277344 C 21.863281 7.152344 22.046875 6.210938 21.980469 5.761719 C 21.914062 5.308594 21.882812 4.847656 21.570312 4.777344 C 21.253906 4.703125 20.777344 5.15625 20.777344 5.15625 C 20.777344 5.15625 19.589844 6.050781 19.160156 6.773438 C 18.730469 7.496094 17.960938 9.09375 17.960938 9.09375 Z M 17.253906 11.28125 " fill-opacity="1" fill-rule="nonzero"/></g><g clip-path="url(#4d3b90dac3)"><path fill="#b2b2b2" d="M 16.101562 10.929688 L 17.3125 11.351562 C 17.3125 11.351562 17.574219 10.242188 17.664062 9.957031 C 17.753906 9.667969 18.480469 7.769531 18.996094 7.074219 C 19.511719 6.378906 20.101562 5.695312 20.527344 5.355469 C 20.953125 5.011719 21.460938 4.734375 21.460938 4.734375 C 21.460938 4.734375 21.074219 4.613281 20.722656 4.804688 C 20.367188 4.996094 19.773438 5.457031 19.386719 5.890625 C 19 6.324219 18.449219 6.957031 18.242188 7.15625 C 18.035156 7.359375 17.542969 7.714844 17.367188 7.90625 C 17.195312 8.097656 16.746094 8.703125 16.574219 9.242188 C 16.402344 9.785156 16.101562 10.929688 16.101562 10.929688 Z M 16.101562 10.929688 " fill-opacity="1" fill-rule="nonzero"/></g><g clip-path="url(#5bcda6519a)"><path fill="#b2b2b2" d="M 15.601562 10.90625 C 15.601562 10.90625 14.152344 10.894531 13.445312 11.703125 C 12.734375 12.507812 12.433594 13.121094 12.230469 13.660156 C 12.027344 14.199219 11.582031 15.238281 11.480469 15.714844 C 11.382812 16.195312 11.195312 17.09375 11.421875 17.671875 C 11.648438 18.25 11.949219 18.671875 11.949219 18.671875 C 11.949219 18.671875 11.695312 18.953125 11.535156 19.1875 C 11.378906 19.417969 10.910156 20.160156 10.742188 20.847656 C 10.578125 21.535156 10.667969 21.839844 10.667969 21.839844 L 11.296875 21.230469 C 11.296875 21.230469 11.078125 21.804688 11.03125 22.058594 C 10.984375 22.308594 10.941406 22.679688 10.941406 22.679688 L 11.320312 22.496094 C 11.320312 22.496094 11.167969 24.152344 11.597656 25.054688 C 12.027344 25.960938 12.550781 26.71875 12.617188 26.796875 C 12.683594 26.875 12.613281 27.210938 12.675781 27.53125 C 12.742188 27.851562 12.96875 28.488281 13.058594 28.765625 C 13.148438 29.039062 13.257812 29.273438 13.121094 29.570312 C 12.980469 29.867188 12.851562 30.113281 12.203125 30.414062 C 11.550781 30.714844 11.4375 31.167969 11.480469 31.40625 C 11.527344 31.644531 11.628906 32.222656 12.492188 32.34375 C 12.492188 32.34375 12.769531 33.035156 13.355469 33.035156 C 13.945312 33.035156 14.945312 33.078125 15.332031 32.976562 C 15.714844 32.875 16.324219 32.691406 16.671875 32.34375 C 17.023438 31.992188 17.886719 30.6875 17.886719 30.6875 L 18.480469 30.945312 C 18.480469 30.945312 19.148438 31.230469 19.910156 31.191406 C 19.910156 31.191406 19.789062 32.324219 20.324219 32.441406 C 20.863281 32.558594 21.867188 32.625 22.503906 32.546875 C 23.140625 32.464844 25.625 32.019531 26.316406 31.191406 C 26.316406 31.191406 26.707031 30.550781 26.871094 29.570312 C 27.039062 28.589844 27.386719 26.132812 26.726562 24.414062 C 26.726562 24.414062 26.296875 23.109375 25.742188 22.46875 L 26.050781 22.574219 C 26.050781 22.574219 25.21875 21.035156 24.671875 20.414062 C 24.125 19.789062 22.527344 17.964844 20.398438 17.675781 C 20.398438 17.675781 20.472656 17.03125 20.246094 16.441406 C 20.015625 15.855469 19.496094 14.9375 19.421875 14.789062 C 19.351562 14.644531 19.085938 13.671875 18.996094 13.378906 C 18.902344 13.082031 18.128906 10.886719 15.601562 10.90625 Z M 15.601562 10.90625 " fill-opacity="1" fill-rule="nonzero"/></g><path fill="#e0e0e0" d="M 15.558594 15.140625 L 14.507812 15.5625 C 13.960938 15.78125 13.628906 16.320312 13.691406 16.886719 L 13.707031 17.046875 C 13.777344 17.703125 14.355469 18.199219 15.046875 18.199219 C 15.308594 18.199219 15.566406 18.125 15.785156 17.988281 L 16.363281 17.597656 C 16.398438 17.574219 16.445312 17.574219 16.480469 17.597656 L 17.054688 17.988281 C 17.277344 18.125 17.535156 18.199219 17.796875 18.199219 C 18.488281 18.199219 19.0625 17.703125 19.136719 17.046875 L 19.152344 16.886719 C 19.214844 16.320312 18.882812 15.78125 18.335938 15.5625 L 17.28125 15.140625 Z M 15.558594 15.140625 " fill-opacity="1" fill-rule="nonzero"/><path fill="#f6cfd0" d="M 15.691406 14.679688 L 15.882812 14.472656 C 16.148438 14.179688 16.632812 14.160156 16.910156 14.433594 L 17.121094 14.640625 C 17.351562 14.863281 17.390625 15.199219 17.21875 15.464844 L 17.0625 15.710938 C 16.941406 15.898438 16.726562 16.019531 16.488281 16.039062 C 16.242188 16.054688 16.007812 15.957031 15.867188 15.78125 L 15.667969 15.542969 C 15.457031 15.289062 15.46875 14.933594 15.691406 14.679688 Z M 15.691406 14.679688 " fill-opacity="1" fill-rule="nonzero"/><g clip-path="url(#85e123f906)"><path fill="#e0e0e0" d="M 26.835938 24.773438 C 26.835938 24.773438 28.492188 25.371094 28.019531 27.519531 C 27.984375 27.664062 27.984375 27.816406 28.015625 27.964844 C 28.097656 28.371094 28.101562 29.367188 26.660156 30.460938 C 26.660156 30.457031 27.632812 26.664062 26.835938 24.773438 Z M 26.835938 24.773438 " fill-opacity="1" fill-rule="nonzero"/></g><path fill="#000000" d="M 14.445312 14.503906 C 14.445312 14.519531 14.433594 14.53125 14.414062 14.53125 C 14.144531 14.535156 13.9375 14.621094 13.863281 14.65625 C 13.847656 14.664062 13.828125 14.65625 13.820312 14.640625 C 13.753906 14.433594 13.382812 13.273438 13.878906 13.226562 C 14.375 13.179688 14.4375 14.304688 14.445312 14.503906 Z M 18.152344 13.238281 C 17.664062 13.132812 17.660156 14.351562 17.664062 14.570312 C 17.664062 14.585938 17.679688 14.601562 17.695312 14.597656 C 17.777344 14.585938 18.003906 14.566406 18.257812 14.648438 C 18.273438 14.652344 18.292969 14.644531 18.296875 14.628906 C 18.351562 14.4375 18.640625 13.347656 18.152344 13.238281 Z M 18.152344 13.238281 " fill-opacity="1" fill-rule="nonzero"/><path fill="#000000" d="M 17.546875 19.714844 L 17.527344 19.59375 C 18.933594 19.390625 19.820312 18.910156 20.167969 18.160156 C 20.371094 17.714844 20.5625 16.730469 19.535156 15.109375 C 19.265625 14.6875 19.089844 14.230469 19.011719 13.75 L 19.007812 13.738281 C 18.882812 12.953125 18.464844 12.242188 17.839844 11.734375 C 17.214844 11.222656 16.417969 10.953125 15.601562 10.96875 C 14.917969 10.980469 14.261719 11.191406 13.707031 11.578125 C 13.152344 11.964844 12.730469 12.5 12.496094 13.121094 L 11.855469 14.832031 L 11.851562 14.835938 C 11.851562 14.839844 11.628906 15.304688 11.492188 15.941406 C 11.367188 16.523438 11.292969 17.371094 11.640625 18.101562 C 11.976562 18.804688 12.648438 19.285156 13.632812 19.527344 L 13.601562 19.648438 C 12.578125 19.398438 11.878906 18.894531 11.527344 18.152344 C 11.328125 17.730469 11.140625 17 11.371094 15.910156 C 11.507812 15.28125 11.71875 14.824219 11.742188 14.78125 L 12.382812 13.082031 C 12.625 12.433594 13.058594 11.878906 13.636719 11.476562 C 14.210938 11.078125 14.890625 10.859375 15.601562 10.84375 C 16.445312 10.828125 17.269531 11.109375 17.917969 11.636719 C 18.570312 12.167969 19 12.90625 19.132812 13.71875 L 19.136719 13.730469 C 19.210938 14.195312 19.382812 14.636719 19.640625 15.042969 C 19.859375 15.386719 20.15625 15.917969 20.324219 16.492188 C 20.519531 17.15625 20.503906 17.734375 20.28125 18.214844 C 19.914062 19 18.996094 19.507812 17.546875 19.714844 Z M 17.546875 19.714844 " fill-opacity="1" fill-rule="nonzero"/><path fill="#000000" d="M 16.433594 16.101562 C 16.191406 16.101562 15.964844 16 15.816406 15.824219 L 15.621094 15.582031 C 15.390625 15.300781 15.398438 14.914062 15.648438 14.640625 L 15.839844 14.429688 C 15.976562 14.277344 16.179688 14.183594 16.394531 14.179688 C 16.609375 14.171875 16.8125 14.25 16.957031 14.390625 L 17.167969 14.597656 C 17.417969 14.84375 17.464844 15.203125 17.273438 15.496094 L 17.117188 15.742188 C 16.988281 15.949219 16.753906 16.082031 16.492188 16.097656 C 16.472656 16.101562 16.453125 16.101562 16.433594 16.101562 Z M 16.417969 14.304688 C 16.410156 14.304688 16.402344 14.304688 16.394531 14.304688 C 16.214844 14.308594 16.042969 14.386719 15.929688 14.511719 L 15.738281 14.722656 C 15.53125 14.949219 15.523438 15.269531 15.714844 15.503906 L 15.910156 15.742188 C 16.042969 15.90625 16.253906 15.992188 16.480469 15.976562 C 16.699219 15.960938 16.894531 15.851562 17.007812 15.679688 L 17.164062 15.433594 C 17.320312 15.191406 17.285156 14.890625 17.078125 14.6875 L 16.867188 14.480469 C 16.753906 14.367188 16.589844 14.304688 16.417969 14.304688 Z M 16.417969 14.304688 " fill-opacity="1" fill-rule="nonzero"/><path fill="#000000" d="M 17.796875 18.265625 C 17.523438 18.265625 17.253906 18.1875 17.023438 18.039062 L 17.019531 18.039062 L 16.445312 17.648438 C 16.429688 17.640625 16.410156 17.640625 16.394531 17.648438 L 15.820312 18.039062 C 15.589844 18.1875 15.320312 18.261719 15.042969 18.261719 C 14.320312 18.261719 13.71875 17.742188 13.644531 17.050781 L 13.628906 16.890625 C 13.597656 16.601562 13.660156 16.3125 13.816406 16.0625 C 13.972656 15.808594 14.203125 15.617188 14.484375 15.503906 L 15.535156 15.082031 L 15.582031 15.195312 L 14.53125 15.617188 C 14.277344 15.71875 14.066406 15.898438 13.921875 16.125 C 13.78125 16.355469 13.722656 16.613281 13.753906 16.878906 L 13.769531 17.039062 C 13.835938 17.664062 14.386719 18.136719 15.046875 18.136719 C 15.296875 18.136719 15.542969 18.066406 15.753906 17.933594 L 16.324219 17.542969 C 16.382812 17.503906 16.460938 17.503906 16.515625 17.542969 L 17.089844 17.933594 C 17.300781 18.066406 17.542969 18.136719 17.796875 18.136719 C 18.457031 18.136719 19.003906 17.664062 19.074219 17.039062 L 19.089844 16.878906 C 19.121094 16.613281 19.058594 16.351562 18.917969 16.125 C 18.777344 15.898438 18.566406 15.722656 18.3125 15.617188 L 17.257812 15.195312 L 17.304688 15.082031 L 18.359375 15.503906 C 18.636719 15.617188 18.871094 15.808594 19.023438 16.0625 C 19.179688 16.3125 19.246094 16.597656 19.214844 16.890625 L 19.199219 17.050781 C 19.121094 17.742188 18.519531 18.265625 17.796875 18.265625 Z M 17.796875 18.265625 " fill-opacity="1" fill-rule="nonzero"/><path fill="#000000" d="M 16.359375 16.039062 L 16.484375 16.039062 L 16.484375 17.578125 L 16.359375 17.578125 Z M 16.359375 16.039062 " fill-opacity="1" fill-rule="nonzero"/><g clip-path="url(#81f0deba65)"><path fill="#000000" d="M 12.207031 13.554688 C 12.152344 12.894531 11.574219 11.667969 10.9375 11.136719 C 10.574219 10.835938 10.082031 9.792969 9.714844 8.546875 C 9.316406 7.195312 9.167969 5.984375 9.324219 5.308594 C 9.40625 4.9375 9.578125 4.71875 9.828125 4.652344 C 10.734375 4.417969 11.59375 5.398438 12.425781 6.34375 C 12.875 6.855469 13.300781 7.34375 13.71875 7.625 C 14.230469 7.972656 14.636719 8.636719 14.917969 9.601562 C 15.128906 10.3125 15.191406 10.933594 15.191406 10.941406 L 15.070312 10.953125 C 15.070312 10.945312 15.007812 10.335938 14.800781 9.632812 C 14.457031 8.46875 13.984375 7.957031 13.648438 7.726562 C 13.21875 7.433594 12.789062 6.945312 12.332031 6.425781 C 11.523438 5.507812 10.691406 4.558594 9.863281 4.773438 C 9.660156 4.824219 9.519531 5.015625 9.445312 5.335938 C 9.296875 5.992188 9.441406 7.179688 9.835938 8.511719 C 10.195312 9.734375 10.671875 10.753906 11.015625 11.042969 C 11.320312 11.296875 11.632812 11.71875 11.894531 12.230469 C 12.140625 12.707031 12.300781 13.199219 12.332031 13.542969 Z M 12.207031 13.554688 " fill-opacity="1" fill-rule="nonzero"/></g><g clip-path="url(#d611df5fce)"><path fill="#000000" d="M 13.933594 11.339844 C 13.691406 10.140625 13.324219 9.046875 12.84375 8.09375 C 12.457031 7.332031 11.996094 6.652344 11.476562 6.082031 C 11.011719 5.570312 10.585938 5.242188 10.308594 5.054688 C 10.011719 4.855469 9.824219 4.773438 9.820312 4.769531 L 9.871094 4.65625 C 9.902344 4.671875 10.664062 5.003906 11.566406 6 C 12.097656 6.578125 12.5625 7.265625 12.953125 8.039062 C 13.441406 9.003906 13.8125 10.105469 14.054688 11.320312 Z M 13.933594 11.339844 " fill-opacity="1" fill-rule="nonzero"/></g><g clip-path="url(#155c0f9bba)"><path fill="#000000" d="M 19.097656 13.578125 L 18.972656 13.566406 C 19 13.21875 19.164062 12.730469 19.410156 12.25 C 19.671875 11.738281 19.984375 11.316406 20.289062 11.0625 C 20.632812 10.773438 21.109375 9.757812 21.46875 8.535156 C 21.863281 7.199219 22.007812 6.011719 21.859375 5.355469 C 21.785156 5.035156 21.648438 4.847656 21.441406 4.796875 C 20.613281 4.578125 19.78125 5.53125 18.972656 6.445312 C 18.519531 6.964844 18.089844 7.457031 17.65625 7.746094 C 17.320312 7.976562 16.847656 8.492188 16.507812 9.652344 C 16.300781 10.355469 16.238281 10.96875 16.238281 10.972656 L 16.113281 10.960938 C 16.113281 10.953125 16.175781 10.335938 16.386719 9.621094 C 16.671875 8.65625 17.074219 7.992188 17.585938 7.644531 C 18.003906 7.363281 18.429688 6.878906 18.882812 6.363281 C 19.710938 5.417969 20.574219 4.441406 21.476562 4.675781 C 21.730469 4.738281 21.898438 4.960938 21.980469 5.328125 C 22.132812 6.003906 21.988281 7.214844 21.589844 8.566406 C 21.222656 9.8125 20.730469 10.855469 20.367188 11.15625 C 19.730469 11.691406 19.152344 12.917969 19.097656 13.578125 Z M 19.097656 13.578125 " fill-opacity="1" fill-rule="nonzero"/></g><g clip-path="url(#4b4f0d6e17)"><path fill="#000000" d="M 17.371094 11.363281 L 17.25 11.339844 C 17.496094 10.128906 17.863281 9.023438 18.351562 8.058594 C 18.742188 7.285156 19.210938 6.597656 19.738281 6.015625 C 20.640625 5.027344 21.402344 4.691406 21.4375 4.675781 L 21.484375 4.789062 C 21.484375 4.789062 21.289062 4.875 20.992188 5.078125 C 20.714844 5.261719 20.289062 5.59375 19.828125 6.105469 C 19.304688 6.675781 18.847656 7.351562 18.464844 8.117188 C 17.980469 9.074219 17.613281 10.164062 17.371094 11.363281 Z M 21.484375 4.792969 L 21.460938 4.734375 Z M 21.484375 4.792969 " fill-opacity="1" fill-rule="nonzero"/></g><path fill="#000000" d="M 15.101562 28.863281 C 14.066406 28.289062 13.222656 27.617188 12.589844 26.859375 C 12.074219 26.246094 11.695312 25.570312 11.460938 24.859375 C 11.113281 23.789062 11.1875 22.921875 11.238281 22.59375 L 10.984375 22.742188 C 10.960938 22.753906 10.933594 22.753906 10.910156 22.742188 C 10.886719 22.726562 10.871094 22.703125 10.875 22.675781 C 10.902344 22.199219 11.03125 21.757812 11.128906 21.484375 L 10.726562 21.886719 C 10.707031 21.910156 10.679688 21.914062 10.652344 21.90625 C 10.625 21.894531 10.605469 21.871094 10.601562 21.84375 C 10.554688 21.367188 10.613281 20.589844 11.1875 19.605469 C 11.527344 19.023438 11.886719 18.644531 11.898438 18.628906 L 11.988281 18.714844 C 11.988281 18.71875 11.625 19.097656 11.292969 19.671875 C 10.78125 20.550781 10.691406 21.253906 10.71875 21.71875 L 11.289062 21.148438 L 11.332031 21.175781 C 11.355469 21.195312 11.363281 21.222656 11.355469 21.253906 L 11.351562 21.253906 C 11.339844 21.28125 11.066406 21.890625 11.003906 22.585938 L 11.273438 22.429688 C 11.296875 22.414062 11.328125 22.417969 11.351562 22.433594 C 11.375 22.449219 11.386719 22.476562 11.378906 22.503906 C 11.34375 22.679688 11.1875 23.613281 11.578125 24.820312 C 11.808594 25.515625 12.179688 26.175781 12.683594 26.78125 C 13.308594 27.523438 14.144531 28.1875 15.164062 28.75 Z M 10.921875 22.632812 C 10.921875 22.632812 10.921875 22.632812 10.921875 22.636719 Z M 10.921875 22.632812 " fill-opacity="1" fill-rule="nonzero"/><path fill="#000000" d="M 21.605469 32.648438 C 21.300781 32.648438 20.980469 32.632812 20.644531 32.601562 C 20.226562 32.5625 19.898438 32.246094 19.84375 31.835938 C 19.785156 31.410156 19.816406 30.792969 20.273438 30.25 C 20.875 29.539062 22.039062 29.144531 23.742188 29.074219 L 23.746094 29.195312 C 22.082031 29.265625 20.945312 29.648438 20.367188 30.328125 C 19.9375 30.839844 19.914062 31.421875 19.964844 31.820312 C 20.011719 32.175781 20.296875 32.445312 20.660156 32.480469 C 23.203125 32.714844 25.011719 31.957031 25.863281 31.484375 C 26.199219 31.300781 26.449219 30.980469 26.554688 30.617188 C 26.90625 29.363281 27.078125 28.164062 27.074219 27.054688 C 27.066406 26.15625 26.945312 25.3125 26.703125 24.546875 C 26.289062 23.210938 25.664062 22.542969 25.59375 22.472656 C 25.574219 22.453125 25.570312 22.417969 25.585938 22.390625 C 25.605469 22.367188 25.636719 22.355469 25.664062 22.367188 L 25.933594 22.476562 C 25.410156 21.46875 24.804688 20.59375 24.125 19.878906 C 23.558594 19.28125 22.945312 18.792969 22.300781 18.425781 C 21.421875 17.921875 20.652344 17.753906 20.367188 17.734375 L 20.375 17.609375 C 20.410156 17.613281 21.230469 17.675781 22.355469 18.316406 C 23.011719 18.6875 23.636719 19.1875 24.210938 19.789062 C 24.925781 20.546875 25.566406 21.46875 26.105469 22.542969 C 26.121094 22.570312 26.117188 22.601562 26.09375 22.625 C 26.074219 22.644531 26.042969 22.652344 26.015625 22.640625 L 25.84375 22.574219 C 26.082031 22.871094 26.511719 23.507812 26.824219 24.507812 C 27.0625 25.289062 27.191406 26.144531 27.195312 27.050781 C 27.203125 28.175781 27.027344 29.382812 26.671875 30.648438 C 26.558594 31.046875 26.285156 31.390625 25.921875 31.59375 C 25.171875 32.007812 23.679688 32.648438 21.605469 32.648438 Z M 26.0625 22.527344 Z M 25.683594 22.382812 C 25.683594 22.382812 25.683594 22.386719 25.683594 22.386719 C 25.683594 22.386719 25.683594 22.386719 25.683594 22.382812 Z M 25.683594 22.382812 " fill-opacity="1" fill-rule="nonzero"/><g clip-path="url(#26642a051a)"><path fill="#000000" d="M 14.742188 33.09375 L 13.542969 33.09375 C 12.929688 33.09375 12.429688 32.621094 12.429688 32.046875 C 12.429688 31.644531 12.675781 31.273438 13.058594 31.101562 L 13.398438 30.949219 C 14.125 30.621094 14.691406 30.019531 14.945312 29.300781 L 15.765625 26.992188 L 15.882812 27.035156 L 15.0625 29.339844 C 14.796875 30.09375 14.207031 30.722656 13.445312 31.0625 L 13.109375 31.214844 C 12.773438 31.367188 12.550781 31.695312 12.550781 32.046875 C 12.550781 32.554688 12.996094 32.96875 13.539062 32.96875 L 14.738281 32.96875 C 15.226562 32.96875 15.710938 32.851562 16.136719 32.625 C 16.5625 32.402344 16.917969 32.074219 17.171875 31.683594 L 19.390625 28.234375 L 19.496094 28.300781 L 17.277344 31.746094 C 17.011719 32.15625 16.640625 32.5 16.195312 32.730469 C 15.753906 32.96875 15.25 33.09375 14.742188 33.09375 Z M 14.742188 33.09375 " fill-opacity="1" fill-rule="nonzero"/></g><path fill="#000000" d="M 12.546875 32.402344 C 12.242188 32.402344 11.957031 32.292969 11.746094 32.097656 C 11.535156 31.898438 11.417969 31.636719 11.417969 31.355469 C 11.417969 30.953125 11.664062 30.582031 12.050781 30.410156 L 12.386719 30.257812 C 12.425781 30.238281 12.472656 30.21875 12.515625 30.195312 C 12.765625 30.070312 12.953125 29.851562 13.042969 29.589844 C 13.136719 29.324219 13.121094 29.039062 13 28.789062 C 12.519531 27.78125 12.550781 26.832031 12.550781 26.789062 L 12.675781 26.792969 C 12.675781 26.804688 12.644531 27.753906 13.113281 28.734375 C 13.246094 29.015625 13.265625 29.332031 13.160156 29.628906 C 13.058594 29.921875 12.851562 30.164062 12.570312 30.304688 C 12.523438 30.328125 12.476562 30.351562 12.433594 30.371094 L 12.097656 30.519531 C 11.761719 30.675781 11.542969 31 11.542969 31.351562 C 11.542969 31.597656 11.644531 31.828125 11.832031 32.003906 C 12.019531 32.179688 12.273438 32.277344 12.542969 32.277344 L 12.542969 32.402344 Z M 12.546875 32.402344 " fill-opacity="1" fill-rule="nonzero"/><path fill="#000000" d="M 14.78125 25.308594 C 14.738281 25.308594 14.703125 25.296875 14.683594 25.273438 C 14.667969 25.253906 14.660156 25.234375 14.667969 25.214844 C 14.667969 25.195312 14.683594 25.179688 14.699219 25.167969 C 14.859375 25.082031 14.960938 24.960938 15.023438 24.84375 C 14.917969 24.949219 14.789062 25.039062 14.640625 25.105469 C 14.417969 25.210938 14.207031 25.234375 14.128906 25.234375 C 14.125 25.234375 14.125 25.234375 14.125 25.234375 C 14.089844 25.234375 14.0625 25.210938 14.058594 25.179688 C 14.050781 25.148438 14.066406 25.117188 14.097656 25.105469 C 14.535156 24.929688 14.628906 24.402344 14.628906 24.394531 L 14.753906 24.414062 C 14.75 24.4375 14.683594 24.8125 14.394531 25.066406 C 14.640625 24.996094 14.976562 24.824219 15.136719 24.457031 L 15.160156 24.40625 L 15.269531 24.4375 L 15.257812 24.488281 C 15.253906 24.546875 15.21875 24.886719 14.953125 25.136719 C 15.09375 25.078125 15.300781 24.957031 15.535156 24.761719 C 15.992188 24.378906 17.019531 23.292969 16.710938 21.488281 L 16.832031 21.46875 C 16.992188 22.398438 16.820312 23.289062 16.335938 24.042969 C 15.9375 24.660156 15.410156 25.0625 15.054688 25.230469 C 14.9375 25.28125 14.847656 25.308594 14.78125 25.308594 Z M 14.761719 25.277344 Z M 14.761719 25.277344 " fill-opacity="1" fill-rule="nonzero"/><path fill="#000000" d="M 12.644531 32.441406 L 12.519531 32.441406 C 12.519531 32.132812 12.691406 31.871094 13.019531 31.6875 C 13.257812 31.546875 13.496094 31.5 13.503906 31.496094 L 13.53125 31.617188 L 13.519531 31.558594 L 13.53125 31.617188 C 13.519531 31.621094 12.644531 31.808594 12.644531 32.441406 Z M 12.644531 32.441406 " fill-opacity="1" fill-rule="nonzero"/><path fill="#000000" d="M 21.289062 32.585938 L 21.164062 32.585938 C 21.164062 31.992188 21.480469 31.628906 21.746094 31.425781 C 22.03125 31.210938 22.3125 31.132812 22.324219 31.128906 L 22.355469 31.25 L 22.339844 31.1875 L 22.355469 31.25 C 22.355469 31.25 22.085938 31.324219 21.816406 31.527344 C 21.464844 31.796875 21.289062 32.152344 21.289062 32.585938 Z M 21.289062 32.585938 " fill-opacity="1" fill-rule="nonzero"/><path fill="#000000" d="M 20.175781 32.257812 L 20.050781 32.257812 C 20.050781 31.667969 20.367188 31.300781 20.628906 31.097656 C 20.914062 30.882812 21.199219 30.804688 21.207031 30.800781 L 21.242188 30.921875 L 21.226562 30.859375 L 21.242188 30.921875 C 21.238281 30.921875 20.96875 30.996094 20.703125 31.199219 C 20.351562 31.46875 20.175781 31.824219 20.175781 32.257812 Z M 20.175781 32.257812 " fill-opacity="1" fill-rule="nonzero"/><path fill="#000000" d="M 13.109375 32.878906 L 12.984375 32.878906 C 12.984375 32.574219 13.160156 32.3125 13.484375 32.128906 C 13.726562 31.988281 13.960938 31.941406 13.972656 31.9375 L 14 32.058594 L 13.984375 32 L 14 32.058594 C 13.988281 32.0625 13.109375 32.246094 13.109375 32.878906 Z M 13.109375 32.878906 " fill-opacity="1" fill-rule="nonzero"/><path fill="#000000" d="M 19.714844 31.257812 C 19.191406 31.257812 18.566406 31.085938 17.859375 30.742188 L 17.914062 30.632812 C 18.695312 31.007812 19.363281 31.175781 19.902344 31.128906 L 19.914062 31.25 C 19.851562 31.257812 19.78125 31.257812 19.714844 31.257812 Z M 19.714844 31.257812 " fill-opacity="1" fill-rule="nonzero"/><g clip-path="url(#97308c0503)"><path fill="#000000" d="M 26.699219 30.507812 L 26.621094 30.410156 C 27.238281 29.941406 27.652344 29.441406 27.851562 28.929688 C 28.015625 28.515625 27.996094 28.183594 27.957031 27.976562 C 27.921875 27.816406 27.925781 27.65625 27.957031 27.503906 C 28.0625 27.023438 28.070312 26.585938 27.972656 26.199219 C 27.894531 25.890625 27.753906 25.613281 27.554688 25.378906 C 27.214844 24.980469 26.816406 24.832031 26.8125 24.832031 L 26.855469 24.714844 C 26.871094 24.71875 27.289062 24.875 27.652344 25.300781 C 27.863281 25.550781 28.011719 25.839844 28.09375 26.167969 C 28.195312 26.570312 28.191406 27.03125 28.078125 27.53125 C 28.050781 27.667969 28.046875 27.808594 28.078125 27.949219 C 28.125 28.171875 28.140625 28.53125 27.96875 28.972656 C 27.761719 29.507812 27.335938 30.023438 26.699219 30.507812 Z M 26.699219 30.507812 " fill-opacity="1" fill-rule="nonzero"/></g><path fill="#000000" d="M 14.492188 16.511719 C 14.480469 16.5 13.289062 15.410156 12.367188 15.421875 L 12.367188 15.34375 C 12.765625 15.339844 13.257812 15.527344 13.820312 15.898438 C 14.238281 16.171875 14.542969 16.453125 14.546875 16.457031 Z M 14.492188 16.511719 " fill-opacity="1" fill-rule="nonzero"/><path fill="#000000" d="M 12.609375 16.835938 L 13.988281 16.703125 L 13.996094 16.78125 L 12.617188 16.914062 Z M 12.609375 16.835938 " fill-opacity="1" fill-rule="nonzero"/><path fill="#000000" d="M 13.042969 18.167969 L 12.988281 18.117188 C 13.554688 17.550781 14.335938 17.371094 14.34375 17.371094 L 14.363281 17.445312 C 14.355469 17.445312 13.59375 17.625 13.042969 18.167969 Z M 13.042969 18.167969 " fill-opacity="1" fill-rule="nonzero"/><path fill="#000000" d="M 18.269531 16.511719 L 18.21875 16.457031 C 18.21875 16.453125 18.527344 16.171875 18.945312 15.898438 C 19.503906 15.527344 19.996094 15.339844 20.394531 15.34375 L 20.394531 15.421875 C 20.390625 15.421875 20.386719 15.421875 20.382812 15.421875 C 19.464844 15.421875 18.28125 16.5 18.269531 16.511719 Z M 18.269531 16.511719 " fill-opacity="1" fill-rule="nonzero"/><path fill="#000000" d="M 18.765625 16.78125 L 18.773438 16.703125 L 20.152344 16.835938 L 20.144531 16.914062 Z M 18.765625 16.78125 " fill-opacity="1" fill-rule="nonzero"/><path fill="#000000" d="M 19.71875 18.167969 C 19.167969 17.621094 18.40625 17.445312 18.398438 17.445312 L 18.414062 17.367188 C 18.421875 17.371094 19.207031 17.550781 19.773438 18.113281 Z M 19.71875 18.167969 " fill-opacity="1" fill-rule="nonzero"/></svg>