<svg xmlns="http://www.w3.org/2000/svg" xmlns:xlink="http://www.w3.org/1999/xlink" width="50" zoomAndPan="magnify" viewBox="0 0 37.5 37.499999" height="50" preserveAspectRatio="xMidYMid meet" version="1.0"><defs><clipPath id="66617dd8c6"><path d="M 1 5.359375 L 36.75 5.359375 L 36.75 32 L 1 32 Z M 1 5.359375 " clip-rule="nonzero"/></clipPath><clipPath id="3916aa72dc"><path d="M 1 5.359375 L 36.75 5.359375 L 36.75 32 L 1 32 Z M 1 5.359375 " clip-rule="nonzero"/></clipPath><clipPath id="42a3d88f80"><path d="M 0.484375 6 L 24 6 L 24 24 L 0.484375 24 Z M 0.484375 6 " clip-rule="nonzero"/></clipPath></defs><g clip-path="url(#66617dd8c6)"><path fill="#fbf3ee" d="M 1.890625 7.617188 C 1.730469 7.128906 1.613281 6.59375 1.773438 6.105469 C 1.808594 5.996094 1.867188 5.882812 1.976562 5.84375 C 2.089844 5.808594 2.207031 5.863281 2.3125 5.917969 C 3.300781 6.4375 4.324219 6.875 5.382812 7.226562 C 5.878906 7.140625 6.375 7.167969 6.859375 7.195312 L 8.269531 7.273438 C 8.992188 7.003906 9.683594 6.667969 10.339844 6.265625 C 10.839844 5.960938 11.335938 5.609375 11.914062 5.515625 C 12.101562 5.484375 12.335938 5.5 12.425781 5.667969 C 12.472656 5.761719 12.464844 5.875 12.449219 5.980469 C 12.277344 7.386719 12.101562 8.8125 11.574219 10.128906 C 11.4375 10.277344 11.4375 10.46875 11.488281 10.628906 C 11.542969 10.792969 11.644531 10.9375 11.746094 11.074219 C 11.847656 11.214844 11.949219 11.355469 12.007812 11.515625 C 12.28125 11.429688 12.574219 11.464844 12.839844 11.542969 C 13.109375 11.617188 13.363281 11.734375 13.636719 11.800781 C 13.90625 11.867188 14.203125 11.878906 14.453125 11.757812 C 16.285156 11.078125 17.851562 9.816406 19.714844 9.316406 C 20.5 9.09375 21.296875 9.015625 22.113281 9.078125 C 22.664062 9.054688 23.171875 9.027344 23.679688 8.996094 C 23.863281 8.988281 24.050781 8.980469 24.222656 9.039062 C 24.390625 9.101562 24.546875 9.25 24.554688 9.429688 C 24.953125 9.3125 25.425781 9.359375 25.875 9.449219 C 26.324219 9.542969 26.765625 9.675781 27.21875 9.730469 C 27.324219 9.742188 27.433594 9.753906 27.535156 9.789062 C 27.640625 9.824219 27.734375 9.894531 27.777344 9.992188 C 27.816406 10.09375 27.789062 10.226562 27.695312 10.277344 C 28.890625 10.421875 30.019531 10.878906 31.035156 11.488281 C 32.054688 12.097656 32.976562 12.851562 33.878906 13.621094 C 33.941406 13.628906 34.019531 13.707031 34.066406 13.804688 C 34.113281 13.902344 34.125 14.019531 34.078125 14.117188 C 34.03125 14.214844 33.914062 14.28125 33.808594 14.253906 C 35.449219 16.203125 36.355469 18.746094 36.316406 21.285156 C 36.308594 21.453125 36.308594 21.554688 36.304688 21.65625 C 36.300781 21.753906 36.285156 21.859375 36.234375 21.945312 C 36.183594 22.03125 36.085938 22.101562 35.984375 22.089844 C 35.988281 23.199219 35.59375 24.300781 34.917969 25.1875 C 34.894531 25.238281 34.867188 25.289062 34.832031 25.332031 C 34.800781 25.371094 34.765625 25.40625 34.71875 25.433594 C 34.671875 25.464844 34.621094 25.46875 34.570312 25.445312 C 34.523438 25.421875 34.496094 25.359375 34.519531 25.316406 C 34.175781 25.984375 33.609375 26.570312 32.917969 26.90625 C 32.867188 26.929688 32.8125 26.957031 32.753906 26.953125 C 32.695312 26.945312 32.636719 26.90625 32.636719 26.847656 C 31.933594 27.417969 31.003906 27.738281 30.089844 27.699219 C 29.675781 28.066406 29.066406 28.316406 28.457031 28.3125 C 28.390625 28.3125 28.316406 28.308594 28.257812 28.269531 C 28.203125 28.230469 28.171875 28.140625 28.214844 28.089844 C 27.878906 28.128906 27.5625 28.054688 27.246094 28.011719 C 26.503906 27.914062 25.773438 27.96875 25.054688 28.183594 C 24.847656 28.28125 24.636719 28.355469 24.417969 28.410156 C 24.378906 28.421875 24.339844 28.425781 24.296875 28.414062 C 24.257812 28.40625 24.222656 28.367188 24.226562 28.324219 C 24.082031 28.445312 23.941406 28.574219 23.816406 28.714844 C 23.773438 28.765625 23.722656 28.808594 23.664062 28.839844 C 23.605469 28.871094 23.53125 28.875 23.476562 28.832031 C 23.433594 29.015625 23.421875 29.199219 23.433594 29.386719 C 23.507812 29.664062 23.582031 29.921875 23.554688 30.179688 C 23.523438 30.472656 23.359375 30.742188 23.140625 30.9375 C 22.921875 31.132812 22.652344 31.261719 22.371094 31.351562 C 22.023438 31.464844 21.640625 31.519531 21.292969 31.40625 C 21.15625 31.527344 21.019531 31.5625 20.886719 31.546875 C 20.75 31.535156 20.632812 31.476562 20.539062 31.371094 C 20.296875 31.527344 20.015625 31.527344 19.773438 31.445312 C 19.527344 31.363281 19.316406 31.210938 19.117188 31.050781 C 19.03125 31.085938 18.972656 31.105469 18.914062 31.105469 C 18.859375 31.101562 18.804688 31.085938 18.753906 31.0625 C 18.503906 30.957031 18.320312 30.78125 18.199219 30.539062 C 18.082031 30.605469 17.929688 30.589844 17.800781 30.527344 C 17.671875 30.46875 17.5625 30.367188 17.464844 30.265625 C 16.890625 29.652344 16.621094 28.929688 16.652344 28.089844 C 16.609375 28.105469 16.554688 28.046875 16.527344 27.984375 C 16.507812 27.914062 16.5 27.84375 16.507812 27.773438 C 16.523438 27.484375 16.601562 27.214844 16.742188 26.964844 C 16.632812 26.910156 16.589844 26.777344 16.613281 26.667969 C 16.636719 26.554688 16.710938 26.464844 16.792969 26.382812 C 17.011719 26.167969 17.289062 26.023438 17.558594 25.878906 C 17.660156 25.640625 17.828125 25.445312 18.027344 25.292969 C 18.222656 25.144531 18.449219 25.03125 18.679688 24.9375 C 19.359375 24.652344 20.070312 24.488281 20.8125 24.453125 C 20.863281 24.371094 20.941406 24.332031 21.015625 24.3125 C 21.71875 24.105469 22.484375 24.421875 23.199219 24.269531 C 23.144531 24.1875 23.15625 24.121094 23.234375 24.070312 C 23.292969 24.035156 23.363281 24.035156 23.433594 24.039062 C 24.683594 24.09375 25.867188 23.832031 26.976562 23.25 C 25.691406 23.492188 24.375 23.59375 23.074219 23.5 C 22.746094 23.644531 22.457031 23.671875 22.203125 23.597656 C 21.933594 23.515625 21.730469 23.351562 21.597656 23.101562 C 21.394531 23.097656 21.195312 23.046875 21.074219 22.917969 C 20.945312 22.773438 20.917969 22.605469 20.996094 22.425781 C 20.917969 22.269531 20.917969 22.128906 20.972656 22.011719 C 21.027344 21.886719 21.121094 21.804688 21.25 21.761719 C 21.277344 21.707031 21.300781 21.648438 21.324219 21.589844 C 20.933594 21.40625 20.585938 21.074219 20.402344 20.667969 C 19.882812 20.929688 19.28125 20.929688 18.710938 20.917969 C 18.105469 20.910156 17.496094 20.898438 16.898438 20.808594 C 16.796875 20.792969 16.691406 20.773438 16.613281 20.707031 C 16.539062 20.640625 16.507812 20.511719 16.574219 20.4375 C 16.0625 20.402344 15.570312 20.285156 15.097656 20.089844 C 14.890625 20.171875 14.746094 20.253906 14.589844 20.308594 C 14.507812 20.34375 14.453125 20.414062 14.382812 20.46875 C 14.3125 20.523438 14.210938 20.554688 14.132812 20.507812 C 14.042969 20.441406 14.03125 20.367188 14.105469 20.285156 C 13.925781 20.382812 13.734375 20.425781 13.527344 20.414062 C 12.316406 20.761719 11.039062 20.914062 9.777344 20.832031 C 9.449219 20.964844 9.109375 21.058594 8.757812 21.113281 C 8.675781 21.132812 8.59375 21.136719 8.507812 21.125 C 8.425781 21.113281 8.34375 21.070312 8.304688 20.996094 C 8.113281 21.035156 7.941406 21.074219 7.769531 21.089844 C 7.722656 21.09375 7.671875 21.09375 7.632812 21.070312 C 7.578125 21.035156 7.566406 20.964844 7.554688 20.90625 C 7.542969 20.878906 4.664062 21.265625 4.664062 21.265625 L 3.148438 21.4375 C 2.972656 21.457031 2.789062 21.472656 2.617188 21.433594 C 2.445312 21.390625 2.277344 21.273438 2.226562 21.101562 C 2.0625 21.164062 1.917969 21.132812 1.824219 21.042969 C 1.71875 20.945312 1.683594 20.824219 1.71875 20.6875 C 1.625 20.667969 1.5625 20.558594 1.550781 20.453125 C 1.542969 20.347656 1.582031 20.246094 1.617188 20.148438 C 1.644531 20.0625 1.679688 19.984375 1.726562 19.90625 C 1.769531 19.828125 1.835938 19.773438 1.921875 19.738281 C 1.683594 19.613281 1.554688 19.292969 1.597656 19 C 1.640625 18.710938 1.828125 18.457031 2.058594 18.277344 C 2.292969 18.101562 2.570312 17.992188 2.851562 17.898438 C 2.847656 17.90625 2.902344 17.746094 2.902344 17.746094 C 2.800781 17.710938 2.765625 17.589844 2.757812 17.484375 C 2.738281 17.257812 2.785156 17.050781 2.890625 16.851562 C 2.691406 16.847656 2.644531 16.636719 2.695312 16.480469 C 2.746094 16.320312 2.855469 16.191406 2.929688 16.039062 C 3.03125 15.828125 3.050781 15.585938 3.019531 15.351562 C 2.992188 15.117188 2.921875 14.894531 2.847656 14.671875 C 2.84375 14.734375 2.769531 14.769531 2.714844 14.75 C 2.660156 14.730469 2.625 14.679688 2.597656 14.628906 C 2.464844 14.390625 2.386719 14.140625 2.363281 13.875 C 2.335938 13.972656 2.261719 13.957031 2.226562 13.914062 C 2.191406 13.871094 2.1875 13.8125 2.183594 13.753906 C 2.148438 12.96875 2.214844 12.191406 2.386719 11.421875 C 2.160156 10.699219 2.125 9.886719 2.273438 9.105469 C 2.367188 8.601562 2.050781 8.105469 1.890625 7.617188 Z M 1.890625 7.617188 " fill-opacity="1" fill-rule="nonzero"/><path fill="#694541" d="M 7.742188 10.523438 C 7.644531 10.203125 7.355469 9.964844 7.28125 9.640625 C 7.25 9.511719 7.257812 9.375 7.238281 9.242188 C 7.222656 9.113281 7.179688 8.976562 7.074219 8.890625 C 6.972656 8.808594 6.796875 8.808594 6.722656 8.917969 C 6.640625 9.152344 6.511719 9.355469 6.339844 9.53125 C 6.203125 9.664062 6.039062 9.777344 5.9375 9.941406 C 5.785156 10.1875 5.796875 10.496094 5.832031 10.785156 C 5.863281 11.070312 5.910156 11.371094 5.808594 11.640625 C 5.707031 11.910156 5.476562 12.105469 5.234375 12.257812 C 4.988281 12.40625 4.722656 12.519531 4.492188 12.691406 C 4.257812 12.859375 4.058594 13.097656 4.027344 13.382812 C 4.011719 13.507812 4.027344 13.632812 4.011719 13.753906 C 4 13.875 3.941406 14.003906 3.824219 14.054688 C 3.664062 14.121094 3.488281 14 3.375 13.867188 C 3.105469 13.550781 2.972656 13.1875 2.972656 12.773438 C 2.910156 12.835938 2.785156 12.8125 2.730469 12.734375 C 2.675781 12.660156 2.675781 12.558594 2.6875 12.46875 C 2.726562 12.175781 2.867188 11.902344 3.058594 11.675781 C 3.003906 11.742188 2.855469 11.726562 2.820312 11.644531 C 2.78125 11.558594 2.824219 11.464844 2.875 11.386719 C 3.097656 11.050781 3.488281 10.863281 3.863281 10.714844 C 4.242188 10.570312 4.644531 10.441406 4.945312 10.171875 C 5.191406 9.949219 5.355469 9.652344 5.5 9.351562 C 5.644531 9.054688 5.777344 8.746094 5.984375 8.484375 C 6.1875 8.226562 6.480469 8.015625 6.808594 7.988281 C 7.171875 7.960938 7.519531 8.160156 7.765625 8.421875 C 8.011719 8.6875 8.179688 9.015625 8.355469 9.332031 C 8.535156 9.648438 8.738281 9.960938 9.03125 10.171875 C 9.273438 10.359375 9.601562 10.425781 9.921875 10.480469 C 10.242188 10.539062 10.570312 10.585938 10.863281 10.726562 C 11.160156 10.871094 11.417969 11.125 11.476562 11.445312 L 11.324219 11.425781 C 11.46875 11.5625 11.542969 11.777344 11.574219 11.996094 C 11.601562 12.210938 11.582031 12.429688 11.5625 12.644531 C 11.554688 12.71875 11.542969 12.800781 11.488281 12.855469 C 11.433594 12.90625 11.320312 12.898438 11.300781 12.824219 C 11.09375 13.199219 10.828125 13.523438 10.496094 13.742188 C 10.394531 13.808594 10.265625 13.863281 10.160156 13.808594 C 10.074219 13.761719 10.039062 13.65625 10.039062 13.558594 C 10.039062 13.457031 10.066406 13.363281 10.066406 13.265625 C 10.074219 12.945312 9.820312 12.671875 9.53125 12.535156 C 9.242188 12.402344 8.917969 12.367188 8.605469 12.289062 C 8.296875 12.210938 7.980469 12.074219 7.808594 11.804688 C 7.550781 11.402344 7.859375 10.914062 7.742188 10.523438 Z M 2.195312 10.800781 C 2.183594 10.898438 2.171875 10.992188 2.195312 11.085938 C 2.222656 11.175781 2.296875 11.261719 2.390625 11.269531 C 2.5 11.277344 2.59375 11.1875 2.621094 11.085938 C 2.652344 10.980469 2.632812 10.871094 2.613281 10.769531 C 2.59375 10.664062 2.574219 10.554688 2.59375 10.449219 C 2.636719 10.265625 2.804688 10.144531 2.960938 10.042969 C 3.042969 9.992188 3.136719 9.914062 3.109375 9.820312 C 3.082031 9.742188 2.984375 9.71875 2.914062 9.667969 C 2.808594 9.585938 2.785156 9.484375 2.84375 9.363281 C 2.898438 9.261719 3.027344 9.207031 3.125 9.203125 C 3.382812 9.195312 3.574219 9.078125 3.703125 8.855469 C 3.625 8.800781 3.535156 8.773438 3.449219 8.730469 C 3.367188 8.683594 3.285156 8.621094 3.253906 8.53125 C 3.226562 8.441406 3.269531 8.324219 3.359375 8.304688 C 3.496094 8.273438 3.613281 8.449219 3.730469 8.417969 C 3.652344 8.363281 3.574219 8.304688 3.527344 8.222656 C 3.480469 8.140625 3.46875 8.027344 3.53125 7.957031 C 3.574219 7.902344 3.652344 7.878906 3.722656 7.882812 C 3.792969 7.890625 3.863281 7.910156 3.929688 7.9375 C 4.105469 8.011719 4.277344 8.089844 4.46875 8.113281 C 4.65625 8.136719 4.863281 8.085938 4.980469 7.9375 C 4.910156 7.890625 4.835938 7.84375 4.800781 7.765625 C 4.769531 7.691406 4.796875 7.582031 4.875 7.558594 C 4.914062 7.550781 4.949219 7.554688 4.984375 7.566406 C 5.097656 7.59375 5.210938 7.621094 5.289062 7.683594 C 5.566406 7.761719 5.859375 7.648438 6.117188 7.519531 C 6.375 7.390625 6.644531 7.246094 6.933594 7.238281 C 6.496094 7.113281 6.023438 7.230469 5.566406 7.207031 C 5.007812 7.175781 4.488281 6.933594 3.984375 6.691406 L 2.382812 5.933594 C 2.242188 5.867188 2.078125 5.796875 1.929688 5.851562 C 1.742188 5.921875 1.675781 6.148438 1.664062 6.347656 C 1.617188 7.097656 1.992188 7.804688 2.144531 8.542969 C 2.300781 9.277344 2.289062 10.042969 2.195312 10.800781 Z M 7.601562 7.25 C 7.699219 7.53125 8.003906 7.703125 8.300781 7.734375 C 8.597656 7.765625 8.894531 7.679688 9.179688 7.585938 C 9.273438 7.558594 9.378906 7.523438 9.476562 7.550781 C 9.574219 7.582031 9.648438 7.699219 9.597656 7.785156 C 9.578125 7.816406 9.542969 7.847656 9.546875 7.882812 C 9.554688 7.929688 9.609375 7.945312 9.652344 7.949219 C 9.871094 7.964844 10.078125 7.925781 10.269531 7.824219 C 10.359375 7.78125 10.441406 7.722656 10.535156 7.695312 C 10.628906 7.667969 10.742188 7.675781 10.808594 7.75 C 10.890625 7.832031 10.878906 7.96875 10.84375 8.078125 C 10.777344 8.285156 10.660156 8.460938 10.492188 8.601562 C 10.445312 8.644531 10.394531 8.679688 10.359375 8.734375 C 10.324219 8.785156 10.308594 8.855469 10.339844 8.910156 C 10.40625 9.015625 10.566406 8.964844 10.6875 8.984375 C 10.804688 9.003906 10.875 9.074219 10.902344 9.1875 C 10.925781 9.304688 10.890625 9.398438 10.792969 9.464844 C 10.738281 9.503906 10.65625 9.535156 10.660156 9.605469 C 10.660156 9.667969 10.738281 9.699219 10.792969 9.734375 C 10.964844 9.839844 10.976562 10.078125 11.039062 10.269531 C 11.125 10.535156 11.347656 10.75 11.589844 10.816406 C 11.488281 10.667969 11.464844 10.476562 11.488281 10.296875 C 11.507812 10.121094 11.574219 9.949219 11.632812 9.78125 C 12.058594 8.582031 12.332031 7.351562 12.449219 6.085938 C 12.476562 6.007812 12.492188 5.921875 12.496094 5.839844 C 12.5 5.75 12.476562 5.671875 12.421875 5.601562 C 12.347656 5.511719 12.222656 5.484375 12.105469 5.484375 C 11.8125 5.476562 11.535156 5.613281 11.269531 5.75 C 10.371094 6.355469 9.414062 6.847656 8.398438 7.222656 C 8.132812 7.25 7.867188 7.257812 7.601562 7.25 Z M 32.023438 20.976562 C 31.773438 21.671875 31.046875 22.085938 30.339844 22.308594 C 29.632812 22.527344 28.875 22.625 28.214844 22.957031 C 27.449219 22.921875 26.75 23.351562 26.03125 23.617188 C 25.222656 23.917969 24.351562 24.015625 23.492188 23.996094 C 23.394531 23.992188 23.292969 23.988281 23.203125 24.027344 C 23.117188 24.066406 23.042969 24.160156 23.019531 24.339844 C 22.160156 24.152344 21.25 24.191406 20.363281 24.460938 C 19.625 24.621094 18.914062 24.875 18.238281 25.214844 C 17.914062 25.375 17.589844 25.574219 17.4375 25.882812 C 17.164062 26.046875 16.933594 26.253906 16.738281 26.503906 C 16.660156 26.605469 16.589844 26.710938 16.570312 26.835938 C 16.550781 26.957031 16.59375 27.097656 16.707031 27.132812 C 16.566406 27.378906 16.492188 27.640625 16.484375 27.921875 C 16.480469 27.984375 16.488281 28.042969 16.507812 28.105469 C 16.527344 28.164062 16.570312 28.214844 16.628906 28.207031 C 16.640625 28.796875 16.785156 29.351562 17.070312 29.871094 C 17.179688 30.074219 17.3125 30.269531 17.488281 30.417969 C 17.691406 30.589844 17.921875 30.671875 18.1875 30.667969 C 18.386719 30.871094 18.617188 31.023438 18.886719 31.117188 C 18.933594 31.140625 18.984375 31.148438 19.039062 31.140625 C 19.109375 31.128906 19.140625 31.085938 19.136719 31.011719 C 19.335938 31.171875 19.542969 31.332031 19.78125 31.425781 C 20.019531 31.523438 20.300781 31.546875 20.488281 31.398438 C 20.59375 31.535156 20.773438 31.59375 20.945312 31.59375 C 21.117188 31.59375 21.285156 31.542969 21.5 31.519531 C 21.847656 31.492188 22.199219 31.441406 22.527344 31.3125 C 22.851562 31.183594 23.15625 30.976562 23.347656 30.6875 C 23.542969 30.394531 23.617188 30.015625 23.511719 29.707031 C 23.414062 29.457031 23.378906 29.203125 23.410156 28.9375 C 23.40625 28.972656 23.445312 29.003906 23.480469 29.003906 C 23.515625 29 23.546875 28.988281 23.574219 28.964844 C 23.691406 28.886719 23.78125 28.789062 23.855469 28.667969 C 24.171875 28.613281 24.476562 28.46875 24.761719 28.265625 C 25.808594 27.921875 26.949219 27.875 28.066406 28.128906 C 28.121094 28.238281 28.230469 28.304688 28.347656 28.332031 C 28.464844 28.355469 28.585938 28.34375 28.703125 28.324219 C 29.230469 28.238281 29.738281 28.027344 30.140625 27.6875 C 31.050781 27.703125 31.859375 27.429688 32.566406 26.863281 C 32.617188 26.949219 32.730469 26.980469 32.824219 26.964844 C 32.921875 26.953125 33.011719 26.898438 33.09375 26.84375 C 33.648438 26.480469 34.117188 25.984375 34.503906 25.398438 C 34.503906 25.457031 34.578125 25.496094 34.636719 25.484375 C 34.695312 25.46875 34.738281 25.425781 34.777344 25.378906 C 34.90625 25.230469 35.015625 25.0625 35.078125 24.882812 C 35.636719 24.078125 35.960938 23.117188 36.03125 22.128906 C 36.058594 22.175781 36.128906 22.179688 36.175781 22.148438 C 36.222656 22.121094 36.246094 22.066406 36.265625 22.015625 C 36.320312 21.847656 36.320312 21.667969 36.308594 21.40625 L 35.964844 18.574219 C 35.949219 18.441406 35.929688 18.3125 35.875 18.191406 C 35.820312 18.074219 35.71875 17.96875 35.589844 17.945312 C 35.464844 17.921875 35.3125 18 35.292969 18.128906 C 35.273438 18.222656 35.316406 18.34375 35.242188 18.402344 C 35.148438 18.472656 35.03125 18.359375 34.96875 18.261719 C 34.78125 17.972656 34.554688 17.726562 34.285156 17.519531 C 34.183594 17.441406 34.074219 17.367188 33.949219 17.347656 C 33.824219 17.328125 33.679688 17.371094 33.617188 17.484375 C 33.574219 17.5625 33.578125 17.65625 33.582031 17.746094 C 33.601562 18.078125 33.621094 18.410156 33.601562 18.742188 C 33.570312 18.914062 33.46875 19 33.289062 19 C 33.140625 18.992188 33.015625 18.878906 32.882812 18.808594 C 32.761719 18.75 32.601562 18.726562 32.5 18.820312 C 32.433594 18.882812 32.410156 18.980469 32.421875 19.070312 C 32.433594 19.15625 32.464844 19.230469 32.515625 19.300781 C 32.480469 19.363281 32.398438 19.371094 32.324219 19.367188 C 32.253906 19.363281 32.171875 19.359375 32.125 19.410156 C 32.050781 19.484375 32.105469 19.609375 32.15625 19.703125 C 32.382812 20.15625 32.289062 20.75 32.023438 20.976562 Z M 32.023438 20.976562 " fill-opacity="1" fill-rule="nonzero"/></g><path fill="#a6a6a6" d="M 4.550781 11.460938 C 4.53125 11.355469 4.542969 11.257812 4.585938 11.160156 C 4.671875 10.964844 4.816406 10.839844 5.023438 10.789062 C 5.21875 10.746094 5.4375 10.8125 5.566406 10.960938 C 5.695312 11.113281 5.722656 11.34375 5.625 11.519531 C 5.546875 11.660156 5.390625 11.75 5.226562 11.777344 C 5.066406 11.800781 4.898438 11.765625 4.75 11.695312 C 4.644531 11.652344 4.578125 11.574219 4.550781 11.460938 Z M 8.148438 11.6875 C 8.367188 11.769531 8.578125 11.753906 8.777344 11.632812 C 8.910156 11.554688 9.015625 11.417969 9.019531 11.265625 C 9.027344 11.113281 8.925781 10.96875 8.792969 10.886719 C 8.636719 10.789062 8.46875 10.769531 8.292969 10.828125 C 8.113281 10.890625 7.996094 11.007812 7.9375 11.1875 C 7.882812 11.351562 7.90625 11.59375 8.148438 11.6875 Z M 8.148438 11.6875 " fill-opacity="1" fill-rule="nonzero"/><g clip-path="url(#3916aa72dc)"><path fill="#29272b" d="M 2.550781 13.757812 C 2.535156 14.070312 2.5625 14.238281 2.667969 14.453125 C 2.699219 14.554688 2.664062 14.652344 2.546875 14.636719 C 2.457031 14.625 2.398438 14.546875 2.367188 14.46875 C 2.289062 14.238281 2.277344 13.992188 2.296875 13.753906 C 2.316406 13.648438 2.3125 13.46875 2.457031 13.460938 C 2.644531 13.464844 2.539062 13.765625 2.550781 13.757812 Z M 3.1875 15.246094 C 3.132812 15.039062 2.988281 14.839844 2.941406 14.710938 C 2.871094 14.519531 2.886719 14.382812 2.859375 14.195312 C 2.84375 14.15625 2.820312 14.136719 2.78125 14.132812 C 2.730469 14.140625 2.699219 14.164062 2.691406 14.214844 C 2.667969 14.433594 2.699219 14.652344 2.777344 14.859375 C 2.910156 15.136719 3.058594 15.519531 2.929688 15.859375 C 2.914062 15.90625 2.628906 16.261719 2.570312 16.441406 C 2.535156 16.519531 2.5 16.613281 2.542969 16.695312 C 2.5625 16.734375 2.601562 16.773438 2.648438 16.757812 C 2.742188 16.726562 2.773438 16.625 2.804688 16.539062 C 2.730469 16.667969 3.027344 16.15625 2.953125 16.285156 C 3.078125 16.132812 3.210938 15.976562 3.234375 15.773438 C 3.257812 15.597656 3.226562 15.417969 3.1875 15.246094 Z M 3.027344 16.394531 C 3.011719 16.453125 2.988281 16.507812 2.960938 16.558594 C 2.816406 16.839844 2.570312 17.132812 2.613281 17.464844 C 2.628906 17.515625 2.660156 17.550781 2.707031 17.566406 C 2.753906 17.578125 2.796875 17.542969 2.820312 17.507812 C 2.894531 17.390625 2.894531 17.132812 2.964844 17.027344 C 3.015625 16.894531 3.417969 16.304688 3.117188 16.300781 C 3.089844 16.3125 3.035156 16.339844 3.027344 16.394531 Z M 12.167969 13.449219 C 12.265625 13.304688 12.273438 13.109375 12.292969 12.941406 C 12.300781 12.644531 12.171875 12.367188 12.074219 12.09375 C 12.039062 11.96875 11.964844 11.726562 11.796875 11.851562 C 11.738281 11.910156 11.757812 11.996094 11.785156 12.066406 C 11.886719 12.378906 12.023438 12.683594 12.011719 12.925781 C 12.019531 13.007812 11.960938 13.167969 11.941406 13.34375 C 11.945312 13.476562 12.066406 13.5625 12.167969 13.449219 Z M 11.746094 13.042969 C 11.703125 13.054688 11.675781 13.085938 11.664062 13.128906 C 11.660156 13.367188 11.664062 13.601562 11.648438 13.839844 C 11.648438 13.992188 11.566406 14.257812 11.511719 14.386719 C 11.503906 14.425781 11.503906 14.464844 11.515625 14.507812 C 11.523438 14.53125 11.539062 14.5625 11.566406 14.566406 C 11.625 14.570312 11.675781 14.535156 11.710938 14.492188 C 11.828125 14.277344 11.871094 14.019531 11.878906 13.773438 C 11.882812 13.558594 11.894531 13.339844 11.875 13.125 C 11.859375 13.074219 11.804688 13.027344 11.746094 13.042969 Z M 4.429688 17.875 C 4.496094 18.003906 4.75 18.121094 4.765625 17.929688 C 4.714844 17.722656 4.589844 17.730469 4.519531 17.542969 C 4.421875 17.332031 4.367188 16.972656 4.359375 16.632812 C 4.363281 16.539062 4.351562 16.382812 4.222656 16.410156 C 4.128906 16.4375 4.132812 16.539062 4.136719 16.617188 C 4.148438 17.046875 4.160156 17.519531 4.429688 17.875 Z M 4.984375 17.238281 C 4.976562 17.1875 4.921875 17.128906 4.871094 17.15625 C 4.820312 17.1875 4.820312 17.253906 4.832031 17.304688 C 4.902344 17.566406 5.140625 17.90625 5.4375 17.894531 C 5.46875 17.890625 5.496094 17.875 5.519531 17.851562 C 5.507812 17.804688 5.464844 17.769531 5.425781 17.738281 C 5.1875 17.652344 5.042969 17.484375 4.984375 17.238281 Z M 5.6875 17.28125 C 5.664062 17.238281 5.601562 17.203125 5.558594 17.242188 C 5.507812 17.300781 5.558594 17.371094 5.601562 17.417969 C 5.691406 17.511719 5.804688 17.667969 5.949219 17.601562 C 5.910156 17.46875 5.746094 17.367188 5.6875 17.28125 Z M 7.03125 16.964844 C 6.988281 16.921875 6.878906 16.679688 6.746094 16.828125 C 6.71875 16.882812 6.726562 16.933594 6.769531 16.980469 C 7.035156 17.375 7.488281 17.691406 7.980469 17.660156 C 8.050781 17.640625 8.128906 17.570312 8.058594 17.503906 C 7.957031 17.402344 7.808594 17.449219 7.625 17.378906 C 7.421875 17.335938 7.171875 17.132812 7.03125 16.964844 Z M 8.667969 17.503906 C 8.691406 17.476562 8.703125 17.449219 8.691406 17.414062 C 8.601562 17.222656 8.496094 17.285156 8.34375 17.167969 C 8.230469 17.125 8.125 16.898438 7.964844 17.074219 C 7.882812 17.246094 8.105469 17.34375 8.21875 17.421875 C 8.355469 17.484375 8.527344 17.617188 8.667969 17.503906 Z M 9.765625 16.917969 C 9.960938 17 10.328125 17.269531 10.472656 16.996094 C 10.476562 16.984375 10.476562 16.972656 10.476562 16.960938 C 10.464844 16.949219 10.449219 16.9375 10.433594 16.929688 C 10.164062 16.886719 9.789062 16.710938 9.542969 16.523438 C 9.457031 16.460938 9.335938 16.289062 9.234375 16.417969 C 9.214844 16.460938 9.214844 16.5 9.242188 16.539062 C 9.386719 16.699219 9.578125 16.8125 9.765625 16.917969 Z M 10.921875 16.8125 C 10.925781 16.652344 10.742188 16.597656 10.632812 16.511719 C 10.625 16.5 10.542969 16.425781 10.519531 16.421875 C 10.453125 16.390625 10.402344 16.402344 10.359375 16.464844 C 10.289062 16.609375 10.476562 16.691406 10.570312 16.761719 C 10.667969 16.824219 10.828125 16.933594 10.921875 16.8125 Z M 9.941406 14.136719 C 9.882812 14.101562 9.804688 14.109375 9.746094 14.140625 C 9.460938 14.296875 9.300781 14.390625 8.976562 14.445312 C 8.785156 14.460938 8.242188 14.503906 7.953125 14.640625 C 7.507812 14.976562 6.882812 15.152344 6.382812 14.832031 C 6.304688 14.777344 6.183594 14.699219 6.113281 14.808594 C 6.078125 14.875 6.113281 14.957031 6.175781 14.992188 C 6.367188 15.140625 6.585938 15.230469 6.828125 15.257812 C 7.167969 15.3125 7.523438 15.230469 7.824219 15.070312 C 7.988281 14.964844 8.097656 14.851562 8.152344 14.84375 C 8.597656 14.652344 9.253906 14.757812 9.769531 14.363281 C 9.851562 14.3125 9.949219 14.246094 9.941406 14.136719 Z M 4.070312 14.292969 C 4.035156 14.359375 4.050781 14.414062 4.113281 14.453125 C 4.5625 14.796875 5.175781 14.796875 5.714844 14.757812 C 5.78125 14.746094 5.855469 14.699219 5.875 14.628906 C 5.851562 14.601562 5.824219 14.582031 5.789062 14.574219 C 5.582031 14.546875 5.367188 14.578125 5.15625 14.558594 C 4.867188 14.539062 4.617188 14.503906 4.351562 14.347656 C 4.273438 14.308594 4.175781 14.167969 4.070312 14.292969 Z M 6.824219 13.648438 C 6.835938 13.628906 6.851562 13.613281 6.867188 13.59375 C 7.054688 13.773438 7.28125 13.855469 7.542969 13.832031 C 7.683594 13.820312 7.890625 13.789062 7.90625 13.613281 C 7.863281 13.441406 7.703125 13.511719 7.550781 13.535156 C 7.542969 13.539062 7.355469 13.542969 7.222656 13.5 C 7.140625 13.5 6.953125 13.28125 6.816406 13.3125 C 6.765625 13.320312 6.734375 13.351562 6.722656 13.398438 C 6.707031 13.40625 6.65625 13.503906 6.632812 13.511719 C 6.476562 13.652344 6.273438 13.65625 5.992188 13.542969 C 5.929688 13.527344 5.863281 13.558594 5.84375 13.617188 C 5.820312 13.773438 6.039062 13.804688 6.15625 13.835938 C 6.390625 13.875 6.660156 13.839844 6.824219 13.648438 Z M 8.71875 18.351562 C 8.789062 18.324219 8.902344 18.277344 8.859375 18.183594 C 8.832031 18.144531 8.792969 18.132812 8.746094 18.144531 C 8.300781 18.328125 7.851562 18.503906 7.382812 18.628906 C 6.816406 18.8125 6.109375 18.660156 5.457031 18.71875 C 5.382812 18.753906 5.351562 18.835938 5.425781 18.894531 C 5.464844 18.929688 5.507812 18.949219 5.5625 18.953125 C 5.828125 18.976562 6.09375 18.960938 6.363281 18.957031 C 7.191406 18.988281 7.96875 18.667969 8.71875 18.351562 Z M 5.40625 19.300781 C 5.5625 19.277344 6.332031 19.324219 6.21875 19.074219 C 6.183594 19.019531 6.136719 19.003906 6.074219 19.023438 C 5.746094 19.089844 5.300781 19.082031 4.882812 19.074219 C 4.824219 19.085938 4.707031 19.148438 4.777344 19.214844 C 4.914062 19.347656 5.222656 19.292969 5.40625 19.300781 Z M 7.648438 20.765625 C 7.003906 20.816406 6.125 20.957031 5.460938 21.042969 C 4.855469 21.113281 4.382812 21.222656 3.777344 21.273438 C 3.324219 21.296875 2.941406 21.363281 2.558594 21.242188 C 2.414062 21.199219 2.34375 21.015625 2.382812 20.96875 C 2.460938 20.882812 2.554688 20.8125 2.660156 20.761719 C 2.730469 20.738281 2.78125 20.644531 2.722656 20.585938 C 2.597656 20.484375 2.390625 20.675781 2.292969 20.75 C 2.195312 20.8125 2.144531 20.898438 2.144531 21.011719 C 2.0625 20.960938 2.019531 20.972656 1.988281 20.945312 C 1.957031 20.933594 1.929688 20.914062 1.90625 20.890625 L 1.898438 20.882812 C 1.859375 20.824219 1.84375 20.761719 1.84375 20.691406 C 1.84375 20.574219 1.890625 20.46875 1.960938 20.4375 C 2.105469 20.34375 2.128906 20.332031 2.28125 20.300781 C 2.359375 20.292969 2.425781 20.199219 2.382812 20.128906 C 2.296875 20.003906 2.105469 20.101562 1.988281 20.144531 C 1.875 20.199219 1.757812 20.273438 1.683594 20.378906 C 1.664062 20.195312 1.804688 19.976562 1.972656 19.871094 C 2.347656 19.695312 2.746094 19.617188 3.164062 19.632812 C 3.53125 19.644531 3.894531 19.585938 4.257812 19.515625 C 4.378906 19.496094 4.558594 19.472656 4.527344 19.3125 C 4.464844 19.148438 4.273438 19.242188 4.152344 19.257812 C 3.785156 19.316406 3.578125 19.355469 3.179688 19.347656 C 3.066406 19.34375 2.953125 19.34375 2.839844 19.355469 C 2.871094 19.21875 2.808594 19.035156 2.707031 18.953125 C 2.609375 18.871094 2.210938 18.597656 2.175781 18.839844 C 2.179688 18.957031 2.324219 18.972656 2.402344 19.023438 C 2.519531 19.09375 2.53125 19.101562 2.554688 19.1875 C 2.554688 19.195312 2.558594 19.207031 2.558594 19.214844 C 2.558594 19.226562 2.554688 19.238281 2.554688 19.25 C 2.554688 19.253906 2.554688 19.257812 2.550781 19.265625 L 2.550781 19.269531 C 2.550781 19.273438 2.550781 19.28125 2.550781 19.285156 C 2.546875 19.289062 2.546875 19.292969 2.546875 19.292969 C 2.539062 19.328125 2.539062 19.359375 2.546875 19.390625 C 2.402344 19.417969 2.261719 19.453125 2.125 19.5 C 2.074219 19.515625 2.023438 19.535156 1.972656 19.554688 C 1.957031 19.535156 1.941406 19.515625 1.925781 19.496094 C 1.847656 19.4375 1.800781 19.402344 1.753906 19.316406 C 1.753906 19.316406 1.75 19.3125 1.753906 19.308594 C 1.746094 19.285156 1.738281 19.261719 1.734375 19.246094 C 1.699219 18.851562 1.878906 18.503906 2.203125 18.261719 C 2.34375 18.15625 2.5 18.089844 2.671875 18.0625 C 2.679688 18.058594 2.691406 18.058594 2.703125 18.058594 C 2.6875 18.128906 2.679688 18.203125 2.679688 18.273438 C 2.648438 18.566406 2.855469 18.808594 3.003906 19.042969 C 3.046875 19.097656 3.097656 19.148438 3.160156 19.183594 C 3.160156 19.183594 3.160156 19.1875 3.171875 19.195312 C 3.207031 19.25 3.246094 19.292969 3.308594 19.3125 C 3.339844 19.324219 3.382812 19.332031 3.40625 19.308594 C 3.429688 19.277344 3.441406 19.246094 3.4375 19.207031 C 3.4375 19.144531 3.402344 19.09375 3.363281 19.050781 L 3.363281 19.046875 C 3.359375 19.042969 3.355469 19.039062 3.351562 19.035156 C 3.316406 18.988281 3.269531 18.953125 3.238281 18.90625 C 3.238281 18.894531 2.96875 18.4375 2.980469 18.421875 C 2.980469 18.414062 2.980469 18.410156 2.976562 18.40625 C 2.972656 18.398438 2.972656 18.390625 2.96875 18.382812 C 2.910156 18.160156 3.007812 17.683594 3.132812 17.441406 C 3.195312 17.300781 3.28125 17.160156 3.316406 17.011719 C 3.320312 16.960938 3.296875 16.929688 3.253906 16.910156 C 3.128906 16.890625 3.101562 17.039062 3.054688 17.125 C 2.925781 17.363281 2.808594 17.609375 2.742188 17.871094 C 2.734375 17.867188 2.726562 17.867188 2.714844 17.867188 C 2.394531 17.898438 2.113281 18.066406 1.894531 18.296875 C 1.578125 18.585938 1.261719 19.175781 1.566406 19.570312 C 1.617188 19.621094 1.671875 19.664062 1.730469 19.695312 C 1.621094 19.78125 1.539062 19.886719 1.480469 20.011719 C 1.375 20.214844 1.332031 20.574219 1.574219 20.691406 C 1.582031 20.695312 1.585938 20.695312 1.59375 20.695312 C 1.582031 20.882812 1.636719 21.074219 1.820312 21.15625 C 1.921875 21.214844 2.082031 21.261719 2.179688 21.191406 C 2.234375 21.324219 2.332031 21.417969 2.464844 21.464844 C 2.75 21.550781 3.050781 21.554688 3.34375 21.519531 C 3.917969 21.496094 4.234375 21.410156 4.785156 21.328125 C 5.089844 21.273438 5.285156 21.242188 5.617188 21.226562 C 6.050781 21.167969 6.445312 21.117188 6.902344 21.070312 C 7.132812 21.015625 7.394531 21.042969 7.671875 20.933594 C 7.707031 20.90625 7.734375 20.871094 7.753906 20.835938 C 7.726562 20.800781 7.691406 20.777344 7.648438 20.765625 Z M 8.992188 20.632812 C 8.886719 20.542969 8.757812 20.660156 8.652344 20.6875 C 8.390625 20.789062 8.128906 20.871094 7.859375 20.9375 C 7.742188 21.003906 7.75 21.113281 7.878906 21.152344 C 8.011719 21.183594 8.148438 21.117188 8.273438 21.082031 C 8.503906 20.996094 8.730469 20.910156 8.953125 20.816406 C 9.015625 20.78125 9.046875 20.6875 8.992188 20.632812 Z M 9.722656 20.734375 C 9.433594 20.773438 9.164062 20.90625 8.878906 20.96875 C 8.785156 21 8.738281 20.960938 8.625 21.058594 C 8.53125 21.152344 8.675781 21.234375 8.765625 21.230469 C 9.082031 21.195312 9.367188 21.042969 9.675781 20.96875 C 9.777344 20.953125 9.972656 20.929688 9.90625 20.78125 C 9.867188 20.714844 9.789062 20.71875 9.722656 20.734375 Z M 14.335938 19.917969 C 14.207031 19.851562 14.121094 20.007812 14.039062 20.082031 C 13.902344 20.203125 13.78125 20.316406 13.671875 20.386719 C 13.71875 20.351562 13.742188 20.308594 13.742188 20.253906 C 13.742188 20.222656 13.710938 20.210938 13.683594 20.199219 C 13.488281 20.167969 13.386719 20.3125 13.199219 20.351562 C 12.484375 20.554688 11.757812 20.6875 11.019531 20.75 C 10.78125 20.769531 10.539062 20.753906 10.300781 20.761719 C 10.246094 20.773438 10.199219 20.828125 10.214844 20.882812 C 10.238281 20.960938 10.324219 20.972656 10.394531 20.972656 C 11.105469 21.015625 11.804688 20.890625 12.496094 20.757812 C 12.839844 20.714844 13.167969 20.628906 13.484375 20.492188 C 13.496094 20.488281 13.511719 20.480469 13.523438 20.472656 C 13.507812 20.484375 13.496094 20.5 13.488281 20.519531 C 13.410156 20.675781 13.660156 20.71875 13.78125 20.628906 C 13.980469 20.492188 14.152344 20.324219 14.316406 20.148438 C 14.386719 20.09375 14.429688 19.972656 14.335938 19.917969 Z M 14.730469 19.980469 C 14.625 19.964844 14.601562 20.101562 14.542969 20.164062 C 14.488281 20.246094 14.320312 20.359375 14.3125 20.5 C 14.476562 20.527344 14.578125 20.355469 14.671875 20.25 C 14.71875 20.179688 14.839844 20.042969 14.730469 19.980469 Z M 15.304688 15.914062 C 15.257812 15.949219 15.242188 15.992188 15.257812 16.050781 C 15.398438 16.425781 15.515625 16.804688 15.613281 17.195312 C 15.671875 17.390625 15.605469 17.496094 15.730469 17.660156 C 15.78125 17.707031 15.835938 17.6875 15.867188 17.632812 C 15.921875 17.5625 15.898438 17.472656 15.890625 17.390625 C 15.808594 16.898438 15.636719 16.429688 15.460938 15.964844 C 15.433594 15.914062 15.359375 15.882812 15.304688 15.914062 Z M 17.472656 20.492188 C 17.570312 20.421875 17.460938 20.335938 17.382812 20.316406 C 16.585938 20.292969 15.902344 20.34375 15.171875 20.03125 C 15.164062 20.027344 15.15625 20.023438 15.148438 20.019531 C 15.296875 19.824219 15.390625 19.578125 15.464844 19.355469 C 15.707031 18.769531 15.636719 17.996094 15.542969 17.488281 C 15.53125 17.433594 15.472656 17.382812 15.414062 17.398438 C 15.359375 17.421875 15.332031 17.460938 15.335938 17.519531 C 15.371094 17.765625 15.398438 17.925781 15.417969 18.207031 C 15.453125 18.609375 15.386719 18.921875 15.261719 19.308594 C 15.15625 19.632812 15.019531 19.921875 14.730469 20.175781 C 14.703125 20.214844 14.6875 20.257812 14.691406 20.308594 C 14.734375 20.324219 14.773438 20.324219 14.816406 20.3125 C 14.894531 20.273438 14.964844 20.222656 15.027344 20.160156 C 15.039062 20.175781 15.050781 20.1875 15.066406 20.195312 C 15.664062 20.480469 16.339844 20.515625 16.992188 20.542969 C 17.152344 20.527344 17.339844 20.59375 17.472656 20.492188 Z M 21.640625 23.238281 C 21.652344 23.289062 21.671875 23.339844 21.699219 23.390625 C 21.78125 23.582031 21.972656 23.6875 22.171875 23.71875 C 22.464844 23.769531 22.769531 23.738281 23.035156 23.601562 C 23.066406 23.582031 23.09375 23.558594 23.113281 23.527344 C 23.136719 23.554688 23.164062 23.566406 23.195312 23.570312 C 23.875 23.621094 24.558594 23.65625 25.234375 23.554688 C 25.523438 23.519531 25.835938 23.492188 26.15625 23.449219 C 26.070312 23.488281 25.988281 23.542969 25.914062 23.605469 C 25.878906 23.660156 25.867188 23.746094 25.9375 23.773438 C 26.132812 23.835938 26.199219 23.71875 26.363281 23.671875 C 26.839844 23.449219 27.136719 23.273438 27.648438 23.175781 C 27.710938 23.15625 28.09375 23.214844 28.035156 22.984375 C 28 22.863281 27.863281 22.871094 27.761719 22.878906 C 27.683594 22.886719 27.605469 22.898438 27.527344 22.914062 C 27.503906 22.90625 27.480469 22.90625 27.453125 22.910156 C 26.765625 23.125 26.210938 23.222656 25.527344 23.285156 C 24.816406 23.417969 24.101562 23.457031 23.382812 23.398438 C 23.3125 23.398438 23.199219 23.375 23.132812 23.40625 C 23.128906 23.398438 23.132812 23.390625 23.125 23.382812 C 23.039062 23.308594 22.921875 23.351562 22.832031 23.390625 C 22.765625 23.449219 22.332031 23.5 22.242188 23.46875 C 21.980469 23.425781 21.949219 23.390625 21.867188 23.21875 C 21.851562 23.167969 21.828125 23.109375 21.785156 23.078125 C 21.785156 23.070312 21.785156 23.058594 21.78125 23.050781 C 21.71875 22.957031 21.601562 22.96875 21.503906 22.964844 C 21.367188 22.957031 21.414062 22.964844 21.3125 22.941406 C 21.292969 22.9375 21.253906 22.921875 21.242188 22.917969 C 21.230469 22.914062 21.222656 22.910156 21.214844 22.902344 C 21.136719 22.820312 21.128906 22.789062 21.121094 22.675781 C 21.113281 22.679688 21.164062 22.5625 21.140625 22.484375 C 21.144531 22.464844 21.144531 22.449219 21.136719 22.433594 C 21.046875 22.269531 21.003906 22.320312 20.992188 22.234375 C 20.976562 22.183594 21.023438 22.003906 21.058594 21.980469 C 21.113281 21.917969 21.273438 21.894531 21.347656 21.835938 C 21.390625 21.832031 21.421875 21.8125 21.4375 21.769531 C 21.445312 21.75 21.480469 21.648438 21.484375 21.628906 C 21.484375 21.628906 21.488281 21.625 21.488281 21.621094 C 21.648438 21.421875 22.230469 21.183594 22.6875 21.226562 C 23.027344 21.242188 23.519531 21.390625 23.96875 21.347656 C 25.105469 21.234375 26.28125 21.121094 27.28125 20.523438 C 27.335938 20.492188 27.363281 20.410156 27.316406 20.363281 C 27.28125 20.332031 27.242188 20.324219 27.199219 20.335938 C 27.03125 20.410156 26.644531 20.59375 26.574219 20.625 C 26.207031 20.785156 25.800781 20.8125 25.414062 20.90625 C 24.894531 20.992188 24.28125 21.097656 23.667969 21.097656 C 23.335938 21.085938 23 20.949219 22.589844 20.945312 C 22.152344 20.941406 21.707031 21.097656 21.359375 21.355469 C 21.34375 21.367188 21.328125 21.382812 21.316406 21.398438 C 21.25 21.34375 21.164062 21.316406 21.09375 21.273438 C 21.007812 21.222656 20.929688 21.113281 20.839844 21 C 20.652344 20.726562 20.5 20.464844 20.503906 20.171875 C 20.511719 20.03125 20.53125 20.015625 20.53125 19.878906 C 20.523438 19.84375 20.492188 19.804688 20.453125 19.804688 C 20.304688 19.828125 20.34375 20.070312 20.3125 20.183594 C 20.3125 20.316406 20.332031 20.449219 20.367188 20.582031 C 20.359375 20.582031 20.351562 20.582031 20.339844 20.585938 C 19.765625 20.8125 19.308594 20.820312 18.707031 20.824219 C 18.144531 20.832031 17.488281 20.824219 16.976562 20.746094 C 16.941406 20.738281 16.910156 20.734375 16.875 20.730469 C 16.824219 20.71875 16.742188 20.726562 16.734375 20.792969 C 16.738281 20.832031 16.777344 20.863281 16.816406 20.871094 C 17.1875 20.929688 17.5625 20.980469 17.941406 20.996094 C 18.707031 21.039062 19.5 21.128906 20.242188 20.894531 C 20.308594 20.871094 20.386719 20.847656 20.449219 20.808594 C 20.558594 21.058594 20.703125 21.28125 20.886719 21.480469 C 20.976562 21.542969 21.085938 21.628906 21.199219 21.644531 C 21.199219 21.648438 21.199219 21.652344 21.199219 21.660156 C 21.179688 21.667969 21.15625 21.675781 21.136719 21.683594 C 21.03125 21.726562 20.914062 21.777344 20.851562 21.878906 C 20.726562 22.0625 20.699219 22.414062 20.902344 22.53125 C 20.898438 22.550781 20.890625 22.570312 20.886719 22.589844 C 20.832031 22.804688 20.925781 23.066406 21.132812 23.167969 C 21.21875 23.222656 21.472656 23.273438 21.640625 23.238281 Z M 20.949219 15.964844 C 20.210938 16.703125 19.621094 17.867188 19.507812 18.832031 C 19.472656 19.09375 19.433594 19.359375 19.472656 19.621094 C 19.484375 19.707031 19.488281 19.808594 19.558594 19.875 C 19.664062 19.972656 19.734375 19.875 19.738281 19.757812 C 19.566406 18.960938 19.785156 18.046875 20.167969 17.28125 C 20.367188 16.855469 20.636719 16.46875 20.902344 16.085938 C 20.933594 16.050781 20.949219 16.011719 20.949219 15.964844 Z M 20.113281 19.085938 C 19.953125 19.097656 19.949219 19.300781 19.914062 19.421875 C 19.898438 19.648438 19.84375 19.894531 19.910156 20.117188 C 19.988281 20.25 20.160156 20.257812 20.164062 20.074219 C 20.164062 20.050781 20.160156 20.023438 20.15625 20 C 20.148438 19.820312 20.15625 19.640625 20.175781 19.457031 C 20.199219 19.335938 20.3125 19.109375 20.113281 19.085938 Z M 32.386719 19.839844 C 32.308594 19.617188 32.210938 19.40625 32.089844 19.207031 C 32.050781 19.144531 31.957031 19.117188 31.902344 19.171875 C 31.867188 19.210938 31.859375 19.257812 31.882812 19.308594 C 32.003906 19.535156 32.054688 19.628906 32.132812 19.863281 C 32.242188 20.144531 32.179688 20.46875 32.101562 20.636719 C 31.945312 21.171875 31.460938 21.53125 30.875 21.882812 C 30.695312 22.007812 30.792969 22.179688 30.96875 22.136719 C 31.820312 21.746094 32.757812 20.859375 32.386719 19.839844 Z M 28.527344 23.058594 C 28.972656 22.800781 29.503906 22.671875 30.179688 22.496094 C 30.367188 22.4375 30.578125 22.421875 30.746094 22.324219 C 30.78125 22.285156 30.789062 22.242188 30.765625 22.195312 C 30.730469 22.144531 30.683594 22.128906 30.625 22.144531 C 29.871094 22.347656 29.058594 22.339844 28.367188 22.746094 C 28 22.914062 28.179688 23.289062 28.527344 23.058594 Z M 24.09375 24.117188 C 24.605469 24.101562 25.097656 23.976562 25.582031 23.816406 C 25.613281 23.800781 25.648438 23.757812 25.628906 23.722656 C 25.609375 23.695312 25.582031 23.683594 25.546875 23.683594 C 25.277344 23.75 25.011719 23.84375 24.734375 23.898438 C 24.324219 23.976562 23.746094 23.953125 23.257812 23.933594 C 23.203125 23.941406 23.144531 23.96875 23.121094 24.019531 C 23.132812 24.050781 23.152344 24.074219 23.179688 24.09375 C 23.421875 24.191406 23.820312 24.105469 24.09375 24.117188 Z M 23.285156 24.371094 C 23.359375 24.375 23.457031 24.328125 23.4375 24.242188 C 23.414062 24.179688 23.371094 24.15625 23.304688 24.164062 C 22.925781 24.1875 22.546875 24.183594 22.171875 24.148438 C 21.933594 24.152344 21.582031 24.035156 21.378906 24.101562 C 21.328125 24.132812 21.300781 24.164062 21.351562 24.210938 C 21.421875 24.289062 21.527344 24.285156 21.625 24.300781 C 22.175781 24.363281 22.730469 24.410156 23.285156 24.371094 Z M 20.902344 24.378906 C 20.554688 24.34375 20.203125 24.414062 19.859375 24.484375 C 19.082031 24.648438 18.3125 24.890625 17.691406 25.40625 C 17.621094 25.46875 17.523438 25.519531 17.5 25.617188 C 17.496094 25.644531 17.492188 25.675781 17.507812 25.699219 C 17.523438 25.703125 17.539062 25.707031 17.550781 25.707031 C 17.546875 25.710938 17.542969 25.710938 17.535156 25.714844 C 17.15625 25.929688 16.753906 26.179688 16.523438 26.558594 C 16.492188 26.683594 16.558594 26.769531 16.683594 26.703125 C 16.765625 26.660156 16.8125 26.574219 16.875 26.515625 C 17.136719 26.246094 17.46875 26.007812 17.761719 25.886719 C 17.816406 25.855469 17.851562 25.777344 17.816406 25.71875 C 17.789062 25.671875 17.75 25.652344 17.699219 25.660156 C 18.015625 25.445312 18.351562 25.179688 18.746094 25.003906 C 19.097656 24.839844 19.632812 24.691406 20.082031 24.582031 C 20.351562 24.511719 20.628906 24.480469 20.910156 24.488281 C 20.9375 24.484375 20.96875 24.46875 20.976562 24.441406 C 20.96875 24.410156 20.933594 24.386719 20.902344 24.378906 Z M 16.542969 27.914062 C 16.648438 27.746094 16.625 27.523438 16.710938 27.34375 C 16.785156 27.183594 16.914062 26.914062 17.039062 26.804688 C 17.09375 26.738281 17.230469 26.644531 17.132812 26.5625 C 17.085938 26.539062 17.042969 26.546875 17.007812 26.582031 C 16.691406 26.863281 16.5 27.269531 16.433594 27.683594 C 16.414062 27.769531 16.402344 27.867188 16.464844 27.9375 C 16.488281 27.980469 16.519531 27.9375 16.542969 27.914062 Z M 17.738281 30.21875 C 17.035156 29.898438 16.402344 28.628906 16.921875 27.753906 C 16.964844 27.699219 16.96875 27.601562 16.894531 27.578125 C 16.863281 27.570312 16.835938 27.574219 16.808594 27.59375 C 16.703125 27.695312 16.648438 27.847656 16.601562 27.984375 C 16.382812 28.6875 16.589844 29.4375 17.03125 30.007812 C 17.183594 30.210938 17.457031 30.496094 17.730469 30.476562 C 17.886719 30.4375 17.863281 30.289062 17.738281 30.21875 Z M 18.722656 30.847656 C 18.550781 30.75 18.4375 30.675781 18.34375 30.585938 C 18.273438 30.492188 18.195312 30.316406 18.125 30.132812 C 18.105469 30.054688 18 30.003906 17.9375 30.066406 C 17.898438 30.109375 17.886719 30.160156 17.910156 30.214844 C 17.984375 30.398438 18.046875 30.601562 18.175781 30.757812 C 18.292969 30.859375 18.730469 31.261719 18.828125 31 C 18.824219 30.9375 18.777344 30.882812 18.722656 30.847656 Z M 20.117188 31.339844 C 19.820312 31.332031 19.632812 31.238281 19.414062 31.054688 C 19.261719 30.945312 19.121094 30.828125 19.007812 30.605469 C 18.980469 30.53125 18.878906 30.476562 18.8125 30.539062 C 18.734375 30.621094 18.808594 30.71875 18.851562 30.796875 C 19.015625 31.078125 19.289062 31.277344 19.554688 31.457031 C 19.738281 31.535156 19.953125 31.644531 20.152344 31.566406 C 20.28125 31.496094 20.253906 31.375 20.117188 31.339844 Z M 20.625 31.320312 C 20.546875 31.261719 20.390625 31.113281 20.328125 31.011719 C 20.296875 30.949219 20.214844 30.890625 20.152344 30.949219 C 20.117188 30.988281 20.117188 31.035156 20.144531 31.082031 C 20.285156 31.292969 20.480469 31.484375 20.710938 31.597656 C 20.769531 31.617188 20.847656 31.617188 20.890625 31.574219 C 20.886719 31.546875 20.878906 31.519531 20.859375 31.496094 C 20.804688 31.414062 20.699219 31.386719 20.625 31.320312 Z M 23.441406 30.160156 C 23.320312 30.691406 22.882812 31.015625 22.398438 31.199219 C 21.992188 31.347656 21.734375 31.414062 21.386719 31.300781 C 21.285156 31.28125 21.148438 31.171875 21.101562 31.355469 C 21.09375 31.421875 21.171875 31.484375 21.242188 31.5 C 21.375 31.542969 21.507812 31.585938 21.644531 31.59375 C 22.410156 31.613281 23.628906 31.078125 23.660156 30.179688 C 23.621094 30.035156 23.515625 30.035156 23.441406 30.160156 Z M 23.535156 28.378906 C 23.332031 28.355469 23.347656 28.640625 23.296875 28.773438 C 23.25 29.074219 23.148438 29.421875 23.316406 29.703125 C 23.351562 29.796875 23.535156 29.886719 23.574219 29.757812 C 23.605469 29.660156 23.546875 29.578125 23.503906 29.496094 C 23.503906 29.492188 23.5 29.488281 23.5 29.484375 C 23.457031 29.257812 23.519531 28.890625 23.617188 28.550781 C 23.640625 28.484375 23.605469 28.398438 23.535156 28.378906 Z M 24.5625 28.023438 C 24.53125 27.980469 24.492188 27.964844 24.4375 27.980469 C 24.140625 28.128906 23.867188 28.359375 23.699219 28.648438 C 23.667969 28.753906 23.699219 28.882812 23.828125 28.792969 C 23.878906 28.757812 23.90625 28.699219 23.945312 28.652344 C 24.121094 28.421875 24.296875 28.292969 24.539062 28.148438 C 24.578125 28.113281 24.585938 28.070312 24.5625 28.023438 Z M 29.550781 27.515625 C 29.136719 27.609375 28.742188 27.796875 28.320312 27.882812 C 28.078125 27.941406 27.632812 27.929688 27.269531 27.90625 C 26.433594 27.792969 25.570312 27.863281 24.773438 28.164062 C 24.691406 28.214844 24.4375 28.265625 24.507812 28.394531 C 24.542969 28.429688 24.597656 28.421875 24.636719 28.398438 C 25.109375 28.171875 25.558594 28.105469 26.046875 28.074219 C 26.789062 28.039062 27.203125 28.210938 27.964844 28.207031 C 28.503906 28.214844 29.011719 28 29.5 27.804688 C 29.667969 27.769531 29.804688 27.542969 29.550781 27.515625 Z M 33.144531 26.441406 C 33.160156 26.414062 33.167969 26.378906 33.144531 26.351562 C 33.035156 26.296875 32.957031 26.457031 32.875 26.507812 C 32.691406 26.664062 32.460938 26.820312 32.21875 26.988281 C 31.792969 27.238281 31.417969 27.457031 30.9375 27.542969 C 30.871094 27.550781 30.582031 27.5625 30.347656 27.59375 C 30.351562 27.574219 30.347656 27.554688 30.332031 27.542969 C 30.304688 27.515625 30.269531 27.507812 30.230469 27.523438 C 29.988281 27.648438 29.761719 27.796875 29.519531 27.925781 C 29.296875 28.054688 29.058594 28.144531 28.808594 28.191406 C 28.6875 28.214844 28.554688 28.1875 28.445312 28.246094 C 28.421875 28.261719 28.371094 28.289062 28.382812 28.316406 C 28.425781 28.371094 28.488281 28.398438 28.558594 28.394531 C 28.746094 28.398438 28.925781 28.367188 29.101562 28.304688 C 29.453125 28.199219 29.757812 27.996094 30.070312 27.8125 C 30.078125 27.816406 30.085938 27.824219 30.09375 27.828125 C 30.210938 27.898438 30.734375 27.8125 30.824219 27.816406 C 31.449219 27.738281 31.992188 27.355469 32.492188 27 C 32.71875 26.824219 32.957031 26.65625 33.144531 26.441406 Z M 35.953125 21.375 C 35.890625 21.398438 35.859375 21.441406 35.863281 21.507812 C 35.871094 21.839844 35.859375 22.171875 35.828125 22.5 C 35.769531 23.40625 35.300781 24.289062 34.765625 25.132812 C 34.71875 25.210938 34.640625 25.277344 34.636719 25.375 C 34.621094 25.527344 34.78125 25.492188 34.855469 25.417969 C 35.289062 24.832031 35.628906 24.195312 35.871094 23.503906 C 36.085938 22.863281 36.113281 22.175781 36.101562 21.503906 C 36.101562 21.429688 36.03125 21.355469 35.953125 21.375 Z M 34.59375 25.023438 C 34.53125 25.011719 34.492188 25.035156 34.46875 25.09375 C 34.359375 25.328125 34.222656 25.546875 34.058594 25.746094 C 33.96875 25.894531 33.433594 26.433594 33.300781 26.523438 C 33.097656 26.703125 32.898438 26.742188 32.816406 26.847656 C 32.785156 26.890625 32.773438 26.957031 32.835938 26.976562 C 33.066406 27.058594 33.265625 26.816406 33.441406 26.703125 C 33.929688 26.277344 34.378906 25.773438 34.644531 25.175781 C 34.671875 25.125 34.65625 25.042969 34.59375 25.023438 Z M 35.878906 17.722656 C 35.578125 16.652344 34.96875 15.707031 34.34375 14.800781 C 34.089844 14.46875 33.816406 14.148438 33.523438 13.84375 C 33.480469 13.785156 33.363281 13.769531 33.339844 13.855469 C 33.328125 13.910156 33.34375 13.953125 33.386719 13.988281 C 33.601562 14.210938 33.804688 14.445312 33.996094 14.691406 C 34.460938 15.304688 34.957031 16.074219 35.304688 16.855469 C 35.554688 17.355469 35.757812 18.175781 35.871094 18.832031 C 36.085938 19.820312 36.207031 20.753906 36.160156 21.820312 C 36.171875 21.996094 36.316406 22.070312 36.390625 21.863281 C 36.519531 20.464844 36.210938 19.070312 35.878906 17.722656 Z M 27.613281 10.410156 C 29.246094 10.828125 30.898438 11.414062 32.167969 12.398438 C 32.722656 12.832031 33.226562 13.332031 33.785156 13.765625 C 33.890625 13.828125 34.035156 14.019531 34.148438 13.882812 C 34.171875 13.832031 34.164062 13.785156 34.121094 13.746094 C 33.824219 13.539062 33.605469 13.332031 33.300781 13.066406 C 32.414062 12.226562 31.425781 11.484375 30.289062 11.019531 C 29.480469 10.65625 28.488281 10.285156 27.617188 10.179688 C 27.476562 10.226562 27.5 10.34375 27.613281 10.410156 Z M 24.054688 9.492188 C 24.085938 9.53125 24.121094 9.542969 24.167969 9.53125 C 24.710938 9.46875 25.28125 9.363281 25.800781 9.492188 C 26.382812 9.597656 26.84375 10.003906 27.5 9.890625 C 27.632812 9.832031 27.632812 9.71875 27.488281 9.671875 C 27.050781 9.667969 26.738281 9.609375 26.300781 9.441406 C 25.832031 9.289062 25.355469 9.238281 24.867188 9.292969 C 24.609375 9.328125 24.34375 9.34375 24.09375 9.402344 C 24.066406 9.421875 24.039062 9.457031 24.054688 9.492188 Z M 2.140625 9.320312 C 2.101562 9.71875 1.996094 10.5625 2.113281 11.007812 C 2.140625 11.097656 2.171875 11.234375 2.234375 11.316406 C 2.230469 11.355469 2.230469 11.390625 2.230469 11.425781 C 2.230469 11.457031 2.222656 11.605469 2.21875 11.644531 C 2.179688 11.910156 2.070312 12.15625 2.015625 12.414062 C 1.949219 12.734375 1.921875 13.058594 1.929688 13.386719 C 1.9375 13.492188 1.9375 13.613281 2.011719 13.695312 C 2.082031 13.78125 2.214844 13.78125 2.261719 13.675781 C 2.285156 13.628906 2.292969 13.585938 2.285156 13.535156 C 2.265625 13.433594 2.265625 13.175781 2.28125 12.949219 C 2.273438 12.527344 2.558594 11.949219 2.511719 11.390625 C 2.515625 11.316406 2.511719 11.214844 2.464844 11.160156 C 2.378906 10.917969 2.339844 10.792969 2.339844 10.585938 C 2.296875 9.894531 2.382812 9.679688 2.386719 9.113281 C 2.375 8.601562 2.207031 8.089844 1.996094 7.542969 C 1.941406 7.4375 1.808594 7.007812 1.804688 6.878906 C 1.773438 6.46875 1.867188 6.039062 2.011719 5.9375 C 2.101562 5.851562 2.695312 6.21875 3.066406 6.441406 C 3.507812 6.660156 4.199219 6.910156 4.71875 7.105469 C 4.828125 7.15625 5.097656 7.269531 5.292969 7.339844 C 5.332031 7.355469 5.367188 7.351562 5.402344 7.328125 C 5.476562 7.367188 5.582031 7.3125 5.664062 7.3125 C 5.761719 7.296875 6.109375 7.25 6.304688 7.253906 C 6.628906 7.222656 6.847656 7.386719 7.195312 7.410156 C 7.546875 7.367188 7.929688 7.285156 8.222656 7.34375 C 8.277344 7.351562 8.328125 7.347656 8.378906 7.324219 C 8.394531 7.332031 8.414062 7.332031 8.429688 7.332031 C 8.589844 7.289062 8.746094 7.234375 8.898438 7.171875 C 9.503906 6.90625 10.089844 6.609375 10.65625 6.28125 C 11.078125 6.03125 11.550781 5.671875 11.949219 5.582031 C 12.113281 5.570312 12.242188 5.554688 12.328125 5.628906 C 12.484375 5.796875 12.3125 6.25 12.300781 6.433594 C 12.234375 6.925781 12.183594 7.382812 12.058594 7.984375 C 11.925781 8.511719 11.785156 9.042969 11.628906 9.566406 C 11.539062 9.863281 11.316406 10.089844 11.335938 10.519531 C 11.335938 10.578125 11.347656 10.636719 11.371094 10.691406 C 11.460938 11.015625 11.695312 11.179688 11.820312 11.421875 C 11.929688 11.566406 11.960938 11.773438 12.109375 11.882812 C 12.261719 11.960938 12.34375 11.742188 12.269531 11.632812 C 12.261719 11.613281 12.25 11.597656 12.242188 11.578125 C 12.488281 11.570312 12.726562 11.570312 12.949219 11.648438 C 13.058594 11.683594 13.207031 11.773438 13.367188 11.847656 C 13.578125 11.941406 13.8125 11.972656 14.039062 11.972656 C 14.113281 11.96875 14.191406 11.972656 14.257812 11.933594 C 14.261719 11.933594 14.265625 11.929688 14.269531 11.925781 C 14.285156 11.929688 14.304688 11.933594 14.320312 11.933594 C 14.410156 11.9375 14.492188 11.894531 14.574219 11.871094 C 15.257812 11.652344 15.859375 11.273438 16.457031 10.886719 C 17.261719 10.402344 18.105469 9.996094 18.988281 9.675781 C 19.867188 9.367188 20.71875 9.230469 21.585938 9.132812 C 21.5625 9.164062 21.542969 9.203125 21.558594 9.238281 C 21.582031 9.292969 21.648438 9.3125 21.703125 9.316406 C 22.550781 9.15625 23.285156 9.039062 24.171875 9.164062 C 24.242188 9.175781 24.324219 9.15625 24.328125 9.074219 C 24.324219 9.019531 24.292969 8.988281 24.238281 8.972656 C 23.71875 8.902344 23.199219 8.886719 22.679688 8.929688 C 22.679688 8.914062 22.683594 8.898438 22.679688 8.878906 C 22.664062 8.824219 22.625 8.792969 22.566406 8.785156 C 22.28125 8.789062 22 8.832031 21.714844 8.855469 C 20.449219 8.984375 19.179688 9.210938 18.019531 9.753906 C 17.296875 10.058594 16.609375 10.425781 15.953125 10.855469 C 15.390625 11.257812 14.890625 11.464844 14.285156 11.695312 C 14.265625 11.703125 14.25 11.71875 14.234375 11.730469 C 13.898438 11.714844 13.703125 11.746094 13.398438 11.636719 C 13.171875 11.503906 12.6875 11.375 12.339844 11.40625 C 12.277344 11.414062 12.214844 11.417969 12.148438 11.414062 C 11.972656 11.125 11.761719 10.921875 11.636719 10.664062 C 11.621094 10.617188 11.609375 10.570312 11.597656 10.523438 C 11.59375 10.507812 11.585938 10.492188 11.578125 10.480469 C 11.574219 10.445312 11.578125 10.40625 11.582031 10.371094 C 11.605469 10.152344 11.71875 10.011719 11.828125 9.675781 C 11.972656 9.210938 12.054688 8.726562 12.203125 8.257812 C 12.34375 7.636719 12.398438 7.039062 12.46875 6.515625 C 12.480469 6.234375 12.757812 5.613281 12.316406 5.425781 C 12.078125 5.359375 11.824219 5.398438 11.601562 5.492188 C 11.042969 5.6875 10.566406 6.046875 10.050781 6.320312 C 9.613281 6.574219 9.085938 6.84375 8.703125 7.011719 C 8.609375 7.074219 8.359375 7.085938 8.3125 7.195312 C 8.148438 7.109375 7.847656 7.148438 7.664062 7.152344 C 7.429688 7.164062 7.320312 7.226562 7.113281 7.203125 C 7.003906 7.171875 6.601562 7.054688 6.382812 7.082031 C 6.0625 7.097656 5.746094 7.132812 5.433594 7.195312 C 5.402344 7.148438 5.332031 7.128906 5.277344 7.109375 C 5.125 7.054688 5.089844 7.035156 4.976562 6.988281 C 4.347656 6.71875 3.816406 6.574219 3.195312 6.234375 C 2.902344 6.074219 2.632812 5.875 2.320312 5.75 C 2.1875 5.691406 2.019531 5.648438 1.886719 5.730469 C 1.667969 5.886719 1.609375 6.183594 1.589844 6.4375 C 1.523438 6.878906 1.613281 7.328125 1.785156 7.734375 C 2.019531 8.355469 2.148438 8.746094 2.140625 9.320312 Z M 26.328125 20.433594 C 26.359375 20.445312 26.394531 20.441406 26.425781 20.421875 C 26.574219 20.320312 26.734375 20.246094 26.910156 20.199219 C 27.214844 20.132812 27.636719 20.105469 28.035156 20.121094 C 28.167969 20.113281 28.3125 20.160156 28.441406 20.109375 C 28.492188 20.085938 28.546875 20.039062 28.515625 19.984375 C 28.476562 19.921875 28.421875 19.890625 28.347656 19.890625 C 27.980469 19.867188 27.441406 19.875 27.1875 19.921875 C 27.023438 19.90625 25.992188 20.210938 26.328125 20.433594 Z M 27.441406 19.648438 C 27.773438 19.675781 28.105469 19.671875 28.4375 19.632812 C 28.589844 19.601562 28.804688 19.605469 28.871094 19.441406 C 28.894531 19.386719 28.839844 19.347656 28.792969 19.332031 C 28.75 19.320312 28.710938 19.316406 28.667969 19.328125 C 28.417969 19.398438 28.265625 19.402344 27.972656 19.421875 C 27.8125 19.460938 27.328125 19.308594 27.355469 19.5625 C 27.367188 19.605469 27.398438 19.632812 27.441406 19.648438 Z M 31.886719 26.820312 C 32.324219 26.628906 32.679688 26.339844 32.957031 25.953125 C 33.023438 25.871094 33.136719 25.75 33.015625 25.664062 C 32.957031 25.636719 32.910156 25.644531 32.863281 25.6875 C 32.8125 25.753906 32.773438 25.804688 32.679688 25.910156 C 32.414062 26.246094 32.039062 26.507812 31.679688 26.617188 C 31.4375 26.769531 31.71875 26.890625 31.886719 26.820312 Z M 30.488281 26.953125 C 30.71875 26.929688 30.9375 26.84375 31.152344 26.757812 C 31.246094 26.703125 31.5 26.652344 31.40625 26.503906 C 31.386719 26.484375 31.359375 26.472656 31.328125 26.476562 C 31.140625 26.542969 31.070312 26.601562 30.894531 26.660156 C 30.746094 26.726562 30.582031 26.742188 30.429688 26.792969 C 30.386719 26.8125 30.359375 26.84375 30.335938 26.882812 C 30.378906 26.929688 30.429688 26.953125 30.488281 26.953125 Z M 34.671875 23.449219 C 34.632812 23.441406 34.601562 23.453125 34.578125 23.480469 C 34.476562 23.660156 34.40625 23.859375 34.320312 24.050781 C 34.285156 24.132812 34.246094 24.210938 34.207031 24.292969 C 34.152344 24.40625 34.039062 24.53125 34.109375 24.664062 C 34.160156 24.675781 34.21875 24.632812 34.253906 24.59375 C 34.398438 24.367188 34.5 24.109375 34.605469 23.859375 C 34.605469 23.851562 34.597656 23.875 34.59375 23.878906 C 34.621094 23.761719 34.824219 23.523438 34.671875 23.449219 Z M 34.058594 24.308594 C 33.972656 24.257812 33.882812 24.328125 33.839844 24.402344 C 33.769531 24.515625 33.523438 24.75 33.699219 24.859375 C 33.90625 24.875 33.976562 24.613281 34.097656 24.492188 C 34.132812 24.433594 34.121094 24.339844 34.058594 24.308594 Z M 22.804688 28 C 22.757812 27.976562 22.714844 27.984375 22.679688 28.019531 C 22.339844 28.339844 22.21875 28.867188 22.320312 29.316406 C 22.363281 29.59375 22.625 29.613281 22.546875 29.300781 C 22.449219 28.996094 22.496094 28.609375 22.675781 28.304688 C 22.675781 28.265625 22.925781 28.097656 22.804688 28 Z M 22.097656 29.492188 C 22.085938 29.390625 22.113281 29.203125 21.957031 29.226562 C 21.828125 29.273438 21.875 29.441406 21.886719 29.546875 C 21.929688 29.746094 21.976562 29.984375 22.160156 30.105469 C 22.226562 30.15625 22.339844 30.164062 22.394531 30.09375 C 22.402344 29.992188 22.273438 29.921875 22.25 29.894531 C 22.199219 29.890625 22.097656 29.535156 22.097656 29.492188 Z M 18.046875 27.320312 C 18.125 27.355469 18.175781 27.21875 18.179688 27.15625 C 18.175781 26.558594 18.429688 26 19.035156 25.824219 C 19.105469 25.796875 19.246094 25.773438 19.207031 25.671875 C 19.183594 25.640625 19.15625 25.625 19.121094 25.628906 C 18.808594 25.6875 18.53125 25.851562 18.308594 26.074219 C 18.054688 26.375 17.96875 26.777344 17.960938 27.167969 C 17.964844 27.234375 17.992188 27.285156 18.046875 27.320312 Z M 17.699219 26.863281 C 17.625 26.859375 17.582031 26.925781 17.558594 26.988281 C 17.324219 27.445312 17.285156 27.972656 17.476562 28.449219 C 17.492188 28.550781 17.667969 28.691406 17.707031 28.535156 C 17.730469 28.359375 17.617188 28.1875 17.605469 28.011719 C 17.554688 27.785156 17.589844 27.515625 17.71875 27.195312 C 17.71875 27.160156 17.910156 26.898438 17.699219 26.863281 Z M 30.410156 12.113281 C 30.292969 12.03125 30.082031 11.988281 30.066406 12.1875 C 30.0625 12.296875 30.171875 12.34375 30.257812 12.378906 C 30.5 12.503906 30.730469 12.644531 30.960938 12.789062 C 31.148438 12.90625 31.332031 12.75 31.164062 12.570312 C 30.921875 12.402344 30.671875 12.25 30.410156 12.113281 Z M 30.679688 13.050781 C 30.660156 13.214844 30.886719 13.257812 30.984375 13.351562 C 31.179688 13.496094 31.367188 13.652344 31.542969 13.820312 C 31.609375 13.890625 31.804688 13.945312 31.765625 13.789062 C 31.695312 13.605469 31.496094 13.5 31.359375 13.367188 C 31.1875 13.226562 31.015625 13.089844 30.824219 12.980469 C 30.765625 12.964844 30.695312 12.988281 30.679688 13.050781 Z M 22.582031 14.820312 C 22.671875 14.714844 22.417969 14.746094 22.371094 14.78125 C 21.976562 14.917969 21.660156 15.214844 21.398438 15.535156 C 21.386719 15.5625 21.375 15.613281 21.410156 15.628906 C 21.453125 15.636719 21.484375 15.625 21.511719 15.59375 C 21.738281 15.347656 21.96875 15.125 22.273438 14.984375 C 22.347656 14.945312 22.519531 14.917969 22.582031 14.820312 Z M 21.644531 15.792969 C 21.546875 15.890625 21.257812 16.101562 21.476562 16.214844 C 21.589844 16.246094 21.644531 16.125 21.710938 16.058594 C 21.875 15.875 22.082031 15.765625 22.210938 15.601562 C 22.238281 15.550781 22.25 15.472656 22.167969 15.46875 C 21.953125 15.457031 21.804688 15.679688 21.644531 15.792969 Z M 21.671875 10.136719 C 22.03125 10.011719 22.355469 9.96875 22.730469 9.945312 C 22.769531 9.933594 22.839844 9.910156 22.851562 9.871094 C 22.808594 9.808594 22.746094 9.78125 22.671875 9.78125 C 22.316406 9.789062 21.972656 9.851562 21.636719 9.964844 C 21.566406 9.980469 21.457031 10.023438 21.496094 10.113281 C 21.535156 10.175781 21.613281 10.160156 21.671875 10.136719 Z M 23.257812 10.359375 C 23.382812 10.335938 23.207031 10.25 23.15625 10.242188 C 22.90625 10.203125 22.660156 10.210938 22.414062 10.265625 C 22.386719 10.28125 22.363281 10.316406 22.371094 10.339844 C 22.398438 10.410156 22.480469 10.390625 22.539062 10.382812 C 22.800781 10.328125 23.039062 10.390625 23.257812 10.359375 Z M 24.140625 9.980469 C 24.078125 9.945312 23.871094 9.882812 23.75 9.855469 C 23.644531 9.835938 23.445312 9.746094 23.417969 9.910156 C 23.421875 9.949219 23.441406 9.980469 23.476562 10.003906 C 23.597656 10.046875 23.730469 10.058594 23.855469 10.09375 C 24.011719 10.113281 24.175781 10.277344 24.332031 10.175781 C 24.351562 10.15625 24.320312 10.113281 24.3125 10.09375 C 24.273438 10.03125 24.207031 10.003906 24.140625 9.980469 Z M 5.15625 11.644531 C 5.273438 11.671875 5.390625 11.578125 5.429688 11.464844 C 5.472656 11.351562 5.515625 11.195312 5.359375 10.996094 C 5.292969 10.914062 5.148438 10.925781 5.074219 11 C 4.996094 11.078125 4.972656 11.191406 4.96875 11.296875 C 4.964844 11.371094 4.976562 11.4375 5.003906 11.507812 C 5.03125 11.578125 5.082031 11.621094 5.15625 11.644531 Z M 8.488281 11.597656 C 8.570312 11.542969 8.597656 11.429688 8.605469 11.328125 C 8.609375 11.226562 8.59375 11.125 8.460938 10.996094 C 8.394531 10.933594 8.28125 10.941406 8.210938 11.003906 C 8.140625 11.0625 8.105469 11.15625 8.101562 11.246094 C 8.09375 11.355469 8.117188 11.46875 8.191406 11.546875 C 8.265625 11.628906 8.394531 11.65625 8.488281 11.597656 Z M 8.488281 11.597656 " fill-opacity="1" fill-rule="nonzero"/></g><g clip-path="url(#42a3d88f80)"><path fill="#f3cec2" d="M 7.410156 12.492188 C 7.417969 12.554688 7.398438 12.625 7.34375 12.65625 C 7.257812 12.714844 7.136719 12.652344 7.042969 12.691406 C 6.957031 12.722656 6.902344 12.839844 6.808594 12.835938 C 6.710938 12.835938 6.660156 12.707031 6.566406 12.671875 C 6.5 12.648438 6.414062 12.683594 6.355469 12.640625 C 6.308594 12.605469 6.300781 12.539062 6.320312 12.488281 C 6.347656 12.4375 6.386719 12.394531 6.433594 12.367188 C 6.632812 12.234375 6.847656 12.203125 7.078125 12.261719 C 7.378906 12.347656 7.402344 12.429688 7.410156 12.492188 Z M 22.976562 22.019531 C 22.695312 22.03125 22.519531 22.175781 22.449219 22.445312 C 22.429688 22.535156 22.433594 22.636719 22.476562 22.714844 C 22.550781 22.847656 22.714844 22.894531 22.867188 22.90625 C 22.988281 22.914062 23.117188 22.902344 23.226562 22.84375 C 23.414062 22.742188 23.492188 22.582031 23.460938 22.367188 C 23.433594 22.183594 23.273438 22.023438 22.976562 22.019531 Z M 22.558594 21.390625 C 22.496094 21.421875 22.429688 21.457031 22.382812 21.511719 C 22.339844 21.566406 22.316406 21.648438 22.351562 21.710938 C 22.378906 21.761719 22.433594 21.789062 22.492188 21.800781 C 22.585938 21.828125 22.679688 21.824219 22.773438 21.796875 C 22.851562 21.769531 22.929688 21.714844 22.945312 21.636719 C 22.960938 21.5625 22.914062 21.488281 22.855469 21.441406 C 22.792969 21.398438 22.703125 21.320312 22.558594 21.390625 Z M 21.941406 21.6875 C 21.824219 21.644531 21.730469 21.667969 21.65625 21.765625 C 21.582031 21.867188 21.582031 21.964844 21.652344 22.0625 C 21.699219 22.117188 21.757812 22.160156 21.824219 22.183594 C 21.886719 22.210938 21.953125 22.226562 22.019531 22.222656 C 22.144531 22.210938 22.226562 22.148438 22.265625 22.027344 C 22.296875 21.921875 22.253906 21.808594 21.941406 21.6875 Z M 21.667969 22.375 C 21.570312 22.40625 21.464844 22.457031 21.433594 22.554688 C 21.40625 22.652344 21.46875 22.757812 21.558594 22.800781 C 21.644531 22.84375 21.753906 22.835938 21.847656 22.804688 C 21.929688 22.777344 22.015625 22.71875 22.039062 22.632812 C 22.050781 22.574219 22.039062 22.519531 22.007812 22.46875 C 21.976562 22.417969 21.933594 22.378906 21.667969 22.375 Z M 22.273438 22.832031 C 22.179688 22.84375 22.125 22.894531 22.101562 22.984375 C 22.085938 23.070312 22.109375 23.144531 22.179688 23.203125 C 22.246094 23.257812 22.320312 23.277344 22.40625 23.261719 C 22.5 23.246094 22.566406 23.195312 22.601562 23.105469 C 22.628906 23.023438 22.59375 22.921875 22.273438 22.832031 Z M 5.0625 12.535156 C 4.117188 12.082031 3.027344 12.125 2.019531 12.308594 C 1.558594 12.390625 1.089844 12.457031 0.65625 12.648438 C 0.484375 12.769531 0.59375 12.800781 0.746094 12.777344 C 2.085938 12.433594 3.484375 12.136719 4.804688 12.628906 C 4.921875 12.640625 5.105469 12.851562 5.199219 12.691406 C 5.21875 12.605469 5.128906 12.5625 5.0625 12.535156 Z M 4.582031 13.101562 C 3.285156 13.007812 2.042969 13.226562 0.859375 13.761719 C 0.816406 13.792969 0.789062 13.828125 0.765625 13.875 C 0.828125 13.890625 0.886719 13.886719 0.945312 13.867188 C 2.054688 13.457031 3.230469 13.1875 4.429688 13.261719 C 4.53125 13.253906 4.722656 13.335938 4.753906 13.199219 C 4.746094 13.113281 4.652344 13.105469 4.582031 13.101562 Z M 4.628906 13.609375 C 3.40625 13.640625 2.253906 14.210938 1.238281 14.847656 C 1.128906 14.972656 1.222656 14.96875 1.339844 14.941406 C 2.359375 14.394531 3.417969 13.835938 4.578125 13.796875 C 4.667969 13.796875 4.839844 13.828125 4.828125 13.6875 C 4.800781 13.601562 4.699219 13.609375 4.628906 13.609375 Z M 13.824219 12.039062 C 13.785156 12.003906 13.742188 11.980469 13.6875 11.96875 C 13.390625 11.914062 13.089844 11.886719 12.789062 11.859375 C 11.519531 11.691406 10.242188 11.902344 9.03125 12.300781 C 8.929688 12.347656 8.660156 12.359375 8.746094 12.519531 C 8.792969 12.566406 8.859375 12.550781 8.914062 12.527344 C 9.539062 12.328125 10.171875 12.171875 10.816406 12.058594 C 11.734375 11.953125 12.8125 12.027344 13.65625 12.152344 C 13.730469 12.167969 13.8125 12.15625 13.867188 12.101562 C 13.855469 12.078125 13.84375 12.058594 13.824219 12.039062 Z M 13.199219 12.949219 C 12.871094 12.753906 12.445312 12.757812 12.074219 12.675781 C 11.324219 12.527344 10.558594 12.59375 9.804688 12.667969 C 9.644531 12.6875 9.480469 12.683594 9.328125 12.726562 C 9.273438 12.753906 9.253906 12.792969 9.265625 12.851562 C 9.28125 12.894531 9.308594 12.921875 9.355469 12.933594 C 9.738281 12.910156 10.121094 12.859375 10.503906 12.839844 C 11.449219 12.730469 12.230469 12.941406 13.140625 13.078125 C 13.179688 13.070312 13.214844 13.054688 13.238281 13.023438 C 13.234375 12.996094 13.21875 12.972656 13.199219 12.949219 Z M 12.839844 14.628906 C 12.390625 14.417969 11.984375 14.128906 11.558594 13.882812 C 11.039062 13.609375 10.414062 13.445312 9.867188 13.386719 C 9.660156 13.367188 9.449219 13.324219 9.242188 13.324219 C 9.195312 13.335938 9.148438 13.382812 9.164062 13.433594 C 9.1875 13.515625 9.277344 13.515625 9.347656 13.519531 C 9.863281 13.574219 10.257812 13.597656 10.769531 13.765625 C 11.472656 13.925781 12.007812 14.449219 12.6875 14.710938 C 12.785156 14.753906 13.003906 14.769531 12.839844 14.628906 Z M 4.46875 8.128906 C 4.222656 8.15625 3.984375 8.117188 3.746094 8.070312 C 3.375 7.996094 3.09375 7.714844 2.847656 7.441406 C 2.808594 7.40625 2.769531 7.375 2.726562 7.347656 C 2.726562 7.394531 2.738281 7.4375 2.761719 7.480469 C 3.136719 8.03125 3.800781 8.300781 4.453125 8.234375 C 4.492188 8.234375 4.542969 8.214844 4.550781 8.175781 C 4.539062 8.144531 4.5 8.128906 4.46875 8.128906 Z M 3.9375 8.472656 C 3.828125 8.46875 3.675781 8.484375 3.597656 8.464844 C 3.320312 8.417969 3.070312 8.351562 2.851562 8.179688 C 2.753906 8.117188 2.636719 7.953125 2.496094 7.914062 C 2.480469 7.910156 2.445312 7.894531 2.453125 7.921875 C 2.507812 8.160156 2.847656 8.359375 3.054688 8.464844 C 3.335938 8.578125 3.660156 8.671875 3.964844 8.613281 C 3.988281 8.597656 4.015625 8.566406 4.007812 8.535156 C 3.996094 8.5 3.972656 8.480469 3.9375 8.472656 Z M 11.242188 6.769531 C 11.144531 6.78125 11.078125 6.863281 11.023438 6.933594 C 10.777344 7.265625 10.425781 7.449219 10.0625 7.652344 C 9.84375 7.769531 9.652344 7.863281 9.40625 7.921875 C 9.363281 7.933594 9.316406 7.984375 9.34375 8.03125 C 9.363281 8.0625 9.394531 8.074219 9.433594 8.070312 C 9.757812 8.003906 10.058594 7.839844 10.347656 7.675781 C 10.691406 7.484375 11.023438 7.25 11.238281 6.914062 C 11.253906 6.878906 11.289062 6.773438 11.242188 6.769531 Z M 11.613281 7.484375 C 11.578125 7.488281 11.546875 7.496094 11.519531 7.511719 C 11.070312 7.96875 10.640625 8.5 10.035156 8.664062 C 9.980469 8.675781 9.929688 8.738281 9.957031 8.792969 C 10.003906 8.863281 10.09375 8.832031 10.160156 8.808594 C 10.640625 8.652344 11.015625 8.289062 11.363281 7.933594 C 11.449219 7.820312 11.578125 7.722656 11.617188 7.582031 C 11.625 7.546875 11.621094 7.515625 11.613281 7.484375 Z M 11.613281 7.484375 " fill-opacity="1" fill-rule="nonzero"/></g></svg>