<svg xmlns="http://www.w3.org/2000/svg" xmlns:xlink="http://www.w3.org/1999/xlink" width="50" zoomAndPan="magnify" viewBox="0 0 37.5 37.499999" height="50" preserveAspectRatio="xMidYMid meet" version="1.0"><defs><clipPath id="52129e2f64"><path d="M 2.734375 7.769531 L 34.558594 7.769531 L 34.558594 29 L 2.734375 29 Z M 2.734375 7.769531 " clip-rule="nonzero"/></clipPath></defs><g clip-path="url(#52129e2f64)"><path fill="#fbf3ee" d="M 13.714844 21.933594 C 13.667969 21.804688 13.734375 21.660156 13.863281 21.609375 L 15.015625 21.183594 C 15.148438 21.136719 15.292969 21.203125 15.339844 21.332031 C 15.390625 21.464844 15.324219 21.609375 15.191406 21.65625 L 14.039062 22.082031 C 14.011719 22.09375 13.980469 22.097656 13.953125 22.097656 C 13.847656 22.097656 13.753906 22.035156 13.714844 21.933594 Z M 11.808594 17.984375 C 12.265625 17.984375 12.632812 17.613281 12.632812 17.15625 C 12.632812 16.695312 12.265625 16.328125 11.808594 16.328125 C 11.355469 16.328125 10.984375 16.695312 10.984375 17.15625 C 10.984375 17.613281 11.355469 17.984375 11.808594 17.984375 Z M 13.890625 20.140625 L 14.992188 20.691406 C 15.027344 20.710938 15.066406 20.71875 15.105469 20.71875 C 15.195312 20.71875 15.285156 20.667969 15.328125 20.582031 C 15.390625 20.457031 15.34375 20.304688 15.21875 20.242188 L 14.121094 19.6875 C 13.996094 19.625 13.84375 19.675781 13.78125 19.800781 C 13.71875 19.925781 13.769531 20.078125 13.890625 20.140625 Z M 25.8125 21.871094 L 24.714844 21.871094 C 24.578125 21.871094 24.464844 21.984375 24.464844 22.121094 C 24.464844 22.261719 24.578125 22.375 24.714844 22.375 L 25.8125 22.375 C 25.953125 22.375 26.066406 22.261719 26.066406 22.121094 C 26.066406 21.984375 25.953125 21.871094 25.8125 21.871094 Z M 30.757812 21.871094 L 29.660156 21.871094 C 29.519531 21.871094 29.40625 21.984375 29.40625 22.121094 C 29.40625 22.261719 29.519531 22.375 29.660156 22.375 L 30.757812 22.375 C 30.898438 22.375 31.007812 22.261719 31.007812 22.121094 C 31.007812 21.984375 30.898438 21.871094 30.757812 21.871094 Z M 30.691406 23.578125 L 29.808594 22.921875 C 29.695312 22.839844 29.539062 22.863281 29.457031 22.972656 C 29.371094 23.085938 29.398438 23.242188 29.507812 23.328125 L 30.394531 23.980469 C 30.4375 24.015625 30.492188 24.03125 30.542969 24.03125 C 30.621094 24.03125 30.695312 23.996094 30.746094 23.929688 C 30.828125 23.816406 30.804688 23.660156 30.691406 23.578125 Z M 34.578125 25.710938 C 34.578125 25.851562 34.464844 25.964844 34.328125 25.964844 L 32.789062 25.964844 C 32.882812 26.226562 32.933594 26.511719 32.933594 26.816406 C 32.933594 28.019531 32.128906 29 31.140625 29 C 30.15625 29 29.351562 28.019531 29.351562 26.816406 C 29.351562 26.394531 29.449219 26 29.621094 25.667969 C 29.042969 25.84375 28.40625 25.9375 27.738281 25.9375 C 27.070312 25.9375 26.433594 25.84375 25.851562 25.667969 C 26.023438 26 26.121094 26.394531 26.121094 26.816406 C 26.121094 28.019531 25.320312 29 24.332031 29 C 23.34375 29 22.542969 28.019531 22.542969 26.816406 C 22.542969 26.511719 22.589844 26.226562 22.683594 25.964844 L 20.023438 25.964844 C 20.023438 25.972656 20.023438 25.980469 20.023438 25.988281 C 20.023438 27.226562 19.359375 28.320312 18.488281 28.78125 C 18.207031 28.921875 17.898438 29 17.574219 29 C 17.253906 29 16.945312 28.921875 16.664062 28.78125 C 15.792969 28.320312 15.125 27.226562 15.125 25.988281 C 15.125 25.980469 15.128906 25.972656 15.128906 25.964844 L 9.589844 25.964844 C 9.589844 25.972656 9.589844 25.980469 9.589844 25.988281 C 9.589844 27.226562 8.976562 28.292969 8.105469 28.753906 C 7.824219 28.894531 7.460938 29 7.140625 29 C 6.816406 29 6.457031 28.894531 6.175781 28.753906 C 5.304688 28.292969 4.691406 27.226562 4.691406 25.988281 C 4.691406 25.980469 4.691406 25.972656 4.691406 25.964844 L 3.019531 25.964844 C 2.882812 25.964844 2.769531 25.851562 2.769531 25.710938 C 2.769531 25.570312 2.882812 25.457031 3.019531 25.457031 L 4.730469 25.457031 C 4.921875 24.140625 5.808594 23.117188 6.90625 22.988281 C 6.953125 22.402344 7.042969 21.8125 7.167969 21.242188 C 7.269531 20.777344 7.398438 20.320312 7.546875 19.867188 C 7.363281 19.988281 7.160156 20.085938 6.941406 20.15625 C 6.816406 20.195312 6.570312 20.273438 6.273438 20.273438 C 6.082031 20.273438 5.871094 20.242188 5.664062 20.144531 C 4.371094 19.554688 4.035156 17.023438 4.136719 15.039062 C 4.253906 12.710938 5.019531 9.785156 6.785156 9.1875 C 7.46875 8.953125 8.664062 9.003906 10.5 10.53125 L 13.839844 9.757812 C 14.589844 8.464844 15.382812 7.804688 16.199219 7.792969 C 17.636719 7.769531 18.988281 9.730469 19.710938 11.410156 C 20.40625 13.039062 20.886719 15.277344 19.953125 16.226562 C 19.613281 16.574219 19.097656 16.730469 18.414062 16.699219 C 18.449219 17.277344 18.425781 17.792969 18.386719 18.203125 C 18.777344 18.871094 20.144531 21.421875 19.15625 22.820312 C 19.027344 23 18.863281 23.15625 18.667969 23.289062 C 19.359375 23.710938 19.851562 24.515625 19.988281 25.457031 L 22.929688 25.457031 C 23.199219 25.046875 23.585938 24.753906 24.027344 24.664062 C 23.78125 24.4375 23.570312 24.183594 23.402344 23.910156 C 22.484375 22.402344 22.996094 20.550781 23.324219 19.6875 C 21.996094 18.132812 21.734375 16.441406 22.347656 15.867188 C 22.988281 15.261719 24.574219 15.730469 25.910156 16.902344 L 29.5625 16.902344 C 30.898438 15.730469 32.484375 15.261719 33.128906 15.867188 C 33.738281 16.441406 33.476562 18.132812 32.148438 19.6875 C 32.476562 20.550781 32.992188 22.402344 32.070312 23.910156 C 31.902344 24.183594 31.695312 24.4375 31.445312 24.664062 C 31.886719 24.753906 32.277344 25.046875 32.542969 25.457031 L 34.328125 25.457031 C 34.464844 25.457031 34.578125 25.570312 34.578125 25.710938 Z M 9.085938 25.988281 C 9.085938 24.605469 8.210938 23.480469 7.140625 23.480469 C 6.066406 23.480469 5.195312 24.605469 5.195312 25.988281 C 5.195312 26.855469 5.542969 27.625 6.0625 28.074219 L 6.0625 26.261719 C 6.0625 26.125 6.175781 26.011719 6.316406 26.011719 C 6.457031 26.011719 6.570312 26.125 6.570312 26.261719 L 6.570312 28.382812 C 6.75 28.457031 6.941406 28.496094 7.140625 28.496094 C 7.339844 28.496094 7.53125 28.457031 7.710938 28.382812 L 7.710938 26.261719 C 7.710938 26.125 7.824219 26.011719 7.964844 26.011719 C 8.105469 26.011719 8.214844 26.125 8.214844 26.261719 L 8.214844 28.074219 C 8.738281 27.625 9.085938 26.855469 9.085938 25.988281 Z M 15.164062 25.457031 C 15.257812 24.8125 15.519531 24.226562 15.90625 23.78125 C 14.460938 23.628906 12.691406 23.003906 10.847656 21.78125 C 10.730469 21.703125 10.699219 21.546875 10.773438 21.429688 C 10.851562 21.316406 11.007812 21.285156 11.125 21.359375 C 12.765625 22.449219 14.5 23.128906 16.003906 23.277344 C 17.296875 23.40625 18.320312 23.128906 18.742188 22.527344 C 18.761719 22.5 18.78125 22.472656 18.796875 22.445312 C 18.609375 22.589844 18.378906 22.675781 18.125 22.675781 C 17.519531 22.675781 17.027344 22.179688 17.027344 21.570312 C 17.027344 20.960938 17.519531 20.46875 18.125 20.46875 C 18.4375 20.46875 18.71875 20.597656 18.917969 20.808594 C 18.675781 19.699219 18.019531 18.574219 17.910156 18.386719 C 17.878906 18.339844 17.867188 18.285156 17.875 18.230469 C 18.003906 17.042969 18.003906 14.765625 16.550781 12.894531 C 16.25 12.503906 15.894531 12.144531 15.496094 11.832031 C 15.386719 11.746094 15.367188 11.585938 15.457031 11.476562 C 15.542969 11.367188 15.699219 11.347656 15.808594 11.4375 C 16.238281 11.773438 16.621094 12.160156 16.953125 12.582031 C 17.855469 13.75 18.238281 15.054688 18.371094 16.191406 C 18.9375 16.230469 19.347656 16.121094 19.59375 15.875 C 20.199219 15.257812 20.054688 13.503906 19.246094 11.609375 C 18.410156 9.65625 17.167969 8.296875 16.222656 8.296875 C 16.214844 8.296875 16.210938 8.296875 16.207031 8.296875 C 15.5625 8.308594 14.898438 8.914062 14.226562 10.101562 C 14.191406 10.164062 14.132812 10.207031 14.0625 10.222656 L 10.492188 11.050781 C 10.414062 11.070312 10.332031 11.050781 10.273438 11 C 8.917969 9.847656 7.765625 9.386719 6.945312 9.664062 C 5.527344 10.144531 4.757812 12.800781 4.640625 15.0625 C 4.519531 17.398438 5.027344 19.296875 5.871094 19.683594 C 6.230469 19.851562 6.621094 19.726562 6.789062 19.675781 C 9.214844 18.910156 9.359375 13.613281 9.359375 13.5625 C 9.363281 13.421875 9.476562 13.3125 9.613281 13.3125 C 9.613281 13.3125 9.617188 13.3125 9.617188 13.3125 C 9.757812 13.316406 9.867188 13.433594 9.863281 13.570312 C 9.859375 13.753906 9.765625 17.128906 8.414062 19.019531 C 8.089844 19.769531 7.835938 20.554688 7.660156 21.347656 C 7.542969 21.890625 7.460938 22.441406 7.410156 22.992188 C 8.492188 23.140625 9.363281 24.15625 9.550781 25.457031 Z M 19.519531 25.988281 C 19.519531 24.859375 18.945312 23.882812 18.109375 23.574219 C 17.683594 23.734375 17.179688 23.816406 16.601562 23.820312 C 16.003906 24.269531 15.632812 25.089844 15.632812 25.988281 C 15.632812 26.855469 15.976562 27.625 16.5 28.074219 L 16.5 26.261719 C 16.5 26.125 16.613281 26.011719 16.753906 26.011719 C 16.890625 26.011719 17.003906 26.125 17.003906 26.261719 L 17.003906 28.382812 C 17.183594 28.457031 17.378906 28.496094 17.574219 28.496094 C 17.773438 28.496094 17.964844 28.457031 18.148438 28.382812 L 18.148438 26.261719 C 18.148438 26.125 18.261719 26.011719 18.398438 26.011719 C 18.539062 26.011719 18.652344 26.125 18.652344 26.261719 L 18.652344 28.074219 C 19.175781 27.625 19.519531 26.855469 19.519531 25.988281 Z M 25.617188 26.816406 C 25.617188 25.890625 25.039062 25.136719 24.332031 25.136719 C 23.621094 25.136719 23.046875 25.890625 23.046875 26.816406 C 23.046875 27.628906 23.492188 28.308594 24.078125 28.460938 L 24.078125 27.007812 C 24.078125 26.871094 24.191406 26.757812 24.332031 26.757812 C 24.472656 26.757812 24.582031 26.871094 24.582031 27.007812 L 24.582031 28.460938 C 25.171875 28.308594 25.617188 27.628906 25.617188 26.816406 Z M 31.640625 23.648438 C 32.519531 22.203125 31.847656 20.289062 31.621094 19.734375 C 31.585938 19.644531 31.601562 19.542969 31.667969 19.46875 C 33.015625 17.964844 33.109375 16.542969 32.78125 16.234375 C 32.4375 15.910156 31.113281 16.179688 29.828125 17.34375 C 29.78125 17.382812 29.722656 17.40625 29.660156 17.40625 L 28.8125 17.40625 L 28.8125 18.8125 C 28.8125 18.949219 28.699219 19.0625 28.558594 19.0625 C 28.421875 19.0625 28.308594 18.949219 28.308594 18.8125 L 28.308594 17.40625 L 27.164062 17.40625 L 27.164062 18.8125 C 27.164062 18.949219 27.050781 19.0625 26.914062 19.0625 C 26.773438 19.0625 26.660156 18.949219 26.660156 18.8125 L 26.660156 17.40625 L 25.8125 17.40625 C 25.75 17.40625 25.691406 17.382812 25.644531 17.34375 C 24.359375 16.179688 23.039062 15.910156 22.691406 16.234375 C 22.363281 16.542969 22.460938 17.964844 23.804688 19.46875 C 23.871094 19.542969 23.886719 19.644531 23.851562 19.734375 C 23.625 20.289062 22.953125 22.203125 23.832031 23.648438 C 24.503906 24.75 26 25.433594 27.738281 25.433594 C 29.472656 25.433594 30.96875 24.75 31.640625 23.648438 Z M 32.425781 26.816406 C 32.425781 25.890625 31.851562 25.136719 31.140625 25.136719 C 30.433594 25.136719 29.855469 25.890625 29.855469 26.816406 C 29.855469 27.628906 30.300781 28.308594 30.890625 28.460938 L 30.890625 27.007812 C 30.890625 26.871094 31.003906 26.757812 31.140625 26.757812 C 31.28125 26.757812 31.394531 26.871094 31.394531 27.007812 L 31.394531 28.460938 C 31.984375 28.308594 32.425781 27.628906 32.425781 26.816406 Z M 30.207031 20.742188 C 30.207031 20.4375 29.960938 20.191406 29.660156 20.191406 C 29.355469 20.191406 29.109375 20.4375 29.109375 20.742188 C 29.109375 21.046875 29.355469 21.296875 29.660156 21.296875 C 29.960938 21.296875 30.207031 21.046875 30.207031 20.742188 Z M 25.8125 20.191406 C 25.511719 20.191406 25.265625 20.4375 25.265625 20.742188 C 25.265625 21.046875 25.511719 21.296875 25.8125 21.296875 C 26.117188 21.296875 26.363281 21.046875 26.363281 20.742188 C 26.363281 20.4375 26.117188 20.191406 25.8125 20.191406 Z M 25.664062 22.921875 L 24.78125 23.578125 C 24.667969 23.660156 24.644531 23.816406 24.726562 23.929688 C 24.777344 23.996094 24.851562 24.03125 24.929688 24.03125 C 24.980469 24.03125 25.035156 24.015625 25.082031 23.980469 L 25.964844 23.328125 C 26.078125 23.242188 26.101562 23.085938 26.015625 22.972656 C 25.933594 22.863281 25.777344 22.839844 25.664062 22.921875 Z M 28.28125 22.121094 L 27.191406 22.121094 C 26.863281 22.121094 26.683594 22.507812 26.894531 22.761719 C 27.074219 22.980469 27.257812 23.199219 27.4375 23.417969 C 27.59375 23.605469 27.878906 23.605469 28.035156 23.417969 C 28.214844 23.199219 28.398438 22.980469 28.578125 22.761719 C 28.789062 22.507812 28.609375 22.121094 28.28125 22.121094 Z M 28.28125 22.121094 " fill-opacity="1" fill-rule="nonzero"/></g></svg>