<svg xmlns="http://www.w3.org/2000/svg" xmlns:xlink="http://www.w3.org/1999/xlink" width="50" zoomAndPan="magnify" viewBox="0 0 37.5 37.499999" height="50" preserveAspectRatio="xMidYMid meet" version="1.0"><defs><clipPath id="62a0a6c853"><path d="M 3.699219 6.03125 L 21 6.03125 L 21 22 L 3.699219 22 Z M 3.699219 6.03125 " clip-rule="nonzero"/></clipPath><clipPath id="0bf7604668"><path d="M 20 6.03125 L 33.304688 6.03125 L 33.304688 22 L 20 22 Z M 20 6.03125 " clip-rule="nonzero"/></clipPath></defs><path fill="#fbf3ee" d="M 15.800781 24.289062 C 16.292969 23.902344 16.710938 23.410156 17.035156 22.828125 C 17.332031 22.304688 17.761719 21.863281 18.28125 21.554688 C 18.8125 21.234375 19.425781 21.066406 20.046875 21.066406 L 20.050781 21.066406 C 20.675781 21.066406 21.285156 21.234375 21.816406 21.554688 C 22.335938 21.863281 22.765625 22.304688 23.0625 22.828125 C 23.386719 23.410156 23.804688 23.902344 24.296875 24.289062 C 24.789062 24.675781 25.089844 25.257812 25.128906 25.878906 C 25.144531 26.1875 25.101562 26.488281 24.996094 26.773438 C 24.894531 27.046875 24.738281 27.296875 24.539062 27.507812 C 24.335938 27.726562 24.09375 27.894531 23.820312 28.011719 C 23.539062 28.136719 23.238281 28.199219 22.921875 28.199219 C 22.355469 28.199219 21.90625 28.089844 21.476562 27.980469 C 21.03125 27.871094 20.613281 27.769531 20.054688 27.777344 L 20.042969 27.777344 C 20.019531 27.777344 19.992188 27.777344 19.96875 27.777344 C 19.445312 27.777344 19.046875 27.875 18.621094 27.980469 C 18.191406 28.089844 17.742188 28.199219 17.171875 28.199219 C 16.859375 28.199219 16.558594 28.136719 16.277344 28.015625 C 16.003906 27.894531 15.761719 27.726562 15.558594 27.507812 C 15.355469 27.296875 15.203125 27.046875 15.101562 26.773438 C 14.996094 26.488281 14.953125 26.1875 14.96875 25.878906 C 15.007812 25.257812 15.308594 24.675781 15.800781 24.289062 Z M 15.800781 24.289062 " fill-opacity="1" fill-rule="nonzero"/><path fill="#fbf3ee" d="M 18.714844 20.546875 C 18.53125 20.636719 18.339844 20.683594 18.144531 20.683594 C 18.121094 20.683594 18.097656 20.683594 18.074219 20.683594 C 17.855469 20.671875 17.648438 20.601562 17.457031 20.476562 C 17.277344 20.359375 17.125 20.203125 16.996094 20.007812 C 16.746094 19.625 16.625 19.132812 16.652344 18.625 C 16.679688 18.113281 16.863281 17.527344 17.136719 17.058594 C 17.460938 16.5 17.867188 16.195312 18.28125 16.195312 C 18.296875 16.195312 18.3125 16.195312 18.328125 16.199219 C 18.757812 16.222656 19.144531 16.574219 19.414062 17.1875 C 19.632812 17.683594 19.746094 18.28125 19.714844 18.792969 C 19.6875 19.304688 19.511719 19.78125 19.222656 20.132812 C 19.074219 20.3125 18.902344 20.449219 18.714844 20.546875 Z M 18.714844 20.546875 " fill-opacity="1" fill-rule="nonzero"/><path fill="#fbf3ee" d="M 13.914062 19.9375 C 14.253906 19.414062 14.65625 19.128906 15.058594 19.128906 C 15.085938 19.128906 15.117188 19.128906 15.144531 19.132812 C 15.574219 19.175781 15.945312 19.546875 16.183594 20.171875 C 16.378906 20.675781 16.460938 21.28125 16.410156 21.792969 C 16.359375 22.300781 16.160156 22.765625 15.851562 23.105469 C 15.695312 23.277344 15.519531 23.410156 15.328125 23.496094 C 15.117188 23.585938 14.898438 23.625 14.679688 23.601562 C 14.460938 23.578125 14.257812 23.5 14.070312 23.363281 C 13.902344 23.242188 13.753906 23.078125 13.636719 22.875 C 13.40625 22.480469 13.304688 21.984375 13.359375 21.476562 C 13.410156 20.96875 13.617188 20.394531 13.914062 19.9375 Z M 13.914062 19.9375 " fill-opacity="1" fill-rule="nonzero"/><path fill="#fbf3ee" d="M 21.382812 20.546875 C 21.195312 20.449219 21.023438 20.3125 20.875 20.132812 C 20.585938 19.78125 20.410156 19.304688 20.382812 18.792969 C 20.351562 18.28125 20.464844 17.683594 20.683594 17.1875 C 20.953125 16.574219 21.339844 16.222656 21.769531 16.199219 C 22.203125 16.175781 22.625 16.480469 22.960938 17.058594 C 23.234375 17.527344 23.417969 18.113281 23.445312 18.625 C 23.472656 19.132812 23.351562 19.625 23.101562 20.007812 C 22.972656 20.203125 22.820312 20.359375 22.644531 20.476562 C 22.449219 20.601562 22.242188 20.671875 22.023438 20.683594 C 21.800781 20.695312 21.585938 20.648438 21.382812 20.546875 Z M 21.382812 20.546875 " fill-opacity="1" fill-rule="nonzero"/><path fill="#fbf3ee" d="M 25.289062 23.609375 C 25.113281 23.609375 24.9375 23.570312 24.769531 23.496094 C 24.578125 23.410156 24.402344 23.277344 24.246094 23.105469 C 23.9375 22.765625 23.738281 22.300781 23.6875 21.792969 C 23.636719 21.28125 23.71875 20.675781 23.914062 20.171875 C 24.152344 19.546875 24.523438 19.175781 24.953125 19.132812 C 24.980469 19.128906 25.007812 19.128906 25.039062 19.128906 C 25.441406 19.128906 25.84375 19.410156 26.183594 19.9375 C 26.480469 20.394531 26.6875 20.96875 26.738281 21.476562 C 26.792969 21.984375 26.691406 22.480469 26.460938 22.875 C 26.34375 23.078125 26.195312 23.242188 26.027344 23.363281 C 25.839844 23.5 25.636719 23.578125 25.417969 23.601562 C 25.375 23.605469 25.332031 23.609375 25.289062 23.609375 Z M 25.289062 23.609375 " fill-opacity="1" fill-rule="nonzero"/><g clip-path="url(#62a0a6c853)"><path fill="#fbf3ee" d="M 4.191406 13.5 C 4.261719 13.613281 4.339844 13.71875 4.433594 13.820312 C 4.800781 14.222656 5.304688 14.453125 5.84375 14.476562 C 6.214844 14.492188 6.574219 14.40625 6.890625 14.238281 C 6.988281 14.179688 7.109375 14.101562 7.191406 14.039062 C 7.515625 13.839844 8.125 13.535156 8.757812 13.589844 C 9.726562 13.765625 10.230469 14.539062 10.378906 14.8125 C 10.5625 15.195312 10.746094 15.8125 10.527344 16.5 C 10.285156 17.085938 9.730469 17.484375 9.40625 17.679688 C 9.3125 17.71875 9.1875 17.792969 9.089844 17.851562 C 8.789062 18.054688 8.550781 18.332031 8.390625 18.667969 C 8.160156 19.15625 8.132812 19.710938 8.316406 20.21875 C 8.363281 20.351562 8.417969 20.472656 8.488281 20.585938 C 8.976562 21.394531 9.988281 21.78125 10.914062 21.449219 C 11.75 21.148438 12.292969 20.347656 12.257812 19.460938 C 12.25 19.253906 12.210938 19.046875 12.140625 18.851562 C 12.023438 18.523438 11.824219 18.230469 11.5625 18.003906 C 11.4375 17.894531 11.25 17.910156 11.140625 18.035156 C 11.035156 18.160156 11.046875 18.347656 11.171875 18.457031 C 11.355469 18.617188 11.496094 18.820312 11.578125 19.054688 C 11.628906 19.191406 11.65625 19.335938 11.660156 19.484375 C 11.683594 20.109375 11.304688 20.675781 10.710938 20.886719 C 10.351562 21.015625 9.960938 20.996094 9.613281 20.832031 C 9.269531 20.667969 9.007812 20.378906 8.878906 20.019531 C 8.75 19.660156 8.769531 19.269531 8.933594 18.921875 C 9.042969 18.6875 9.214844 18.488281 9.425781 18.347656 C 9.511719 18.289062 9.617188 18.234375 9.746094 18.1875 C 9.914062 18.121094 10.09375 18.097656 10.273438 18.101562 C 10.273438 18.101562 10.273438 18.101562 10.277344 18.101562 C 10.285156 18.101562 10.292969 18.101562 10.300781 18.101562 C 10.304688 18.101562 10.304688 18.101562 10.304688 18.101562 C 10.3125 18.101562 10.320312 18.101562 10.328125 18.097656 C 10.332031 18.097656 10.332031 18.097656 10.335938 18.097656 C 10.339844 18.097656 10.34375 18.097656 10.347656 18.097656 C 10.363281 18.09375 10.375 18.089844 10.390625 18.085938 C 10.390625 18.082031 10.390625 18.082031 10.390625 18.082031 C 10.394531 18.082031 10.402344 18.078125 10.40625 18.078125 C 10.410156 18.074219 10.414062 18.074219 10.417969 18.070312 C 10.421875 18.070312 10.421875 18.070312 10.425781 18.066406 C 10.460938 18.046875 10.496094 18.019531 10.519531 17.984375 C 10.523438 17.984375 10.527344 17.980469 10.527344 17.980469 C 10.53125 17.976562 10.53125 17.972656 10.535156 17.96875 C 10.539062 17.964844 10.539062 17.957031 10.542969 17.953125 L 12.242188 14.96875 C 13.972656 14.832031 16.8125 14.585938 18.679688 14.347656 C 19.703125 14.214844 20.421875 13.757812 20.929688 12.914062 C 20.988281 12.820312 20.988281 12.703125 20.933594 12.609375 C 20.875 12.515625 20.773438 12.457031 20.664062 12.460938 L 13.53125 12.699219 L 17.066406 6.484375 C 17.121094 6.390625 17.117188 6.273438 17.058594 6.179688 C 17.003906 6.085938 16.898438 6.03125 16.789062 6.039062 C 15.804688 6.097656 15.066406 6.519531 14.472656 7.367188 C 13.390625 8.910156 11.847656 11.320312 10.921875 12.789062 L 7.480469 12.902344 C 7.480469 12.902344 7.480469 12.902344 7.476562 12.902344 C 7.472656 12.902344 7.464844 12.902344 7.460938 12.90625 C 7.457031 12.90625 7.453125 12.90625 7.449219 12.90625 C 7.445312 12.90625 7.441406 12.90625 7.4375 12.90625 C 7.394531 12.914062 7.355469 12.929688 7.320312 12.957031 C 7.320312 12.957031 7.316406 12.957031 7.316406 12.960938 C 7.3125 12.960938 7.308594 12.964844 7.304688 12.96875 C 7.300781 12.972656 7.296875 12.972656 7.292969 12.976562 C 7.292969 12.976562 7.292969 12.976562 7.289062 12.980469 C 7.28125 12.988281 7.269531 13 7.261719 13.011719 C 7.257812 13.011719 7.253906 13.015625 7.253906 13.019531 C 7.25 13.019531 7.25 13.023438 7.25 13.023438 C 7.246094 13.03125 7.238281 13.039062 7.234375 13.042969 C 7.234375 13.046875 7.234375 13.046875 7.234375 13.046875 C 7.230469 13.054688 7.226562 13.0625 7.222656 13.070312 C 7.140625 13.234375 7.039062 13.382812 6.902344 13.5 C 6.796875 13.589844 6.699219 13.660156 6.613281 13.707031 C 6.386719 13.832031 6.132812 13.890625 5.871094 13.878906 C 5.488281 13.863281 5.132812 13.699219 4.875 13.417969 C 4.617188 13.136719 4.480469 12.769531 4.496094 12.386719 C 4.515625 12.003906 4.679688 11.648438 4.960938 11.390625 C 5.421875 10.964844 6.097656 10.890625 6.644531 11.203125 C 6.769531 11.273438 6.886719 11.367188 6.984375 11.476562 C 7.152344 11.65625 7.269531 11.875 7.324219 12.113281 C 7.363281 12.273438 7.523438 12.375 7.683594 12.335938 C 7.84375 12.296875 7.945312 12.136719 7.90625 11.976562 C 7.828125 11.640625 7.660156 11.328125 7.425781 11.070312 C 7.285156 10.917969 7.121094 10.789062 6.941406 10.683594 C 6.167969 10.242188 5.210938 10.347656 4.554688 10.949219 C 3.832031 11.617188 3.703125 12.6875 4.191406 13.5 Z M 11.347656 13.527344 C 11.546875 13.40625 11.804688 13.46875 11.925781 13.667969 C 12.042969 13.867188 11.980469 14.125 11.78125 14.246094 C 11.582031 14.363281 11.324219 14.300781 11.207031 14.101562 C 11.085938 13.902344 11.148438 13.644531 11.347656 13.527344 Z M 11.347656 13.527344 " fill-opacity="1" fill-rule="nonzero"/></g><g clip-path="url(#0bf7604668)"><path fill="#fbf3ee" d="M 26.535156 16.792969 C 26.433594 16.664062 26.449219 16.476562 26.578125 16.371094 L 27.988281 15.214844 L 27.707031 14.871094 L 26.296875 16.03125 C 26.25 16.066406 26.195312 16.089844 26.136719 16.097656 C 26.042969 16.105469 25.941406 16.070312 25.875 15.988281 C 25.773438 15.859375 25.789062 15.671875 25.917969 15.570312 L 27.328125 14.410156 L 27.050781 14.074219 L 25.640625 15.230469 C 25.59375 15.269531 25.539062 15.292969 25.480469 15.296875 C 25.386719 15.308594 25.285156 15.269531 25.21875 15.191406 C 25.117188 15.0625 25.132812 14.875 25.261719 14.769531 L 26.671875 13.609375 L 26.390625 13.269531 L 24.980469 14.425781 C 24.933594 14.464844 24.878906 14.488281 24.820312 14.492188 C 24.726562 14.503906 24.625 14.464844 24.558594 14.386719 C 24.457031 14.257812 24.472656 14.070312 24.601562 13.964844 L 26.011719 12.808594 L 25.734375 12.46875 L 24.324219 13.628906 C 24.277344 13.667969 24.222656 13.6875 24.164062 13.695312 C 24.070312 13.703125 23.96875 13.667969 23.902344 13.585938 C 23.800781 13.460938 23.816406 13.273438 23.945312 13.167969 L 25.355469 12.007812 L 25.074219 11.667969 L 23.664062 12.824219 C 23.617188 12.863281 23.5625 12.886719 23.503906 12.890625 C 23.410156 12.902344 23.308594 12.863281 23.242188 12.785156 C 23.136719 12.65625 23.15625 12.46875 23.285156 12.363281 L 24.695312 11.203125 L 24.414062 10.863281 L 23.003906 12.019531 C 22.957031 12.058594 22.902344 12.082031 22.84375 12.085938 C 22.75 12.097656 22.648438 12.058594 22.582031 11.980469 C 22.476562 11.851562 22.496094 11.664062 22.625 11.558594 L 24.035156 10.402344 L 23.753906 10.058594 L 22.34375 11.21875 C 22.296875 11.253906 22.242188 11.277344 22.183594 11.28125 C 22.085938 11.292969 21.988281 11.257812 21.921875 11.175781 C 21.816406 11.046875 21.835938 10.859375 21.964844 10.753906 L 23.375 9.597656 L 23.097656 9.257812 L 21.6875 10.417969 C 21.640625 10.457031 21.585938 10.480469 21.527344 10.484375 C 21.429688 10.496094 21.332031 10.457031 21.265625 10.378906 C 21.160156 10.25 21.179688 10.0625 21.308594 9.957031 L 22.71875 8.796875 L 22.453125 8.476562 L 21.042969 9.636719 C 20.914062 9.738281 20.726562 9.722656 20.621094 9.59375 C 20.421875 9.347656 20.339844 9.042969 20.394531 8.730469 C 20.441406 8.445312 20.601562 8.179688 20.84375 7.980469 L 22.15625 6.902344 C 22.433594 6.675781 22.761719 6.5625 23.089844 6.582031 C 23.433594 6.601562 23.746094 6.761719 23.972656 7.039062 L 32.984375 18.011719 C 33.210938 18.285156 33.304688 18.628906 33.25 18.96875 C 33.199219 19.289062 33.019531 19.585938 32.746094 19.8125 L 31.433594 20.890625 C 31.226562 21.058594 30.992188 21.160156 30.753906 21.183594 C 30.710938 21.191406 30.664062 21.191406 30.621094 21.191406 C 30.3125 21.183594 30.03125 21.046875 29.828125 20.800781 C 29.777344 20.738281 29.753906 20.660156 29.761719 20.582031 C 29.769531 20.503906 29.808594 20.429688 29.871094 20.378906 L 31.28125 19.222656 L 31.003906 18.886719 L 29.59375 20.042969 C 29.546875 20.082031 29.492188 20.105469 29.4375 20.109375 C 29.339844 20.121094 29.242188 20.082031 29.175781 20.003906 C 29.070312 19.875 29.089844 19.6875 29.214844 19.582031 L 30.625 18.421875 L 30.34375 18.082031 L 28.933594 19.238281 C 28.886719 19.277344 28.832031 19.300781 28.777344 19.304688 C 28.679688 19.316406 28.582031 19.277344 28.515625 19.199219 C 28.410156 19.070312 28.429688 18.882812 28.554688 18.777344 L 29.964844 17.621094 L 29.6875 17.28125 L 28.277344 18.441406 C 28.230469 18.480469 28.175781 18.5 28.121094 18.507812 C 28.023438 18.519531 27.925781 18.480469 27.859375 18.398438 C 27.753906 18.273438 27.773438 18.085938 27.898438 17.980469 L 29.308594 16.820312 L 29.027344 16.480469 L 27.617188 17.636719 C 27.570312 17.675781 27.515625 17.699219 27.460938 17.703125 C 27.363281 17.714844 27.261719 17.675781 27.199219 17.597656 C 27.09375 17.46875 27.109375 17.28125 27.238281 17.175781 L 28.648438 16.015625 L 28.367188 15.675781 L 26.957031 16.832031 C 26.910156 16.871094 26.855469 16.894531 26.796875 16.898438 C 26.703125 16.910156 26.601562 16.871094 26.535156 16.792969 Z M 26.535156 16.792969 " fill-opacity="1" fill-rule="nonzero"/></g><path fill="#fbf3ee" d="M 8.609375 25.613281 C 8.78125 25.601562 9.289062 25.503906 9.535156 25.207031 C 9.800781 24.894531 9.882812 24.234375 9.894531 24.007812 C 9.898438 23.832031 10.042969 23.695312 10.21875 23.691406 C 10.222656 23.691406 10.222656 23.691406 10.226562 23.691406 C 10.398438 23.691406 10.542969 23.824219 10.554688 24 C 10.574219 24.234375 10.671875 24.910156 10.917969 25.214844 C 11.140625 25.492188 11.664062 25.597656 11.847656 25.613281 C 12.023438 25.628906 12.15625 25.777344 12.152344 25.953125 C 12.148438 26.128906 12.007812 26.269531 11.832031 26.277344 C 11.808594 26.277344 11.214844 26.3125 10.914062 26.679688 C 10.640625 27.011719 10.5625 27.65625 10.558594 27.875 C 10.550781 28.054688 10.40625 28.199219 10.226562 28.199219 C 10.222656 28.199219 10.222656 28.199219 10.222656 28.199219 C 10.042969 28.195312 9.894531 28.050781 9.894531 27.871094 C 9.890625 27.652344 9.820312 27.011719 9.539062 26.679688 C 9.222656 26.308594 8.632812 26.277344 8.617188 26.277344 C 8.441406 26.269531 8.300781 26.125 8.296875 25.949219 C 8.296875 25.773438 8.429688 25.625 8.609375 25.613281 Z M 8.609375 25.613281 " fill-opacity="1" fill-rule="nonzero"/><path fill="#fbf3ee" d="M 27.957031 26.285156 C 28.191406 26.265625 28.875 26.136719 29.210938 25.738281 C 29.566406 25.3125 29.679688 24.425781 29.691406 24.121094 C 29.699219 23.882812 29.894531 23.695312 30.128906 23.691406 C 30.132812 23.691406 30.136719 23.691406 30.140625 23.691406 C 30.371094 23.691406 30.566406 23.871094 30.585938 24.105469 C 30.609375 24.421875 30.742188 25.335938 31.070312 25.746094 C 31.375 26.117188 32.082031 26.261719 32.328125 26.285156 C 32.566406 26.304688 32.746094 26.507812 32.738281 26.746094 C 32.730469 26.980469 32.542969 27.171875 32.304688 27.179688 C 32.277344 27.179688 31.476562 27.226562 31.070312 27.71875 C 30.699219 28.167969 30.59375 29.039062 30.585938 29.335938 C 30.578125 29.578125 30.382812 29.773438 30.140625 29.773438 C 30.136719 29.773438 30.136719 29.773438 30.136719 29.773438 C 29.890625 29.769531 29.695312 29.574219 29.691406 29.328125 C 29.6875 29.035156 29.589844 28.171875 29.210938 27.726562 C 28.785156 27.21875 27.988281 27.179688 27.972656 27.179688 C 27.734375 27.167969 27.542969 26.976562 27.539062 26.738281 C 27.535156 26.5 27.71875 26.300781 27.957031 26.285156 Z M 27.957031 26.285156 " fill-opacity="1" fill-rule="nonzero"/><path fill="#fbf3ee" d="M 25.410156 29.808594 C 25.542969 29.863281 25.636719 29.957031 25.691406 30.089844 C 25.746094 30.222656 25.746094 30.355469 25.691406 30.488281 C 25.636719 30.617188 25.542969 30.710938 25.410156 30.765625 C 25.277344 30.820312 25.148438 30.820312 25.015625 30.765625 C 24.882812 30.710938 24.789062 30.617188 24.734375 30.488281 C 24.679688 30.355469 24.679688 30.222656 24.734375 30.089844 C 24.789062 29.957031 24.882812 29.863281 25.015625 29.808594 C 25.148438 29.753906 25.277344 29.753906 25.410156 29.808594 Z M 25.410156 29.808594 " fill-opacity="1" fill-rule="nonzero"/><path fill="#fbf3ee" d="M 12.125 28.488281 C 12.300781 28.53125 12.4375 28.628906 12.53125 28.78125 C 12.625 28.933594 12.652344 29.097656 12.609375 29.273438 C 12.570312 29.449219 12.472656 29.582031 12.320312 29.679688 C 12.164062 29.773438 12 29.800781 11.828125 29.757812 C 11.652344 29.714844 11.515625 29.621094 11.421875 29.464844 C 11.328125 29.3125 11.300781 29.148438 11.34375 28.972656 C 11.382812 28.796875 11.480469 28.664062 11.632812 28.570312 C 11.785156 28.472656 11.949219 28.449219 12.125 28.488281 Z M 12.125 28.488281 " fill-opacity="1" fill-rule="nonzero"/><path fill="#fbf3ee" d="M 10.472656 7.609375 C 10.589844 7.683594 10.664062 7.785156 10.695312 7.917969 C 10.726562 8.054688 10.707031 8.179688 10.636719 8.296875 C 10.5625 8.414062 10.460938 8.488281 10.324219 8.519531 C 10.191406 8.550781 10.066406 8.53125 9.949219 8.457031 C 9.832031 8.386719 9.757812 8.28125 9.726562 8.148438 C 9.695312 8.015625 9.714844 7.890625 9.789062 7.773438 C 9.859375 7.65625 9.964844 7.582031 10.097656 7.550781 C 10.230469 7.515625 10.355469 7.539062 10.472656 7.609375 Z M 10.472656 7.609375 " fill-opacity="1" fill-rule="nonzero"/><path fill="#fbf3ee" d="M 32.492188 9.007812 C 32.65625 9.171875 32.738281 9.371094 32.738281 9.601562 C 32.738281 9.835938 32.65625 10.035156 32.492188 10.195312 C 32.328125 10.359375 32.128906 10.441406 31.898438 10.441406 C 31.667969 10.441406 31.46875 10.359375 31.304688 10.199219 C 31.140625 10.035156 31.058594 9.835938 31.058594 9.601562 C 31.058594 9.371094 31.140625 9.171875 31.304688 9.007812 C 31.46875 8.84375 31.667969 8.761719 31.898438 8.761719 C 32.128906 8.761719 32.328125 8.84375 32.492188 9.007812 Z M 32.492188 9.007812 " fill-opacity="1" fill-rule="nonzero"/></svg>