<svg xmlns="http://www.w3.org/2000/svg" xmlns:xlink="http://www.w3.org/1999/xlink" width="50" zoomAndPan="magnify" viewBox="0 0 37.5 37.499999" height="50" preserveAspectRatio="xMidYMid meet" version="1.0"><defs><clipPath id="ac1bad772c"><path d="M 31 5.128906 L 33 5.128906 L 33 7 L 31 7 Z M 31 5.128906 " clip-rule="nonzero"/></clipPath><clipPath id="72554ac51a"><path d="M 30 5.128906 L 32 5.128906 L 32 7 L 30 7 Z M 30 5.128906 " clip-rule="nonzero"/></clipPath><clipPath id="afdeb9bca4"><path d="M 34 12 L 35.589844 12 L 35.589844 14 L 34 14 Z M 34 12 " clip-rule="nonzero"/></clipPath><clipPath id="b460398a39"><path d="M 34 13 L 35.589844 13 L 35.589844 15 L 34 15 Z M 34 13 " clip-rule="nonzero"/></clipPath><clipPath id="2cadf48611"><path d="M 1.542969 23 L 3 23 L 3 25 L 1.542969 25 Z M 1.542969 23 " clip-rule="nonzero"/></clipPath><clipPath id="82cbb0a32a"><path d="M 5 28 L 8 28 L 8 29.550781 L 5 29.550781 Z M 5 28 " clip-rule="nonzero"/></clipPath></defs><path fill="#fbf3ee" d="M 30.910156 7.917969 C 31.394531 8.324219 31.976562 8.421875 32.210938 8.140625 C 32.449219 7.859375 32.457031 7.058594 31.976562 6.652344 C 31.492188 6.246094 30.703125 6.394531 30.46875 6.675781 C 30.230469 6.957031 30.429688 7.511719 30.910156 7.917969 " fill-opacity="1" fill-rule="nonzero"/><path fill="#fbf3ee" d="M 32.359375 6.914062 C 32.503906 7.105469 32.847656 7.089844 33.121094 6.878906 C 33.398438 6.671875 33.457031 6.28125 33.363281 6.15625 C 33.261719 6.023438 32.878906 5.980469 32.601562 6.191406 C 32.324219 6.398438 32.214844 6.722656 32.359375 6.914062 " fill-opacity="1" fill-rule="nonzero"/><path fill="#fbf3ee" d="M 32.878906 7.308594 C 32.636719 7.402344 32.496094 7.609375 32.558594 7.777344 C 32.625 7.941406 32.871094 8 33.109375 7.90625 C 33.351562 7.8125 33.472656 7.546875 33.429688 7.4375 C 33.382812 7.320312 33.117188 7.214844 32.878906 7.308594 " fill-opacity="1" fill-rule="nonzero"/><g clip-path="url(#ac1bad772c)"><path fill="#fbf3ee" d="M 31.652344 6.316406 C 31.863281 6.425781 32.164062 6.265625 32.324219 5.957031 C 32.480469 5.648438 32.375 5.277344 32.222656 5.199219 C 32.085938 5.128906 31.710938 5.253906 31.550781 5.5625 C 31.394531 5.871094 31.4375 6.207031 31.652344 6.316406 " fill-opacity="1" fill-rule="nonzero"/></g><g clip-path="url(#72554ac51a)"><path fill="#fbf3ee" d="M 30.765625 6.269531 C 30.941406 6.304688 31.121094 6.128906 31.171875 5.875 C 31.222656 5.625 31.074219 5.378906 30.949219 5.355469 C 30.835938 5.332031 30.59375 5.496094 30.542969 5.75 C 30.492188 6.003906 30.59375 6.234375 30.765625 6.269531 " fill-opacity="1" fill-rule="nonzero"/></g><path fill="#fbf3ee" d="M 33.660156 13.109375 C 33.078125 12.65625 32.15625 12.863281 31.894531 13.203125 C 31.628906 13.546875 31.890625 14.191406 32.472656 14.640625 C 33.058594 15.09375 33.746094 15.183594 34.011719 14.84375 C 34.273438 14.5 34.246094 13.558594 33.660156 13.109375 " fill-opacity="1" fill-rule="nonzero"/><g clip-path="url(#afdeb9bca4)"><path fill="#fbf3ee" d="M 34.125 13.394531 C 34.304688 13.613281 34.703125 13.578125 35.019531 13.320312 C 35.332031 13.0625 35.382812 12.601562 35.265625 12.460938 C 35.140625 12.308594 34.6875 12.277344 34.375 12.535156 C 34.058594 12.792969 33.949219 13.179688 34.125 13.394531 " fill-opacity="1" fill-rule="nonzero"/></g><g clip-path="url(#b460398a39)"><path fill="#fbf3ee" d="M 35.40625 13.960938 C 35.347656 13.824219 35.027344 13.710938 34.75 13.832031 C 34.472656 13.953125 34.316406 14.207031 34.402344 14.398438 C 34.484375 14.589844 34.777344 14.648438 35.054688 14.527344 C 35.332031 14.40625 35.460938 14.085938 35.40625 13.960938 " fill-opacity="1" fill-rule="nonzero"/></g><path fill="#fbf3ee" d="M 33.113281 11.847656 C 32.941406 12.214844 33.011719 12.613281 33.265625 12.730469 C 33.519531 12.847656 33.867188 12.644531 34.035156 12.273438 C 34.207031 11.902344 34.0625 11.472656 33.886719 11.390625 C 33.71875 11.3125 33.285156 11.476562 33.113281 11.847656 " fill-opacity="1" fill-rule="nonzero"/><path fill="#fbf3ee" d="M 32.398438 11.632812 C 32.265625 11.613281 31.988281 11.816406 31.9375 12.117188 C 31.890625 12.414062 32.019531 12.683594 32.226562 12.714844 C 32.433594 12.75 32.636719 12.53125 32.683594 12.234375 C 32.734375 11.9375 32.542969 11.65625 32.398438 11.632812 " fill-opacity="1" fill-rule="nonzero"/><path fill="#fbf3ee" d="M 31.40625 17.40625 C 30.589844 17.285156 29.808594 17.988281 29.738281 18.460938 C 29.667969 18.9375 30.269531 19.421875 31.085938 19.542969 C 31.898438 19.667969 32.617188 19.378906 32.691406 18.902344 C 32.761719 18.429688 32.21875 17.527344 31.40625 17.40625 " fill-opacity="1" fill-rule="nonzero"/><path fill="#fbf3ee" d="M 32.015625 17.433594 C 32.304688 17.546875 32.675781 17.296875 32.84375 16.875 C 33.007812 16.453125 32.804688 15.976562 32.613281 15.902344 C 32.410156 15.820312 31.953125 16.039062 31.789062 16.460938 C 31.621094 16.882812 31.722656 17.320312 32.015625 17.433594 " fill-opacity="1" fill-rule="nonzero"/><path fill="#fbf3ee" d="M 33.566406 17.285156 C 33.433594 17.1875 33.0625 17.25 32.859375 17.519531 C 32.65625 17.789062 32.640625 18.117188 32.828125 18.257812 C 33.011719 18.398438 33.328125 18.296875 33.53125 18.027344 C 33.734375 17.757812 33.6875 17.378906 33.566406 17.285156 " fill-opacity="1" fill-rule="nonzero"/><path fill="#fbf3ee" d="M 30.816406 17.253906 C 31.125 17.230469 31.351562 16.84375 31.316406 16.390625 C 31.28125 15.9375 30.910156 15.597656 30.6875 15.613281 C 30.484375 15.628906 30.152344 16.023438 30.1875 16.476562 C 30.222656 16.929688 30.503906 17.277344 30.816406 17.253906 " fill-opacity="1" fill-rule="nonzero"/><path fill="#fbf3ee" d="M 29.796875 17.804688 C 30.015625 17.726562 30.097656 17.402344 29.980469 17.085938 C 29.863281 16.769531 29.527344 16.601562 29.375 16.660156 C 29.234375 16.710938 29.074219 17.0625 29.191406 17.378906 C 29.308594 17.695312 29.578125 17.886719 29.796875 17.804688 " fill-opacity="1" fill-rule="nonzero"/><path fill="#fbf3ee" d="M 28.460938 22.210938 C 28.273438 22.398438 28.386719 22.808594 28.707031 23.125 C 29.03125 23.441406 29.441406 23.546875 29.628906 23.359375 C 29.8125 23.167969 29.863281 22.59375 29.539062 22.277344 C 29.21875 21.960938 28.644531 22.023438 28.460938 22.210938 " fill-opacity="1" fill-rule="nonzero"/><path fill="#fbf3ee" d="M 30.015625 21.980469 C 29.804688 22.117188 29.710938 22.34375 29.800781 22.488281 C 29.894531 22.632812 30.140625 22.640625 30.347656 22.503906 C 30.558594 22.371094 30.621094 22.097656 30.5625 22 C 30.496094 21.898438 30.222656 21.847656 30.015625 21.980469 " fill-opacity="1" fill-rule="nonzero"/><path fill="#fbf3ee" d="M 30.148438 22.796875 C 29.972656 22.851562 29.859375 22.992188 29.894531 23.117188 C 29.933594 23.238281 30.105469 23.292969 30.285156 23.238281 C 30.460938 23.1875 30.5625 23 30.535156 22.921875 C 30.511719 22.835938 30.328125 22.746094 30.148438 22.796875 " fill-opacity="1" fill-rule="nonzero"/><path fill="#fbf3ee" d="M 29.296875 21.472656 C 29.167969 21.6875 29.179688 21.929688 29.328125 22.019531 C 29.472656 22.109375 29.699219 22.011719 29.828125 21.800781 C 29.957031 21.585938 29.902344 21.316406 29.800781 21.253906 C 29.703125 21.195312 29.429688 21.261719 29.296875 21.472656 " fill-opacity="1" fill-rule="nonzero"/><path fill="#fbf3ee" d="M 28.695312 21.9375 C 28.820312 21.972656 28.960938 21.855469 29.011719 21.679688 C 29.0625 21.5 28.964844 21.316406 28.878906 21.292969 C 28.800781 21.269531 28.617188 21.375 28.566406 21.550781 C 28.515625 21.730469 28.574219 21.902344 28.695312 21.9375 " fill-opacity="1" fill-rule="nonzero"/><path fill="#fbf3ee" d="M 22.679688 17.679688 C 23.019531 17.417969 23.230469 16.511719 22.785156 15.929688 C 22.339844 15.347656 21.40625 15.3125 21.066406 15.574219 C 20.726562 15.835938 20.8125 16.515625 21.257812 17.097656 C 21.703125 17.679688 22.339844 17.941406 22.679688 17.679688 " fill-opacity="1" fill-rule="nonzero"/><path fill="#fbf3ee" d="M 23.613281 15.558594 C 23.246094 15.726562 23.042969 16.070312 23.15625 16.324219 C 23.273438 16.574219 23.664062 16.644531 24.03125 16.476562 C 24.398438 16.308594 24.5625 15.878906 24.484375 15.714844 C 24.40625 15.535156 23.980469 15.390625 23.613281 15.558594 " fill-opacity="1" fill-rule="nonzero"/><path fill="#fbf3ee" d="M 23.644531 16.898438 C 23.347656 16.945312 23.132812 17.148438 23.164062 17.351562 C 23.199219 17.558594 23.464844 17.683594 23.757812 17.640625 C 24.054688 17.59375 24.257812 17.320312 24.238281 17.1875 C 24.214844 17.042969 23.941406 16.855469 23.644531 16.898438 " fill-opacity="1" fill-rule="nonzero"/><path fill="#fbf3ee" d="M 22.5 15.464844 C 22.714844 15.644531 23.097656 15.535156 23.355469 15.222656 C 23.613281 14.914062 23.582031 14.464844 23.433594 14.339844 C 23.292969 14.222656 22.835938 14.269531 22.578125 14.582031 C 22.320312 14.894531 22.285156 15.289062 22.5 15.464844 " fill-opacity="1" fill-rule="nonzero"/><path fill="#fbf3ee" d="M 21.507812 15.191406 C 21.695312 15.273438 21.949219 15.117188 22.070312 14.84375 C 22.191406 14.570312 22.078125 14.253906 21.945312 14.195312 C 21.824219 14.140625 21.507812 14.269531 21.386719 14.542969 C 21.265625 14.816406 21.320312 15.105469 21.507812 15.191406 " fill-opacity="1" fill-rule="nonzero"/><path fill="#fbf3ee" d="M 21.316406 24.097656 C 20.402344 24.003906 19.566406 24.824219 19.511719 25.359375 C 19.457031 25.894531 20.152344 26.402344 21.066406 26.496094 C 21.980469 26.589844 22.769531 26.234375 22.824219 25.699219 C 22.878906 25.167969 22.230469 24.191406 21.316406 24.097656 " fill-opacity="1" fill-rule="nonzero"/><path fill="#fbf3ee" d="M 22.585938 22.359375 C 22.351562 22.28125 21.855469 22.546875 21.691406 23.023438 C 21.53125 23.503906 21.664062 23.984375 21.996094 24.097656 C 22.324219 24.207031 22.726562 23.910156 22.890625 23.433594 C 23.050781 22.953125 22.800781 22.433594 22.585938 22.359375 " fill-opacity="1" fill-rule="nonzero"/><path fill="#fbf3ee" d="M 23.714844 23.855469 C 23.566406 23.75 23.15625 23.839844 22.941406 24.148438 C 22.730469 24.457031 22.730469 24.828125 22.941406 24.976562 C 23.15625 25.121094 23.503906 24.992188 23.714844 24.679688 C 23.929688 24.371094 23.855469 23.949219 23.714844 23.855469 " fill-opacity="1" fill-rule="nonzero"/><path fill="#fbf3ee" d="M 20.648438 23.957031 C 20.996094 23.914062 21.226562 23.472656 21.164062 22.96875 C 21.101562 22.46875 20.667969 22.109375 20.425781 22.136719 C 20.199219 22.164062 19.847656 22.621094 19.910156 23.125 C 19.972656 23.628906 20.304688 24 20.648438 23.957031 " fill-opacity="1" fill-rule="nonzero"/><path fill="#fbf3ee" d="M 19.710938 23.816406 C 19.566406 23.46875 19.183594 23.296875 19.015625 23.371094 C 18.859375 23.433594 18.699219 23.832031 18.847656 24.179688 C 18.992188 24.527344 19.304688 24.726562 19.542969 24.625 C 19.78125 24.523438 19.855469 24.164062 19.710938 23.816406 " fill-opacity="1" fill-rule="nonzero"/><path fill="#fbf3ee" d="M 15.078125 15.933594 C 14.882812 16.089844 14.941406 16.492188 15.207031 16.832031 C 15.476562 17.167969 15.855469 17.316406 16.050781 17.15625 C 16.25 17 16.363281 16.460938 16.09375 16.125 C 15.824219 15.785156 15.277344 15.777344 15.078125 15.933594 " fill-opacity="1" fill-rule="nonzero"/><path fill="#fbf3ee" d="M 16.578125 15.898438 C 16.363281 16 16.246094 16.203125 16.320312 16.351562 C 16.390625 16.5 16.621094 16.535156 16.835938 16.433594 C 17.050781 16.332031 17.140625 16.078125 17.09375 15.980469 C 17.046875 15.875 16.792969 15.796875 16.578125 15.898438 " fill-opacity="1" fill-rule="nonzero"/><path fill="#fbf3ee" d="M 16.613281 16.6875 C 16.4375 16.71875 16.3125 16.839844 16.335938 16.960938 C 16.355469 17.078125 16.515625 17.152344 16.6875 17.121094 C 16.863281 17.09375 16.980469 16.929688 16.964844 16.851562 C 16.949219 16.765625 16.785156 16.65625 16.613281 16.6875 " fill-opacity="1" fill-rule="nonzero"/><path fill="#fbf3ee" d="M 15.921875 15.855469 C 16.050781 15.957031 16.273438 15.890625 16.421875 15.703125 C 16.570312 15.519531 16.550781 15.253906 16.460938 15.183594 C 16.375 15.113281 16.109375 15.148438 15.960938 15.332031 C 15.8125 15.519531 15.792969 15.753906 15.921875 15.855469 " fill-opacity="1" fill-rule="nonzero"/><path fill="#fbf3ee" d="M 15.335938 15.703125 C 15.445312 15.75 15.59375 15.65625 15.664062 15.492188 C 15.730469 15.332031 15.660156 15.148438 15.582031 15.113281 C 15.507812 15.082031 15.324219 15.160156 15.253906 15.324219 C 15.1875 15.484375 15.222656 15.65625 15.335938 15.703125 " fill-opacity="1" fill-rule="nonzero"/><path fill="#fbf3ee" d="M 13.441406 21.277344 C 12.945312 21.324219 12.585938 21.851562 12.613281 22.144531 C 12.644531 22.433594 13.070312 22.632812 13.566406 22.585938 C 14.066406 22.535156 14.449219 22.261719 14.421875 21.96875 C 14.390625 21.679688 13.941406 21.226562 13.441406 21.277344 " fill-opacity="1" fill-rule="nonzero"/><path fill="#fbf3ee" d="M 13.804688 21.203125 C 13.992188 21.226562 14.175781 21.023438 14.210938 20.75 C 14.246094 20.476562 14.058594 20.226562 13.933594 20.210938 C 13.800781 20.195312 13.5625 20.390625 13.527344 20.664062 C 13.492188 20.9375 13.617188 21.179688 13.804688 21.203125 " fill-opacity="1" fill-rule="nonzero"/><path fill="#fbf3ee" d="M 14.699219 20.886719 C 14.605469 20.847656 14.398438 20.941406 14.316406 21.128906 C 14.238281 21.316406 14.277344 21.515625 14.40625 21.570312 C 14.535156 21.625 14.707031 21.519531 14.785156 21.328125 C 14.867188 21.140625 14.78125 20.925781 14.699219 20.886719 " fill-opacity="1" fill-rule="nonzero"/><path fill="#fbf3ee" d="M 13.070312 21.273438 C 13.25 21.214844 13.328125 20.953125 13.242188 20.691406 C 13.152344 20.429688 12.882812 20.285156 12.753906 20.324219 C 12.636719 20.363281 12.5 20.644531 12.585938 20.90625 C 12.675781 21.167969 12.890625 21.332031 13.070312 21.273438 " fill-opacity="1" fill-rule="nonzero"/><path fill="#fbf3ee" d="M 12.554688 21.296875 C 12.441406 21.128906 12.21875 21.078125 12.136719 21.136719 C 12.058594 21.1875 12.015625 21.417969 12.132812 21.585938 C 12.246094 21.753906 12.433594 21.828125 12.550781 21.75 C 12.667969 21.667969 12.671875 21.46875 12.554688 21.296875 " fill-opacity="1" fill-rule="nonzero"/><path fill="#fbf3ee" d="M 10.875 16.726562 C 10.3125 16.320312 9.460938 16.546875 9.222656 16.875 C 8.988281 17.207031 9.253906 17.800781 9.816406 18.203125 C 10.378906 18.605469 11.027344 18.667969 11.261719 18.339844 C 11.5 18.007812 11.4375 17.128906 10.875 16.726562 " fill-opacity="1" fill-rule="nonzero"/><path fill="#fbf3ee" d="M 11.320312 16.980469 C 11.496094 17.175781 11.867188 17.132812 12.15625 16.878906 C 12.441406 16.625 12.472656 16.191406 12.355469 16.0625 C 12.234375 15.925781 11.808594 15.910156 11.523438 16.164062 C 11.238281 16.417969 11.148438 16.78125 11.320312 16.980469 " fill-opacity="1" fill-rule="nonzero"/><path fill="#fbf3ee" d="M 12.539062 17.464844 C 12.476562 17.339844 12.175781 17.246094 11.921875 17.367188 C 11.667969 17.492188 11.527344 17.734375 11.613281 17.910156 C 11.695312 18.085938 11.972656 18.128906 12.226562 18.003906 C 12.484375 17.882812 12.59375 17.578125 12.539062 17.464844 " fill-opacity="1" fill-rule="nonzero"/><path fill="#fbf3ee" d="M 10.492188 16.382812 C 10.734375 16.488281 11.050781 16.285156 11.199219 15.929688 C 11.347656 15.578125 11.199219 15.183594 11.027344 15.109375 C 10.867188 15.042969 10.46875 15.210938 10.320312 15.5625 C 10.171875 15.914062 10.25 16.285156 10.492188 16.382812 " fill-opacity="1" fill-rule="nonzero"/><path fill="#fbf3ee" d="M 9.519531 16.40625 C 9.710938 16.429688 9.898438 16.222656 9.933594 15.941406 C 9.964844 15.660156 9.78125 15.40625 9.644531 15.386719 C 9.515625 15.375 9.265625 15.574219 9.230469 15.855469 C 9.195312 16.136719 9.324219 16.382812 9.519531 16.40625 " fill-opacity="1" fill-rule="nonzero"/><path fill="#fbf3ee" d="M 9.425781 21.132812 C 9.492188 20.878906 9.253906 20.363281 8.820312 20.25 C 8.390625 20.136719 7.925781 20.46875 7.859375 20.722656 C 7.796875 20.972656 8.09375 21.269531 8.523438 21.382812 C 8.957031 21.496094 9.359375 21.382812 9.425781 21.132812 " fill-opacity="1" fill-rule="nonzero"/><path fill="#fbf3ee" d="M 9.148438 20.300781 C 9.296875 20.378906 9.511719 20.265625 9.628906 20.046875 C 9.742188 19.828125 9.660156 19.5625 9.5625 19.507812 C 9.457031 19.453125 9.195312 19.542969 9.082031 19.761719 C 8.96875 19.980469 8.996094 20.222656 9.148438 20.300781 " fill-opacity="1" fill-rule="nonzero"/><path fill="#fbf3ee" d="M 9.597656 20.394531 C 9.472656 20.527344 9.445312 20.707031 9.539062 20.792969 C 9.628906 20.878906 9.804688 20.839844 9.929688 20.707031 C 10.058594 20.574219 10.050781 20.367188 9.992188 20.3125 C 9.929688 20.25 9.726562 20.261719 9.597656 20.394531 " fill-opacity="1" fill-rule="nonzero"/><path fill="#fbf3ee" d="M 8.511719 20.132812 C 8.679688 20.136719 8.824219 19.941406 8.832031 19.695312 C 8.839844 19.449219 8.660156 19.246094 8.539062 19.242188 C 8.429688 19.238281 8.226562 19.429688 8.21875 19.675781 C 8.210938 19.921875 8.34375 20.128906 8.511719 20.132812 " fill-opacity="1" fill-rule="nonzero"/><path fill="#fbf3ee" d="M 7.929688 20.371094 C 8.050781 20.339844 8.117188 20.171875 8.070312 19.996094 C 8.027344 19.816406 7.855469 19.707031 7.769531 19.730469 C 7.691406 19.75 7.585938 19.925781 7.628906 20.105469 C 7.671875 20.28125 7.808594 20.402344 7.929688 20.371094 " fill-opacity="1" fill-rule="nonzero"/><path fill="#fbf3ee" d="M 9.160156 23.363281 C 8.636719 23.285156 8.136719 23.742188 8.089844 24.046875 C 8.046875 24.355469 8.4375 24.664062 8.960938 24.738281 C 9.488281 24.816406 9.949219 24.628906 9.992188 24.324219 C 10.035156 24.015625 9.6875 23.4375 9.160156 23.363281 " fill-opacity="1" fill-rule="nonzero"/><path fill="#fbf3ee" d="M 9.554688 23.378906 C 9.742188 23.449219 9.980469 23.289062 10.085938 23.015625 C 10.1875 22.742188 10.058594 22.4375 9.933594 22.390625 C 9.800781 22.339844 9.507812 22.480469 9.402344 22.753906 C 9.296875 23.023438 9.367188 23.304688 9.554688 23.378906 " fill-opacity="1" fill-rule="nonzero"/><path fill="#fbf3ee" d="M 10.550781 23.277344 C 10.464844 23.214844 10.230469 23.257812 10.097656 23.429688 C 9.96875 23.605469 9.960938 23.816406 10.078125 23.90625 C 10.199219 23.996094 10.402344 23.929688 10.53125 23.753906 C 10.660156 23.582031 10.628906 23.335938 10.550781 23.277344 " fill-opacity="1" fill-rule="nonzero"/><path fill="#fbf3ee" d="M 8.695312 22.210938 C 8.5625 22.222656 8.347656 22.476562 8.375 22.769531 C 8.398438 23.058594 8.578125 23.28125 8.78125 23.265625 C 8.980469 23.25 9.125 23 9.101562 22.707031 C 9.078125 22.417969 8.835938 22.199219 8.695312 22.210938 " fill-opacity="1" fill-rule="nonzero"/><path fill="#fbf3ee" d="M 8.242188 23.160156 C 8.167969 22.957031 7.949219 22.851562 7.851562 22.886719 C 7.757812 22.921875 7.660156 23.148438 7.734375 23.351562 C 7.808594 23.554688 7.984375 23.675781 8.125 23.625 C 8.265625 23.574219 8.316406 23.363281 8.242188 23.160156 " fill-opacity="1" fill-rule="nonzero"/><path fill="#fbf3ee" d="M 5.214844 23.960938 C 5.070312 23.550781 4.261719 23.0625 3.5625 23.304688 C 2.863281 23.550781 2.535156 24.4375 2.675781 24.847656 C 2.820312 25.253906 3.503906 25.390625 4.203125 25.144531 C 4.902344 24.898438 5.355469 24.371094 5.214844 23.960938 " fill-opacity="1" fill-rule="nonzero"/><path fill="#fbf3ee" d="M 4.058594 23.074219 C 4.339844 23.042969 4.527344 22.6875 4.484375 22.28125 C 4.4375 21.875 4.078125 21.582031 3.894531 21.601562 C 3.699219 21.625 3.425781 21.988281 3.46875 22.394531 C 3.515625 22.800781 3.777344 23.101562 4.058594 23.074219 " fill-opacity="1" fill-rule="nonzero"/><path fill="#fbf3ee" d="M 5.050781 23.390625 C 5.257812 23.425781 5.464844 23.210938 5.515625 22.910156 C 5.566406 22.609375 5.367188 22.328125 5.234375 22.304688 C 5.085938 22.28125 4.820312 22.488281 4.769531 22.785156 C 4.71875 23.085938 4.847656 23.355469 5.050781 23.390625 " fill-opacity="1" fill-rule="nonzero"/><path fill="#fbf3ee" d="M 3.027344 23.433594 C 3.265625 23.28125 3.28125 22.878906 3.066406 22.535156 C 2.847656 22.1875 2.410156 22.074219 2.242188 22.179688 C 2.085938 22.277344 1.984375 22.730469 2.203125 23.078125 C 2.417969 23.421875 2.789062 23.582031 3.027344 23.433594 " fill-opacity="1" fill-rule="nonzero"/><g clip-path="url(#2cadf48611)"><path fill="#fbf3ee" d="M 2.292969 23.648438 C 2.066406 23.445312 1.730469 23.453125 1.632812 23.5625 C 1.539062 23.664062 1.558594 24.007812 1.785156 24.210938 C 2.011719 24.414062 2.308594 24.453125 2.449219 24.300781 C 2.585938 24.144531 2.519531 23.851562 2.292969 23.648438 " fill-opacity="1" fill-rule="nonzero"/></g><path fill="#fbf3ee" d="M 6.351562 27.273438 C 6.238281 26.492188 5.378906 25.96875 4.925781 26.035156 C 4.46875 26.101562 4.191406 26.789062 4.304688 27.566406 C 4.414062 28.347656 4.875 28.929688 5.332031 28.863281 C 5.789062 28.796875 6.464844 28.054688 6.351562 27.273438 " fill-opacity="1" fill-rule="nonzero"/><path fill="#fbf3ee" d="M 7.324219 27.363281 C 6.890625 27.328125 6.519531 27.539062 6.496094 27.839844 C 6.46875 28.136719 6.800781 28.40625 7.234375 28.445312 C 7.667969 28.480469 8.046875 28.164062 8.0625 27.96875 C 8.078125 27.757812 7.753906 27.398438 7.324219 27.363281 " fill-opacity="1" fill-rule="nonzero"/><g clip-path="url(#82cbb0a32a)"><path fill="#fbf3ee" d="M 6.648438 28.636719 C 6.347656 28.523438 6.039062 28.601562 5.960938 28.8125 C 5.882812 29.019531 6.066406 29.28125 6.367188 29.390625 C 6.667969 29.503906 7.003906 29.355469 7.054688 29.21875 C 7.109375 29.074219 6.949219 28.75 6.648438 28.636719 " fill-opacity="1" fill-rule="nonzero"/></g><path fill="#fbf3ee" d="M 6.328125 26.691406 C 6.4375 26.96875 6.851562 27.070312 7.257812 26.914062 C 7.664062 26.753906 7.871094 26.320312 7.796875 26.125 C 7.726562 25.941406 7.273438 25.746094 6.867188 25.902344 C 6.460938 26.058594 6.222656 26.410156 6.328125 26.691406 " fill-opacity="1" fill-rule="nonzero"/><path fill="#fbf3ee" d="M 5.542969 25.90625 C 5.675781 26.085938 5.992188 26.074219 6.25 25.878906 C 6.507812 25.6875 6.570312 25.332031 6.476562 25.207031 C 6.390625 25.089844 6.027344 25.042969 5.769531 25.234375 C 5.511719 25.429688 5.410156 25.730469 5.542969 25.90625 " fill-opacity="1" fill-rule="nonzero"/></svg>