<svg xmlns="http://www.w3.org/2000/svg" xmlns:xlink="http://www.w3.org/1999/xlink" width="50" zoomAndPan="magnify" viewBox="0 0 37.5 37.499999" height="50" preserveAspectRatio="xMidYMid meet" version="1.0"><defs><clipPath id="e74acb78a7"><path d="M 6 6.457031 L 30.902344 6.457031 L 30.902344 30.882812 L 6 30.882812 Z M 6 6.457031 " clip-rule="nonzero"/></clipPath></defs><g clip-path="url(#e74acb78a7)"><path fill="#fbf3ee" d="M 23 6.484375 C 22.949219 6.484375 22.894531 6.484375 22.84375 6.488281 C 20.730469 6.855469 19.570312 9.085938 19.402344 11.058594 C 19.15625 12.84375 19.941406 15.140625 21.90625 15.542969 C 22.191406 15.59375 22.484375 15.570312 22.761719 15.496094 C 25.125 14.703125 26.183594 11.90625 25.84375 9.585938 C 25.742188 8.089844 24.613281 6.460938 23 6.480469 Z M 14.046875 6.578125 C 12.734375 6.609375 11.710938 7.941406 11.503906 9.195312 C 11.0625 11.675781 12.191406 14.757812 14.777344 15.542969 C 15.019531 15.59375 15.269531 15.601562 15.511719 15.5625 C 17.261719 15.269531 18 13.3125 17.925781 11.730469 C 17.875 9.644531 16.792969 7.234375 14.625 6.648438 C 14.425781 6.597656 14.234375 6.574219 14.046875 6.578125 Z M 28.722656 13.625 C 26.453125 13.757812 24.894531 16.027344 24.671875 18.144531 C 24.371094 19.667969 25.183594 21.710938 26.925781 21.832031 C 29.355469 21.804688 31.011719 19.207031 31.082031 16.976562 C 31.234375 15.496094 30.363281 13.703125 28.722656 13.625 Z M 8.839844 14.125 C 7.871094 14.117188 6.921875 14.695312 6.605469 15.679688 C 5.761719 18.308594 7.457031 21.636719 10.238281 22.1875 C 11.402344 22.386719 12.421875 21.496094 12.710938 20.421875 C 13.320312 18.125 12.066406 15.460938 9.945312 14.417969 C 9.597656 14.222656 9.21875 14.128906 8.839844 14.125 Z M 19.023438 18.839844 C 17.128906 18.84375 15.203125 19.804688 13.976562 21.234375 C 12.652344 22.90625 11.566406 24.847656 11.140625 26.949219 C 10.625 28.464844 11.796875 30.210938 13.414062 30.222656 C 15.363281 30.277344 17.039062 28.9375 18.976562 28.835938 C 20.621094 28.585938 22.09375 29.441406 23.570312 30.003906 C 24.832031 30.539062 26.570312 30.335938 27.210938 28.980469 C 27.71875 27.597656 26.972656 26.125 26.359375 24.902344 C 25.101562 22.910156 23.753906 20.820312 21.691406 19.574219 C 20.867188 19.0625 19.949219 18.835938 19.023438 18.839844 Z M 19.023438 18.839844 " fill-opacity="1" fill-rule="nonzero"/></g></svg>