<svg xmlns="http://www.w3.org/2000/svg" xmlns:xlink="http://www.w3.org/1999/xlink" width="50" zoomAndPan="magnify" viewBox="0 0 37.5 37.499999" height="50" preserveAspectRatio="xMidYMid meet" version="1.0"><defs><clipPath id="6b3080298d"><path d="M 23 6.402344 L 29 6.402344 L 29 12 L 23 12 Z M 23 6.402344 " clip-rule="nonzero"/></clipPath><clipPath id="5e6dfd730a"><path d="M 3.699219 18 L 22 18 L 22 30 L 3.699219 30 Z M 3.699219 18 " clip-rule="nonzero"/></clipPath></defs><g clip-path="url(#6b3080298d)"><path fill="#fbf3ee" d="M 28.472656 10.308594 C 27.929688 11.554688 26.484375 12.128906 25.234375 11.589844 C 23.992188 11.054688 23.417969 9.605469 23.957031 8.363281 C 24.496094 7.117188 25.941406 6.542969 27.183594 7.078125 C 28.433594 7.617188 29.007812 9.0625 28.472656 10.308594 Z M 28.472656 10.308594 " fill-opacity="1" fill-rule="evenodd"/></g><path fill="#fbf3ee" d="M 25.394531 13.164062 C 25.164062 13.164062 24.941406 13.238281 24.757812 13.375 L 21.945312 15.464844 C 21.730469 15.625 21.582031 15.859375 21.535156 16.121094 L 20.621094 19.546875 C 20.351562 20.945312 22.449219 21.347656 22.71875 19.949219 L 23.550781 16.933594 L 24.292969 16.382812 L 24.292969 19.796875 C 24.292969 20.074219 24.390625 20.34375 24.558594 20.5625 L 27.765625 24.65625 L 28.394531 28.464844 C 28.59375 30.203125 31.222656 29.773438 30.859375 28.0625 L 30.1875 23.9375 C 30.152344 23.726562 30.066406 23.53125 29.9375 23.367188 L 27.5 20.261719 L 27.511719 17.078125 L 28.347656 18.277344 C 28.4375 18.398438 28.542969 18.5 28.671875 18.574219 L 30.964844 19.976562 C 32.175781 20.71875 33.289062 18.898438 32.074219 18.15625 L 29.972656 16.871094 L 27.699219 13.617188 C 27.5 13.332031 27.171875 13.164062 26.828125 13.164062 Z M 25.394531 13.164062 " fill-opacity="1" fill-rule="nonzero"/><path fill="#fbf3ee" d="M 24.464844 21.632812 L 23.933594 23.613281 L 21.269531 27.5625 C 20.214844 28.964844 22.4375 30.464844 23.339844 28.960938 L 26.125 24.835938 C 26.285156 24.601562 26.394531 24.421875 26.394531 24.09375 Z M 24.464844 21.632812 " fill-opacity="1" fill-rule="nonzero"/><g clip-path="url(#5e6dfd730a)"><path fill="#fbf3ee" d="M 14.207031 18.074219 C 14.039062 18.074219 13.851562 18.1875 13.761719 18.40625 L 12.820312 20.839844 C 12.617188 21.429688 12.167969 22.105469 11 22.195312 C 9.207031 22.367188 8.257812 22.003906 7.226562 22.0625 C 6.457031 21.777344 5.828125 21.238281 5.300781 20.414062 C 5.175781 20.214844 4.921875 20.132812 4.703125 20.21875 C 4.417969 20.335938 4.308594 20.683594 4.480469 20.941406 C 4.875 21.554688 5.355469 22.058594 5.902344 22.4375 C 5.167969 22.863281 4.941406 23.480469 4.851562 24.21875 C 4.761719 24.957031 4.851562 26.246094 3.796875 27.261719 C 3.726562 27.332031 3.6875 27.4375 3.710938 27.535156 L 4.417969 29.519531 L 5.671875 29.519531 C 5.671875 29.246094 5.492188 29 5.230469 28.917969 L 4.847656 27.566406 C 5.359375 27.421875 5.964844 26.964844 6.210938 26.460938 L 6.070312 27.605469 L 6.644531 29.585938 L 7.898438 29.585938 C 7.898438 29.3125 7.71875 29.066406 7.457031 28.988281 L 7.105469 27.566406 C 7.675781 27.414062 8.210938 26.582031 8.378906 25.988281 C 8.996094 26.300781 9.722656 26.519531 10.554688 26.644531 L 10.859375 29.585938 L 12.117188 29.585938 C 12.117188 29.386719 12.019531 29.195312 11.855469 29.078125 L 12.003906 26.765625 C 12.15625 26.769531 12.320312 26.765625 12.480469 26.765625 L 12.757812 29.585938 L 14.011719 29.585938 C 14.011719 29.335938 13.863281 29.113281 13.632812 29.011719 L 13.738281 27.40625 C 13.804688 26.359375 14.320312 25.6875 14.5 25.050781 C 14.574219 24.792969 14.558594 24.5625 14.519531 24.34375 C 13.671875 23.984375 12.929688 23.464844 12.40625 22.890625 L 12.632812 22.683594 C 13.597656 23.613281 15.09375 24.359375 16.707031 24.414062 C 18.449219 24.476562 20.3125 23.667969 21.539062 21.429688 L 20.863281 21.0625 C 19.753906 23.085938 18.230469 23.699219 16.730469 23.648438 C 15.925781 23.621094 15.132812 23.375 14.441406 23.023438 C 14.539062 22.664062 14.761719 22.449219 15.230469 22.441406 L 16.464844 22.429688 C 17.105469 22.351562 17.339844 21.808594 17.453125 21.5 C 17.582031 21.140625 17.453125 20.902344 17.179688 20.828125 C 16.4375 20.628906 16.25 20.542969 15.9375 20.050781 C 15.71875 19.703125 15.519531 19.5 15.25 19.402344 L 15.25 18.78125 C 15.25 18.414062 14.765625 18.410156 14.617188 18.78125 L 14.515625 19.039062 L 14.515625 18.40625 C 14.515625 18.1875 14.371094 18.078125 14.207031 18.074219 Z M 14.207031 18.074219 " fill-opacity="1" fill-rule="nonzero"/></g></svg>