<svg xmlns="http://www.w3.org/2000/svg" xmlns:xlink="http://www.w3.org/1999/xlink" width="50" zoomAndPan="magnify" viewBox="0 0 37.5 37.499999" height="50" preserveAspectRatio="xMidYMid meet" version="1.0"><defs><clipPath id="54f06be7d7"><path d="M 15 18 L 22 18 L 22 35.527344 L 15 35.527344 Z M 15 18 " clip-rule="nonzero"/></clipPath><clipPath id="b4e0c087f6"><path d="M 6.113281 3.699219 L 30.539062 3.699219 L 30.539062 23 L 6.113281 23 Z M 6.113281 3.699219 " clip-rule="nonzero"/></clipPath><clipPath id="eb1a6f48b5"><path d="M 6.113281 3.699219 L 30.539062 3.699219 L 30.539062 22 L 6.113281 22 Z M 6.113281 3.699219 " clip-rule="nonzero"/></clipPath><clipPath id="8145ea2437"><path d="M 6.113281 15 L 19 15 L 19 17 L 6.113281 17 Z M 6.113281 15 " clip-rule="nonzero"/></clipPath><clipPath id="94b3494856"><path d="M 6.113281 17 L 27 17 L 27 19 L 6.113281 19 Z M 6.113281 17 " clip-rule="nonzero"/></clipPath><clipPath id="86feb952cd"><path d="M 6.113281 9 L 22 9 L 22 11 L 6.113281 11 Z M 6.113281 9 " clip-rule="nonzero"/></clipPath></defs><g clip-path="url(#54f06be7d7)"><path fill="#f8e3dd" d="M 21.367188 35.5625 L 16.214844 35.5625 C 15.910156 35.5625 15.671875 35.296875 15.671875 34.972656 L 15.671875 18.226562 L 21.90625 18.226562 L 21.90625 34.976562 C 21.910156 35.300781 21.671875 35.5625 21.367188 35.5625 Z M 21.367188 35.5625 " fill-opacity="1" fill-rule="nonzero"/></g><path fill="#cb836d" d="M 17.320312 20.640625 C 17.402344 21.308594 17.4375 21.984375 17.46875 22.652344 C 17.492188 23.324219 17.496094 23.992188 17.480469 24.660156 C 17.472656 25.332031 17.441406 26 17.398438 26.667969 C 17.355469 27.339844 17.292969 28.007812 17.183594 28.675781 C 17.101562 28.007812 17.0625 27.335938 17.039062 26.664062 C 17.011719 25.996094 17.007812 25.328125 17.023438 24.65625 C 17.039062 23.988281 17.0625 23.316406 17.105469 22.648438 C 17.164062 21.976562 17.21875 21.304688 17.320312 20.640625 Z M 17.320312 20.640625 " fill-opacity="1" fill-rule="nonzero"/><path fill="#cb836d" d="M 18.734375 23.765625 C 18.800781 24.675781 18.824219 25.585938 18.835938 26.5 C 18.84375 27.410156 18.832031 28.320312 18.800781 29.234375 C 18.773438 30.144531 18.734375 31.050781 18.675781 31.957031 C 18.621094 32.867188 18.539062 33.777344 18.417969 34.679688 C 18.347656 33.769531 18.328125 32.859375 18.316406 31.941406 C 18.308594 31.03125 18.320312 30.121094 18.347656 29.207031 C 18.375 28.296875 18.417969 27.390625 18.472656 26.480469 C 18.53125 25.585938 18.613281 24.671875 18.734375 23.765625 Z M 18.734375 23.765625 " fill-opacity="1" fill-rule="nonzero"/><path fill="#cb836d" d="M 20.464844 20.136719 C 20.535156 21.355469 20.554688 22.5625 20.566406 23.78125 C 20.570312 24.992188 20.5625 26.207031 20.535156 27.417969 C 20.503906 28.632812 20.464844 29.839844 20.410156 31.054688 C 20.34375 32.265625 20.269531 33.476562 20.148438 34.6875 C 20.078125 33.472656 20.058594 32.261719 20.046875 31.046875 C 20.042969 29.832031 20.050781 28.621094 20.078125 27.40625 C 20.109375 26.195312 20.148438 24.984375 20.207031 23.773438 C 20.273438 22.554688 20.351562 21.351562 20.464844 20.136719 Z M 20.464844 20.136719 " fill-opacity="1" fill-rule="nonzero"/><g clip-path="url(#b4e0c087f6)"><path fill="#f1bfa8" d="M 29.003906 22.222656 L 8.527344 22.222656 C 7.613281 22.222656 6.480469 22.042969 6.15625 19.855469 L 6.871094 6.429688 C 6.871094 5.519531 7.613281 4.773438 8.53125 4.773438 L 28.628906 3.710938 C 29.539062 3.710938 30.882812 4.082031 30.882812 6.429688 L 30.882812 20.347656 C 30.882812 21.378906 30.039062 22.222656 29.003906 22.222656 Z M 29.003906 22.222656 " fill-opacity="1" fill-rule="nonzero"/></g><g clip-path="url(#eb1a6f48b5)"><path fill="#f8e3dd" d="M 28.304688 21.152344 L 7.777344 21.152344 C 6.863281 21.152344 6.117188 20.410156 6.117188 19.492188 L 6.117188 5.359375 C 6.117188 4.445312 6.859375 3.699219 7.777344 3.699219 L 28.472656 3.699219 C 29.386719 3.699219 30.132812 4.441406 30.132812 5.359375 L 30.132812 19.328125 C 30.128906 20.335938 29.3125 21.152344 28.304688 21.152344 Z M 28.304688 21.152344 " fill-opacity="1" fill-rule="nonzero"/></g><path fill="#cb836d" d="M 22.265625 5.480469 C 21.640625 5.546875 21.007812 5.582031 20.378906 5.601562 C 19.753906 5.628906 19.121094 5.636719 18.496094 5.632812 C 17.871094 5.632812 17.238281 5.621094 16.617188 5.589844 C 15.988281 5.5625 15.359375 5.527344 14.730469 5.457031 C 15.355469 5.390625 15.988281 5.355469 16.617188 5.335938 C 17.238281 5.3125 17.871094 5.304688 18.496094 5.308594 C 19.121094 5.3125 19.753906 5.320312 20.378906 5.347656 C 21.015625 5.375 21.644531 5.414062 22.265625 5.480469 Z M 22.265625 5.480469 " fill-opacity="1" fill-rule="nonzero"/><path fill="#cb836d" d="M 15.210938 6.703125 C 14.550781 6.757812 13.886719 6.785156 13.222656 6.796875 C 12.5625 6.808594 11.898438 6.804688 11.238281 6.792969 C 10.574219 6.78125 9.914062 6.753906 9.253906 6.71875 C 8.589844 6.683594 7.929688 6.632812 7.269531 6.546875 C 7.929688 6.492188 8.59375 6.46875 9.261719 6.453125 C 9.921875 6.441406 10.585938 6.445312 11.25 6.460938 C 11.910156 6.472656 12.570312 6.496094 13.230469 6.53125 C 13.890625 6.574219 14.550781 6.621094 15.210938 6.703125 Z M 15.210938 6.703125 " fill-opacity="1" fill-rule="nonzero"/><path fill="#cb836d" d="M 17.863281 7.9375 C 16.980469 7.996094 16.101562 8.015625 15.210938 8.039062 C 14.332031 8.050781 13.449219 8.050781 12.5625 8.042969 C 11.679688 8.03125 10.796875 8.007812 9.917969 7.976562 C 9.039062 7.941406 8.152344 7.894531 7.269531 7.8125 C 8.152344 7.753906 9.035156 7.734375 9.921875 7.710938 C 10.800781 7.699219 11.6875 7.699219 12.570312 7.707031 C 13.453125 7.714844 14.335938 7.742188 15.214844 7.773438 C 16.105469 7.8125 16.988281 7.859375 17.863281 7.9375 Z M 17.863281 7.9375 " fill-opacity="1" fill-rule="nonzero"/><g clip-path="url(#8145ea2437)"><path fill="#cb836d" d="M 6.574219 16.074219 C 7.546875 16.003906 8.523438 15.96875 9.492188 15.945312 C 10.460938 15.914062 11.4375 15.90625 12.410156 15.90625 C 13.378906 15.90625 14.355469 15.914062 15.324219 15.945312 C 16.296875 15.96875 17.273438 16.003906 18.242188 16.074219 C 17.273438 16.140625 16.296875 16.179688 15.324219 16.203125 C 14.355469 16.230469 13.378906 16.238281 12.410156 16.238281 C 11.4375 16.238281 10.460938 16.230469 9.492188 16.203125 C 8.527344 16.175781 7.550781 16.136719 6.574219 16.074219 Z M 6.574219 16.074219 " fill-opacity="1" fill-rule="nonzero"/></g><g clip-path="url(#94b3494856)"><path fill="#cb836d" d="M 6.574219 18.113281 C 8.222656 18.03125 9.871094 17.980469 11.515625 17.9375 C 13.164062 17.898438 14.808594 17.875 16.457031 17.859375 C 18.105469 17.84375 19.75 17.835938 21.398438 17.851562 C 23.046875 17.859375 24.691406 17.878906 26.347656 17.929688 C 24.699219 18.011719 23.054688 18.066406 21.40625 18.105469 C 19.757812 18.144531 18.113281 18.175781 16.464844 18.1875 C 14.820312 18.203125 13.171875 18.203125 11.523438 18.195312 C 9.871094 18.195312 8.226562 18.171875 6.574219 18.113281 Z M 6.574219 18.113281 " fill-opacity="1" fill-rule="nonzero"/></g><path fill="#cb836d" d="M 21.171875 16.570312 C 21.894531 16.511719 22.609375 16.484375 23.335938 16.464844 C 24.054688 16.449219 24.777344 16.445312 25.5 16.453125 C 26.21875 16.460938 26.941406 16.484375 27.660156 16.515625 C 28.378906 16.546875 29.101562 16.59375 29.824219 16.667969 C 29.101562 16.730469 28.382812 16.757812 27.65625 16.773438 C 26.941406 16.792969 26.21875 16.796875 25.496094 16.789062 C 24.777344 16.777344 24.054688 16.757812 23.332031 16.726562 C 22.609375 16.695312 21.894531 16.652344 21.171875 16.570312 Z M 21.171875 16.570312 " fill-opacity="1" fill-rule="nonzero"/><path fill="#cb836d" d="M 20.535156 19.972656 C 21.28125 19.902344 22.027344 19.871094 22.769531 19.839844 C 23.515625 19.816406 24.261719 19.804688 25.003906 19.804688 C 25.746094 19.804688 26.496094 19.8125 27.238281 19.839844 C 27.984375 19.871094 28.734375 19.902344 29.476562 19.972656 C 28.726562 20.039062 27.980469 20.078125 27.238281 20.101562 C 26.492188 20.125 25.746094 20.136719 25.003906 20.136719 C 24.261719 20.136719 23.511719 20.128906 22.769531 20.101562 C 22.027344 20.074219 21.277344 20.035156 20.535156 19.972656 Z M 20.535156 19.972656 " fill-opacity="1" fill-rule="nonzero"/><path fill="#cb836d" d="M 7.933594 19.324219 C 8.679688 19.253906 9.425781 19.222656 10.167969 19.191406 C 10.914062 19.167969 11.664062 19.15625 12.40625 19.15625 C 13.152344 19.15625 13.898438 19.164062 14.640625 19.191406 C 15.386719 19.222656 16.132812 19.253906 16.875 19.324219 C 16.128906 19.390625 15.382812 19.429688 14.640625 19.453125 C 13.894531 19.476562 13.148438 19.488281 12.40625 19.488281 C 11.660156 19.488281 10.910156 19.480469 10.167969 19.453125 C 9.421875 19.425781 8.679688 19.386719 7.933594 19.324219 Z M 7.933594 19.324219 " fill-opacity="1" fill-rule="nonzero"/><g clip-path="url(#86feb952cd)"><path fill="#cb836d" d="M 6.574219 10.164062 C 7.546875 10.09375 8.523438 10.058594 9.492188 10.03125 C 10.460938 10.003906 11.4375 9.996094 12.410156 9.996094 C 13.378906 9.996094 14.355469 10.003906 15.324219 10.03125 C 16.296875 10.058594 20.445312 9.925781 21.417969 9.996094 C 20.449219 10.066406 16.300781 10.269531 15.324219 10.292969 C 14.355469 10.320312 13.378906 10.328125 12.410156 10.328125 C 11.4375 10.328125 10.460938 10.320312 9.492188 10.292969 C 8.527344 10.269531 7.550781 10.230469 6.574219 10.164062 Z M 6.574219 10.164062 " fill-opacity="1" fill-rule="nonzero"/></g><path fill="#cb836d" d="M 7.472656 12.382812 C 8.96875 12.300781 10.46875 12.246094 11.964844 12.207031 C 13.464844 12.167969 14.964844 12.140625 16.460938 12.125 C 17.957031 12.109375 19.460938 12.105469 20.957031 12.117188 C 22.453125 12.125 23.953125 12.144531 25.453125 12.199219 C 23.957031 12.28125 22.457031 12.332031 20.960938 12.375 C 19.464844 12.414062 17.960938 12.441406 16.464844 12.453125 C 14.96875 12.472656 13.46875 12.472656 11.972656 12.460938 C 10.46875 12.460938 8.972656 12.4375 7.472656 12.382812 Z M 7.472656 12.382812 " fill-opacity="1" fill-rule="nonzero"/><path fill="#cb836d" d="M 20.921875 10.921875 C 21.644531 10.859375 22.363281 10.832031 23.089844 10.816406 C 23.808594 10.800781 24.53125 10.796875 25.25 10.804688 C 25.96875 10.8125 26.691406 10.832031 27.414062 10.863281 C 28.132812 10.898438 28.855469 10.941406 29.578125 11.019531 C 28.855469 11.078125 28.136719 11.109375 27.410156 11.125 C 26.691406 11.140625 25.96875 11.144531 25.246094 11.136719 C 24.53125 11.128906 23.808594 11.109375 23.085938 11.074219 C 22.367188 11.039062 21.648438 11 20.921875 10.921875 Z M 20.921875 10.921875 " fill-opacity="1" fill-rule="nonzero"/><path fill="#cb836d" d="M 17.492188 14.683594 C 18.441406 14.613281 19.386719 14.582031 20.332031 14.550781 C 21.28125 14.527344 22.226562 14.515625 23.171875 14.515625 C 24.117188 14.515625 25.066406 14.523438 26.011719 14.550781 C 26.960938 14.582031 27.90625 14.613281 28.851562 14.683594 C 27.902344 14.75 26.957031 14.789062 26.011719 14.8125 C 25.0625 14.835938 24.117188 14.847656 23.171875 14.847656 C 22.222656 14.847656 21.277344 14.839844 20.332031 14.8125 C 19.386719 14.785156 18.433594 14.746094 17.492188 14.683594 Z M 17.492188 14.683594 " fill-opacity="1" fill-rule="nonzero"/><path fill="#cb836d" d="M 7.933594 13.601562 C 8.902344 13.535156 9.867188 13.5 10.835938 13.472656 C 11.804688 13.449219 12.765625 13.4375 13.734375 13.4375 C 14.703125 13.4375 15.667969 13.445312 16.636719 13.472656 C 17.605469 13.5 18.566406 13.535156 19.535156 13.601562 C 18.566406 13.671875 17.605469 13.707031 16.636719 13.734375 C 15.667969 13.757812 14.703125 13.769531 13.734375 13.769531 C 12.765625 13.769531 11.804688 13.761719 10.835938 13.734375 C 9.867188 13.703125 8.898438 13.667969 7.933594 13.601562 Z M 7.933594 13.601562 " fill-opacity="1" fill-rule="nonzero"/><path fill="#cb836d" d="M 20.015625 6.707031 C 20.761719 6.636719 21.507812 6.605469 22.25 6.578125 C 22.996094 6.550781 23.742188 6.539062 24.484375 6.539062 C 25.230469 6.539062 25.976562 6.546875 26.71875 6.578125 C 27.46875 6.605469 28.214844 6.636719 28.957031 6.707031 C 28.210938 6.777344 27.460938 6.8125 26.71875 6.835938 C 25.976562 6.859375 25.226562 6.871094 24.484375 6.871094 C 23.738281 6.871094 22.992188 6.863281 22.25 6.835938 C 21.503906 6.8125 20.757812 6.777344 20.015625 6.707031 Z M 20.015625 6.707031 " fill-opacity="1" fill-rule="nonzero"/><path fill="#cb836d" d="M 29.421875 8.785156 C 28.539062 8.84375 27.65625 8.863281 26.769531 8.886719 C 25.890625 8.898438 25.003906 8.898438 24.121094 8.890625 C 23.238281 8.882812 22.355469 8.855469 21.476562 8.824219 C 20.59375 8.789062 19.710938 8.742188 18.828125 8.660156 C 19.710938 8.601562 20.589844 8.582031 21.480469 8.558594 C 22.359375 8.546875 23.242188 8.546875 24.128906 8.554688 C 25.011719 8.566406 25.894531 8.589844 26.773438 8.621094 C 27.660156 8.65625 28.542969 8.707031 29.421875 8.785156 Z M 29.421875 8.785156 " fill-opacity="1" fill-rule="nonzero"/><path fill="#694541" d="M 13.007812 10.746094 C 12.851562 10.199219 12.664062 9.679688 12.425781 9.15625 C 12.269531 8.816406 12.105469 8.484375 11.925781 8.160156 C 11.78125 7.894531 11.632812 7.492188 11.378906 7.3125 C 11.207031 7.1875 10.957031 7.175781 10.777344 7.285156 C 10.589844 7.40625 10.527344 7.625 10.441406 7.8125 C 10.234375 8.273438 10.0625 8.742188 9.929688 9.226562 C 9.796875 9.714844 9.726562 10.234375 9.628906 10.714844 C 9.59375 10.890625 9.519531 11.34375 9.605469 11.472656 C 9.738281 11.695312 10.332031 11.714844 10.464844 11.449219 C 10.589844 11.191406 10.664062 10.679688 10.6875 10.445312 C 10.695312 10.378906 10.753906 10.324219 10.824219 10.320312 C 11.097656 10.308594 11.746094 10.292969 11.820312 10.328125 C 11.949219 10.402344 11.917969 10.589844 12.035156 10.925781 C 12.109375 11.128906 12.167969 11.34375 12.324219 11.457031 C 12.472656 11.566406 12.6875 11.574219 12.855469 11.5 C 13.148438 11.378906 13.085938 11.039062 13.003906 10.761719 C 13.007812 10.753906 13.007812 10.746094 13.007812 10.746094 Z M 11.367188 9.285156 C 11.296875 9.339844 11.109375 9.324219 11 9.324219 C 10.824219 9.324219 10.921875 9.113281 10.964844 9.003906 C 11.027344 8.839844 11.113281 8.628906 11.242188 8.84375 C 11.289062 8.949219 11.460938 9.21875 11.367188 9.285156 Z M 11.367188 9.285156 " fill-opacity="1" fill-rule="nonzero"/><path fill="#694541" d="M 16.679688 8.003906 C 16.4375 7.578125 16.003906 7.363281 15.527344 7.300781 C 15.292969 7.265625 15.054688 7.265625 14.820312 7.28125 C 14.566406 7.300781 14.265625 7.292969 14.046875 7.441406 C 13.820312 7.597656 13.773438 7.886719 13.738281 8.136719 C 13.628906 8.972656 13.699219 9.820312 13.789062 10.65625 C 13.8125 10.902344 13.777344 11.195312 13.953125 11.394531 C 14.171875 11.636719 14.558594 11.59375 14.84375 11.5 C 15.175781 11.414062 15.503906 11.257812 15.78125 11.050781 C 16.167969 10.753906 16.449219 10.332031 16.6875 9.914062 C 17.019531 9.316406 16.988281 8.613281 16.679688 8.007812 C 16.683594 8.011719 16.679688 8.003906 16.679688 8.003906 Z M 15.050781 8.210938 C 15.28125 8.195312 15.527344 8.265625 15.703125 8.417969 C 16.179688 8.882812 15.746094 9.765625 15.335938 10.132812 C 14.886719 10.53125 14.746094 10.5 14.707031 9.878906 C 14.664062 9.429688 14.648438 8.964844 14.691406 8.511719 C 14.714844 8.328125 14.832031 8.222656 15.039062 8.207031 Z M 15.050781 8.210938 " fill-opacity="1" fill-rule="nonzero"/><path fill="#694541" d="M 20.773438 8.578125 C 20.417969 7.476562 19.5625 7.046875 18.5625 7.480469 C 17.921875 7.808594 17.53125 8.539062 17.4375 9.285156 C 17.410156 9.53125 17.390625 9.78125 17.421875 10.027344 C 17.496094 10.476562 17.746094 10.9375 18.0625 11.203125 C 18.558594 11.613281 19.332031 11.617188 19.894531 11.34375 C 20.347656 11.132812 20.683594 10.683594 20.855469 10.1875 C 20.917969 9.964844 20.914062 9.699219 20.910156 9.460938 C 20.902344 9.164062 20.859375 8.867188 20.769531 8.589844 Z M 19.941406 9.488281 C 19.957031 9.917969 19.753906 10.34375 19.339844 10.433594 C 18.417969 10.652344 18.277344 9.726562 18.578125 8.992188 C 18.730469 8.625 19.109375 8.238281 19.492188 8.410156 C 19.789062 8.597656 19.933594 9.132812 19.9375 9.480469 Z M 19.941406 9.488281 " fill-opacity="1" fill-rule="nonzero"/><path fill="#694541" d="M 24.265625 7.941406 C 23.878906 7.070312 22.699219 7.210938 21.953125 7.363281 C 21.726562 7.410156 21.625 7.574219 21.601562 7.792969 C 21.566406 8.148438 21.589844 8.519531 21.59375 8.871094 C 21.597656 9.285156 21.609375 9.695312 21.628906 10.105469 C 21.648438 10.492188 21.636719 10.90625 21.730469 11.28125 C 21.800781 11.566406 22.128906 11.664062 22.382812 11.5625 C 22.773438 11.386719 22.671875 10.859375 22.660156 10.515625 C 22.65625 10.398438 22.613281 10.253906 22.6875 10.148438 C 22.730469 10.097656 22.804688 10.082031 22.882812 10.054688 C 22.988281 10.015625 23.097656 9.988281 23.203125 9.960938 C 23.625 9.859375 24.027344 9.523438 24.253906 9.144531 C 24.429688 8.804688 24.414062 8.296875 24.269531 7.941406 C 24.269531 7.945312 24.265625 7.941406 24.265625 7.941406 Z M 22.605469 8.414062 C 22.570312 8.175781 22.824219 8.167969 23 8.183594 C 23.148438 8.195312 23.273438 8.25 23.332031 8.382812 C 23.410156 8.542969 23.367188 8.761719 23.230469 8.875 C 23.136719 8.960938 22.984375 9.019531 22.855469 9.0625 C 22.746094 9.101562 22.601562 9.183594 22.605469 9.003906 C 22.609375 8.820312 22.609375 8.609375 22.601562 8.425781 Z M 22.605469 8.414062 " fill-opacity="1" fill-rule="nonzero"/><path fill="#694541" d="M 27.804688 7.382812 C 27.421875 7.175781 26.960938 7.207031 26.546875 7.210938 C 26.050781 7.21875 25.5625 7.316406 25.070312 7.351562 C 24.691406 7.378906 24.527344 7.921875 24.742188 8.242188 C 24.90625 8.5 25.132812 8.460938 25.386719 8.425781 C 25.515625 8.410156 25.785156 8.421875 25.785156 8.421875 C 25.785156 8.421875 25.734375 9.652344 25.738281 10.027344 C 25.730469 10.585938 25.445312 11.585938 26.191406 11.644531 C 27.191406 11.71875 26.777344 8.480469 26.777344 8.480469 C 26.777344 8.480469 27.746094 8.523438 27.933594 8.210938 C 28.066406 7.980469 28.027344 7.527344 27.804688 7.386719 C 27.808594 7.386719 27.804688 7.382812 27.804688 7.382812 Z M 27.804688 7.382812 " fill-opacity="1" fill-rule="nonzero"/><path fill="#694541" d="M 25.210938 16.6875 C 25.261719 17.277344 25.054688 17.761719 24.476562 17.871094 C 23.835938 17.992188 23.757812 17.390625 23.246094 17.816406 C 22.429688 18.492188 21.699219 17.847656 21.628906 16.972656 C 21.558594 16.105469 22.285156 15.082031 23.273438 15.011719 C 24.265625 14.925781 25.140625 15.8125 25.210938 16.6875 Z M 25.210938 16.6875 " fill-opacity="1" fill-rule="nonzero"/><path fill="#694541" d="M 21.847656 14.820312 C 21.933594 14.972656 21.960938 15.125 21.929688 15.285156 C 21.898438 15.445312 21.816406 15.558594 21.6875 15.632812 C 21.558594 15.707031 21.417969 15.714844 21.265625 15.660156 C 21.113281 15.605469 20.992188 15.503906 20.90625 15.351562 C 20.820312 15.203125 20.792969 15.046875 20.824219 14.890625 C 20.855469 14.730469 20.9375 14.613281 21.066406 14.539062 C 21.195312 14.464844 21.335938 14.457031 21.488281 14.511719 C 21.640625 14.566406 21.761719 14.667969 21.847656 14.820312 Z M 21.847656 14.820312 " fill-opacity="1" fill-rule="nonzero"/><path fill="#694541" d="M 23.011719 14 C 23.054688 14.167969 23.042969 14.324219 22.96875 14.46875 C 22.898438 14.613281 22.789062 14.707031 22.644531 14.742188 C 22.5 14.78125 22.363281 14.75 22.230469 14.660156 C 22.097656 14.566406 22.011719 14.433594 21.96875 14.265625 C 21.925781 14.097656 21.9375 13.941406 22.011719 13.796875 C 22.082031 13.652344 22.191406 13.5625 22.335938 13.523438 C 22.480469 13.488281 22.617188 13.515625 22.75 13.609375 C 22.882812 13.703125 22.96875 13.832031 23.011719 14 Z M 23.011719 14 " fill-opacity="1" fill-rule="nonzero"/><path fill="#694541" d="M 25.441406 14.195312 C 25.582031 14.246094 25.679688 14.351562 25.734375 14.5 C 25.789062 14.652344 25.789062 14.8125 25.726562 14.972656 C 25.667969 15.136719 25.566406 15.257812 25.421875 15.335938 C 25.28125 15.414062 25.140625 15.425781 25 15.375 C 24.863281 15.320312 24.765625 15.21875 24.707031 15.066406 C 24.652344 14.914062 24.65625 14.757812 24.714844 14.597656 C 24.777344 14.433594 24.878906 14.3125 25.019531 14.234375 C 25.160156 14.15625 25.300781 14.144531 25.441406 14.195312 Z M 25.441406 14.195312 " fill-opacity="1" fill-rule="nonzero"/><path fill="#694541" d="M 24.042969 13.386719 C 24.191406 13.398438 24.3125 13.472656 24.40625 13.605469 C 24.5 13.734375 24.539062 13.886719 24.519531 14.0625 C 24.503906 14.234375 24.441406 14.378906 24.324219 14.488281 C 24.207031 14.601562 24.074219 14.652344 23.925781 14.636719 C 23.777344 14.625 23.65625 14.550781 23.5625 14.421875 C 23.46875 14.289062 23.429688 14.136719 23.445312 13.964844 C 23.460938 13.789062 23.527344 13.648438 23.644531 13.535156 C 23.761719 13.421875 23.894531 13.371094 24.042969 13.386719 Z M 24.042969 13.386719 " fill-opacity="1" fill-rule="nonzero"/><path fill="#694541" d="M 16.046875 16.808594 C 16.019531 16.558594 15.84375 14.332031 15.65625 14.070312 C 15.503906 13.851562 15.078125 13.789062 14.878906 13.984375 C 14.632812 14.265625 14.414062 14.597656 14.1875 14.894531 C 14.097656 15 14.003906 15.246094 13.875 15.011719 C 13.710938 14.726562 13.539062 14.4375 13.355469 14.164062 C 13.085938 13.785156 13.003906 13.511719 12.460938 13.648438 C 12.300781 13.691406 12.199219 13.792969 12.167969 13.964844 C 12.082031 14.53125 11.765625 16.851562 11.808594 17.433594 C 11.820312 17.554688 11.871094 17.679688 11.972656 17.753906 C 12.207031 17.90625 12.636719 17.851562 12.761719 17.574219 C 12.859375 17.367188 12.953125 16.066406 12.953125 15.691406 C 12.972656 15.511719 13.019531 15.558594 13.105469 15.710938 C 13.246094 15.949219 13.347656 16.222656 13.589844 16.371094 C 14.113281 16.675781 14.414062 16.199219 14.722656 15.847656 C 14.769531 15.792969 14.863281 15.683594 14.894531 15.808594 C 14.972656 16.121094 15.070312 17.351562 15.179688 17.550781 C 15.304688 17.777344 15.738281 17.730469 15.925781 17.554688 C 16.097656 17.386719 16.085938 17.128906 16.058594 16.910156 C 16.054688 16.871094 16.050781 16.839844 16.046875 16.808594 Z M 16.046875 16.808594 " fill-opacity="1" fill-rule="nonzero"/><path fill="#694541" d="M 19.519531 16.992188 C 19.402344 16.941406 19.292969 16.957031 19.171875 16.960938 C 19.046875 16.96875 18.914062 16.976562 18.792969 16.988281 C 18.554688 17.007812 18.300781 16.980469 18.050781 16.957031 C 17.957031 16.941406 17.9375 16.851562 17.941406 16.765625 C 17.953125 16.585938 17.941406 16.398438 17.964844 16.21875 C 17.988281 16.132812 18.078125 16.125 18.152344 16.128906 C 18.261719 16.132812 18.320312 16.121094 18.445312 16.117188 C 18.804688 16.089844 19.285156 16.140625 19.324219 15.667969 C 19.371094 15.199219 19 15.058594 18.601562 15.085938 C 18.460938 15.089844 18.335938 15.089844 18.195312 15.113281 C 18.132812 15.117188 18.046875 15.136719 18.007812 15.070312 C 17.972656 14.984375 18.007812 14.867188 18.007812 14.773438 C 18.015625 14.566406 18.167969 14.546875 18.34375 14.53125 C 18.5 14.507812 18.652344 14.476562 18.816406 14.472656 C 18.992188 14.457031 19.15625 14.449219 19.289062 14.371094 C 19.492188 14.242188 19.488281 13.953125 19.410156 13.75 C 19.316406 13.535156 19.128906 13.421875 18.898438 13.449219 C 18.386719 13.480469 17.851562 13.554688 17.363281 13.71875 C 17.199219 13.773438 17.152344 13.867188 17.105469 14.011719 C 16.9375 14.511719 16.96875 15.105469 16.949219 15.628906 C 16.9375 15.976562 16.929688 16.328125 16.933594 16.675781 C 16.933594 16.988281 16.890625 17.363281 16.992188 17.664062 C 17.078125 18.003906 17.554688 17.953125 17.820312 17.964844 C 18.160156 17.980469 18.496094 17.988281 18.839844 17.992188 C 19.101562 17.992188 19.460938 18.019531 19.679688 17.847656 C 19.960938 17.617188 19.851562 17.132812 19.527344 17 Z M 19.519531 16.992188 " fill-opacity="1" fill-rule="nonzero"/></svg>