<svg xmlns="http://www.w3.org/2000/svg" xmlns:xlink="http://www.w3.org/1999/xlink" width="50" zoomAndPan="magnify" viewBox="0 0 37.5 37.499999" height="50" preserveAspectRatio="xMidYMid meet" version="1.0"><defs><clipPath id="e51f0a49d6"><path d="M 3.699219 3.699219 L 33.304688 3.699219 L 33.304688 33.304688 L 3.699219 33.304688 Z M 3.699219 3.699219 " clip-rule="nonzero"/></clipPath></defs><g clip-path="url(#e51f0a49d6)"><path fill="#fbf3ee" d="M 28.667969 18.503906 L 31.203125 15.964844 C 32.5625 14.613281 33.3125 12.8125 33.3125 10.894531 C 33.3125 8.972656 32.566406 7.167969 31.203125 5.808594 C 29.84375 4.445312 28.039062 3.699219 26.117188 3.699219 C 24.199219 3.699219 22.398438 4.449219 21.039062 5.808594 L 18.503906 8.339844 L 15.964844 5.804688 C 14.609375 4.445312 12.808594 3.699219 10.886719 3.699219 C 8.96875 3.699219 7.160156 4.445312 5.804688 5.804688 C 4.445312 7.160156 3.699219 8.96875 3.699219 10.886719 C 3.699219 12.808594 4.445312 14.609375 5.804688 15.964844 L 8.339844 18.503906 L 5.804688 21.039062 C 4.445312 22.398438 3.699219 24.199219 3.699219 26.117188 C 3.699219 28.039062 4.445312 29.84375 5.804688 31.203125 C 7.160156 32.5625 8.96875 33.3125 10.886719 33.3125 C 12.808594 33.3125 14.609375 32.5625 15.964844 31.203125 L 18.503906 28.667969 L 21.039062 31.203125 C 22.398438 32.5625 24.199219 33.304688 26.117188 33.304688 C 28.039062 33.304688 29.839844 32.5625 31.199219 31.203125 C 32.554688 29.84375 33.304688 28.039062 33.304688 26.117188 C 33.304688 24.199219 32.5625 22.398438 31.203125 21.039062 Z M 21.765625 6.527344 C 22.929688 5.359375 24.476562 4.722656 26.117188 4.722656 C 27.769531 4.722656 29.3125 5.363281 30.476562 6.527344 C 31.640625 7.691406 32.285156 9.242188 32.285156 10.894531 C 32.285156 12.535156 31.640625 14.082031 30.476562 15.246094 L 27.941406 17.785156 L 19.226562 9.066406 Z M 15.242188 30.476562 C 14.078125 31.648438 12.53125 32.285156 10.886719 32.285156 C 9.238281 32.285156 7.691406 31.640625 6.527344 30.476562 C 5.363281 29.3125 4.722656 27.769531 4.722656 26.117188 C 4.722656 24.476562 5.363281 22.929688 6.527344 21.765625 L 9.066406 19.226562 L 17.785156 27.945312 Z M 30.476562 30.476562 C 29.3125 31.640625 27.769531 32.285156 26.117188 32.285156 C 24.46875 32.285156 22.921875 31.640625 21.761719 30.476562 L 18.867188 27.582031 C 18.867188 27.582031 18.867188 27.582031 18.867188 27.578125 C 18.867188 27.574219 18.867188 27.578125 18.859375 27.578125 L 9.429688 18.144531 C 9.429688 18.144531 9.429688 18.144531 9.429688 18.140625 C 9.429688 18.136719 9.429688 18.140625 9.421875 18.140625 L 6.527344 15.246094 C 5.363281 14.078125 4.722656 12.53125 4.722656 10.886719 C 4.722656 9.242188 5.363281 7.691406 6.527344 6.527344 C 7.691406 5.363281 9.238281 4.722656 10.886719 4.722656 C 12.535156 4.722656 14.082031 5.363281 15.246094 6.527344 L 18.140625 9.421875 C 18.140625 9.421875 18.140625 9.421875 18.140625 9.429688 C 18.140625 9.433594 18.140625 9.429688 18.144531 9.429688 L 27.578125 18.859375 C 27.578125 18.859375 27.578125 18.859375 27.578125 18.867188 C 27.578125 18.871094 27.578125 18.867188 27.582031 18.867188 L 30.476562 21.761719 C 31.640625 22.929688 32.285156 24.476562 32.285156 26.117188 C 32.285156 27.761719 31.640625 29.3125 30.476562 30.476562 Z M 30.476562 30.476562 " fill-opacity="1" fill-rule="nonzero"/></g><path fill="#fbf3ee" d="M 18.507812 18.070312 C 16.472656 18.070312 14.8125 19.683594 14.8125 21.664062 C 14.8125 22.101562 15.042969 22.710938 16.144531 23.101562 C 16.777344 23.328125 17.613281 23.449219 18.503906 23.449219 C 20.207031 23.449219 22.199219 22.980469 22.199219 21.664062 C 22.203125 19.675781 20.546875 18.070312 18.507812 18.070312 Z M 18.507812 22.421875 C 16.875 22.421875 15.832031 21.96875 15.832031 21.65625 C 15.832031 20.238281 17.035156 19.085938 18.507812 19.085938 C 19.984375 19.085938 21.183594 20.238281 21.183594 21.65625 C 21.183594 21.96875 20.140625 22.421875 18.507812 22.421875 Z M 18.507812 22.421875 " fill-opacity="1" fill-rule="nonzero"/><path fill="#fbf3ee" d="M 19.625 17.070312 C 19.753906 17.128906 19.890625 17.160156 20.03125 17.160156 C 20.164062 17.160156 20.300781 17.128906 20.433594 17.070312 C 20.847656 16.878906 21.179688 16.425781 21.347656 15.820312 C 21.570312 14.996094 21.4375 13.984375 20.753906 13.652344 C 20.5 13.53125 20.214844 13.527344 19.949219 13.648438 C 19.535156 13.839844 19.203125 14.292969 19.035156 14.898438 C 18.808594 15.726562 18.941406 16.730469 19.625 17.070312 Z M 20.019531 15.171875 C 20.105469 14.84375 20.25 14.664062 20.332031 14.605469 C 20.402344 14.726562 20.488281 15.082031 20.359375 15.554688 C 20.273438 15.878906 20.132812 16.058594 20.050781 16.121094 C 19.976562 15.996094 19.890625 15.640625 20.019531 15.171875 Z M 20.019531 15.171875 " fill-opacity="1" fill-rule="nonzero"/><path fill="#fbf3ee" d="M 23.746094 16.421875 C 23.570312 16.109375 23.285156 15.914062 22.945312 15.871094 C 22.53125 15.8125 22.082031 15.988281 21.71875 16.355469 C 21.113281 16.96875 20.917969 17.894531 21.269531 18.519531 C 21.445312 18.828125 21.730469 19.023438 22.070312 19.070312 C 22.121094 19.074219 22.171875 19.082031 22.222656 19.082031 C 22.597656 19.082031 22.976562 18.90625 23.296875 18.585938 C 23.902344 17.976562 24.097656 17.046875 23.746094 16.421875 Z M 22.570312 17.871094 C 22.40625 18.039062 22.265625 18.070312 22.210938 18.0625 C 22.195312 18.0625 22.183594 18.058594 22.164062 18.023438 C 22.066406 17.851562 22.128906 17.394531 22.449219 17.074219 C 22.601562 16.921875 22.730469 16.878906 22.796875 16.878906 C 22.800781 16.878906 22.804688 16.878906 22.8125 16.878906 C 22.828125 16.878906 22.835938 16.886719 22.855469 16.921875 C 22.953125 17.09375 22.886719 17.546875 22.570312 17.871094 Z M 22.570312 17.871094 " fill-opacity="1" fill-rule="nonzero"/><path fill="#fbf3ee" d="M 15.671875 15.824219 C 15.839844 16.429688 16.171875 16.886719 16.585938 17.074219 C 16.714844 17.136719 16.855469 17.164062 16.988281 17.164062 C 17.125 17.164062 17.261719 17.136719 17.390625 17.074219 C 18.074219 16.738281 18.207031 15.730469 17.984375 14.90625 C 17.8125 14.296875 17.480469 13.84375 17.070312 13.652344 C 16.796875 13.53125 16.511719 13.535156 16.261719 13.660156 C 15.578125 13.992188 15.445312 14.996094 15.671875 15.824219 Z M 16.6875 14.605469 C 16.761719 14.664062 16.910156 14.839844 16.996094 15.171875 C 17.125 15.644531 17.039062 16.007812 16.96875 16.121094 C 16.890625 16.058594 16.742188 15.882812 16.65625 15.554688 C 16.527344 15.078125 16.613281 14.714844 16.6875 14.605469 Z M 16.6875 14.605469 " fill-opacity="1" fill-rule="nonzero"/><path fill="#fbf3ee" d="M 15.738281 18.523438 C 16.089844 17.902344 15.894531 16.96875 15.289062 16.359375 C 14.925781 15.996094 14.476562 15.820312 14.0625 15.875 C 13.71875 15.921875 13.433594 16.113281 13.261719 16.425781 C 12.910156 17.046875 13.101562 17.984375 13.710938 18.589844 C 14.027344 18.910156 14.410156 19.085938 14.78125 19.085938 C 14.832031 19.085938 14.882812 19.082031 14.933594 19.074219 C 15.277344 19.027344 15.5625 18.828125 15.738281 18.523438 Z M 14.84375 18.023438 C 14.824219 18.058594 14.808594 18.0625 14.796875 18.0625 C 14.734375 18.074219 14.605469 18.039062 14.433594 17.871094 C 14.117188 17.546875 14.050781 17.09375 14.148438 16.921875 C 14.167969 16.886719 14.183594 16.878906 14.195312 16.878906 C 14.25 16.875 14.390625 16.90625 14.558594 17.074219 C 14.878906 17.394531 14.941406 17.851562 14.84375 18.023438 Z M 14.84375 18.023438 " fill-opacity="1" fill-rule="nonzero"/><path fill="#fbf3ee" d="M 29.894531 26.296875 L 26.292969 29.902344 C 26.09375 30.101562 26.09375 30.421875 26.292969 30.621094 C 26.394531 30.722656 26.523438 30.769531 26.65625 30.769531 C 26.789062 30.769531 26.914062 30.71875 27.015625 30.621094 L 30.621094 27.015625 C 30.820312 26.816406 30.820312 26.496094 30.621094 26.296875 C 30.421875 26.097656 30.09375 26.097656 29.894531 26.296875 Z M 29.894531 26.296875 " fill-opacity="1" fill-rule="nonzero"/><path fill="#fbf3ee" d="M 29.726562 23.054688 C 29.527344 22.855469 29.207031 22.855469 29.007812 23.054688 L 23.054688 29.007812 C 22.855469 29.207031 22.855469 29.527344 23.054688 29.726562 C 23.160156 29.828125 23.285156 29.875 23.417969 29.875 C 23.550781 29.875 23.679688 29.824219 23.78125 29.726562 L 29.734375 23.777344 C 29.925781 23.578125 29.925781 23.253906 29.726562 23.054688 Z M 29.726562 23.054688 " fill-opacity="1" fill-rule="nonzero"/><path fill="#fbf3ee" d="M 10.707031 6.386719 C 10.511719 6.1875 10.1875 6.1875 9.988281 6.386719 L 6.386719 9.988281 C 6.1875 10.1875 6.1875 10.511719 6.386719 10.707031 C 6.488281 10.8125 6.617188 10.855469 6.746094 10.855469 C 6.878906 10.855469 7.007812 10.804688 7.109375 10.707031 L 10.714844 7.105469 C 10.914062 6.910156 10.914062 6.585938 10.707031 6.386719 Z M 10.707031 6.386719 " fill-opacity="1" fill-rule="nonzero"/><path fill="#fbf3ee" d="M 13.949219 7.277344 C 13.75 7.078125 13.429688 7.078125 13.230469 7.277344 L 7.277344 13.230469 C 7.078125 13.429688 7.078125 13.75 7.277344 13.949219 C 7.382812 14.050781 7.507812 14.097656 7.640625 14.097656 C 7.773438 14.097656 7.902344 14.046875 8.003906 13.949219 L 13.957031 8 C 14.148438 7.800781 14.148438 7.476562 13.949219 7.277344 Z M 13.949219 7.277344 " fill-opacity="1" fill-rule="nonzero"/></svg>