<svg xmlns="http://www.w3.org/2000/svg" xmlns:xlink="http://www.w3.org/1999/xlink" width="50" zoomAndPan="magnify" viewBox="0 0 37.5 37.499999" height="50" preserveAspectRatio="xMidYMid meet" version="1.0"><defs><clipPath id="7ee7beb3c6"><path d="M 20 16 L 31.332031 16 L 31.332031 29 L 20 29 Z M 20 16 " clip-rule="nonzero"/></clipPath><clipPath id="6145018601"><path d="M 5.425781 5.851562 L 26 5.851562 L 26 31 L 5.425781 31 Z M 5.425781 5.851562 " clip-rule="nonzero"/></clipPath></defs><path fill="#fbf3ee" d="M 12.332031 9.832031 C 12.332031 10.949219 11.425781 11.855469 10.308594 11.855469 C 9.191406 11.855469 8.285156 10.949219 8.285156 9.832031 C 8.285156 8.714844 9.191406 7.808594 10.308594 7.808594 C 11.425781 7.808594 12.332031 8.714844 12.332031 9.832031 Z M 12.332031 9.832031 " fill-opacity="1" fill-rule="nonzero"/><g clip-path="url(#7ee7beb3c6)"><path fill="#fbf3ee" d="M 31.527344 23.980469 C 31.488281 23.894531 31.382812 23.84375 31.273438 23.898438 C 30.839844 24.109375 30.363281 24.222656 29.914062 24.246094 C 29.441406 24.261719 29.03125 24.195312 28.570312 23.933594 C 28.527344 23.695312 28.425781 23.46875 28.277344 23.273438 L 25.75 19.964844 C 25.75 19.964844 25.800781 19.589844 25.855469 19.171875 C 25.667969 19.199219 25.472656 19.222656 25.296875 19.222656 C 24.824219 19.222656 24.515625 19.074219 24.375 18.789062 C 24.121094 18.28125 24.613281 17.75 24.773438 17.574219 C 24.90625 17.429688 25.085938 17.265625 25.246094 17.136719 L 25.234375 17.132812 C 25.039062 17.015625 24.824219 16.957031 24.605469 16.957031 C 24.382812 16.957031 24.15625 17.019531 23.960938 17.140625 L 23.382812 17.011719 C 23.28125 16.988281 23.167969 17.007812 23.082031 17.074219 C 22.992188 17.136719 22.9375 17.234375 22.929688 17.34375 L 22.882812 17.816406 C 22.847656 18.207031 23.070312 18.574219 23.433594 18.722656 C 23.585938 18.785156 23.710938 18.910156 23.769531 19.066406 C 23.832031 19.222656 23.824219 19.398438 23.75 19.550781 C 23.527344 20.015625 23.214844 20.683594 23 21.257812 C 22.289062 20.683594 22.402344 20.773438 21.261719 19.851562 C 21.046875 19.679688 20.726562 19.710938 20.554688 19.929688 C 20.378906 20.144531 20.410156 20.464844 20.628906 20.640625 C 23.207031 22.722656 24.617188 23.757812 25.496094 24.417969 C 25.613281 24.132812 25.792969 23.855469 26.027344 23.613281 C 26.132812 23.507812 26.304688 23.503906 26.410156 23.609375 C 26.519531 23.714844 26.519531 23.886719 26.417969 23.992188 C 26.144531 24.273438 25.992188 24.605469 25.886719 24.9375 C 25.742188 25.375 25.703125 26.375 25.882812 26.964844 L 25.429688 28.210938 C 25.335938 28.472656 25.472656 28.761719 25.734375 28.859375 C 25.996094 28.953125 26.285156 28.816406 26.382812 28.554688 L 26.890625 27.144531 C 28.050781 26.671875 28.476562 25.570312 28.566406 24.890625 C 29.085938 25 29.511719 24.984375 30.007812 24.875 C 30.515625 24.753906 31.03125 24.527344 31.472656 24.207031 C 31.539062 24.15625 31.566406 24.058594 31.527344 23.980469 Z M 31.527344 23.980469 " fill-opacity="1" fill-rule="nonzero"/></g><path fill="#fbf3ee" d="M 26.328125 17.820312 C 26.195312 17.558594 25.960938 17.398438 25.789062 17.398438 C 25.757812 17.398438 25.726562 17.402344 25.699219 17.417969 C 25.535156 17.496094 24.652344 18.253906 24.8125 18.574219 C 24.871094 18.691406 25.066406 18.730469 25.296875 18.730469 C 25.683594 18.730469 26.164062 18.617188 26.265625 18.570312 C 26.429688 18.488281 26.484375 18.140625 26.328125 17.820312 Z M 26.328125 17.820312 " fill-opacity="1" fill-rule="nonzero"/><g clip-path="url(#6145018601)"><path fill="#fbf3ee" d="M 21.113281 5.855469 C 18.457031 5.855469 16.296875 8.015625 16.296875 10.671875 C 16.296875 11.402344 16.460938 12.097656 16.753906 12.71875 L 15.011719 13.683594 L 12.605469 13.027344 C 12.359375 12.6875 11.960938 12.464844 11.507812 12.464844 L 9.605469 12.457031 C 9.242188 12.453125 8.890625 12.597656 8.632812 12.855469 C 8.382812 13.109375 8.238281 13.445312 8.234375 13.800781 L 8.234375 13.878906 L 5.839844 16.800781 C 5.636719 17.054688 5.574219 17.394531 5.675781 17.707031 C 5.90625 18.429688 6.582031 20.527344 6.890625 21.492188 C 7.054688 22.003906 7.601562 22.289062 8.117188 22.125 C 8.628906 21.957031 8.914062 21.410156 8.75 20.894531 L 7.714844 17.679688 L 10.027344 14.777344 L 8.714844 17.734375 L 9.640625 20.609375 C 9.960938 21.609375 9.410156 22.691406 8.40625 23.015625 C 8.222656 23.074219 8.035156 23.105469 7.84375 23.105469 L 7.597656 24.648438 L 5.683594 29.375 C 5.4375 29.972656 5.726562 30.65625 6.328125 30.898438 C 6.925781 31.140625 7.609375 30.855469 7.851562 30.253906 L 9.820312 25.40625 C 9.851562 25.324219 9.878906 25.238281 9.890625 25.148438 L 10.523438 21.195312 L 11.550781 25.195312 L 11.648438 29.839844 C 11.660156 30.484375 12.195312 31 12.84375 30.984375 C 13.492188 30.972656 14.003906 30.4375 13.988281 29.789062 L 13.890625 25.011719 C 13.890625 24.921875 13.875 24.832031 13.855469 24.742188 L 12.839844 20.792969 L 12.863281 15.121094 L 14.882812 15.667969 C 15.125 15.734375 15.386719 15.707031 15.613281 15.582031 L 17.941406 14.292969 C 18.789062 15.035156 19.898438 15.488281 21.113281 15.488281 C 23.769531 15.488281 25.933594 13.328125 25.933594 10.671875 C 25.933594 8.015625 23.769531 5.855469 21.113281 5.855469 Z M 21.113281 14.332031 C 20.292969 14.332031 19.535156 14.0625 18.925781 13.605469 C 19.105469 13.3125 19.128906 12.9375 18.949219 12.617188 C 18.714844 12.195312 18.214844 12.015625 17.773438 12.167969 C 17.570312 11.710938 17.453125 11.207031 17.453125 10.671875 C 17.453125 8.652344 19.097656 7.011719 21.113281 7.011719 C 23.132812 7.011719 24.777344 8.652344 24.777344 10.671875 C 24.777344 12.691406 23.132812 14.332031 21.113281 14.332031 Z M 21.113281 14.332031 " fill-opacity="1" fill-rule="nonzero"/></g></svg>