<svg xmlns="http://www.w3.org/2000/svg" xmlns:xlink="http://www.w3.org/1999/xlink" width="50" zoomAndPan="magnify" viewBox="0 0 37.5 37.499999" height="50" preserveAspectRatio="xMidYMid meet" version="1.0"><defs><clipPath id="0684b3c629"><path d="M 19 2.324219 L 23 2.324219 L 23 6 L 19 6 Z M 19 2.324219 " clip-rule="nonzero"/></clipPath><clipPath id="b498ca1b55"><path d="M 11 14 L 31 14 L 31 33.410156 L 11 33.410156 Z M 11 14 " clip-rule="nonzero"/></clipPath><clipPath id="8234bb84f3"><path d="M 3.570312 32.363281 L 34.65625 32.363281 L 34.65625 33.40625 L 3.570312 33.40625 Z M 3.570312 32.363281 " clip-rule="nonzero"/></clipPath></defs><path fill="#a3654a" d="M 15.769531 9.917969 C 15.769531 9.917969 14.734375 9.023438 15.027344 7.230469 C 15.324219 5.4375 16.363281 4.390625 17.546875 4.242188 C 18.730469 4.09375 18.289062 4.539062 18.730469 4.390625 C 19.175781 4.242188 19.621094 4.09375 20.214844 4.539062 C 20.804688 4.988281 21.84375 5.4375 22.136719 6.183594 C 22.433594 6.929688 21.992188 6.929688 22.582031 8.125 C 23.175781 9.320312 23.027344 9.621094 21.992188 10.664062 C 20.953125 11.710938 20.066406 12.457031 20.066406 12.457031 L 18.878906 9.917969 L 15.769531 9.917969 " fill-opacity="1" fill-rule="nonzero"/><path fill="#f6b592" d="M 20.804688 16.640625 L 17.101562 16.789062 L 17.101562 12.308594 L 20.507812 10.21875 L 20.65625 14.398438 L 20.804688 16.640625 " fill-opacity="1" fill-rule="nonzero"/><path fill="#e57c5c" d="M 19.792969 11.835938 C 19.667969 12.261719 19.027344 13.054688 18.140625 13.652344 C 17.75 13.914062 17.386719 13.945312 17.101562 13.898438 L 17.101562 13.054688 L 17.992188 12.160156 C 17.992188 12.160156 19.917969 11.410156 19.792969 11.835938 " fill-opacity="1" fill-rule="nonzero"/><path fill="#5faad3" d="M 16.628906 15.621094 C 16.628906 15.621094 18.730469 17.386719 21.324219 15.621094 L 21.695312 24.582031 L 14.585938 23.363281 L 16.628906 15.621094 " fill-opacity="1" fill-rule="nonzero"/><path fill="#f6b592" d="M 16.214844 6.78125 C 16.085938 7.304688 15.472656 9.023438 15.621094 10.515625 C 15.769531 12.007812 16.511719 12.757812 16.804688 12.90625 C 17.101562 13.054688 18.140625 13.355469 19.175781 12.457031 C 20.214844 11.5625 20.65625 10.515625 20.65625 10.515625 C 20.65625 10.515625 20.65625 8.871094 20.359375 8.273438 C 20.066406 7.675781 19.324219 6.183594 18.878906 6.183594 C 18.4375 6.183594 16.363281 6.183594 16.214844 6.78125 " fill-opacity="1" fill-rule="nonzero"/><path fill="#e57c5c" d="M 16.808594 9.367188 C 16.839844 9.539062 16.851562 9.707031 16.863281 9.878906 C 16.867188 10.050781 16.871094 10.222656 16.867188 10.390625 L 16.859375 10.519531 L 16.855469 10.648438 C 16.851562 10.6875 16.847656 10.730469 16.84375 10.773438 L 16.84375 10.800781 C 16.84375 10.804688 16.84375 10.808594 16.84375 10.808594 C 16.84375 10.808594 16.84375 10.8125 16.84375 10.8125 C 16.84375 10.820312 16.847656 10.828125 16.855469 10.839844 C 16.871094 10.859375 16.902344 10.878906 16.9375 10.894531 C 16.96875 10.910156 17.007812 10.921875 17.050781 10.933594 C 17.089844 10.941406 17.128906 10.953125 17.171875 10.960938 C 17.210938 10.972656 17.253906 10.980469 17.296875 10.992188 C 17.253906 11 17.210938 11.003906 17.167969 11.011719 C 17.125 11.015625 17.082031 11.015625 17.039062 11.015625 C 16.992188 11.015625 16.949219 11.011719 16.902344 11 C 16.878906 10.996094 16.855469 10.988281 16.832031 10.980469 C 16.808594 10.96875 16.785156 10.957031 16.761719 10.9375 C 16.738281 10.917969 16.71875 10.890625 16.707031 10.855469 C 16.703125 10.847656 16.699219 10.839844 16.699219 10.832031 C 16.695312 10.824219 16.695312 10.8125 16.695312 10.804688 L 16.695312 10.769531 C 16.691406 10.726562 16.691406 10.683594 16.691406 10.640625 L 16.691406 10.515625 L 16.695312 10.386719 C 16.699219 10.214844 16.710938 10.046875 16.726562 9.875 C 16.746094 9.707031 16.769531 9.535156 16.808594 9.367188 " fill-opacity="1" fill-rule="nonzero"/><path fill="#a3654a" d="M 17.695312 8.425781 C 17.703125 8.402344 17.714844 8.378906 17.730469 8.359375 C 17.742188 8.339844 17.757812 8.324219 17.773438 8.308594 C 17.804688 8.273438 17.839844 8.246094 17.878906 8.222656 C 17.957031 8.179688 18.046875 8.152344 18.136719 8.152344 C 18.183594 8.152344 18.230469 8.15625 18.273438 8.167969 C 18.320312 8.179688 18.363281 8.195312 18.402344 8.21875 C 18.484375 8.265625 18.550781 8.332031 18.582031 8.425781 C 18.484375 8.429688 18.410156 8.425781 18.339844 8.429688 L 18.144531 8.429688 C 18.078125 8.433594 18.011719 8.433594 17.941406 8.433594 C 17.867188 8.433594 17.792969 8.433594 17.695312 8.425781 " fill-opacity="1" fill-rule="nonzero"/><path fill="#a3654a" d="M 16.507812 8.421875 C 16.421875 8.425781 16.351562 8.421875 16.292969 8.417969 C 16.230469 8.410156 16.179688 8.40625 16.132812 8.402344 C 16.085938 8.402344 16.050781 8.398438 16 8.40625 C 15.949219 8.410156 15.886719 8.429688 15.800781 8.453125 C 15.792969 8.40625 15.800781 8.363281 15.816406 8.324219 C 15.832031 8.285156 15.855469 8.246094 15.890625 8.214844 C 15.957031 8.148438 16.058594 8.117188 16.148438 8.125 C 16.238281 8.128906 16.320312 8.164062 16.382812 8.214844 C 16.414062 8.242188 16.4375 8.273438 16.460938 8.304688 C 16.484375 8.339844 16.503906 8.378906 16.507812 8.421875 " fill-opacity="1" fill-rule="nonzero"/><path fill="#e57c5c" d="M 17.25 11.710938 C 17.359375 11.695312 17.457031 11.679688 17.558594 11.664062 C 17.65625 11.648438 17.753906 11.628906 17.84375 11.601562 C 17.9375 11.570312 18.019531 11.535156 18.097656 11.480469 C 18.136719 11.453125 18.171875 11.421875 18.203125 11.386719 C 18.238281 11.347656 18.269531 11.308594 18.300781 11.261719 C 18.300781 11.316406 18.289062 11.375 18.269531 11.425781 C 18.25 11.476562 18.21875 11.527344 18.179688 11.570312 C 18.101562 11.65625 17.996094 11.71875 17.890625 11.75 C 17.78125 11.78125 17.671875 11.792969 17.5625 11.785156 C 17.507812 11.785156 17.457031 11.777344 17.402344 11.761719 C 17.351562 11.75 17.300781 11.734375 17.25 11.710938 " fill-opacity="1" fill-rule="nonzero"/><path fill="#a3654a" d="M 16.953125 6.632812 C 17.558594 6.71875 17.992188 6.035156 18.289062 6.632812 C 18.582031 7.230469 18.730469 7.527344 19.324219 7.675781 C 19.917969 7.828125 20.214844 9.394531 20.804688 9.507812 C 21.398438 9.621094 19.769531 6.480469 19.769531 6.480469 L 19.175781 5.734375 L 17.546875 5.734375 L 16.511719 6.035156 L 15.769531 7.378906 C 15.769531 7.378906 15.605469 9.03125 15.6875 8.953125 C 15.769531 8.871094 15.917969 6.480469 16.953125 6.632812 " fill-opacity="1" fill-rule="nonzero"/><g clip-path="url(#0684b3c629)"><path fill="#a3654a" d="M 19.574219 4.730469 C 19.476562 4.253906 19.453125 3.722656 19.558594 3.25 C 19.628906 2.9375 19.773438 2.617188 20.066406 2.464844 C 20.226562 2.378906 20.398438 2.363281 20.574219 2.367188 C 20.800781 2.367188 21.023438 2.328125 21.242188 2.394531 C 21.636719 2.515625 21.890625 2.878906 22.277344 3.011719 C 22.398438 3.054688 22.527344 3.085938 22.640625 3.152344 C 22.878906 3.289062 22.878906 3.53125 22.847656 3.777344 C 22.757812 4.53125 21.777344 6.09375 20.605469 5.386719 C 19.433594 4.683594 19.574219 4.730469 19.574219 4.730469 " fill-opacity="1" fill-rule="nonzero"/></g><path fill="#8e4d36" d="M 20.140625 6.035156 C 20.203125 6.050781 20.269531 6.078125 20.332031 6.105469 C 20.390625 6.136719 20.453125 6.171875 20.507812 6.210938 C 20.621094 6.292969 20.730469 6.398438 20.796875 6.542969 C 20.832031 6.613281 20.851562 6.695312 20.855469 6.777344 C 20.859375 6.863281 20.847656 6.953125 20.8125 7.03125 C 20.777344 7.109375 20.726562 7.175781 20.679688 7.230469 C 20.65625 7.257812 20.632812 7.28125 20.621094 7.300781 L 20.613281 7.3125 C 20.609375 7.3125 20.605469 7.316406 20.609375 7.316406 C 20.605469 7.320312 20.609375 7.3125 20.609375 7.300781 C 20.609375 7.289062 20.609375 7.28125 20.605469 7.277344 C 20.609375 7.28125 20.609375 7.28125 20.613281 7.285156 C 20.625 7.296875 20.644531 7.3125 20.667969 7.328125 C 20.675781 7.335938 20.691406 7.34375 20.703125 7.351562 L 20.742188 7.375 L 20.824219 7.421875 C 20.855469 7.441406 20.882812 7.457031 20.914062 7.476562 C 20.941406 7.496094 20.972656 7.515625 21 7.535156 L 21.085938 7.597656 L 21.167969 7.664062 C 21.273438 7.757812 21.367188 7.875 21.429688 8.007812 C 21.488281 8.140625 21.503906 8.292969 21.472656 8.425781 C 21.457031 8.359375 21.433594 8.292969 21.410156 8.238281 L 21.398438 8.214844 L 21.386719 8.195312 C 21.378906 8.179688 21.371094 8.167969 21.363281 8.15625 L 21.335938 8.117188 L 21.308594 8.082031 C 21.230469 7.984375 21.136719 7.910156 21.03125 7.84375 L 20.953125 7.796875 L 20.871094 7.75 L 20.785156 7.707031 C 20.757812 7.691406 20.730469 7.679688 20.699219 7.664062 L 20.609375 7.621094 L 20.5625 7.59375 C 20.542969 7.585938 20.527344 7.578125 20.511719 7.566406 C 20.480469 7.542969 20.445312 7.519531 20.410156 7.488281 C 20.402344 7.476562 20.390625 7.464844 20.382812 7.457031 C 20.375 7.445312 20.363281 7.429688 20.355469 7.417969 C 20.351562 7.40625 20.347656 7.398438 20.34375 7.390625 C 20.34375 7.386719 20.339844 7.382812 20.339844 7.378906 L 20.335938 7.363281 C 20.332031 7.351562 20.328125 7.339844 20.328125 7.328125 C 20.328125 7.316406 20.328125 7.308594 20.328125 7.296875 C 20.328125 7.25 20.339844 7.210938 20.355469 7.183594 C 20.363281 7.171875 20.371094 7.160156 20.378906 7.148438 C 20.386719 7.136719 20.390625 7.128906 20.398438 7.121094 C 20.425781 7.085938 20.449219 7.0625 20.472656 7.039062 C 20.511719 6.996094 20.546875 6.957031 20.566406 6.914062 C 20.589844 6.875 20.601562 6.828125 20.605469 6.78125 C 20.609375 6.730469 20.605469 6.679688 20.589844 6.625 C 20.574219 6.574219 20.550781 6.519531 20.519531 6.46875 C 20.492188 6.414062 20.453125 6.363281 20.414062 6.316406 C 20.335938 6.214844 20.242188 6.125 20.140625 6.035156 " fill-opacity="1" fill-rule="nonzero"/><path fill="#8e4d36" d="M 17.386719 5.664062 C 17.417969 5.589844 17.457031 5.523438 17.5 5.460938 C 17.546875 5.394531 17.59375 5.335938 17.640625 5.277344 C 17.742188 5.160156 17.855469 5.058594 17.980469 4.96875 C 18.105469 4.878906 18.242188 4.800781 18.394531 4.75 C 18.46875 4.722656 18.550781 4.703125 18.632812 4.703125 L 18.664062 4.703125 C 18.675781 4.703125 18.683594 4.703125 18.695312 4.703125 C 18.707031 4.707031 18.714844 4.707031 18.726562 4.707031 C 18.738281 4.710938 18.746094 4.710938 18.757812 4.714844 C 18.796875 4.722656 18.835938 4.742188 18.867188 4.769531 C 18.789062 4.777344 18.726562 4.804688 18.664062 4.839844 C 18.605469 4.875 18.546875 4.910156 18.492188 4.953125 C 18.375 5.03125 18.261719 5.117188 18.148438 5.199219 C 18.03125 5.285156 17.910156 5.367188 17.789062 5.449219 C 17.664062 5.527344 17.535156 5.601562 17.386719 5.664062 " fill-opacity="1" fill-rule="nonzero"/><g clip-path="url(#b498ca1b55)"><path fill="#f2f7f9" d="M 29.542969 30.683594 C 29.542969 30.683594 28.0625 29.9375 26.433594 30.234375 L 26.019531 33.074219 L 11.917969 33.222656 L 11.328125 21.121094 C 11.320312 21.003906 11.492188 20.765625 11.539062 20.664062 C 11.714844 20.292969 11.886719 19.921875 12.054688 19.546875 C 12.355469 18.882812 12.597656 18.097656 13.035156 17.5 C 13.328125 17.105469 13.757812 16.753906 14.136719 16.433594 C 14.59375 16.042969 15.09375 15.628906 15.636719 15.289062 C 15.941406 15.097656 16.253906 14.929688 16.578125 14.804688 C 16.75 14.734375 16.925781 14.679688 17.101562 14.636719 L 19.769531 24.261719 L 20.660156 14.398438 C 20.660156 14.398438 21.648438 14.464844 22.789062 14.871094 C 23.414062 15.09375 24.082031 15.417969 24.65625 15.894531 C 26.285156 17.238281 29.066406 22.207031 29.660156 23.703125 C 30.253906 25.195312 29.988281 29.488281 29.542969 30.683594 " fill-opacity="1" fill-rule="nonzero"/></g><path stroke-linecap="round" transform="matrix(0.0068395, 0, 0, -0.00689822, 3.569992, 33.404705)" fill="none" stroke-linejoin="round" d="M 3287.476856 1464.715024 C 3287.476856 1464.715024 3100.145893 1411.4857 3149.834288 1234.243378 C 3200.093815 1057.001055 3358.297099 654.949781 3358.297099 654.949781 " stroke="#cedff4" stroke-width="39.382999" stroke-opacity="1" stroke-miterlimit="10"/><path stroke-linecap="round" transform="matrix(0.0068395, 0, 0, -0.00689822, 3.569992, 33.404705)" fill="none" stroke-linejoin="round" d="M 3088.152142 1453.389636 C 3088.152142 1453.389636 3213.229828 1488.498339 3308.608703 1470.377718 " stroke="#cedff4" stroke-width="40.511002" stroke-opacity="1" stroke-miterlimit="10"/><path fill="#c0def2" d="M 19.558594 24.484375 L 19.558594 26.722656 L 16.371094 20.144531 C 16.328125 20.054688 16.320312 19.949219 16.351562 19.855469 L 16.597656 19.105469 C 16.597656 19.105469 15.5625 18.359375 15.5625 18.210938 C 15.5625 18.089844 15.636719 16.136719 15.597656 15.410156 C 15.902344 15.21875 16.042969 15.15625 16.371094 15.027344 L 16.894531 14.921875 L 19.558594 24.484375 " fill-opacity="1" fill-rule="nonzero"/><path fill="#c0def2" d="M 22.679688 17.707031 L 21.9375 18.601562 L 22.304688 19.0625 C 22.445312 19.238281 22.484375 19.480469 22.40625 19.695312 L 19.984375 26.484375 L 21.050781 14.566406 C 21.050781 14.566406 21.730469 14.492188 22.871094 14.898438 L 22.679688 17.707031 " fill-opacity="1" fill-rule="nonzero"/><path fill="#545454" d="M 18.394531 9.382812 C 18.394531 9.511719 18.324219 9.617188 18.238281 9.617188 C 18.152344 9.617188 18.082031 9.511719 18.082031 9.382812 C 18.082031 9.253906 18.152344 9.148438 18.238281 9.148438 C 18.324219 9.148438 18.394531 9.253906 18.394531 9.382812 " fill-opacity="1" fill-rule="nonzero"/><path fill="#545454" d="M 16.527344 9.394531 C 16.527344 9.523438 16.457031 9.628906 16.371094 9.628906 C 16.285156 9.628906 16.214844 9.523438 16.214844 9.394531 C 16.214844 9.265625 16.285156 9.15625 16.371094 9.15625 C 16.457031 9.15625 16.527344 9.265625 16.527344 9.394531 " fill-opacity="1" fill-rule="nonzero"/><path fill="#f6b592" d="M 20.359375 9.621094 C 20.484375 9.476562 20.832031 9.394531 21.003906 9.394531 C 21.488281 9.386719 21.679688 9.9375 21.667969 10.355469 C 21.652344 11.078125 20.460938 11.660156 19.917969 11.113281 C 19.472656 10.664062 20.359375 9.621094 20.359375 9.621094 " fill-opacity="1" fill-rule="nonzero"/><path fill="#f2f7f9" d="M 22.21875 17.621094 L 21.546875 18.433594 L 22.007812 19.015625 C 22.089844 19.117188 22.113281 19.253906 22.066406 19.378906 L 19.589844 26.316406 L 20.660156 14.398438 C 20.660156 14.398438 21.648438 14.464844 22.789062 14.871094 L 22.308594 17.429688 C 22.292969 17.5 22.265625 17.566406 22.21875 17.621094 " fill-opacity="1" fill-rule="nonzero"/><path fill="#f2f7f9" d="M 19.769531 24.261719 L 19.769531 26.5 L 16.578125 19.917969 C 16.535156 19.828125 16.527344 19.722656 16.558594 19.628906 L 16.808594 18.882812 C 16.808594 18.882812 15.769531 18.136719 15.769531 17.984375 C 15.769531 17.863281 15.671875 16.015625 15.636719 15.289062 C 15.941406 15.097656 16.253906 14.929688 16.578125 14.804688 L 17.101562 14.699219 L 19.769531 24.261719 " fill-opacity="1" fill-rule="nonzero"/><path fill="#d89371" d="M 21.101562 32.625 C 21.101562 32.625 13.84375 32.921875 13.84375 32.625 C 13.84375 32.324219 14.585938 31.578125 15.027344 31.578125 C 15.472656 31.578125 12.957031 30.980469 12.214844 30.535156 C 11.472656 30.085938 10.878906 29.636719 10.878906 29.636719 L 10.878906 32.777344 C 10.878906 32.777344 8.066406 33.074219 8.214844 32.625 C 8.363281 32.175781 9.105469 32.027344 9.25 31.726562 C 9.398438 31.4375 7.253906 24.644531 7.042969 22.710938 C 7.039062 22.679688 7.035156 22.648438 7.03125 22.617188 C 7.011719 22.378906 6.976562 22.125 6.929688 21.867188 C 6.625 20.160156 5.847656 18.136719 5.847656 18.136719 C 5.808594 18.039062 5.921875 17.792969 5.953125 17.703125 C 6.183594 16.960938 6.589844 16.179688 7.253906 15.734375 C 7.976562 15.253906 8.835938 14.914062 9.652344 14.632812 C 9.917969 14.542969 10.21875 14.4375 10.515625 14.394531 C 10.6875 14.367188 10.863281 14.363281 11.03125 14.398438 C 11.238281 14.441406 11.355469 14.53125 11.410156 14.648438 C 11.578125 14.992188 11.414062 15.484375 11.328125 15.835938 C 11.167969 16.476562 10.953125 17.128906 10.585938 17.683594 C 10.335938 18.066406 10.613281 19.292969 11.148438 20.03125 C 11.25 20.164062 11.355469 20.285156 11.472656 20.375 C 11.585938 20.46875 11.707031 20.5625 11.835938 20.652344 C 12.539062 21.164062 13.433594 21.707031 14.433594 22.464844 C 14.980469 22.878906 16.214844 23.355469 17.503906 24.007812 C 19.019531 24.777344 20.609375 25.796875 21.25 27.25 C 21.261719 27.28125 21.277344 27.316406 21.292969 27.347656 C 22.402344 30.003906 21.101562 32.625 21.101562 32.625 " fill-opacity="1" fill-rule="nonzero"/><path fill="#965b3e" d="M 6.144531 20.988281 C 6.085938 20.953125 6.035156 20.902344 5.984375 20.835938 C 5.976562 20.828125 5.96875 20.820312 5.964844 20.8125 C 5.894531 20.71875 5.832031 20.601562 5.773438 20.464844 C 5.769531 20.457031 5.765625 20.445312 5.761719 20.433594 C 5.699219 20.277344 5.648438 20.097656 5.605469 19.90625 C 5.601562 19.894531 5.601562 19.878906 5.597656 19.867188 C 5.597656 19.863281 5.59375 19.863281 5.59375 19.859375 C 5.59375 19.851562 5.589844 19.839844 5.589844 19.832031 C 5.574219 19.753906 5.5625 19.675781 5.550781 19.59375 C 5.546875 19.582031 5.546875 19.570312 5.542969 19.558594 C 5.539062 19.515625 5.535156 19.472656 5.527344 19.433594 C 5.527344 19.421875 5.527344 19.414062 5.527344 19.40625 C 5.523438 19.367188 5.515625 19.332031 5.515625 19.296875 C 5.515625 19.28125 5.511719 19.269531 5.511719 19.253906 C 5.507812 19.207031 5.503906 19.15625 5.503906 19.105469 C 5.5 19.09375 5.5 19.078125 5.5 19.0625 C 5.5 19.039062 5.5 19.015625 5.5 18.992188 C 5.496094 18.980469 5.496094 18.964844 5.496094 18.949219 C 5.496094 18.863281 5.496094 18.773438 5.5 18.6875 C 5.5 18.671875 5.5 18.652344 5.5 18.636719 C 5.503906 18.578125 5.507812 18.519531 5.511719 18.460938 C 5.511719 18.4375 5.515625 18.414062 5.515625 18.390625 C 5.585938 17.679688 5.824219 17.042969 6.292969 16.804688 C 6.53125 16.683594 6.851562 16.714844 7.085938 16.835938 C 7.585938 17.089844 7.828125 17.851562 8.019531 18.347656 C 8.222656 18.859375 8.40625 19.398438 8.515625 19.941406 C 8.664062 20.6875 6.886719 21.4375 6.144531 20.988281 " fill-opacity="1" fill-rule="nonzero"/><path fill="#e22b35" d="M 11.804688 20.386719 C 11.890625 20.449219 11.902344 20.574219 11.828125 20.648438 C 11.078125 21.429688 9.285156 22.953125 6.828125 22.710938 C 6.824219 22.675781 6.820312 22.640625 6.816406 22.609375 C 6.800781 22.414062 6.777344 22.207031 6.742188 21.996094 C 6.726562 21.894531 6.796875 21.800781 6.898438 21.792969 C 7.878906 21.734375 9.933594 21.4375 11.097656 20.003906 C 11.164062 19.921875 11.285156 19.914062 11.355469 19.992188 C 11.425781 20.074219 11.5 20.144531 11.574219 20.207031 C 11.648438 20.265625 11.726562 20.328125 11.804688 20.386719 " fill-opacity="1" fill-rule="nonzero"/><path fill="#965b3e" d="M 15.078125 31.640625 C 15.058594 31.640625 15.035156 31.632812 15.023438 31.613281 C 14.871094 31.414062 14.6875 31.222656 14.511719 31.039062 C 14.015625 30.519531 13.5 29.984375 13.53125 29.191406 C 13.535156 29.101562 13.542969 29.011719 13.558594 28.925781 C 13.6875 28.121094 14.234375 27.613281 15.054688 27.53125 C 15.828125 27.449219 16.609375 27.714844 17.152344 28.242188 C 17.179688 28.269531 17.179688 28.3125 17.152344 28.34375 C 17.125 28.371094 17.082031 28.371094 17.054688 28.34375 C 16.539062 27.847656 15.800781 27.597656 15.070312 27.671875 C 14.308594 27.75 13.820312 28.203125 13.699219 28.949219 C 13.683594 29.03125 13.675781 29.113281 13.671875 29.199219 C 13.644531 29.929688 14.136719 30.441406 14.613281 30.9375 C 14.792969 31.128906 14.980469 31.320312 15.136719 31.523438 C 15.160156 31.554688 15.152344 31.601562 15.121094 31.625 C 15.109375 31.636719 15.09375 31.640625 15.078125 31.640625 " fill-opacity="1" fill-rule="nonzero"/><path fill="#965b3e" d="M 11.746094 23.390625 C 12.03125 23.050781 12.722656 23.265625 12.601562 23.761719 C 12.480469 24.253906 12.847656 24.5 13.214844 24.5 C 13.582031 24.5 13.09375 24.996094 12.722656 24.996094 C 12.355469 24.996094 11.011719 24.253906 11.746094 23.390625 " fill-opacity="1" fill-rule="nonzero"/><path fill="#965b3e" d="M 16.804688 29.636719 C 16.804688 29.003906 17.992188 29.1875 18.289062 29.488281 C 18.582031 29.785156 18.878906 30.382812 18.289062 30.382812 C 17.695312 30.382812 16.804688 30.683594 16.804688 29.636719 " fill-opacity="1" fill-rule="nonzero"/><path fill="#965b3e" d="M 21.292969 27.347656 C 21.203125 27.347656 21.089844 27.316406 20.953125 27.25 C 20.363281 26.949219 20.363281 27.546875 19.621094 27.546875 C 18.878906 27.546875 19.027344 27.25 18.878906 26.796875 C 18.734375 26.351562 17.84375 26.648438 17.101562 26.5 C 16.359375 26.351562 16.511719 25.453125 17.398438 25.007812 C 17.847656 24.78125 17.730469 24.367188 17.503906 24.007812 C 19.019531 24.777344 20.609375 25.796875 21.25 27.25 C 21.261719 27.28125 21.277344 27.316406 21.292969 27.347656 " fill-opacity="1" fill-rule="nonzero"/><path fill="#6b3f2c" d="M 9.402344 17.238281 C 9.515625 17.238281 9.628906 17.242188 9.738281 17.246094 C 9.847656 17.246094 9.957031 17.246094 10.0625 17.234375 C 10.167969 17.222656 10.269531 17.203125 10.363281 17.160156 C 10.40625 17.140625 10.449219 17.109375 10.488281 17.074219 C 10.523438 17.035156 10.554688 16.992188 10.585938 16.9375 C 10.585938 17 10.570312 17.058594 10.542969 17.113281 C 10.515625 17.171875 10.472656 17.21875 10.421875 17.257812 C 10.371094 17.292969 10.3125 17.320312 10.253906 17.339844 C 10.195312 17.359375 10.136719 17.371094 10.078125 17.378906 C 9.957031 17.390625 9.839844 17.378906 9.726562 17.355469 C 9.613281 17.332031 9.503906 17.296875 9.402344 17.238281 " fill-opacity="1" fill-rule="nonzero"/><path fill="#6b3f2c" d="M 11.410156 14.648438 C 11.257812 14.71875 10.828125 14.9375 10.640625 14.875 C 10.449219 14.808594 10.578125 14.511719 10.515625 14.394531 C 10.6875 14.367188 10.863281 14.363281 11.03125 14.398438 C 11.238281 14.441406 11.355469 14.53125 11.410156 14.648438 " fill-opacity="1" fill-rule="nonzero"/><path fill="#965b3e" d="M 10.882812 29.710938 C 10.84375 29.710938 10.808594 29.675781 10.808594 29.636719 L 10.808594 27.996094 C 10.808594 27.953125 10.84375 27.921875 10.882812 27.921875 C 10.921875 27.921875 10.953125 27.953125 10.953125 27.996094 L 10.953125 29.636719 C 10.953125 29.675781 10.921875 29.710938 10.882812 29.710938 " fill-opacity="1" fill-rule="nonzero"/><path fill="#6b3f2c" d="M 8.09375 15.871094 C 8.117188 15.789062 8.261719 15.757812 8.417969 15.804688 C 8.574219 15.847656 8.683594 15.949219 8.660156 16.03125 C 8.636719 16.109375 8.492188 16.140625 8.335938 16.097656 C 8.179688 16.054688 8.070312 15.953125 8.09375 15.871094 " fill-opacity="1" fill-rule="nonzero"/><path fill="#d89371" d="M 20.449219 30.988281 C 20.449219 30.988281 22.652344 31.703125 23.6875 30.636719 C 24.722656 29.574219 24.800781 27.179688 24.128906 26.410156 C 24.128906 26.410156 24.289062 29.445312 23.113281 30.132812 C 21.9375 30.820312 20.570312 29.734375 20.570312 29.734375 L 20.449219 30.988281 " fill-opacity="1" fill-rule="nonzero"/><path fill="#f6b592" d="M 7.367188 26.402344 C 7.472656 26.691406 7.757812 26.878906 8.0625 26.863281 C 8.386719 26.84375 8.949219 26.425781 8.957031 26.070312 C 8.960938 25.878906 8.566406 25.398438 8.363281 25.605469 C 8.363281 25.605469 9.253906 24.707031 8.957031 24.410156 C 8.660156 24.109375 8.363281 24.257812 8.066406 24.257812 C 7.769531 24.257812 8.808594 23.511719 8.214844 23.214844 C 7.621094 22.914062 7.195312 23.613281 7.195312 23.613281 C 7.195312 23.613281 7.917969 22.617188 7.03125 22.617188 C 6.351562 22.617188 6.882812 25.046875 7.367188 26.402344 " fill-opacity="1" fill-rule="nonzero"/><g clip-path="url(#8234bb84f3)"><path fill="#4995aa" d="M 34.65625 32.675781 C 34.65625 32.828125 34.550781 32.953125 34.414062 32.957031 L 33.644531 32.96875 L 4.078125 33.402344 L 3.820312 33.40625 C 3.816406 33.40625 3.816406 33.40625 3.8125 33.40625 C 3.679688 33.40625 3.574219 33.28125 3.570312 33.128906 C 3.570312 33.019531 3.625 32.925781 3.703125 32.875 C 3.734375 32.855469 3.773438 32.84375 3.8125 32.84375 L 34.21875 32.402344 L 34.410156 32.398438 C 34.546875 32.402344 34.652344 32.519531 34.65625 32.675781 " fill-opacity="1" fill-rule="nonzero"/></g><path fill="#e57c5c" d="M 20.804688 9.820312 C 20.804688 9.820312 21.402344 9.722656 21.425781 10.296875 " fill-opacity="1" fill-rule="nonzero"/><path fill="#f6b592" d="M 29.777344 29.890625 C 29.777344 29.890625 29.105469 32.660156 28.515625 32.609375 C 27.925781 32.5625 28.433594 31.773438 28.125 31.914062 C 27.9375 32.394531 27.910156 32.726562 27.46875 32.6875 C 27.023438 32.652344 27.253906 31.675781 27.253906 31.675781 C 27.253906 31.675781 26.570312 32.78125 26.3125 32.261719 C 26.058594 31.742188 26.542969 31.28125 26.542969 31.28125 C 26.542969 31.28125 25.898438 31.894531 25.777344 31.550781 C 25.65625 31.207031 26.65625 30.480469 26.640625 30.386719 C 26.625 30.292969 25.578125 30.371094 25.914062 29.902344 C 26.25 29.429688 27.46875 29.035156 27.46875 29.035156 L 29.777344 29.890625 " fill-opacity="1" fill-rule="nonzero"/><path fill="#ffdd5a" d="M 9.238281 22.949219 C 9.238281 23.1875 9.042969 23.386719 8.804688 23.386719 C 8.566406 23.386719 8.371094 23.1875 8.371094 22.949219 C 8.371094 22.707031 8.566406 22.511719 8.804688 22.511719 C 9.042969 22.511719 9.238281 22.707031 9.238281 22.949219 " fill-opacity="1" fill-rule="nonzero"/><path fill="#4a7493" d="M 17.101562 14.089844 C 17.097656 14.089844 17.09375 14.085938 17.085938 14.085938 C 17.054688 14.082031 16.347656 14.023438 15.761719 14.707031 C 14.933594 15.667969 14.839844 17.535156 15.484375 20.257812 C 15.5 20.324219 15.558594 20.371094 15.621094 20.371094 C 15.632812 20.371094 15.644531 20.367188 15.652344 20.367188 C 15.730469 20.347656 15.777344 20.269531 15.761719 20.191406 C 14.988281 16.925781 15.449219 15.511719 15.96875 14.902344 C 16.457031 14.328125 17.0625 14.371094 17.089844 14.375 C 17.09375 14.375 17.097656 14.375 17.101562 14.375 L 17.101562 14.089844 " fill-opacity="1" fill-rule="nonzero"/><path fill="#4a7493" d="M 20.648438 13.90625 L 20.640625 13.960938 L 20.648438 14.199219 C 20.980469 14.253906 23.210938 14.761719 23.476562 17.996094 L 23.761719 17.972656 C 23.460938 14.316406 20.675781 13.910156 20.648438 13.90625 " fill-opacity="1" fill-rule="nonzero"/><path fill="#567d9b" d="M 16.484375 20.785156 C 16.484375 21.175781 16.148438 21.488281 15.734375 21.488281 C 15.320312 21.488281 14.984375 21.175781 14.984375 20.785156 C 14.984375 20.398438 15.320312 20.085938 15.734375 20.085938 C 16.148438 20.085938 16.484375 20.398438 16.484375 20.785156 " fill-opacity="1" fill-rule="nonzero"/><path fill="#9acded" d="M 15.949219 20.734375 C 15.949219 20.851562 15.851562 20.949219 15.734375 20.949219 C 15.617188 20.949219 15.519531 20.851562 15.519531 20.734375 C 15.519531 20.613281 15.617188 20.515625 15.734375 20.515625 C 15.851562 20.515625 15.949219 20.613281 15.949219 20.734375 " fill-opacity="1" fill-rule="nonzero"/><path fill="#4a7493" d="M 22.78125 21.226562 C 22.757812 21.136719 22.210938 19.066406 22.851562 18.171875 C 23.03125 17.921875 23.285156 17.785156 23.609375 17.769531 C 25.28125 17.6875 25.847656 20.605469 25.871094 20.730469 L 25.664062 20.769531 C 25.65625 20.742188 25.113281 17.90625 23.621094 17.984375 C 23.363281 18 23.167969 18.101562 23.023438 18.300781 C 22.441406 19.109375 22.980469 21.148438 22.988281 21.167969 L 22.78125 21.226562 " fill-opacity="1" fill-rule="nonzero"/><path fill="#416d87" d="M 25.988281 20.75 C 25.988281 20.871094 25.890625 20.972656 25.765625 20.972656 C 25.644531 20.972656 25.546875 20.871094 25.546875 20.75 C 25.546875 20.625 25.644531 20.523438 25.765625 20.523438 C 25.890625 20.523438 25.988281 20.625 25.988281 20.75 " fill-opacity="1" fill-rule="nonzero"/><path fill="#416d87" d="M 23.089844 21.195312 C 23.089844 21.320312 22.992188 21.421875 22.871094 21.421875 C 22.746094 21.421875 22.648438 21.320312 22.648438 21.195312 C 22.648438 21.074219 22.746094 20.972656 22.871094 20.972656 C 22.992188 20.972656 23.089844 21.074219 23.089844 21.195312 " fill-opacity="1" fill-rule="nonzero"/><path fill="#515151" d="M 6.75 19.957031 C 6.445312 20.210938 6.191406 20.503906 5.984375 20.835938 C 5.976562 20.828125 5.96875 20.820312 5.964844 20.8125 C 6.167969 20.484375 6.421875 20.195312 6.71875 19.949219 C 6.726562 19.941406 6.757812 19.949219 6.75 19.957031 " fill-opacity="1" fill-rule="nonzero"/><path fill="#515151" d="M 6.507812 19.613281 C 6.230469 19.867188 5.984375 20.152344 5.773438 20.464844 C 5.769531 20.457031 5.765625 20.445312 5.761719 20.433594 C 5.964844 20.132812 6.203125 19.855469 6.472656 19.605469 C 6.480469 19.597656 6.511719 19.605469 6.507812 19.613281 " fill-opacity="1" fill-rule="nonzero"/><path fill="#515151" d="M 6.253906 19.285156 C 6.015625 19.472656 5.800781 19.679688 5.605469 19.90625 C 5.601562 19.894531 5.601562 19.878906 5.597656 19.867188 C 5.785156 19.648438 5.992188 19.449219 6.222656 19.273438 C 6.230469 19.265625 6.261719 19.28125 6.253906 19.285156 " fill-opacity="1" fill-rule="nonzero"/><path fill="#515151" d="M 5.964844 19.082031 C 5.8125 19.191406 5.667969 19.308594 5.527344 19.433594 C 5.527344 19.421875 5.527344 19.414062 5.527344 19.40625 C 5.65625 19.289062 5.796875 19.179688 5.941406 19.078125 C 5.945312 19.070312 5.980469 19.070312 5.964844 19.082031 " fill-opacity="1" fill-rule="nonzero"/><path fill="#515151" d="M 5.726562 18.898438 C 5.648438 18.964844 5.574219 19.03125 5.503906 19.105469 C 5.5 19.09375 5.5 19.078125 5.5 19.0625 C 5.5625 19.003906 5.628906 18.945312 5.695312 18.890625 C 5.703125 18.882812 5.734375 18.894531 5.726562 18.898438 " fill-opacity="1" fill-rule="nonzero"/><path fill="#fcfcfc" d="M 7.21875 22.28125 C 7.597656 22.265625 7.988281 22.226562 8.355469 22.132812 C 8.472656 22.101562 8.589844 22.066406 8.695312 22.011719 C 8.707031 22.003906 8.675781 21.996094 8.664062 22.003906 C 8.457031 22.113281 8.210938 22.152344 7.984375 22.191406 C 7.769531 22.222656 7.554688 22.246094 7.339844 22.261719 C 7.296875 22.265625 7.253906 22.265625 7.210938 22.269531 C 7.183594 22.269531 7.203125 22.285156 7.21875 22.28125 " fill-opacity="1" fill-rule="nonzero"/><path fill="#fcfcfc" d="M 8.855469 22.660156 C 9.097656 22.707031 9.179688 23.003906 9.027344 23.1875 C 9.023438 23.195312 9.054688 23.207031 9.0625 23.199219 C 9.230469 22.992188 9.109375 22.695312 8.859375 22.644531 C 8.835938 22.640625 8.835938 22.65625 8.855469 22.660156 " fill-opacity="1" fill-rule="nonzero"/><path fill="#965b3e" d="M 10.378906 15.300781 C 10.382812 15.296875 10.386719 15.292969 10.390625 15.289062 C 10.398438 15.277344 10.40625 15.269531 10.398438 15.253906 C 10.390625 15.238281 10.363281 15.234375 10.347656 15.230469 C 10.320312 15.226562 10.292969 15.226562 10.265625 15.230469 C 10.257812 15.230469 10.25 15.234375 10.242188 15.234375 C 10.226562 15.238281 10.214844 15.246094 10.203125 15.253906 C 10.199219 15.257812 10.195312 15.261719 10.191406 15.265625 C 10.179688 15.273438 10.171875 15.285156 10.183594 15.300781 C 10.191406 15.3125 10.21875 15.320312 10.234375 15.320312 C 10.257812 15.328125 10.289062 15.328125 10.316406 15.324219 C 10.324219 15.320312 10.332031 15.320312 10.339844 15.316406 C 10.355469 15.3125 10.367188 15.308594 10.378906 15.300781 " fill-opacity="1" fill-rule="nonzero"/><path fill="#965b3e" d="M 9.992188 15.6875 C 10.023438 15.6875 10.101562 15.675781 10.117188 15.636719 C 10.128906 15.59375 10.054688 15.59375 10.035156 15.59375 C 10 15.59375 9.921875 15.609375 9.910156 15.644531 C 9.894531 15.6875 9.96875 15.6875 9.992188 15.6875 " fill-opacity="1" fill-rule="nonzero"/><path fill="#965b3e" d="M 10.320312 15.585938 C 10.316406 15.589844 10.3125 15.59375 10.308594 15.597656 C 10.300781 15.605469 10.292969 15.617188 10.304688 15.628906 C 10.3125 15.644531 10.339844 15.648438 10.355469 15.648438 C 10.382812 15.652344 10.410156 15.648438 10.4375 15.640625 C 10.457031 15.636719 10.480469 15.628906 10.496094 15.613281 C 10.5 15.609375 10.503906 15.605469 10.507812 15.601562 C 10.519531 15.59375 10.523438 15.578125 10.515625 15.566406 C 10.503906 15.554688 10.476562 15.550781 10.464844 15.550781 C 10.4375 15.546875 10.40625 15.546875 10.382812 15.554688 C 10.359375 15.5625 10.335938 15.570312 10.320312 15.585938 " fill-opacity="1" fill-rule="nonzero"/></svg>