<svg xmlns="http://www.w3.org/2000/svg" xmlns:xlink="http://www.w3.org/1999/xlink" width="50" zoomAndPan="magnify" viewBox="0 0 37.5 37.499999" height="50" preserveAspectRatio="xMidYMid meet" version="1.0"><defs><filter x="0%" y="0%" width="100%" height="100%" id="d54412c66b"><feColorMatrix values="0 0 0 0 1 0 0 0 0 1 0 0 0 0 1 0 0 0 1 0" color-interpolation-filters="sRGB"/></filter><clipPath id="2d95779d42"><path d="M 27 4.386719 L 33 4.386719 L 33 15 L 27 15 Z M 27 4.386719 " clip-rule="nonzero"/></clipPath><mask id="0620785a74"><g filter="url(#d54412c66b)"><rect x="-3.75" width="45" fill="#000000" y="-3.75" height="44.999999" fill-opacity="0.6"/></g></mask><clipPath id="4be8673452"><path d="M 0.949219 0.386719 L 5.449219 0.386719 L 5.449219 10.921875 L 0.949219 10.921875 Z M 0.949219 0.386719 " clip-rule="nonzero"/></clipPath><clipPath id="aeb31e5ed1"><rect x="0" width="6" y="0" height="11"/></clipPath><mask id="45e8105f1a"><g filter="url(#d54412c66b)"><rect x="-3.75" width="45" fill="#000000" y="-3.75" height="44.999999" fill-opacity="0.4"/></g></mask><clipPath id="ae8d047ebe"><path d="M 0.0507812 0.183594 L 3.367188 0.183594 L 3.367188 2.550781 L 0.0507812 2.550781 Z M 0.0507812 0.183594 " clip-rule="nonzero"/></clipPath><clipPath id="7729b6d041"><rect x="0" width="4" y="0" height="3"/></clipPath><clipPath id="4d8a7bd32c"><path d="M 25 11 L 33.328125 11 L 33.328125 28 L 25 28 Z M 25 11 " clip-rule="nonzero"/></clipPath><mask id="700b0dd82d"><g filter="url(#d54412c66b)"><rect x="-3.75" width="45" fill="#000000" y="-3.75" height="44.999999" fill-opacity="0.4"/></g></mask><clipPath id="69464cc699"><path d="M 0.710938 0.65625 L 7.578125 0.65625 L 7.578125 5.15625 L 0.710938 5.15625 Z M 0.710938 0.65625 " clip-rule="nonzero"/></clipPath><clipPath id="3252c3b149"><rect x="0" width="8" y="0" height="6"/></clipPath><clipPath id="a01135b2a2"><path d="M 24 4.386719 L 30 4.386719 L 30 10 L 24 10 Z M 24 4.386719 " clip-rule="nonzero"/></clipPath><clipPath id="2cb6fa85e9"><path d="M 24 4.386719 L 31 4.386719 L 31 10 L 24 10 Z M 24 4.386719 " clip-rule="nonzero"/></clipPath><mask id="3f9861b4c1"><g filter="url(#d54412c66b)"><rect x="-3.75" width="45" fill="#000000" y="-3.75" height="44.999999" fill-opacity="0.6"/></g></mask><clipPath id="81347b5059"><path d="M 0.15625 0.738281 L 6 0.738281 L 6 5.238281 L 0.15625 5.238281 Z M 0.15625 0.738281 " clip-rule="nonzero"/></clipPath><clipPath id="129ff65722"><rect x="0" width="7" y="0" height="6"/></clipPath><clipPath id="ac7ff494a3"><path d="M 9 28 L 14 28 L 14 33.25 L 9 33.25 Z M 9 28 " clip-rule="nonzero"/></clipPath><clipPath id="4efaf0f5f7"><path d="M 9 29 L 12 29 L 12 33.25 L 9 33.25 Z M 9 29 " clip-rule="nonzero"/></clipPath></defs><path fill="#ffa572" d="M 9.84375 24.503906 C 9.789062 24.429688 9.734375 24.351562 9.679688 24.28125 C 9.636719 24.234375 9.585938 24.210938 9.519531 24.261719 C 9.203125 24.5 8.925781 24.804688 8.648438 25.085938 C 8.53125 25.203125 8.355469 25.367188 8.316406 25.535156 C 8.269531 25.738281 8.472656 25.9375 8.59375 26.074219 C 8.839844 26.34375 9.246094 27.105469 9.695312 27.058594 C 9.867188 27.039062 9.984375 26.847656 10.089844 26.734375 C 10.285156 26.515625 10.523438 26.320312 10.746094 26.128906 C 10.835938 26.046875 11.082031 25.9375 11.03125 25.785156 C 10.9375 25.511719 10.632812 25.347656 10.425781 25.171875 C 10.199219 24.976562 10.011719 24.746094 9.84375 24.503906 Z M 9.84375 24.503906 " fill-opacity="1" fill-rule="evenodd"/><path fill="#372b29" d="M 17.792969 16.53125 C 17.820312 16.273438 17.84375 16.011719 17.832031 15.75 C 17.828125 15.695312 17.777344 15.355469 17.691406 15.351562 C 17.667969 15.347656 16.878906 16.179688 16.804688 16.246094 C 15.597656 17.320312 14.53125 18.554688 13.414062 19.71875 C 12.722656 20.433594 12.085938 21.191406 11.4375 21.9375 C 10.953125 22.496094 10.414062 23.0625 9.875 23.566406 C 9.703125 23.722656 9.257812 24.011719 9.246094 24.273438 C 9.230469 24.679688 9.683594 25.109375 9.925781 25.398438 C 10.164062 25.679688 10.492188 26.234375 10.941406 26.144531 C 11.210938 26.089844 11.402344 25.796875 11.597656 25.625 C 12.144531 25.160156 12.664062 24.660156 13.222656 24.210938 C 13.886719 23.671875 14.464844 23.039062 15.128906 22.503906 C 15.734375 22.015625 16.46875 21.523438 16.878906 20.851562 C 17.144531 20.421875 17.3125 19.933594 17.433594 19.441406 C 17.675781 18.488281 17.726562 17.511719 17.792969 16.53125 Z M 17.792969 16.53125 " fill-opacity="1" fill-rule="evenodd"/><path fill="#fee3d8" d="M 6.871094 29.445312 C 6.941406 29.515625 7.019531 29.582031 7.09375 29.652344 C 7.167969 29.722656 7.269531 29.808594 7.378906 29.792969 C 7.503906 29.78125 7.648438 29.628906 7.738281 29.546875 C 8.035156 29.28125 8.277344 28.960938 8.550781 28.675781 C 8.976562 28.234375 9.449219 27.832031 9.929688 27.457031 C 10.109375 27.3125 10.464844 27.078125 10.375 26.796875 C 10.273438 26.480469 9.84375 26.570312 9.621094 26.402344 C 9.414062 26.242188 9.429688 25.988281 9.316406 25.773438 C 9.238281 25.621094 9.089844 25.558594 8.992188 25.429688 C 8.835938 25.214844 9.070312 25.023438 9.074219 24.808594 C 9.074219 24.675781 9.019531 24.5 8.871094 24.476562 C 8.605469 24.433594 8.390625 24.707031 8.21875 24.855469 C 8.023438 25.023438 7.789062 25.347656 7.527344 25.421875 C 7.273438 25.492188 6.910156 25.378906 6.660156 25.324219 C 6.109375 25.199219 5.570312 25.023438 5.039062 24.835938 C 4.703125 24.714844 4.382812 24.542969 4.019531 24.566406 C 3.703125 24.585938 3.40625 24.722656 3.195312 24.960938 C 3.054688 25.121094 2.992188 25.324219 3.136719 25.5 C 3.703125 26.210938 4.367188 26.816406 5.011719 27.453125 C 5.152344 27.589844 5.269531 27.742188 5.40625 27.878906 C 5.464844 27.929688 5.53125 28.007812 5.617188 28.015625 C 5.710938 28.019531 5.878906 27.929688 5.953125 28.027344 C 5.984375 28.066406 5.875 28.332031 5.945312 28.457031 C 6.140625 28.8125 6.5 29.082031 6.792969 29.367188 C 6.820312 29.394531 6.84375 29.417969 6.871094 29.445312 Z M 6.871094 29.445312 " fill-opacity="1" fill-rule="evenodd"/><path fill="#d66e1c" d="M 16.398438 23.179688 C 16.417969 23.054688 16.445312 22.929688 16.480469 22.804688 C 16.195312 22.746094 15.828125 23.152344 15.640625 23.289062 C 14.648438 24.007812 14.28125 24.8125 13.894531 25.941406 C 13.820312 26.15625 13.730469 26.367188 13.648438 26.582031 C 13.628906 26.636719 13.542969 26.777344 13.554688 26.847656 C 13.585938 27.03125 13.921875 26.921875 13.949219 27 C 14.023438 27.222656 13.570312 27.445312 13.726562 27.628906 C 13.8125 27.726562 14.03125 27.726562 14.152344 27.765625 C 14.703125 27.945312 15.023438 27.941406 15.574219 27.660156 C 15.824219 27.53125 16.09375 27.316406 16.152344 27.023438 C 16.230469 26.644531 16.191406 26.222656 16.210938 25.832031 C 16.238281 25.292969 16.316406 24.753906 16.351562 24.214844 C 16.375 23.867188 16.347656 23.527344 16.398438 23.179688 Z M 16.398438 23.179688 " fill-opacity="1" fill-rule="evenodd"/><path fill="#d66e1c" d="M 17.132812 19.960938 C 17.089844 20.457031 17.097656 20.957031 17.042969 21.457031 C 16.972656 22.089844 16.835938 22.710938 16.761719 23.34375 C 16.703125 23.847656 16.691406 24.355469 16.648438 24.859375 C 16.582031 25.652344 16.664062 26.5 16.488281 27.28125 C 16.34375 27.929688 15.78125 28.296875 15.371094 27.648438 C 15.054688 27.148438 14.988281 26.484375 15.023438 25.914062 C 15.167969 23.742188 15.710938 21.234375 17.035156 19.449219 C 17.125 19.507812 17.152344 19.617188 17.15625 19.726562 C 17.148438 19.804688 17.140625 19.882812 17.132812 19.960938 Z M 17.132812 19.960938 " fill-opacity="1" fill-rule="evenodd"/><path fill="#fee3d8" d="M 24.863281 14.460938 C 24.996094 14.070312 25.292969 13.734375 25.609375 13.480469 C 25.886719 13.257812 26.210938 13.078125 26.5625 13 C 26.640625 12.980469 26.871094 12.921875 26.929688 13.011719 C 26.972656 13.078125 26.941406 13.179688 26.921875 13.25 C 26.855469 13.472656 26.734375 13.667969 26.609375 13.863281 C 26.382812 14.214844 26.160156 14.578125 26.035156 14.980469 C 25.984375 15.148438 25.957031 15.328125 25.925781 15.5 C 25.902344 15.609375 25.890625 15.71875 25.832031 15.8125 C 25.703125 16.011719 25.476562 16.066406 25.304688 15.894531 C 25.109375 15.695312 25.039062 15.453125 24.984375 15.1875 C 24.941406 14.980469 24.875 14.777344 24.832031 14.566406 C 24.84375 14.53125 24.851562 14.496094 24.863281 14.460938 Z M 24.863281 14.460938 " fill-opacity="1" fill-rule="evenodd"/><g clip-path="url(#2d95779d42)"><path fill="#d66e1c" d="M 27.988281 5.28125 C 28.4375 5.726562 28.609375 5.914062 28.867188 6.550781 C 29.15625 7.191406 29.316406 7.910156 29.113281 8.582031 C 28.941406 9.148438 28.355469 9.492188 28.445312 10.128906 C 28.488281 10.441406 28.851562 11.902344 29.023438 12.117188 C 29.320312 12.480469 29.832031 12.5625 30.210938 13.054688 C 30.636719 13.605469 30.863281 14.285156 31.25 14.863281 C 31.523438 14.792969 31.960938 14.621094 31.84375 14.25 C 31.800781 14.121094 31.550781 14.03125 31.628906 13.886719 C 31.734375 13.691406 32.003906 13.628906 32.144531 13.460938 C 32.480469 13.0625 32.382812 12.328125 31.925781 12.0625 C 31.722656 11.945312 31.335938 11.945312 31.320312 11.640625 C 31.316406 11.554688 31.386719 11.503906 31.421875 11.433594 C 31.476562 11.328125 31.460938 11.191406 31.414062 11.085938 C 31.3125 10.859375 30.902344 10.730469 30.910156 10.460938 C 30.914062 10.347656 31.007812 10.261719 31.058594 10.167969 C 31.144531 10.007812 31.207031 9.824219 31.210938 9.644531 C 31.214844 9.28125 30.964844 8.726562 30.914062 8.3125 C 30.804688 7.398438 30.964844 6.359375 30.582031 5.5 C 30.4375 5.175781 30.175781 4.777344 29.84375 4.617188 C 29.371094 4.386719 28.730469 4.515625 28.320312 4.820312 C 28.171875 4.933594 28.058594 5.09375 27.960938 5.257812 C 27.972656 5.265625 27.980469 5.273438 27.988281 5.28125 Z M 27.988281 5.28125 " fill-opacity="1" fill-rule="evenodd"/><g mask="url(#0620785a74)"><g transform="matrix(1, 0, 0, 1, 27, 4)"><g clip-path="url(#aeb31e5ed1)"><g clip-path="url(#4be8673452)"><path fill="#372b29" d="M 0.988281 1.28125 C 1.4375 1.726562 1.609375 1.914062 1.867188 2.550781 C 2.15625 3.191406 2.316406 3.910156 2.113281 4.582031 C 1.941406 5.148438 1.355469 5.492188 1.445312 6.128906 C 1.488281 6.441406 1.851562 7.902344 2.023438 8.117188 C 2.320312 8.480469 2.832031 8.5625 3.210938 9.054688 C 3.636719 9.605469 3.863281 10.285156 4.25 10.863281 C 4.523438 10.792969 4.960938 10.621094 4.84375 10.25 C 4.800781 10.121094 4.550781 10.03125 4.628906 9.886719 C 4.734375 9.691406 5.003906 9.628906 5.144531 9.460938 C 5.480469 9.0625 5.382812 8.328125 4.925781 8.0625 C 4.722656 7.945312 4.335938 7.945312 4.320312 7.640625 C 4.316406 7.554688 4.386719 7.503906 4.421875 7.433594 C 4.476562 7.328125 4.460938 7.191406 4.414062 7.085938 C 4.3125 6.859375 3.902344 6.730469 3.910156 6.460938 C 3.914062 6.347656 4.007812 6.261719 4.058594 6.167969 C 4.144531 6.007812 4.207031 5.824219 4.210938 5.644531 C 4.214844 5.28125 3.964844 4.726562 3.914062 4.3125 C 3.804688 3.398438 3.964844 2.359375 3.582031 1.5 C 3.4375 1.175781 3.175781 0.777344 2.84375 0.617188 C 2.371094 0.386719 1.730469 0.515625 1.320312 0.820312 C 1.171875 0.933594 1.058594 1.09375 0.960938 1.257812 C 0.972656 1.265625 0.980469 1.273438 0.988281 1.28125 Z M 0.988281 1.28125 " fill-opacity="1" fill-rule="evenodd"/></g></g></g></g></g><path fill="#ffa572" d="M 28.628906 11.96875 C 28.859375 11.871094 29.097656 11.785156 29.339844 11.726562 C 29.1875 11.414062 29.132812 11.054688 29.117188 10.710938 C 29.109375 10.617188 29.148438 10.347656 29.027344 10.308594 C 28.964844 10.289062 28.867188 10.355469 28.8125 10.382812 C 28.621094 10.484375 28.496094 10.65625 28.324219 10.78125 C 27.929688 11.078125 27.441406 11.210938 26.972656 11.34375 C 26.707031 11.421875 26.433594 11.503906 26.152344 11.457031 C 26.394531 11.742188 26.476562 12.128906 26.585938 12.476562 C 26.613281 12.566406 26.644531 12.835938 26.773438 12.855469 C 26.820312 12.859375 26.867188 12.820312 26.90625 12.796875 C 27.375 12.496094 27.894531 12.269531 28.414062 12.0625 C 28.484375 12.03125 28.554688 12 28.628906 11.96875 Z M 28.628906 11.96875 " fill-opacity="1" fill-rule="evenodd"/><g mask="url(#45e8105f1a)"><g transform="matrix(1, 0, 0, 1, 26, 10)"><g clip-path="url(#7729b6d041)"><g clip-path="url(#ae8d047ebe)"><path fill="#372b29" d="M 3.140625 0.992188 C 2.898438 1.21875 2.636719 1.414062 2.355469 1.589844 C 1.796875 1.933594 1.175781 2.171875 0.546875 2.355469 C 0.457031 2.042969 0.367188 1.710938 0.152344 1.457031 C 0.433594 1.503906 0.707031 1.421875 0.972656 1.34375 C 1.441406 1.210938 1.929688 1.078125 2.324219 0.78125 C 2.496094 0.65625 2.621094 0.484375 2.8125 0.382812 C 2.867188 0.355469 2.964844 0.289062 3.027344 0.308594 C 3.148438 0.347656 3.109375 0.617188 3.117188 0.710938 C 3.121094 0.804688 3.128906 0.898438 3.140625 0.992188 Z M 3.140625 0.992188 " fill-opacity="1" fill-rule="evenodd"/></g></g></g></g><g clip-path="url(#4d8a7bd32c)"><path fill="#fee3d8" d="M 32.292969 26.257812 C 32.59375 25.335938 32.765625 24.371094 32.902344 23.414062 C 33.238281 21.128906 33.296875 18.792969 32.554688 16.578125 C 31.988281 14.878906 31.003906 13.382812 29.96875 11.941406 C 29.839844 11.761719 29.730469 11.515625 29.5 11.457031 C 29.3125 11.410156 29.136719 11.496094 28.972656 11.570312 C 28.863281 11.617188 28.753906 11.65625 28.648438 11.699219 C 28.164062 11.890625 27.683594 12.105469 27.234375 12.359375 C 27.003906 12.488281 26.773438 12.597656 26.5625 12.753906 C 26.492188 12.808594 26.414062 12.863281 26.359375 12.933594 C 26.300781 13.019531 26.265625 13.144531 26.285156 13.25 C 26.3125 13.375 26.386719 13.46875 26.382812 13.605469 C 26.375 13.796875 26.25 13.984375 26.195312 14.164062 C 25.953125 14.949219 25.574219 15.722656 25.558594 16.558594 C 25.53125 17.929688 26.164062 19.25 26.304688 20.605469 C 26.410156 21.667969 25.472656 22.179688 25.550781 22.8125 C 25.617188 23.378906 27.066406 23.652344 27.519531 23.828125 C 28.460938 24.195312 29.398438 24.582031 30.246094 25.132812 C 30.648438 25.394531 31.078125 25.699219 31.292969 26.144531 C 31.386719 26.34375 31.464844 26.550781 31.546875 26.75 C 31.589844 26.855469 31.617188 26.964844 31.6875 27.054688 C 31.804688 27.199219 31.933594 27.089844 32.015625 26.964844 C 32.15625 26.75 32.222656 26.5 32.292969 26.257812 Z M 32.292969 26.257812 " fill-opacity="1" fill-rule="evenodd"/></g><path fill="#d66e1c" d="M 24.648438 12.0625 C 24.597656 11.894531 24.542969 11.730469 24.476562 11.566406 C 24.46875 11.527344 24.460938 11.488281 24.457031 11.449219 C 24.007812 11.6875 23.601562 12 23.125 12.175781 C 22.4375 12.429688 21.445312 12.34375 20.773438 12.0625 C 20.339844 11.878906 20.117188 11.492188 19.96875 11.074219 C 19.925781 10.949219 19.839844 10.714844 19.667969 10.75 C 19.351562 10.8125 19.253906 11.253906 19.191406 11.507812 C 19.003906 12.292969 18.734375 13.058594 18.484375 13.824219 C 18.003906 15.304688 17.429688 16.769531 17.003906 18.265625 C 16.675781 19.414062 16.546875 20.597656 16.214844 21.746094 C 15.652344 23.6875 15.648438 25.78125 15.621094 27.800781 C 15.617188 28.0625 15.535156 28.320312 15.472656 28.578125 C 15.425781 28.792969 15.371094 29.007812 15.316406 29.222656 C 15.242188 29.503906 15.207031 29.835938 15.082031 30.097656 C 14.976562 30.3125 14.734375 30.492188 14.707031 30.742188 C 14.695312 30.847656 14.765625 30.917969 14.859375 30.949219 C 15.011719 31.003906 15.1875 30.992188 15.332031 30.921875 C 15.347656 30.917969 15.359375 30.910156 15.371094 30.902344 C 15.488281 31.078125 15.664062 31.160156 15.871094 31.085938 C 15.925781 31.066406 15.972656 31.035156 16.019531 31.003906 C 16.191406 31.070312 16.359375 31.003906 16.507812 30.910156 C 16.8125 30.71875 17.074219 30.457031 17.191406 30.109375 C 17.3125 29.753906 17.289062 29.371094 17.371094 29.007812 C 18.035156 29.214844 18.761719 29.207031 19.445312 29.171875 C 20.457031 29.121094 21.570312 28.980469 22.464844 28.464844 C 22.464844 28.714844 22.445312 28.960938 22.441406 29.210938 C 22.441406 29.34375 22.429688 29.484375 22.480469 29.613281 C 22.523438 29.726562 22.601562 29.820312 22.675781 29.914062 C 22.875 30.171875 23.144531 30.398438 23.457031 30.496094 C 23.617188 30.546875 23.792969 30.558594 23.949219 30.46875 C 23.980469 30.445312 24.007812 30.421875 24.035156 30.390625 C 24.207031 30.445312 24.425781 30.566406 24.605469 30.480469 C 24.660156 30.457031 24.707031 30.417969 24.746094 30.378906 C 25.066406 30.511719 25.492188 30.203125 25.347656 29.847656 C 25.230469 29.554688 24.925781 29.441406 24.710938 29.238281 C 24.515625 29.054688 24.40625 28.828125 24.269531 28.605469 C 24.179688 28.457031 24.0625 28.316406 24.023438 28.144531 C 23.984375 27.957031 24.011719 27.769531 24.011719 27.582031 C 24.011719 27.066406 23.964844 26.484375 24.128906 25.988281 C 24.378906 25.222656 25.03125 24.613281 25.421875 23.914062 C 25.832031 23.179688 26.265625 22.394531 26.453125 21.570312 C 26.742188 20.296875 26.535156 18.976562 26.25 17.71875 C 26 16.636719 25.675781 15.578125 25.371094 14.511719 C 25.136719 13.691406 24.902344 12.875 24.648438 12.0625 Z M 24.648438 12.0625 " fill-opacity="1" fill-rule="evenodd"/><g mask="url(#700b0dd82d)"><g transform="matrix(1, 0, 0, 1, 18, 10)"><g clip-path="url(#3252c3b149)"><g clip-path="url(#69464cc699)"><path fill="#372b29" d="M 7.480469 4.898438 C 7.1875 4.953125 6.902344 4.988281 6.628906 5.003906 C 5.746094 5.046875 4.785156 4.898438 3.957031 4.597656 C 2.773438 4.164062 1.746094 3.578125 0.859375 2.675781 C 0.984375 2.289062 1.097656 1.902344 1.191406 1.507812 C 1.253906 1.253906 1.351562 0.8125 1.667969 0.75 C 1.839844 0.714844 1.925781 0.949219 1.96875 1.074219 C 2.117188 1.492188 2.339844 1.878906 2.773438 2.0625 C 3.445312 2.34375 4.4375 2.429688 5.125 2.175781 C 5.601562 2 6.007812 1.6875 6.457031 1.453125 C 6.460938 1.488281 6.46875 1.527344 6.476562 1.566406 C 6.542969 1.730469 6.597656 1.894531 6.648438 2.0625 C 6.902344 2.875 7.136719 3.691406 7.371094 4.511719 C 7.40625 4.640625 7.445312 4.769531 7.480469 4.898438 Z M 7.480469 4.898438 " fill-opacity="1" fill-rule="evenodd"/></g></g></g></g><path fill="#372b29" d="M 9 24.574219 C 8.988281 24.5625 8.988281 24.542969 9 24.535156 C 9.011719 24.523438 9.03125 24.523438 9.042969 24.535156 C 9.082031 24.574219 9.105469 24.617188 9.121094 24.667969 C 9.140625 24.742188 9.140625 24.820312 9.128906 24.894531 C 9.105469 25.023438 9.054688 25.148438 8.984375 25.261719 C 8.957031 25.304688 8.929688 25.347656 8.898438 25.386719 C 8.851562 25.449219 8.800781 25.507812 8.746094 25.5625 C 8.738281 25.578125 8.714844 25.578125 8.703125 25.566406 C 8.6875 25.558594 8.6875 25.535156 8.699219 25.523438 C 8.742188 25.460938 8.78125 25.398438 8.824219 25.335938 C 8.863281 25.273438 8.902344 25.210938 8.9375 25.148438 C 8.980469 25.0625 9.019531 24.972656 9.039062 24.875 C 9.050781 24.816406 9.058594 24.75 9.046875 24.6875 C 9.039062 24.644531 9.027344 24.609375 9 24.574219 Z M 9 24.574219 " fill-opacity="1" fill-rule="evenodd"/><path fill="#372b29" d="M 5.519531 25.066406 C 5.519531 25.050781 5.53125 25.039062 5.546875 25.039062 C 5.566406 25.039062 5.578125 25.050781 5.578125 25.066406 C 5.578125 25.117188 5.578125 25.167969 5.578125 25.222656 C 5.578125 25.296875 5.574219 25.375 5.574219 25.449219 C 5.574219 25.488281 5.5625 25.523438 5.5625 25.5625 C 5.5625 25.578125 5.5625 25.59375 5.574219 25.609375 C 5.597656 25.652344 5.640625 25.679688 5.691406 25.699219 C 5.773438 25.730469 5.871094 25.746094 5.9375 25.757812 C 6.046875 25.78125 6.15625 25.800781 6.265625 25.820312 C 6.371094 25.835938 6.480469 25.851562 6.589844 25.863281 C 6.703125 25.875 6.808594 25.886719 6.917969 25.878906 C 6.988281 25.871094 7.054688 25.859375 7.121094 25.832031 C 7.171875 25.8125 7.21875 25.78125 7.265625 25.742188 C 7.335938 25.683594 7.398438 25.613281 7.457031 25.550781 C 7.503906 25.5 7.554688 25.453125 7.605469 25.40625 C 7.683594 25.335938 7.761719 25.265625 7.839844 25.203125 C 7.855469 25.191406 7.875 25.195312 7.886719 25.207031 C 7.898438 25.222656 7.894531 25.242188 7.882812 25.253906 C 7.820312 25.308594 7.757812 25.367188 7.695312 25.425781 C 7.632812 25.484375 7.574219 25.546875 7.519531 25.609375 C 7.460938 25.675781 7.398438 25.75 7.324219 25.8125 C 7.273438 25.859375 7.21875 25.898438 7.15625 25.921875 C 7.082031 25.953125 7.003906 25.96875 6.925781 25.972656 C 6.8125 25.984375 6.695312 25.96875 6.582031 25.957031 C 6.46875 25.945312 6.359375 25.929688 6.25 25.914062 C 6.136719 25.894531 6.027344 25.875 5.917969 25.847656 C 5.847656 25.832031 5.742188 25.816406 5.65625 25.777344 C 5.589844 25.75 5.53125 25.710938 5.5 25.652344 C 5.488281 25.628906 5.484375 25.605469 5.480469 25.582031 C 5.480469 25.535156 5.496094 25.492188 5.496094 25.449219 C 5.503906 25.371094 5.507812 25.296875 5.511719 25.21875 C 5.515625 25.167969 5.515625 25.117188 5.519531 25.066406 Z M 5.519531 25.066406 " fill-opacity="1" fill-rule="evenodd"/><path fill="#372b29" d="M 5.824219 25.117188 C 5.820312 25.101562 5.832031 25.085938 5.847656 25.082031 C 5.863281 25.078125 5.878906 25.085938 5.882812 25.101562 C 5.902344 25.15625 5.917969 25.210938 5.925781 25.269531 C 5.9375 25.324219 5.9375 25.382812 5.9375 25.4375 C 5.9375 25.496094 5.933594 25.550781 5.925781 25.609375 C 5.914062 25.664062 5.898438 25.71875 5.882812 25.773438 C 5.878906 25.789062 5.859375 25.800781 5.84375 25.796875 C 5.824219 25.792969 5.8125 25.777344 5.816406 25.757812 C 5.824219 25.703125 5.828125 25.652344 5.832031 25.597656 C 5.835938 25.542969 5.839844 25.492188 5.84375 25.4375 C 5.84375 25.382812 5.839844 25.332031 5.839844 25.277344 C 5.835938 25.222656 5.832031 25.171875 5.824219 25.117188 Z M 5.824219 25.117188 " fill-opacity="1" fill-rule="evenodd"/><path fill="#372b29" d="M 6.386719 25.289062 C 6.386719 25.273438 6.394531 25.257812 6.414062 25.253906 C 6.429688 25.253906 6.445312 25.261719 6.445312 25.277344 C 6.460938 25.328125 6.472656 25.378906 6.476562 25.429688 C 6.484375 25.480469 6.480469 25.53125 6.476562 25.582031 C 6.472656 25.632812 6.464844 25.6875 6.449219 25.734375 C 6.433594 25.785156 6.410156 25.832031 6.386719 25.875 C 6.378906 25.890625 6.359375 25.898438 6.34375 25.890625 C 6.324219 25.882812 6.320312 25.863281 6.324219 25.847656 C 6.339844 25.804688 6.347656 25.757812 6.359375 25.710938 C 6.367188 25.664062 6.375 25.621094 6.382812 25.574219 C 6.386719 25.527344 6.386719 25.480469 6.390625 25.433594 C 6.390625 25.382812 6.390625 25.335938 6.386719 25.289062 Z M 6.386719 25.289062 " fill-opacity="1" fill-rule="evenodd"/><path fill="#372b29" d="M 6.929688 25.410156 C 6.929688 25.394531 6.941406 25.382812 6.957031 25.382812 C 6.972656 25.382812 6.988281 25.394531 6.988281 25.410156 C 6.992188 25.449219 7 25.492188 7 25.539062 C 7 25.605469 6.992188 25.671875 6.972656 25.734375 C 6.964844 25.765625 6.957031 25.792969 6.941406 25.820312 C 6.921875 25.863281 6.890625 25.898438 6.859375 25.929688 C 6.847656 25.945312 6.828125 25.945312 6.8125 25.933594 C 6.800781 25.921875 6.796875 25.902344 6.808594 25.886719 C 6.828125 25.863281 6.839844 25.832031 6.851562 25.800781 C 6.859375 25.773438 6.871094 25.742188 6.878906 25.710938 C 6.894531 25.652344 6.902344 25.589844 6.914062 25.535156 C 6.917969 25.492188 6.925781 25.449219 6.929688 25.410156 Z M 6.929688 25.410156 " fill-opacity="1" fill-rule="evenodd"/><path fill="#372b29" d="M 3.164062 25.03125 C 3.152344 25.019531 3.15625 25 3.167969 24.992188 C 3.179688 24.980469 3.199219 24.980469 3.207031 24.996094 C 3.253906 25.046875 3.300781 25.097656 3.347656 25.152344 C 3.535156 25.355469 3.738281 25.550781 3.917969 25.761719 C 4.207031 26.101562 4.492188 26.449219 4.792969 26.78125 C 4.992188 27 5.195312 27.21875 5.414062 27.417969 C 5.460938 27.460938 5.507812 27.503906 5.558594 27.542969 C 5.605469 27.582031 5.660156 27.617188 5.710938 27.648438 C 5.78125 27.6875 5.859375 27.714844 5.929688 27.753906 C 5.960938 27.773438 5.992188 27.796875 6.019531 27.824219 C 6.085938 27.886719 6.136719 27.957031 6.179688 28.03125 C 6.273438 28.195312 6.328125 28.375 6.453125 28.53125 C 6.582031 28.695312 6.722656 28.847656 6.867188 28.996094 C 7.085938 29.214844 7.320312 29.425781 7.550781 29.632812 C 7.5625 29.648438 7.5625 29.667969 7.550781 29.679688 C 7.539062 29.695312 7.519531 29.695312 7.507812 29.683594 C 7.273438 29.476562 7.03125 29.273438 6.808594 29.054688 C 6.65625 28.910156 6.511719 28.753906 6.378906 28.589844 C 6.253906 28.429688 6.191406 28.246094 6.09375 28.078125 C 6.054688 28.011719 6.011719 27.949219 5.953125 27.894531 C 5.929688 27.871094 5.90625 27.851562 5.878906 27.839844 C 5.808594 27.796875 5.734375 27.773438 5.664062 27.730469 C 5.617188 27.707031 5.574219 27.675781 5.53125 27.644531 C 5.464844 27.59375 5.40625 27.542969 5.347656 27.488281 C 5.128906 27.285156 4.921875 27.066406 4.722656 26.84375 C 4.421875 26.507812 4.140625 26.15625 3.855469 25.8125 C 3.679688 25.597656 3.480469 25.402344 3.296875 25.191406 C 3.253906 25.140625 3.207031 25.085938 3.164062 25.03125 Z M 3.164062 25.03125 " fill-opacity="1" fill-rule="evenodd"/><path fill="#fee3d8" d="M 21.984375 24.734375 C 22.460938 24.273438 22.492188 22.808594 22.5 22.15625 C 22.511719 21.457031 22.417969 20.765625 22.417969 20.070312 C 22.417969 19.914062 22.710938 19.890625 22.703125 19.773438 C 22.691406 19.632812 22.488281 19.566406 22.46875 19.460938 C 22.449219 19.328125 23.007812 18.925781 23.125 18.800781 C 23.136719 18.789062 23.300781 18.605469 23.289062 18.59375 C 23.085938 18.386719 22.355469 18.644531 22.085938 18.507812 C 21.972656 18.449219 22.054688 17.824219 22.050781 17.679688 C 22.050781 17.667969 22.027344 17.421875 22.027344 17.421875 C 21.726562 17.539062 21.492188 17.855469 21.246094 18.058594 C 21.191406 18.105469 21.050781 18.273438 20.957031 18.246094 C 20.683594 18.175781 20.414062 17.710938 20.246094 17.503906 C 20.195312 17.441406 19.910156 17.132812 19.902344 17.148438 C 19.785156 17.425781 20.09375 17.914062 19.964844 18.085938 C 19.710938 18.429688 18.648438 18.097656 18.382812 18.414062 C 18.328125 18.480469 18.511719 18.722656 18.542969 18.761719 C 18.664062 18.925781 19.125 19.269531 19.171875 19.445312 C 19.238281 19.699219 18.648438 20.195312 18.492188 20.375 C 18.457031 20.417969 18.257812 20.574219 18.257812 20.644531 C 18.265625 21.015625 19.089844 20.632812 18.855469 21.246094 C 18.789062 21.414062 18.683594 21.550781 18.570312 21.6875 C 18.554688 21.707031 18.394531 21.945312 18.40625 21.949219 C 18.578125 22.003906 18.945312 21.75 19.085938 21.664062 C 19.148438 21.625 19.207031 21.585938 19.265625 21.546875 C 19.304688 21.527344 19.386719 21.4375 19.382812 21.484375 C 19.367188 21.679688 19.113281 21.964844 19.007812 22.132812 C 18.742188 22.566406 18.519531 23.03125 18.289062 23.484375 C 17.792969 24.441406 17.71875 25.296875 17.589844 26.347656 C 17.433594 27.597656 18.21875 27.519531 19.222656 26.765625 C 19.9375 26.226562 20.597656 25.65625 21.339844 25.183594 C 21.640625 25 21.84375 24.867188 21.984375 24.734375 Z M 21.984375 24.734375 " fill-opacity="1" fill-rule="evenodd"/><path fill="#ffa572" d="M 29.367188 8.445312 C 29.390625 8.4375 29.40625 8.429688 29.433594 8.421875 C 29.691406 8.339844 29.578125 8.671875 29.542969 8.769531 C 29.328125 9.402344 29.148438 10.21875 28.761719 10.757812 C 28.570312 11.023438 28.273438 11.191406 27.976562 11.320312 C 27.8125 11.390625 27.664062 11.484375 27.492188 11.535156 C 27.125 11.640625 26.726562 11.671875 26.34375 11.632812 C 26.175781 11.613281 26 11.585938 25.847656 11.515625 C 25.628906 11.414062 25.457031 11.230469 25.277344 11.074219 C 25.105469 10.925781 24.933594 10.757812 24.824219 10.554688 C 24.503906 9.949219 24.671875 9.21875 24.605469 8.570312 C 24.589844 8.40625 24.558594 8.25 24.503906 8.09375 C 24.472656 8.007812 24.398438 7.902344 24.410156 7.808594 C 24.421875 7.703125 24.535156 7.632812 24.621094 7.59375 C 24.859375 7.496094 25.125 7.496094 25.363281 7.386719 C 25.695312 7.234375 25.988281 7.003906 26.285156 6.792969 C 26.632812 6.546875 27 6.308594 27.382812 6.121094 C 27.582031 6.023438 28.046875 5.832031 28.25 5.988281 C 28.335938 6.054688 28.34375 6.183594 28.375 6.28125 C 28.46875 6.589844 28.441406 6.917969 28.507812 7.230469 C 28.59375 7.65625 28.90625 7.933594 29.183594 8.242188 C 29.246094 8.308594 29.285156 8.390625 29.335938 8.464844 C 29.351562 8.457031 29.359375 8.453125 29.371094 8.445312 Z M 29.367188 8.445312 " fill-opacity="1" fill-rule="evenodd"/><g clip-path="url(#a01135b2a2)"><path fill="#d66e1c" d="M 29.558594 9.179688 C 29.207031 9.09375 28.960938 8.789062 28.761719 8.507812 C 28.46875 8.09375 28.277344 7.636719 28.148438 7.148438 C 28.074219 6.855469 28.042969 6.558594 27.980469 6.265625 C 27.105469 6.851562 26.152344 7.335938 25.179688 7.742188 C 25.125 7.761719 25.066406 7.789062 25.011719 7.8125 C 24.777344 7.90625 24.21875 8.125 24.1875 7.683594 C 24.183594 7.621094 24.195312 7.558594 24.207031 7.496094 C 24.425781 6.421875 25.265625 5.339844 26.328125 4.992188 C 26.867188 4.8125 27.5625 4.808594 28.097656 5.007812 C 28.828125 5.28125 29.472656 5.917969 29.738281 6.652344 C 30.027344 7.449219 29.933594 8.425781 29.5625 9.179688 C 29.5625 9.179688 29.558594 9.179688 29.558594 9.179688 Z M 29.558594 9.179688 " fill-opacity="1" fill-rule="evenodd"/></g><g clip-path="url(#2cb6fa85e9)"><g mask="url(#3f9861b4c1)"><g transform="matrix(1, 0, 0, 1, 24, 4)"><g clip-path="url(#129ff65722)"><g clip-path="url(#81347b5059)"><path fill="#372b29" d="M 5.558594 5.179688 C 5.207031 5.09375 4.960938 4.789062 4.761719 4.507812 C 4.46875 4.09375 4.277344 3.636719 4.148438 3.148438 C 4.074219 2.855469 4.042969 2.558594 3.980469 2.265625 C 3.105469 2.851562 2.152344 3.335938 1.179688 3.742188 C 1.125 3.761719 1.066406 3.789062 1.011719 3.8125 C 0.777344 3.90625 0.21875 4.125 0.1875 3.683594 C 0.183594 3.621094 0.195312 3.558594 0.207031 3.496094 C 0.425781 2.421875 1.265625 1.339844 2.328125 0.992188 C 2.867188 0.8125 3.5625 0.808594 4.097656 1.007812 C 4.828125 1.28125 5.472656 1.917969 5.738281 2.652344 C 6.027344 3.449219 5.933594 4.425781 5.5625 5.179688 C 5.5625 5.179688 5.558594 5.179688 5.558594 5.179688 Z M 5.558594 5.179688 " fill-opacity="1" fill-rule="evenodd"/></g></g></g></g></g><path fill="#ffa572" d="M 28.972656 10.019531 C 29.019531 9.863281 29.066406 9.703125 29.136719 9.554688 C 29.214844 9.332031 29.296875 9.144531 29.511719 8.992188 C 29.578125 8.945312 29.644531 8.898438 29.71875 8.875 C 30 8.785156 30.117188 9.027344 30.113281 9.265625 C 30.109375 9.417969 30.054688 9.5625 30.003906 9.703125 C 29.933594 9.90625 29.839844 10.136719 29.691406 10.300781 C 29.539062 10.472656 29.359375 10.558594 29.132812 10.507812 C 29.050781 10.488281 28.949219 10.433594 28.921875 10.351562 C 28.886719 10.246094 28.945312 10.121094 28.972656 10.019531 Z M 28.972656 10.019531 " fill-opacity="1" fill-rule="evenodd"/><path fill="#ffa572" d="M 31.515625 19.105469 C 31.503906 19.027344 31.488281 18.957031 31.457031 18.894531 C 31.261719 18.496094 30.367188 18.496094 30.019531 18.523438 C 30.007812 18.519531 29.996094 18.515625 29.980469 18.511719 C 29.613281 18.421875 29.230469 18.480469 28.859375 18.511719 C 28.683594 18.523438 28.300781 18.445312 28.285156 18.664062 C 28.265625 18.925781 28.257812 19.1875 28.253906 19.453125 C 27.386719 18.621094 26.613281 17.675781 25.625 16.992188 C 25.421875 16.851562 25.179688 16.789062 24.976562 16.648438 C 24.5625 16.363281 24.167969 15.929688 23.679688 15.777344 C 23.433594 15.703125 23.15625 15.710938 22.902344 15.710938 C 22.652344 15.710938 22.410156 15.683594 22.160156 15.652344 C 22.0625 15.640625 21.925781 15.597656 21.839844 15.671875 C 21.722656 15.769531 21.851562 15.941406 21.953125 15.992188 C 22.179688 16.101562 22.453125 16.125 22.691406 16.226562 C 22.742188 16.246094 22.902344 16.285156 22.90625 16.363281 C 22.914062 16.511719 22.519531 16.460938 22.445312 16.464844 C 21.921875 16.503906 21.386719 16.601562 20.863281 16.582031 C 20.722656 16.574219 20.34375 16.53125 20.253906 16.660156 C 20.160156 16.792969 20.410156 16.972656 20.515625 17.003906 C 20.679688 17.054688 20.855469 17.050781 21.023438 17.070312 C 21.296875 17.105469 21.570312 17.152344 21.84375 17.179688 C 21.40625 17.234375 20.964844 17.324219 20.535156 17.433594 C 20.445312 17.453125 20.144531 17.492188 20.179688 17.640625 C 20.21875 17.804688 20.480469 17.785156 20.605469 17.789062 C 21.027344 17.800781 21.4375 17.769531 21.855469 17.757812 C 21.660156 17.769531 21.46875 17.804688 21.277344 17.824219 C 21.042969 17.84375 20.78125 17.859375 20.5625 17.949219 C 20.410156 18.007812 20.210938 18.210938 20.449219 18.328125 C 20.613281 18.410156 20.867188 18.328125 21.042969 18.316406 C 21.492188 18.285156 21.984375 18.222656 22.4375 18.289062 C 22.292969 18.410156 22.109375 18.480469 21.945312 18.5625 C 21.6875 18.683594 21.425781 18.800781 21.167969 18.921875 C 21.097656 18.953125 21.003906 18.996094 20.957031 19.0625 C 20.902344 19.144531 20.941406 19.226562 21.03125 19.246094 C 21.070312 19.257812 21.113281 19.261719 21.152344 19.265625 C 21.625 19.320312 22.039062 19.042969 22.476562 18.925781 C 23.042969 18.777344 23.648438 18.808594 24.226562 18.742188 C 24.472656 18.710938 24.742188 18.621094 24.957031 18.792969 C 26.226562 19.8125 27.199219 21.152344 28.433594 22.210938 C 29 22.699219 29.726562 23.269531 30.511719 23.269531 C 31.261719 23.273438 31.65625 22.753906 31.746094 22.054688 C 31.855469 21.203125 31.648438 20.363281 31.539062 19.523438 C 31.527344 19.402344 31.53125 19.246094 31.515625 19.105469 Z M 31.515625 19.105469 " fill-opacity="1" fill-rule="evenodd"/><path fill="#fee3d8" d="M 27.394531 12.863281 C 27.285156 12.964844 27.179688 13.070312 27.089844 13.1875 C 26.933594 13.390625 26.824219 13.613281 26.722656 13.847656 C 26.523438 14.691406 26.785156 15.519531 26.996094 16.363281 C 27.132812 16.914062 27.257812 17.464844 27.453125 18 C 27.570312 18.328125 27.765625 18.636719 27.84375 18.980469 C 27.890625 19.171875 27.847656 19.492188 28 19.644531 C 28.09375 19.734375 28.242188 19.757812 28.363281 19.785156 C 28.644531 19.84375 28.917969 19.867188 29.207031 19.878906 C 29.925781 19.90625 30.644531 19.914062 31.363281 19.902344 C 31.632812 19.898438 32.003906 19.933594 32.207031 19.71875 C 32.300781 19.617188 32.214844 19.402344 32.175781 19.292969 C 32.042969 18.890625 31.917969 18.496094 31.808594 18.082031 C 31.363281 16.367188 31.0625 14.53125 29.945312 13.101562 C 29.691406 12.773438 29.351562 12.433594 28.921875 12.351562 C 28.648438 12.300781 28.308594 12.382812 28.042969 12.464844 C 27.789062 12.542969 27.589844 12.683594 27.394531 12.863281 Z M 27.394531 12.863281 " fill-opacity="1" fill-rule="evenodd"/><path fill="#ffa572" d="M 20.136719 14.597656 C 20.363281 14.585938 20.589844 14.648438 20.78125 14.777344 C 21.128906 14.960938 21.441406 15.21875 21.816406 15.347656 C 21.925781 15.386719 22.050781 15.414062 22.171875 15.398438 C 22.210938 15.394531 22.277344 15.378906 22.28125 15.332031 C 22.285156 15.261719 22.179688 15.179688 22.132812 15.140625 C 21.957031 14.992188 21.757812 14.882812 21.5625 14.765625 C 21.519531 14.738281 21.316406 14.625 21.398438 14.550781 C 21.496094 14.464844 21.695312 14.640625 21.769531 14.695312 C 21.964844 14.832031 22.15625 14.976562 22.363281 15.097656 C 22.472656 15.160156 22.59375 15.234375 22.722656 15.234375 C 22.746094 15.234375 22.773438 15.234375 22.792969 15.226562 C 23.023438 15.164062 22.730469 14.945312 22.65625 14.886719 C 22.628906 14.863281 22.597656 14.839844 22.570312 14.816406 C 22.472656 14.738281 22.378906 14.65625 22.285156 14.578125 C 22.121094 14.441406 21.957031 14.308594 21.800781 14.167969 C 21.890625 13.996094 22.054688 14.144531 22.167969 14.222656 C 22.496094 14.457031 22.804688 14.726562 23.183594 14.878906 C 23.296875 14.925781 23.597656 14.9375 23.496094 14.738281 C 23.453125 14.664062 23.351562 14.617188 23.285156 14.566406 C 23.214844 14.507812 23.140625 14.453125 23.070312 14.390625 C 22.9375 14.28125 22.808594 14.167969 22.675781 14.054688 C 22.472656 13.878906 22.277344 13.6875 22.074219 13.511719 C 22.15625 13.367188 22.304688 13.484375 22.394531 13.554688 C 22.664062 13.75 22.914062 13.980469 23.203125 14.148438 C 23.300781 14.207031 23.566406 14.3125 23.625 14.148438 C 23.648438 14.082031 23.558594 14.011719 23.519531 13.96875 C 23.386719 13.828125 23.226562 13.707031 23.078125 13.578125 C 22.941406 13.457031 22.804688 13.335938 22.667969 13.214844 C 22.585938 13.136719 22.507812 13.050781 22.410156 12.992188 C 22.183594 12.847656 21.914062 12.796875 21.660156 12.722656 C 21.414062 12.648438 21.179688 12.542969 20.929688 12.484375 C 20.605469 12.414062 20.222656 12.445312 19.917969 12.578125 C 19.414062 12.796875 18.9375 13.386719 18.527344 13.75 C 17.894531 14.3125 17.238281 14.867188 16.789062 15.597656 C 16.71875 15.710938 16.640625 15.828125 16.585938 15.953125 C 16.375 16.421875 16.203125 17.488281 16.917969 17.652344 C 17.359375 17.757812 17.722656 17.246094 17.949219 16.957031 C 18.429688 16.347656 18.925781 15.710938 19.457031 15.144531 C 19.652344 14.9375 19.816406 14.613281 20.136719 14.597656 Z M 20.136719 14.597656 " fill-opacity="1" fill-rule="evenodd"/><path fill="#d66e1c" d="M 24.902344 10.234375 C 24.898438 10.160156 24.890625 10.089844 24.882812 10.015625 C 24.796875 9.136719 24.769531 8.152344 24.25 7.398438 C 23.996094 7.03125 23.574219 6.753906 23.160156 6.597656 C 22.164062 6.21875 20.910156 6.453125 20.125 7.179688 C 19.125 8.097656 18.636719 9.382812 18.226562 10.664062 C 18.128906 10.96875 17.910156 11.320312 17.941406 11.644531 C 17.96875 11.949219 18.285156 12.058594 18.546875 11.996094 C 19.035156 11.882812 19.308594 11.324219 19.648438 11.007812 C 19.695312 11.421875 19.851562 11.832031 20.121094 12.152344 C 20.300781 12.367188 20.542969 12.539062 20.789062 12.675781 C 21.5 13.058594 22.464844 13.238281 23.222656 12.898438 C 23.636719 12.710938 23.957031 12.359375 24.234375 11.992188 C 24.292969 12.097656 24.359375 12.21875 24.460938 12.28125 C 24.726562 12.445312 25.003906 12.261719 25.070312 11.988281 C 25.167969 11.601562 25.070312 11.203125 24.992188 10.824219 C 24.953125 10.628906 24.921875 10.433594 24.902344 10.234375 Z M 24.902344 10.234375 " fill-opacity="1" fill-rule="evenodd"/><path fill="#ff5d57" d="M 21.289062 11.121094 C 21.257812 11.273438 21.253906 11.429688 21.257812 11.582031 C 21.257812 11.824219 21.308594 12.085938 21.453125 12.25 C 21.734375 12.574219 22.300781 12.589844 22.632812 12.335938 C 22.851562 12.164062 22.976562 11.902344 23.03125 11.632812 C 23.101562 11.269531 22.976562 10.902344 22.769531 10.605469 C 22.6875 10.484375 22.585938 10.367188 22.445312 10.3125 C 22.117188 10.1875 21.648438 10.390625 21.457031 10.667969 C 21.414062 10.730469 21.382812 10.808594 21.359375 10.886719 C 21.324219 10.957031 21.304688 11.039062 21.289062 11.121094 Z M 21.289062 11.121094 " fill-opacity="1" fill-rule="evenodd"/><path fill="#fee3d8" d="M 22.664062 8.324219 C 22.332031 8.1875 21.886719 8.203125 21.554688 8.335938 C 20.898438 8.605469 20.707031 9.480469 20.570312 10.09375 C 20.476562 10.519531 20.304688 11.179688 20.828125 11.394531 C 21.238281 11.5625 21.636719 11.273438 21.867188 10.945312 C 21.941406 10.847656 21.996094 10.742188 22.066406 10.644531 C 22.078125 10.628906 22.117188 10.550781 22.140625 10.546875 C 22.171875 10.542969 22.214844 10.632812 22.222656 10.652344 C 22.285156 10.757812 22.332031 10.871094 22.40625 10.96875 C 22.609375 11.246094 22.9375 11.566406 23.316406 11.488281 C 23.542969 11.441406 23.710938 11.179688 23.847656 11 C 23.894531 10.9375 23.953125 10.863281 23.972656 10.78125 C 24.003906 10.648438 23.964844 10.496094 23.945312 10.363281 C 23.855469 9.714844 23.527344 8.988281 23.023438 8.5625 C 22.917969 8.46875 22.796875 8.378906 22.664062 8.324219 Z M 22.664062 8.324219 " fill-opacity="1" fill-rule="evenodd"/><path fill="#372b29" d="M 22.867188 9.4375 C 22.898438 9.289062 22.960938 9.101562 22.914062 8.949219 C 22.875 8.8125 22.730469 8.722656 22.597656 8.683594 C 22.378906 8.613281 22.164062 8.605469 21.9375 8.632812 C 21.695312 8.664062 21.421875 8.742188 21.363281 9.015625 C 21.34375 9.09375 21.371094 9.1875 21.386719 9.265625 C 21.410156 9.402344 21.433594 9.570312 21.539062 9.671875 C 21.621094 9.75 21.75 9.785156 21.855469 9.816406 C 22.175781 9.914062 22.601562 9.921875 22.8125 9.609375 C 22.820312 9.597656 22.828125 9.585938 22.832031 9.574219 C 22.847656 9.53125 22.855469 9.484375 22.867188 9.4375 Z M 22.867188 9.4375 " fill-opacity="1" fill-rule="evenodd"/><path fill="#ffa572" d="M 12.039062 28.933594 C 12.203125 28.847656 12.382812 28.789062 12.546875 28.707031 C 12.804688 28.582031 13.050781 28.4375 13.316406 28.332031 C 13.378906 28.304688 13.554688 28.183594 13.628906 28.234375 C 13.75 28.320312 13.773438 28.511719 13.839844 28.632812 C 13.945312 28.820312 14.082031 28.988281 14.164062 29.1875 C 14.234375 29.363281 14.277344 29.5625 14.339844 29.742188 C 14.394531 29.90625 14.625 30.128906 14.417969 30.261719 C 14.132812 30.441406 13.777344 30.542969 13.476562 30.699219 C 13.449219 30.714844 13.167969 30.859375 13.132812 30.820312 C 13.078125 30.757812 13.226562 30.542969 13.246094 30.480469 C 13.316406 30.292969 13.300781 30.046875 13.167969 29.886719 C 12.953125 29.632812 12.640625 29.542969 12.355469 29.394531 C 12.230469 29.332031 12.152344 29.230469 12.050781 29.144531 C 12.011719 29.117188 11.949219 29.085938 11.949219 29.03125 C 11.949219 29.011719 11.957031 28.992188 11.96875 28.976562 C 11.992188 28.960938 12.015625 28.949219 12.039062 28.933594 Z M 12.039062 28.933594 " fill-opacity="1" fill-rule="evenodd"/><path fill="#372b29" d="M 23.5625 26.875 C 23.714844 26.816406 23.867188 26.757812 24.023438 26.714844 C 25.289062 27.4375 26.402344 28.441406 27.832031 28.839844 C 28.414062 29 29.039062 29.082031 29.628906 28.898438 C 29.917969 28.808594 30.179688 28.652344 30.421875 28.480469 C 30.710938 28.273438 30.972656 28.035156 31.210938 27.777344 C 31.402344 27.566406 31.601562 27.347656 31.71875 27.085938 C 31.765625 26.976562 31.800781 26.863281 31.8125 26.746094 C 31.925781 25.800781 30.890625 25.238281 30.195312 24.847656 C 29.125 24.246094 27.96875 23.808594 26.847656 23.308594 C 26.363281 23.09375 25.863281 22.914062 25.359375 22.726562 C 25.074219 22.621094 24.730469 22.480469 24.421875 22.492188 C 23.445312 22.53125 22.414062 23.226562 21.574219 23.679688 C 20.152344 24.445312 18.824219 25.382812 17.398438 26.140625 C 16.617188 26.554688 15.867188 26.910156 15.066406 27.308594 C 14.660156 27.511719 14.207031 27.632812 13.804688 27.84375 C 13.714844 27.886719 13.628906 27.941406 13.554688 28.011719 C 13.40625 28.15625 13.421875 28.363281 13.488281 28.546875 C 13.585938 28.824219 13.785156 29.046875 13.933594 29.296875 C 14.085938 29.554688 14.1875 29.851562 14.300781 30.128906 C 14.363281 30.285156 14.472656 30.441406 14.65625 30.394531 C 14.972656 30.3125 15.230469 30.109375 15.527344 29.988281 C 16.636719 29.542969 17.699219 29.132812 18.800781 28.679688 C 19.453125 28.410156 20.140625 28.164062 20.796875 27.933594 C 21.726562 27.605469 22.640625 27.222656 23.5625 26.875 Z M 23.5625 26.875 " fill-opacity="1" fill-rule="evenodd"/><g clip-path="url(#ac7ff494a3)"><path fill="#fee3d8" d="M 13.492188 29.773438 C 13.589844 29.960938 13.785156 30.265625 13.703125 30.484375 C 13.664062 30.585938 13.574219 30.65625 13.492188 30.726562 C 13.402344 30.804688 13.488281 30.960938 13.378906 31.058594 C 13.320312 31.117188 13.246094 31.164062 13.175781 31.210938 C 12.917969 31.375 12.652344 31.558594 12.375 31.691406 C 12.207031 31.769531 12.027344 31.800781 11.980469 32.003906 C 11.910156 32.332031 11.625 32.632812 11.394531 32.867188 C 11.273438 32.988281 10.9375 33.296875 10.761719 33.171875 C 10.675781 33.109375 10.632812 32.988281 10.585938 32.898438 C 10.488281 32.71875 10.382812 32.539062 10.285156 32.363281 C 10.191406 32.195312 10.066406 32.046875 9.972656 31.875 C 9.828125 31.617188 9.722656 31.335938 9.566406 31.082031 C 9.367188 30.75 9.113281 30.433594 9.09375 30.027344 C 9.078125 29.734375 9.425781 29.695312 9.632812 29.621094 C 9.792969 29.5625 9.941406 29.472656 10.09375 29.402344 C 10.523438 29.210938 10.945312 29.019531 11.355469 28.789062 C 11.582031 28.664062 11.898438 28.425781 12.160156 28.382812 C 12.414062 28.339844 12.796875 28.519531 12.796875 28.8125 C 12.796875 28.96875 12.691406 29.113281 12.601562 29.230469 C 12.714844 29.1875 12.859375 29.148438 12.980469 29.1875 C 13.128906 29.230469 13.261719 29.382812 13.363281 29.535156 C 13.40625 29.613281 13.449219 29.691406 13.492188 29.773438 Z M 13.492188 29.773438 " fill-opacity="1" fill-rule="evenodd"/></g><path fill="#372b29" d="M 27.582031 7.996094 C 27.570312 8.003906 27.550781 8.003906 27.542969 7.988281 C 27.53125 7.976562 27.535156 7.957031 27.546875 7.949219 C 27.609375 7.894531 27.675781 7.851562 27.75 7.824219 C 27.824219 7.796875 27.90625 7.785156 27.984375 7.789062 C 28.066406 7.792969 28.144531 7.808594 28.21875 7.839844 C 28.289062 7.871094 28.355469 7.917969 28.414062 7.972656 C 28.429688 7.984375 28.429688 8.003906 28.417969 8.019531 C 28.40625 8.03125 28.386719 8.035156 28.371094 8.023438 C 28.3125 7.980469 28.25 7.953125 28.183594 7.929688 C 28.117188 7.90625 28.050781 7.890625 27.980469 7.886719 C 27.910156 7.882812 27.84375 7.890625 27.777344 7.910156 C 27.710938 7.925781 27.644531 7.953125 27.582031 7.996094 Z M 27.582031 7.996094 " fill-opacity="1" fill-rule="evenodd"/><path fill="#372b29" d="M 26.378906 7.746094 C 26.390625 7.761719 26.390625 7.777344 26.375 7.789062 C 26.363281 7.800781 26.347656 7.796875 26.335938 7.785156 C 26.277344 7.726562 26.210938 7.6875 26.140625 7.65625 C 26.070312 7.628906 25.992188 7.613281 25.914062 7.609375 C 25.835938 7.605469 25.757812 7.617188 25.679688 7.636719 C 25.601562 7.65625 25.523438 7.679688 25.453125 7.714844 C 25.4375 7.722656 25.417969 7.71875 25.40625 7.703125 C 25.398438 7.6875 25.40625 7.664062 25.421875 7.65625 C 25.492188 7.609375 25.574219 7.570312 25.65625 7.546875 C 25.742188 7.519531 25.832031 7.507812 25.917969 7.511719 C 26.007812 7.515625 26.097656 7.535156 26.175781 7.578125 C 26.253906 7.613281 26.320312 7.671875 26.378906 7.746094 Z M 26.378906 7.746094 " fill-opacity="1" fill-rule="evenodd"/><path fill="#372b29" d="M 26.835938 8.589844 C 26.835938 8.574219 26.851562 8.5625 26.871094 8.566406 C 26.886719 8.570312 26.894531 8.585938 26.890625 8.601562 C 26.882812 8.675781 26.871094 8.746094 26.851562 8.8125 C 26.828125 8.882812 26.800781 8.949219 26.761719 9.015625 C 26.730469 9.0625 26.671875 9.117188 26.632812 9.171875 C 26.621094 9.191406 26.613281 9.210938 26.609375 9.230469 C 26.605469 9.25 26.617188 9.265625 26.628906 9.28125 C 26.640625 9.300781 26.660156 9.320312 26.683594 9.335938 C 26.734375 9.375 26.796875 9.402344 26.835938 9.414062 C 26.855469 9.417969 26.867188 9.433594 26.863281 9.449219 C 26.859375 9.46875 26.84375 9.480469 26.824219 9.476562 C 26.765625 9.46875 26.667969 9.4375 26.601562 9.386719 C 26.542969 9.339844 26.507812 9.28125 26.511719 9.21875 C 26.515625 9.183594 26.53125 9.152344 26.554688 9.117188 C 26.589844 9.0625 26.648438 9.011719 26.679688 8.964844 C 26.71875 8.90625 26.746094 8.847656 26.769531 8.785156 C 26.796875 8.722656 26.816406 8.660156 26.835938 8.589844 Z M 26.835938 8.589844 " fill-opacity="1" fill-rule="evenodd"/><path fill="#372b29" d="M 25.890625 10.109375 C 25.878906 10.097656 25.878906 10.078125 25.890625 10.066406 C 25.90625 10.058594 25.921875 10.058594 25.933594 10.070312 C 25.96875 10.109375 26.015625 10.140625 26.0625 10.167969 C 26.132812 10.210938 26.214844 10.246094 26.285156 10.273438 C 26.375 10.3125 26.464844 10.34375 26.558594 10.363281 C 26.699219 10.394531 26.84375 10.410156 26.988281 10.402344 C 27.085938 10.402344 27.179688 10.390625 27.273438 10.371094 C 27.414062 10.339844 27.554688 10.296875 27.679688 10.226562 C 27.695312 10.21875 27.714844 10.222656 27.722656 10.238281 C 27.734375 10.253906 27.726562 10.273438 27.710938 10.28125 C 27.582031 10.363281 27.441406 10.425781 27.292969 10.460938 C 27.195312 10.484375 27.09375 10.496094 26.992188 10.5 C 26.839844 10.507812 26.683594 10.492188 26.539062 10.453125 C 26.4375 10.429688 26.34375 10.398438 26.25 10.355469 C 26.175781 10.320312 26.09375 10.277344 26.023438 10.226562 C 25.972656 10.191406 25.925781 10.152344 25.890625 10.109375 Z M 25.890625 10.109375 " fill-opacity="1" fill-rule="evenodd"/><path fill="#372b29" d="M 29.578125 9.203125 C 29.566406 9.210938 29.546875 9.207031 29.539062 9.191406 C 29.53125 9.179688 29.535156 9.160156 29.546875 9.152344 C 29.644531 9.089844 29.746094 9.078125 29.820312 9.109375 C 29.894531 9.140625 29.945312 9.226562 29.925781 9.371094 C 29.90625 9.488281 29.851562 9.617188 29.78125 9.742188 C 29.714844 9.859375 29.628906 9.972656 29.550781 10.058594 C 29.519531 10.089844 29.488281 10.109375 29.457031 10.113281 C 29.425781 10.121094 29.394531 10.121094 29.363281 10.117188 C 29.328125 10.113281 29.292969 10.101562 29.253906 10.105469 C 29.234375 10.109375 29.214844 10.117188 29.199219 10.132812 C 29.175781 10.148438 29.160156 10.167969 29.144531 10.183594 C 29.132812 10.199219 29.113281 10.203125 29.097656 10.191406 C 29.085938 10.179688 29.082031 10.160156 29.09375 10.144531 C 29.113281 10.117188 29.136719 10.085938 29.167969 10.0625 C 29.1875 10.046875 29.214844 10.035156 29.242188 10.027344 C 29.300781 10.019531 29.359375 10.035156 29.414062 10.03125 C 29.4375 10.027344 29.460938 10.019531 29.480469 9.996094 C 29.554688 9.914062 29.632812 9.804688 29.699219 9.691406 C 29.761719 9.582031 29.816406 9.460938 29.835938 9.355469 C 29.851562 9.261719 29.832031 9.203125 29.785156 9.179688 C 29.730469 9.152344 29.65625 9.160156 29.578125 9.203125 Z M 29.578125 9.203125 " fill-opacity="1" fill-rule="evenodd"/><path fill="#372b29" d="M 30.324219 13.726562 C 30.316406 13.714844 30.320312 13.695312 30.332031 13.6875 C 30.347656 13.675781 30.367188 13.679688 30.375 13.695312 C 30.664062 14.113281 30.871094 14.566406 31.035156 15.039062 C 31.285156 15.746094 31.433594 16.492188 31.625 17.207031 C 31.6875 17.433594 31.75 17.660156 31.820312 17.886719 C 31.886719 18.109375 31.957031 18.335938 32.03125 18.558594 C 32.089844 18.753906 32.144531 18.945312 32.207031 19.132812 C 32.234375 19.214844 32.261719 19.296875 32.292969 19.375 C 32.308594 19.421875 32.359375 19.496094 32.382812 19.5625 C 32.398438 19.605469 32.40625 19.644531 32.398438 19.675781 C 32.386719 19.710938 32.363281 19.746094 32.328125 19.773438 C 32.277344 19.8125 32.203125 19.847656 32.113281 19.871094 C 31.863281 19.933594 31.507812 19.9375 31.371094 19.929688 C 31.351562 19.929688 31.339844 19.914062 31.339844 19.898438 C 31.339844 19.878906 31.355469 19.867188 31.375 19.867188 C 31.488281 19.871094 31.765625 19.863281 31.992188 19.816406 C 32.082031 19.800781 32.160156 19.777344 32.222656 19.746094 C 32.269531 19.71875 32.304688 19.691406 32.316406 19.65625 C 32.320312 19.636719 32.3125 19.617188 32.304688 19.59375 C 32.277344 19.527344 32.226562 19.453125 32.207031 19.40625 C 32.164062 19.300781 32.128906 19.191406 32.09375 19.082031 C 32.039062 18.917969 31.992188 18.753906 31.9375 18.589844 C 31.867188 18.363281 31.792969 18.140625 31.726562 17.914062 C 31.660156 17.6875 31.59375 17.460938 31.53125 17.230469 C 31.34375 16.515625 31.195312 15.773438 30.957031 15.066406 C 30.796875 14.597656 30.601562 14.144531 30.324219 13.726562 Z M 30.324219 13.726562 " fill-opacity="1" fill-rule="evenodd"/><path fill="#372b29" d="M 30.25 13.480469 C 30.261719 13.496094 30.257812 13.511719 30.246094 13.523438 C 30.230469 13.53125 30.210938 13.527344 30.203125 13.515625 C 30.023438 13.265625 29.804688 12.96875 29.550781 12.726562 C 29.378906 12.566406 29.195312 12.433594 28.996094 12.355469 C 28.894531 12.320312 28.785156 12.3125 28.671875 12.324219 C 28.5 12.339844 28.324219 12.398438 28.175781 12.453125 C 27.859375 12.570312 27.578125 12.71875 27.347656 12.921875 C 27.117188 13.121094 26.941406 13.375 26.839844 13.710938 C 26.707031 14.144531 26.699219 14.597656 26.75 15.046875 C 26.828125 15.730469 27.042969 16.414062 27.210938 17.042969 C 27.214844 17.0625 27.207031 17.078125 27.1875 17.085938 C 27.171875 17.089844 27.152344 17.078125 27.148438 17.0625 C 26.972656 16.429688 26.742188 15.746094 26.65625 15.058594 C 26.601562 14.59375 26.613281 14.128906 26.75 13.683594 C 26.855469 13.328125 27.042969 13.058594 27.285156 12.847656 C 27.523438 12.640625 27.816406 12.488281 28.144531 12.367188 C 28.296875 12.308594 28.480469 12.25 28.664062 12.234375 C 28.789062 12.222656 28.914062 12.234375 29.027344 12.277344 C 29.234375 12.359375 29.425781 12.5 29.601562 12.671875 C 29.855469 12.917969 30.074219 13.226562 30.25 13.480469 Z M 30.25 13.480469 " fill-opacity="1" fill-rule="evenodd"/><path fill="#372b29" d="M 27.3125 17.707031 C 27.308594 17.691406 27.316406 17.675781 27.332031 17.671875 C 27.347656 17.664062 27.363281 17.671875 27.371094 17.6875 C 27.398438 17.769531 27.429688 17.847656 27.464844 17.925781 C 27.515625 18.050781 27.574219 18.171875 27.628906 18.296875 C 27.714844 18.480469 27.796875 18.667969 27.871094 18.859375 C 27.929688 19.011719 27.941406 19.164062 27.960938 19.304688 C 27.972656 19.402344 27.984375 19.496094 28.027344 19.570312 C 28.085938 19.671875 28.195312 19.738281 28.417969 19.753906 C 28.4375 19.753906 28.449219 19.769531 28.449219 19.785156 C 28.449219 19.804688 28.433594 19.816406 28.414062 19.816406 C 28.152344 19.8125 28.023438 19.730469 27.949219 19.613281 C 27.898438 19.53125 27.878906 19.429688 27.863281 19.316406 C 27.847656 19.183594 27.835938 19.039062 27.78125 18.894531 C 27.71875 18.730469 27.648438 18.566406 27.578125 18.402344 C 27.53125 18.292969 27.484375 18.183594 27.441406 18.070312 C 27.394531 17.953125 27.351562 17.832031 27.3125 17.707031 Z M 27.3125 17.707031 " fill-opacity="1" fill-rule="evenodd"/><path fill="#372b29" d="M 26.847656 12.5625 C 26.859375 12.554688 26.878906 12.558594 26.886719 12.574219 C 26.894531 12.589844 26.886719 12.605469 26.875 12.613281 C 26.742188 12.6875 26.558594 12.78125 26.445312 12.914062 C 26.375 12.996094 26.332031 13.09375 26.351562 13.210938 C 26.359375 13.25 26.375 13.285156 26.394531 13.316406 C 26.425781 13.371094 26.464844 13.421875 26.496094 13.476562 C 26.503906 13.488281 26.507812 13.503906 26.503906 13.515625 C 26.355469 13.957031 26.203125 14.398438 26.0625 14.839844 C 25.96875 15.136719 25.882812 15.433594 25.816406 15.734375 C 25.8125 15.753906 25.792969 15.765625 25.777344 15.761719 C 25.757812 15.757812 25.75 15.742188 25.75 15.722656 C 25.808594 15.417969 25.882812 15.113281 25.972656 14.8125 C 26.101562 14.375 26.261719 13.941406 26.40625 13.507812 C 26.375 13.457031 26.339844 13.410156 26.3125 13.359375 C 26.292969 13.320312 26.273438 13.273438 26.265625 13.226562 C 26.242188 13.082031 26.292969 12.960938 26.386719 12.863281 C 26.511719 12.726562 26.707031 12.632812 26.847656 12.5625 Z M 26.847656 12.5625 " fill-opacity="1" fill-rule="evenodd"/><path fill="#372b29" d="M 23.617188 16.375 C 23.632812 16.367188 23.648438 16.375 23.65625 16.390625 C 23.660156 16.40625 23.652344 16.425781 23.636719 16.429688 C 23.574219 16.457031 23.507812 16.46875 23.441406 16.476562 C 23.402344 16.480469 23.363281 16.484375 23.324219 16.484375 C 23.269531 16.484375 23.210938 16.484375 23.15625 16.488281 C 23.078125 16.488281 23.003906 16.496094 22.929688 16.5 C 22.878906 16.503906 22.828125 16.507812 22.777344 16.507812 C 22.691406 16.507812 22.605469 16.507812 22.519531 16.5 C 22.5 16.5 22.488281 16.484375 22.488281 16.46875 C 22.488281 16.449219 22.503906 16.4375 22.519531 16.4375 C 22.59375 16.433594 22.671875 16.421875 22.746094 16.417969 C 22.796875 16.410156 22.847656 16.40625 22.898438 16.40625 C 22.980469 16.398438 23.066406 16.394531 23.152344 16.390625 C 23.207031 16.390625 23.265625 16.390625 23.320312 16.394531 C 23.375 16.394531 23.429688 16.398438 23.484375 16.394531 C 23.527344 16.390625 23.574219 16.386719 23.617188 16.375 Z M 23.617188 16.375 " fill-opacity="1" fill-rule="evenodd"/><path fill="#372b29" d="M 22.460938 17.019531 C 22.476562 17.015625 22.496094 17.023438 22.5 17.039062 C 22.503906 17.054688 22.496094 17.070312 22.480469 17.074219 C 22.386719 17.109375 22.289062 17.140625 22.191406 17.164062 C 22.046875 17.199219 21.898438 17.226562 21.753906 17.257812 C 21.652344 17.277344 21.554688 17.300781 21.457031 17.324219 C 21.414062 17.332031 21.371094 17.34375 21.328125 17.351562 C 21.234375 17.367188 21.136719 17.382812 21.039062 17.390625 C 21.023438 17.394531 21.003906 17.382812 21.003906 17.363281 C 21 17.347656 21.011719 17.332031 21.03125 17.328125 C 21.144531 17.308594 21.253906 17.277344 21.367188 17.25 C 21.441406 17.230469 21.515625 17.210938 21.589844 17.191406 C 21.636719 17.183594 21.683594 17.171875 21.734375 17.164062 C 21.835938 17.140625 21.9375 17.125 22.042969 17.105469 C 22.109375 17.09375 22.179688 17.082031 22.246094 17.070312 C 22.320312 17.054688 22.390625 17.039062 22.464844 17.019531 Z M 22.460938 17.019531 " fill-opacity="1" fill-rule="evenodd"/><path fill="#372b29" d="M 22.347656 17.675781 C 22.363281 17.671875 22.378906 17.683594 22.382812 17.699219 C 22.386719 17.714844 22.375 17.730469 22.359375 17.734375 C 22.308594 17.746094 22.261719 17.757812 22.210938 17.765625 C 22.179688 17.769531 22.144531 17.773438 22.113281 17.78125 C 22.054688 17.785156 22 17.792969 21.941406 17.796875 C 21.882812 17.804688 21.828125 17.8125 21.769531 17.816406 C 21.742188 17.820312 21.710938 17.824219 21.679688 17.824219 C 21.636719 17.832031 21.589844 17.835938 21.546875 17.839844 C 21.527344 17.847656 21.511719 17.835938 21.507812 17.816406 C 21.503906 17.800781 21.511719 17.78125 21.53125 17.777344 C 21.578125 17.761719 21.628906 17.75 21.675781 17.738281 C 21.707031 17.730469 21.742188 17.726562 21.773438 17.71875 C 21.832031 17.710938 21.890625 17.707031 21.949219 17.699219 C 22.003906 17.695312 22.0625 17.691406 22.121094 17.6875 C 22.152344 17.683594 22.179688 17.683594 22.210938 17.683594 C 22.257812 17.679688 22.304688 17.679688 22.347656 17.675781 Z M 22.347656 17.675781 " fill-opacity="1" fill-rule="evenodd"/><path fill="#372b29" d="M 29.445312 20.617188 C 29.453125 20.628906 29.453125 20.648438 29.441406 20.65625 C 29.429688 20.667969 29.410156 20.667969 29.398438 20.65625 C 29.34375 20.597656 29.28125 20.539062 29.222656 20.480469 C 29.132812 20.394531 29.046875 20.304688 28.953125 20.222656 C 28.914062 20.183594 28.871094 20.148438 28.828125 20.113281 C 28.765625 20.058594 28.707031 20.003906 28.640625 19.953125 C 28.625 19.941406 28.621094 19.921875 28.628906 19.910156 C 28.640625 19.894531 28.660156 19.890625 28.675781 19.898438 C 28.75 19.941406 28.820312 19.988281 28.890625 20.039062 C 28.933594 20.074219 28.976562 20.109375 29.019531 20.148438 C 29.113281 20.234375 29.203125 20.324219 29.285156 20.421875 C 29.339844 20.484375 29.394531 20.550781 29.445312 20.617188 Z M 29.445312 20.617188 " fill-opacity="1" fill-rule="evenodd"/><path fill="#372b29" d="M 29.5625 20.257812 C 29.578125 20.265625 29.582031 20.285156 29.574219 20.296875 C 29.5625 20.3125 29.546875 20.316406 29.53125 20.308594 C 29.503906 20.296875 29.476562 20.285156 29.445312 20.269531 C 29.417969 20.257812 29.390625 20.242188 29.363281 20.226562 C 29.316406 20.199219 29.269531 20.175781 29.222656 20.144531 C 29.191406 20.125 29.164062 20.105469 29.132812 20.082031 C 29.117188 20.074219 29.109375 20.054688 29.117188 20.039062 C 29.125 20.023438 29.144531 20.015625 29.160156 20.023438 C 29.199219 20.035156 29.234375 20.046875 29.269531 20.0625 C 29.289062 20.074219 29.3125 20.085938 29.335938 20.097656 C 29.382812 20.125 29.429688 20.15625 29.476562 20.1875 C 29.503906 20.210938 29.53125 20.234375 29.5625 20.257812 Z M 29.5625 20.257812 " fill-opacity="1" fill-rule="evenodd"/><path fill="#372b29" d="M 16.78125 19.109375 C 16.785156 19.09375 16.804688 19.085938 16.820312 19.089844 C 16.832031 19.097656 16.84375 19.113281 16.835938 19.128906 C 16.722656 19.507812 16.632812 19.898438 16.558594 20.292969 C 16.5 20.589844 16.453125 20.882812 16.402344 21.179688 C 16.355469 21.480469 16.308594 21.777344 16.257812 22.070312 C 16.117188 22.882812 15.996094 23.691406 15.898438 24.503906 C 15.863281 24.828125 15.828125 25.152344 15.796875 25.480469 C 15.75 25.96875 15.714844 26.457031 15.695312 26.949219 C 15.695312 26.96875 15.679688 26.984375 15.664062 26.980469 C 15.644531 26.980469 15.628906 26.964844 15.628906 26.949219 C 15.644531 26.453125 15.667969 25.960938 15.707031 25.472656 C 15.734375 25.144531 15.765625 24.816406 15.804688 24.492188 C 15.898438 23.679688 16.023438 22.871094 16.164062 22.054688 C 16.21875 21.761719 16.265625 21.464844 16.316406 21.164062 C 16.367188 20.871094 16.417969 20.574219 16.480469 20.277344 C 16.5625 19.882812 16.660156 19.492188 16.78125 19.109375 Z M 16.78125 19.109375 " fill-opacity="1" fill-rule="evenodd"/><path fill="#372b29" d="M 15.136719 27.171875 C 15.136719 27.1875 15.125 27.203125 15.109375 27.203125 C 15.09375 27.207031 15.078125 27.195312 15.078125 27.179688 C 15.027344 26.832031 14.996094 26.480469 14.984375 26.132812 C 14.972656 25.785156 14.984375 25.433594 15.011719 25.085938 C 15.042969 24.738281 15.089844 24.390625 15.160156 24.046875 C 15.226562 23.707031 15.320312 23.367188 15.429688 23.035156 C 15.433594 23.015625 15.453125 23.007812 15.46875 23.011719 C 15.484375 23.019531 15.496094 23.035156 15.492188 23.054688 C 15.390625 23.386719 15.316406 23.726562 15.25 24.066406 C 15.1875 24.40625 15.140625 24.75 15.109375 25.09375 C 15.082031 25.4375 15.070312 25.785156 15.074219 26.132812 C 15.078125 26.476562 15.097656 26.824219 15.136719 27.171875 Z M 15.136719 27.171875 " fill-opacity="1" fill-rule="evenodd"/><path fill="#372b29" d="M 16.269531 30.078125 C 16.28125 30.066406 16.300781 30.0625 16.3125 30.074219 C 16.324219 30.085938 16.328125 30.101562 16.316406 30.117188 C 16.265625 30.183594 16.199219 30.246094 16.136719 30.304688 C 16.097656 30.339844 16.054688 30.378906 16.019531 30.417969 C 15.984375 30.460938 15.953125 30.507812 15.929688 30.558594 C 15.878906 30.679688 15.914062 30.785156 15.984375 30.859375 C 16.015625 30.890625 16.050781 30.914062 16.09375 30.933594 C 16.15625 30.960938 16.226562 30.976562 16.296875 30.96875 C 16.316406 30.964844 16.332031 30.976562 16.335938 30.996094 C 16.335938 31.011719 16.324219 31.027344 16.308594 31.03125 C 16.210938 31.054688 16.109375 31.039062 16.023438 31 C 15.984375 30.980469 15.949219 30.957031 15.917969 30.925781 C 15.816406 30.828125 15.773438 30.683594 15.839844 30.523438 C 15.867188 30.460938 15.90625 30.40625 15.953125 30.359375 C 15.992188 30.316406 16.035156 30.277344 16.082031 30.242188 C 16.148438 30.1875 16.214844 30.140625 16.269531 30.078125 Z M 16.269531 30.078125 " fill-opacity="1" fill-rule="evenodd"/><path fill="#372b29" d="M 15.773438 30.1875 C 15.785156 30.175781 15.804688 30.171875 15.816406 30.183594 C 15.828125 30.195312 15.828125 30.214844 15.816406 30.226562 C 15.769531 30.28125 15.714844 30.328125 15.652344 30.375 C 15.597656 30.414062 15.542969 30.453125 15.492188 30.5 C 15.46875 30.523438 15.445312 30.546875 15.425781 30.574219 C 15.359375 30.667969 15.347656 30.761719 15.375 30.839844 C 15.386719 30.875 15.40625 30.90625 15.429688 30.9375 C 15.46875 30.976562 15.519531 31.011719 15.582031 31.03125 C 15.597656 31.035156 15.609375 31.054688 15.601562 31.070312 C 15.597656 31.089844 15.582031 31.097656 15.5625 31.09375 C 15.472656 31.074219 15.394531 31.03125 15.34375 30.972656 C 15.316406 30.941406 15.296875 30.910156 15.285156 30.875 C 15.242188 30.769531 15.257812 30.640625 15.351562 30.515625 C 15.386719 30.472656 15.425781 30.429688 15.472656 30.398438 C 15.511719 30.367188 15.554688 30.339844 15.597656 30.3125 C 15.660156 30.273438 15.722656 30.234375 15.773438 30.1875 Z M 15.773438 30.1875 " fill-opacity="1" fill-rule="evenodd"/><path fill="#372b29" d="M 22.476562 27.558594 C 22.476562 27.542969 22.492188 27.53125 22.507812 27.53125 C 22.523438 27.535156 22.535156 27.546875 22.535156 27.5625 C 22.53125 27.667969 22.527344 27.769531 22.523438 27.875 C 22.523438 27.941406 22.519531 28.011719 22.515625 28.082031 C 22.511719 28.234375 22.507812 28.390625 22.503906 28.546875 C 22.5 28.648438 22.5 28.753906 22.496094 28.855469 C 22.492188 28.964844 22.488281 29.070312 22.484375 29.179688 C 22.484375 29.199219 22.46875 29.210938 22.449219 29.210938 C 22.433594 29.210938 22.417969 29.199219 22.417969 29.179688 C 22.414062 29.042969 22.40625 28.910156 22.40625 28.773438 C 22.402344 28.640625 22.40625 28.503906 22.410156 28.367188 C 22.414062 28.234375 22.421875 28.097656 22.433594 27.964844 C 22.441406 27.828125 22.457031 27.695312 22.476562 27.558594 Z M 22.476562 27.558594 " fill-opacity="1" fill-rule="evenodd"/><path fill="#372b29" d="M 23.789062 29.527344 C 23.777344 29.515625 23.777344 29.496094 23.789062 29.484375 C 23.800781 29.472656 23.820312 29.472656 23.828125 29.484375 C 23.886719 29.539062 23.949219 29.582031 24.007812 29.636719 C 24.050781 29.671875 24.085938 29.714844 24.117188 29.761719 C 24.191406 29.878906 24.207031 30.007812 24.183594 30.132812 C 24.171875 30.183594 24.15625 30.230469 24.132812 30.277344 C 24.101562 30.34375 24.058594 30.40625 24.007812 30.457031 C 23.996094 30.472656 23.976562 30.472656 23.960938 30.460938 C 23.949219 30.449219 23.945312 30.429688 23.957031 30.417969 C 23.996094 30.363281 24.027344 30.304688 24.050781 30.242188 C 24.066406 30.199219 24.078125 30.15625 24.085938 30.117188 C 24.105469 30.011719 24.097656 29.90625 24.035156 29.808594 C 24.019531 29.78125 23.996094 29.75 23.972656 29.722656 C 23.914062 29.65625 23.84375 29.59375 23.789062 29.527344 Z M 23.789062 29.527344 " fill-opacity="1" fill-rule="evenodd"/><path fill="#372b29" d="M 24.589844 29.53125 C 24.578125 29.519531 24.574219 29.5 24.585938 29.488281 C 24.597656 29.476562 24.617188 29.476562 24.628906 29.484375 C 24.703125 29.542969 24.769531 29.613281 24.820312 29.6875 C 24.875 29.769531 24.910156 29.859375 24.925781 29.949219 C 24.941406 30.046875 24.933594 30.144531 24.894531 30.234375 C 24.859375 30.316406 24.800781 30.390625 24.714844 30.457031 C 24.703125 30.46875 24.683594 30.46875 24.667969 30.453125 C 24.65625 30.441406 24.660156 30.421875 24.671875 30.410156 C 24.738281 30.34375 24.78125 30.273438 24.804688 30.199219 C 24.835938 30.121094 24.839844 30.042969 24.828125 29.964844 C 24.816406 29.886719 24.785156 29.808594 24.742188 29.734375 C 24.703125 29.660156 24.652344 29.589844 24.589844 29.53125 Z M 24.589844 29.53125 " fill-opacity="1" fill-rule="evenodd"/><g clip-path="url(#4efaf0f5f7)"><path fill="#372b29" d="M 9.398438 29.792969 C 9.394531 29.777344 9.402344 29.761719 9.414062 29.753906 C 9.429688 29.75 9.449219 29.757812 9.453125 29.769531 C 9.488281 29.851562 9.527344 29.929688 9.570312 30.007812 C 9.667969 30.191406 9.777344 30.367188 9.875 30.550781 C 10.007812 30.8125 10.144531 31.074219 10.285156 31.332031 C 10.378906 31.503906 10.472656 31.675781 10.570312 31.84375 C 10.617188 31.917969 10.660156 31.996094 10.707031 32.070312 C 10.78125 32.1875 10.855469 32.308594 10.929688 32.425781 C 11.042969 32.605469 11.15625 32.785156 11.265625 32.96875 C 11.273438 32.980469 11.269531 33.003906 11.253906 33.011719 C 11.238281 33.019531 11.21875 33.015625 11.210938 33 C 11.042969 32.742188 10.867188 32.488281 10.699219 32.230469 C 10.625 32.121094 10.554688 32.007812 10.488281 31.894531 C 10.390625 31.722656 10.292969 31.550781 10.199219 31.375 C 10.0625 31.117188 9.929688 30.855469 9.796875 30.589844 C 9.714844 30.433594 9.628906 30.277344 9.546875 30.121094 C 9.496094 30.011719 9.445312 29.90625 9.398438 29.792969 Z M 9.398438 29.792969 " fill-opacity="1" fill-rule="evenodd"/></g><path fill="#372b29" d="M 10.886719 29.769531 C 10.871094 29.761719 10.867188 29.742188 10.878906 29.730469 C 10.886719 29.714844 10.90625 29.710938 10.917969 29.71875 C 11.0625 29.808594 11.199219 29.917969 11.324219 30.039062 C 11.40625 30.117188 11.480469 30.203125 11.550781 30.296875 C 11.726562 30.523438 11.867188 30.78125 11.96875 31.042969 C 12.011719 31.167969 12.058594 31.296875 12.082031 31.429688 C 12.101562 31.519531 12.105469 31.613281 12.097656 31.707031 C 12.089844 31.785156 12.070312 31.859375 12.039062 31.933594 C 12 32.039062 11.945312 32.140625 11.894531 32.238281 C 11.886719 32.253906 11.867188 32.261719 11.847656 32.253906 C 11.832031 32.242188 11.828125 32.222656 11.835938 32.207031 C 11.882812 32.109375 11.929688 32.011719 11.964844 31.90625 C 11.988281 31.835938 12.003906 31.769531 12.007812 31.699219 C 12.015625 31.613281 12.003906 31.53125 11.988281 31.449219 C 11.964844 31.320312 11.921875 31.199219 11.875 31.078125 C 11.78125 30.824219 11.644531 30.574219 11.480469 30.351562 C 11.410156 30.261719 11.339844 30.175781 11.265625 30.09375 C 11.148438 29.972656 11.023438 29.863281 10.886719 29.769531 Z M 10.886719 29.769531 " fill-opacity="1" fill-rule="evenodd"/><path fill="#372b29" d="M 11.414062 30.015625 C 11.398438 30.023438 11.382812 30.019531 11.371094 30.003906 C 11.363281 29.992188 11.367188 29.972656 11.382812 29.964844 C 11.464844 29.910156 11.550781 29.855469 11.644531 29.808594 C 11.734375 29.757812 11.828125 29.714844 11.917969 29.679688 C 11.957031 29.664062 12 29.640625 12.042969 29.628906 C 12.070312 29.625 12.09375 29.621094 12.113281 29.621094 C 12.160156 29.625 12.203125 29.648438 12.242188 29.679688 C 12.3125 29.738281 12.371094 29.835938 12.414062 29.898438 C 12.492188 30.003906 12.558594 30.113281 12.617188 30.226562 C 12.679688 30.34375 12.726562 30.460938 12.761719 30.589844 C 12.78125 30.664062 12.800781 30.738281 12.808594 30.8125 C 12.816406 30.863281 12.8125 30.917969 12.800781 30.972656 C 12.785156 31.039062 12.757812 31.097656 12.726562 31.148438 C 12.675781 31.21875 12.609375 31.28125 12.542969 31.347656 C 12.46875 31.421875 12.394531 31.492188 12.316406 31.5625 C 12.242188 31.628906 12.164062 31.699219 12.078125 31.761719 C 12.066406 31.773438 12.046875 31.773438 12.035156 31.757812 C 12.023438 31.746094 12.023438 31.726562 12.039062 31.714844 C 12.101562 31.660156 12.160156 31.605469 12.21875 31.546875 C 12.308594 31.460938 12.394531 31.375 12.480469 31.285156 C 12.542969 31.222656 12.601562 31.164062 12.644531 31.09375 C 12.671875 31.050781 12.695312 31.007812 12.707031 30.949219 C 12.714844 30.90625 12.71875 30.863281 12.714844 30.820312 C 12.707031 30.75 12.6875 30.683594 12.667969 30.617188 C 12.636719 30.492188 12.589844 30.378906 12.535156 30.269531 C 12.476562 30.160156 12.410156 30.054688 12.339844 29.949219 C 12.304688 29.902344 12.261719 29.828125 12.207031 29.769531 C 12.179688 29.738281 12.144531 29.714844 12.105469 29.710938 C 12.089844 29.707031 12.070312 29.710938 12.050781 29.71875 C 12.015625 29.726562 11.980469 29.746094 11.949219 29.757812 C 11.859375 29.789062 11.765625 29.828125 11.675781 29.871094 C 11.585938 29.914062 11.496094 29.964844 11.414062 30.015625 Z M 11.414062 30.015625 " fill-opacity="1" fill-rule="evenodd"/><path fill="#372b29" d="M 11.566406 30.003906 C 11.554688 29.992188 11.554688 29.976562 11.5625 29.960938 C 11.574219 29.949219 11.59375 29.949219 11.605469 29.957031 C 11.738281 30.058594 11.847656 30.1875 11.941406 30.328125 C 12.03125 30.464844 12.101562 30.621094 12.15625 30.773438 C 12.207031 30.910156 12.25 31.046875 12.269531 31.183594 C 12.289062 31.320312 12.285156 31.464844 12.25 31.609375 C 12.25 31.628906 12.230469 31.636719 12.214844 31.636719 C 12.195312 31.632812 12.183594 31.613281 12.1875 31.597656 C 12.203125 31.488281 12.203125 31.382812 12.1875 31.277344 C 12.183594 31.230469 12.171875 31.179688 12.164062 31.132812 C 12.140625 31.023438 12.105469 30.917969 12.066406 30.804688 C 12.011719 30.660156 11.945312 30.511719 11.863281 30.375 C 11.78125 30.238281 11.6875 30.109375 11.566406 30.003906 Z M 11.566406 30.003906 " fill-opacity="1" fill-rule="evenodd"/><path fill="#372b29" d="M 11.789062 29.839844 C 11.777344 29.828125 11.777344 29.808594 11.789062 29.796875 C 11.800781 29.785156 11.820312 29.785156 11.832031 29.796875 C 11.910156 29.867188 11.980469 29.941406 12.046875 30.019531 C 12.117188 30.097656 12.175781 30.183594 12.230469 30.269531 C 12.339844 30.445312 12.425781 30.640625 12.484375 30.835938 C 12.507812 30.921875 12.539062 31.019531 12.550781 31.113281 C 12.558594 31.183594 12.554688 31.25 12.53125 31.3125 C 12.527344 31.332031 12.507812 31.339844 12.492188 31.335938 C 12.472656 31.328125 12.464844 31.3125 12.46875 31.292969 C 12.484375 31.238281 12.480469 31.183594 12.46875 31.125 C 12.453125 31.035156 12.417969 30.945312 12.394531 30.867188 C 12.335938 30.675781 12.253906 30.492188 12.152344 30.320312 C 12.101562 30.234375 12.042969 30.148438 11.984375 30.070312 C 11.921875 29.988281 11.859375 29.914062 11.789062 29.839844 Z M 11.789062 29.839844 " fill-opacity="1" fill-rule="evenodd"/><path fill="#372b29" d="M 12.167969 29.425781 C 12.152344 29.433594 12.136719 29.425781 12.128906 29.410156 C 12.121094 29.394531 12.128906 29.378906 12.144531 29.371094 C 12.257812 29.316406 12.371094 29.265625 12.484375 29.226562 C 12.5625 29.199219 12.644531 29.175781 12.726562 29.15625 C 12.773438 29.144531 12.832031 29.132812 12.886719 29.128906 C 12.925781 29.128906 12.964844 29.128906 13.003906 29.136719 C 13.058594 29.148438 13.105469 29.175781 13.152344 29.214844 C 13.214844 29.265625 13.265625 29.332031 13.308594 29.390625 C 13.394531 29.507812 13.46875 29.628906 13.53125 29.753906 C 13.59375 29.878906 13.644531 30.007812 13.691406 30.148438 C 13.714844 30.21875 13.742188 30.296875 13.75 30.375 C 13.753906 30.433594 13.75 30.492188 13.726562 30.546875 C 13.683594 30.640625 13.621094 30.714844 13.542969 30.769531 C 13.378906 30.894531 13.152344 30.949219 12.976562 31.046875 C 12.960938 31.054688 12.941406 31.050781 12.933594 31.035156 C 12.925781 31.019531 12.929688 31 12.945312 30.992188 C 13.089844 30.902344 13.269531 30.84375 13.421875 30.75 C 13.511719 30.691406 13.59375 30.617188 13.636719 30.507812 C 13.65625 30.46875 13.65625 30.425781 13.652344 30.386719 C 13.648438 30.316406 13.621094 30.242188 13.597656 30.179688 C 13.554688 30.042969 13.503906 29.917969 13.445312 29.796875 C 13.382812 29.675781 13.316406 29.558594 13.230469 29.445312 C 13.195312 29.390625 13.148438 29.332031 13.09375 29.285156 C 13.058594 29.257812 13.023438 29.234375 12.980469 29.222656 C 12.953125 29.21875 12.921875 29.214844 12.890625 29.21875 C 12.839844 29.21875 12.789062 29.230469 12.742188 29.238281 C 12.640625 29.257812 12.546875 29.28125 12.453125 29.316406 C 12.355469 29.347656 12.261719 29.382812 12.167969 29.425781 Z M 12.167969 29.425781 " fill-opacity="1" fill-rule="evenodd"/><path fill="#372b29" d="M 22.074219 12.261719 C 22.078125 12.277344 22.066406 12.292969 22.050781 12.296875 C 22.03125 12.296875 22.019531 12.285156 22.015625 12.269531 C 22 12.191406 21.992188 12.113281 21.984375 12.035156 C 21.980469 11.984375 21.976562 11.929688 21.976562 11.878906 C 21.976562 11.78125 21.980469 11.679688 21.988281 11.582031 C 21.996094 11.484375 22.007812 11.386719 22.023438 11.289062 C 22.035156 11.210938 22.046875 11.128906 22.0625 11.046875 C 22.074219 10.992188 22.085938 10.9375 22.105469 10.882812 C 22.109375 10.867188 22.128906 10.855469 22.144531 10.863281 C 22.160156 10.867188 22.171875 10.886719 22.167969 10.902344 C 22.15625 10.941406 22.152344 10.980469 22.148438 11.019531 C 22.140625 11.074219 22.132812 11.132812 22.128906 11.1875 C 22.125 11.226562 22.121094 11.265625 22.117188 11.304688 C 22.09375 11.460938 22.078125 11.621094 22.070312 11.78125 C 22.066406 11.863281 22.066406 11.941406 22.066406 12.023438 C 22.066406 12.101562 22.066406 12.183594 22.074219 12.261719 Z M 22.074219 12.261719 " fill-opacity="1" fill-rule="evenodd"/><path fill="#372b29" d="M 23.265625 11.453125 C 23.28125 11.449219 23.296875 11.460938 23.296875 11.476562 C 23.300781 11.496094 23.289062 11.507812 23.273438 11.511719 C 23.234375 11.515625 23.199219 11.523438 23.160156 11.527344 C 23.132812 11.527344 23.105469 11.527344 23.082031 11.523438 C 23.035156 11.515625 22.992188 11.503906 22.949219 11.484375 C 22.886719 11.457031 22.824219 11.421875 22.773438 11.382812 C 22.671875 11.3125 22.582031 11.230469 22.5 11.140625 C 22.421875 11.054688 22.347656 10.957031 22.277344 10.855469 C 22.242188 10.808594 22.210938 10.757812 22.183594 10.703125 C 22.171875 10.679688 22.160156 10.652344 22.148438 10.625 C 22.128906 10.652344 22.109375 10.679688 22.089844 10.707031 C 22.035156 10.78125 21.976562 10.855469 21.917969 10.929688 C 21.84375 11.023438 21.769531 11.117188 21.691406 11.199219 C 21.636719 11.257812 21.574219 11.308594 21.507812 11.355469 C 21.441406 11.402344 21.367188 11.449219 21.289062 11.480469 C 21.234375 11.503906 21.175781 11.519531 21.117188 11.519531 C 21.066406 11.519531 21.019531 11.507812 20.972656 11.496094 C 20.90625 11.472656 20.847656 11.441406 20.785156 11.40625 C 20.769531 11.398438 20.761719 11.378906 20.773438 11.363281 C 20.78125 11.347656 20.800781 11.339844 20.816406 11.347656 C 20.875 11.378906 20.933594 11.40625 20.992188 11.425781 C 21.03125 11.433594 21.070312 11.441406 21.113281 11.4375 C 21.164062 11.4375 21.210938 11.421875 21.257812 11.402344 C 21.328125 11.371094 21.394531 11.324219 21.453125 11.28125 C 21.515625 11.234375 21.570312 11.1875 21.621094 11.132812 C 21.699219 11.050781 21.769531 10.960938 21.839844 10.871094 C 21.898438 10.796875 21.957031 10.726562 22.011719 10.648438 C 22.046875 10.601562 22.082031 10.550781 22.113281 10.5 C 22.125 10.484375 22.140625 10.476562 22.160156 10.476562 C 22.179688 10.480469 22.191406 10.492188 22.199219 10.507812 C 22.21875 10.558594 22.242188 10.609375 22.269531 10.660156 C 22.292969 10.710938 22.324219 10.757812 22.355469 10.804688 C 22.421875 10.902344 22.492188 10.996094 22.566406 11.082031 C 22.644531 11.167969 22.726562 11.246094 22.820312 11.320312 C 22.867188 11.355469 22.921875 11.390625 22.976562 11.417969 C 23.015625 11.4375 23.054688 11.449219 23.089844 11.457031 C 23.113281 11.460938 23.136719 11.464844 23.15625 11.460938 C 23.195312 11.460938 23.230469 11.457031 23.265625 11.453125 Z M 23.265625 11.453125 " fill-opacity="1" fill-rule="evenodd"/><path fill="#372b29" d="M 19.671875 8.886719 C 19.671875 8.871094 19.6875 8.859375 19.703125 8.859375 C 19.71875 8.859375 19.730469 8.871094 19.734375 8.886719 C 19.738281 9.046875 19.738281 9.207031 19.730469 9.367188 C 19.726562 9.515625 19.71875 9.664062 19.710938 9.8125 C 19.699219 10.035156 19.683594 10.253906 19.679688 10.476562 C 19.675781 10.574219 19.675781 10.667969 19.675781 10.765625 C 19.679688 10.863281 19.683594 10.960938 19.691406 11.054688 C 19.703125 11.183594 19.726562 11.308594 19.761719 11.429688 C 19.769531 11.445312 19.761719 11.464844 19.742188 11.472656 C 19.726562 11.476562 19.707031 11.46875 19.703125 11.449219 C 19.644531 11.296875 19.613281 11.132812 19.59375 10.96875 C 19.578125 10.800781 19.578125 10.636719 19.582031 10.476562 C 19.585938 10.367188 19.589844 10.261719 19.597656 10.15625 C 19.609375 9.945312 19.621094 9.734375 19.636719 9.519531 C 19.652344 9.308594 19.667969 9.097656 19.671875 8.886719 Z M 19.671875 8.886719 " fill-opacity="1" fill-rule="evenodd"/><path fill="#372b29" d="M 24.25 8.816406 C 24.246094 8.800781 24.253906 8.78125 24.265625 8.777344 C 24.28125 8.769531 24.300781 8.777344 24.304688 8.792969 C 24.382812 8.972656 24.449219 9.175781 24.496094 9.386719 C 24.539062 9.585938 24.570312 9.792969 24.589844 10 C 24.621094 10.433594 24.601562 10.871094 24.53125 11.242188 C 24.492188 11.425781 24.457031 11.609375 24.390625 11.777344 C 24.347656 11.894531 24.289062 12.003906 24.210938 12.105469 C 24.199219 12.121094 24.179688 12.121094 24.164062 12.109375 C 24.148438 12.101562 24.148438 12.078125 24.160156 12.066406 C 24.230469 11.96875 24.277344 11.863281 24.316406 11.75 C 24.375 11.582031 24.40625 11.402344 24.4375 11.226562 C 24.503906 10.863281 24.523438 10.433594 24.496094 10.007812 C 24.480469 9.804688 24.453125 9.597656 24.414062 9.402344 C 24.375 9.195312 24.320312 8.996094 24.25 8.816406 Z M 24.25 8.816406 " fill-opacity="1" fill-rule="evenodd"/><path fill="#372b29" d="M 27.339844 16.164062 C 27.34375 16.179688 27.339844 16.199219 27.324219 16.203125 C 27.308594 16.210938 27.292969 16.203125 27.285156 16.1875 C 27.207031 16.019531 27.136719 15.816406 27.082031 15.597656 C 27.007812 15.308594 26.964844 14.984375 26.964844 14.671875 C 26.964844 14.53125 26.972656 14.390625 26.992188 14.253906 C 27.027344 14.035156 27.09375 13.832031 27.1875 13.65625 C 27.195312 13.640625 27.214844 13.636719 27.234375 13.644531 C 27.25 13.652344 27.253906 13.671875 27.246094 13.6875 C 27.15625 13.863281 27.109375 14.070312 27.082031 14.292969 C 27.058594 14.496094 27.054688 14.710938 27.070312 14.925781 C 27.085938 15.140625 27.117188 15.351562 27.160156 15.554688 C 27.210938 15.78125 27.269531 15.988281 27.339844 16.164062 Z M 27.339844 16.164062 " fill-opacity="1" fill-rule="evenodd"/><path fill="#372b29" d="M 18.242188 11.289062 C 18.238281 11.304688 18.222656 11.316406 18.207031 11.3125 C 18.191406 11.308594 18.179688 11.289062 18.1875 11.273438 C 18.277344 10.917969 18.390625 10.566406 18.519531 10.222656 C 18.71875 9.707031 18.960938 9.207031 19.207031 8.71875 C 19.273438 8.589844 19.347656 8.457031 19.425781 8.320312 C 19.5 8.191406 19.585938 8.0625 19.675781 7.941406 C 19.800781 7.773438 19.9375 7.621094 20.09375 7.5 C 20.105469 7.488281 20.128906 7.492188 20.140625 7.507812 C 20.148438 7.519531 20.148438 7.539062 20.132812 7.550781 C 19.988281 7.675781 19.859375 7.828125 19.742188 7.992188 C 19.65625 8.113281 19.578125 8.238281 19.507812 8.367188 C 19.429688 8.5 19.359375 8.636719 19.296875 8.761719 C 19.085938 9.167969 18.886719 9.582031 18.707031 10.003906 C 18.636719 10.171875 18.570312 10.339844 18.503906 10.511719 C 18.40625 10.769531 18.316406 11.027344 18.242188 11.289062 Z M 18.242188 11.289062 " fill-opacity="1" fill-rule="evenodd"/><path fill="#372b29" d="M 20.367188 7.335938 C 20.355469 7.347656 20.335938 7.347656 20.324219 7.335938 C 20.3125 7.320312 20.316406 7.304688 20.328125 7.292969 C 20.429688 7.191406 20.542969 7.09375 20.667969 7.003906 C 20.792969 6.917969 20.921875 6.84375 21.058594 6.78125 C 21.199219 6.71875 21.339844 6.664062 21.488281 6.632812 C 21.636719 6.601562 21.785156 6.59375 21.9375 6.601562 C 21.953125 6.601562 21.96875 6.617188 21.96875 6.636719 C 21.96875 6.652344 21.953125 6.667969 21.933594 6.667969 C 21.792969 6.667969 21.648438 6.691406 21.507812 6.726562 C 21.367188 6.761719 21.230469 6.808594 21.101562 6.867188 C 20.96875 6.929688 20.839844 7 20.71875 7.078125 C 20.59375 7.160156 20.472656 7.246094 20.367188 7.335938 Z M 20.367188 7.335938 " fill-opacity="1" fill-rule="evenodd"/><path fill="#372b29" d="M 16.179688 23.699219 C 16.175781 23.714844 16.160156 23.726562 16.144531 23.722656 C 16.128906 23.71875 16.117188 23.703125 16.121094 23.6875 C 16.144531 23.535156 16.167969 23.386719 16.195312 23.234375 C 16.261719 22.875 16.339844 22.515625 16.414062 22.15625 C 16.460938 21.917969 16.507812 21.675781 16.546875 21.4375 C 16.652344 20.753906 16.742188 20.058594 16.886719 19.378906 C 16.984375 18.921875 17.105469 18.472656 17.265625 18.035156 C 17.273438 18.019531 17.292969 18.007812 17.308594 18.015625 C 17.324219 18.023438 17.335938 18.039062 17.328125 18.058594 C 17.175781 18.496094 17.070312 18.941406 16.976562 19.394531 C 16.839844 20.078125 16.746094 20.769531 16.636719 21.453125 C 16.601562 21.679688 16.558594 21.90625 16.511719 22.128906 C 16.464844 22.339844 16.417969 22.546875 16.371094 22.757812 C 16.300781 23.070312 16.234375 23.382812 16.179688 23.699219 Z M 16.179688 23.699219 " fill-opacity="1" fill-rule="evenodd"/><path fill="#372b29" d="M 16.082031 24.082031 C 16.085938 24.0625 16.097656 24.050781 16.113281 24.050781 C 16.128906 24.050781 16.144531 24.066406 16.144531 24.082031 C 16.144531 24.214844 16.136719 24.351562 16.125 24.484375 C 16.121094 24.574219 16.109375 24.664062 16.101562 24.753906 C 16.082031 24.917969 16.054688 25.082031 16.03125 25.25 C 16.011719 25.414062 15.988281 25.578125 15.972656 25.746094 C 15.964844 25.839844 15.957031 25.933594 15.953125 26.027344 C 15.945312 26.167969 15.941406 26.3125 15.949219 26.453125 C 15.949219 26.46875 15.9375 26.484375 15.917969 26.488281 C 15.902344 26.488281 15.886719 26.476562 15.882812 26.457031 C 15.867188 26.3125 15.859375 26.167969 15.863281 26.023438 C 15.863281 25.929688 15.871094 25.832031 15.878906 25.734375 C 15.890625 25.570312 15.914062 25.402344 15.9375 25.234375 C 15.960938 25.070312 15.988281 24.90625 16.011719 24.742188 C 16.023438 24.652344 16.035156 24.566406 16.046875 24.476562 C 16.0625 24.34375 16.078125 24.210938 16.082031 24.082031 Z M 16.082031 24.082031 " fill-opacity="1" fill-rule="evenodd"/><path fill="#372b29" d="M 18.476562 21.917969 C 18.472656 21.910156 18.464844 21.90625 18.464844 21.914062 C 18.464844 21.917969 18.46875 21.917969 18.476562 21.917969 Z M 18.496094 21.910156 C 18.5 21.910156 18.503906 21.910156 18.503906 21.910156 C 18.523438 21.90625 18.546875 21.902344 18.566406 21.894531 C 18.601562 21.886719 18.632812 21.875 18.664062 21.863281 C 18.695312 21.851562 18.722656 21.839844 18.75 21.824219 C 18.792969 21.800781 18.832031 21.773438 18.875 21.75 C 18.941406 21.710938 19.003906 21.675781 19.066406 21.636719 C 19.109375 21.609375 19.148438 21.582031 19.1875 21.554688 C 19.207031 21.535156 19.234375 21.515625 19.257812 21.5 C 19.277344 21.488281 19.296875 21.476562 19.320312 21.46875 C 19.328125 21.46875 19.347656 21.460938 19.363281 21.460938 C 19.378906 21.460938 19.390625 21.46875 19.398438 21.476562 C 19.40625 21.484375 19.410156 21.492188 19.410156 21.5 C 19.414062 21.515625 19.40625 21.535156 19.402344 21.542969 L 19.367188 21.65625 C 19.359375 21.671875 19.34375 21.679688 19.328125 21.675781 C 19.3125 21.671875 19.304688 21.652344 19.308594 21.636719 L 19.34375 21.53125 C 19.339844 21.53125 19.339844 21.53125 19.339844 21.53125 C 19.324219 21.535156 19.308594 21.542969 19.292969 21.554688 C 19.269531 21.570312 19.25 21.585938 19.226562 21.605469 C 19.191406 21.636719 19.148438 21.667969 19.105469 21.695312 C 19.042969 21.738281 18.976562 21.777344 18.914062 21.8125 C 18.871094 21.839844 18.832031 21.867188 18.785156 21.894531 C 18.757812 21.910156 18.726562 21.925781 18.691406 21.9375 C 18.65625 21.949219 18.625 21.964844 18.589844 21.972656 C 18.566406 21.980469 18.542969 21.988281 18.515625 21.992188 C 18.507812 21.992188 18.46875 22 18.449219 21.996094 C 18.433594 21.992188 18.421875 21.984375 18.417969 21.976562 C 18.410156 21.964844 18.40625 21.949219 18.402344 21.929688 C 18.402344 21.90625 18.414062 21.882812 18.421875 21.863281 C 18.429688 21.84375 18.4375 21.824219 18.449219 21.804688 C 18.472656 21.765625 18.503906 21.730469 18.53125 21.691406 C 18.59375 21.59375 18.667969 21.496094 18.730469 21.390625 C 18.769531 21.324219 18.800781 21.253906 18.820312 21.183594 C 18.824219 21.15625 18.835938 21.125 18.84375 21.097656 C 18.847656 21.082031 18.851562 21.066406 18.847656 21.054688 C 18.839844 20.984375 18.789062 20.949219 18.730469 20.929688 C 18.617188 20.886719 18.46875 20.886719 18.382812 20.855469 C 18.347656 20.84375 18.289062 20.832031 18.25 20.804688 C 18.222656 20.789062 18.203125 20.761719 18.195312 20.734375 C 18.1875 20.6875 18.195312 20.640625 18.222656 20.59375 C 18.265625 20.515625 18.351562 20.441406 18.398438 20.394531 C 18.527344 20.265625 18.660156 20.140625 18.78125 20.007812 C 18.863281 19.921875 18.941406 19.832031 19.011719 19.734375 L 19.0625 19.65625 L 19.09375 19.605469 C 19.109375 19.582031 19.128906 19.550781 19.140625 19.523438 C 19.148438 19.507812 19.15625 19.492188 19.15625 19.472656 C 19.164062 19.417969 19.132812 19.375 19.09375 19.332031 C 19.023438 19.261719 18.921875 19.203125 18.859375 19.152344 C 18.808594 19.109375 18.761719 19.0625 18.714844 19.015625 C 18.648438 18.945312 18.582031 18.871094 18.519531 18.796875 C 18.464844 18.730469 18.355469 18.605469 18.339844 18.5 C 18.332031 18.441406 18.347656 18.386719 18.402344 18.34375 C 18.417969 18.332031 18.4375 18.335938 18.449219 18.351562 C 18.460938 18.363281 18.457031 18.382812 18.441406 18.394531 C 18.398438 18.429688 18.398438 18.480469 18.417969 18.527344 C 18.453125 18.613281 18.535156 18.695312 18.578125 18.746094 C 18.640625 18.816406 18.707031 18.890625 18.773438 18.957031 C 18.820312 19 18.867188 19.046875 18.914062 19.085938 C 18.988281 19.148438 19.121094 19.21875 19.195312 19.3125 C 19.234375 19.363281 19.257812 19.417969 19.25 19.484375 C 19.25 19.511719 19.238281 19.539062 19.226562 19.5625 C 19.210938 19.59375 19.191406 19.625 19.175781 19.65625 L 19.144531 19.703125 L 19.089844 19.789062 C 19.015625 19.890625 18.9375 19.984375 18.851562 20.074219 C 18.730469 20.207031 18.597656 20.332031 18.46875 20.464844 C 18.429688 20.5 18.367188 20.554688 18.324219 20.613281 C 18.300781 20.644531 18.285156 20.679688 18.289062 20.710938 C 18.292969 20.726562 18.3125 20.730469 18.328125 20.738281 C 18.359375 20.75 18.394531 20.757812 18.414062 20.765625 C 18.464844 20.785156 18.535156 20.792969 18.609375 20.804688 C 18.683594 20.816406 18.761719 20.832031 18.820312 20.867188 C 18.886719 20.902344 18.933594 20.957031 18.941406 21.042969 C 18.945312 21.0625 18.941406 21.082031 18.941406 21.101562 C 18.933594 21.136719 18.917969 21.171875 18.910156 21.203125 C 18.890625 21.285156 18.851562 21.363281 18.808594 21.4375 C 18.746094 21.542969 18.667969 21.640625 18.601562 21.738281 C 18.582031 21.773438 18.554688 21.800781 18.535156 21.835938 C 18.519531 21.855469 18.507812 21.875 18.5 21.894531 C 18.496094 21.898438 18.496094 21.90625 18.496094 21.910156 Z M 18.496094 21.910156 " fill-opacity="1" fill-rule="evenodd"/><path fill="#372b29" d="M 24.871094 20.1875 C 24.875 20.171875 24.894531 20.160156 24.910156 20.164062 C 24.925781 20.167969 24.933594 20.183594 24.929688 20.199219 C 24.894531 20.375 24.863281 20.5625 24.832031 20.75 C 24.800781 20.933594 24.773438 21.117188 24.75 21.304688 C 24.726562 21.488281 24.710938 21.675781 24.691406 21.859375 C 24.675781 22.050781 24.660156 22.238281 24.648438 22.414062 C 24.648438 22.433594 24.632812 22.449219 24.617188 22.449219 C 24.597656 22.445312 24.582031 22.433594 24.585938 22.414062 C 24.585938 22.234375 24.585938 22.042969 24.597656 21.851562 C 24.609375 21.667969 24.632812 21.476562 24.65625 21.292969 C 24.679688 21.105469 24.707031 20.917969 24.742188 20.734375 C 24.78125 20.546875 24.824219 20.363281 24.871094 20.1875 Z M 24.871094 20.1875 " fill-opacity="1" fill-rule="evenodd"/><path fill="#fee3d8" d="M 9.691406 24.214844 C 9.679688 24.230469 9.660156 24.230469 9.648438 24.21875 C 9.636719 24.210938 9.632812 24.191406 9.644531 24.179688 C 9.765625 24.027344 9.898438 23.882812 10.035156 23.738281 C 10.347656 23.410156 10.679688 23.101562 10.976562 22.757812 C 11.367188 22.308594 11.757812 21.859375 12.148438 21.417969 C 12.546875 20.972656 12.945312 20.535156 13.351562 20.101562 C 13.570312 19.871094 13.789062 19.644531 14.011719 19.417969 C 14.34375 19.082031 14.6875 18.75 15.035156 18.425781 C 15.046875 18.414062 15.066406 18.414062 15.078125 18.425781 C 15.09375 18.4375 15.089844 18.460938 15.078125 18.472656 C 14.738281 18.804688 14.402344 19.140625 14.074219 19.480469 C 13.855469 19.707031 13.636719 19.9375 13.421875 20.167969 C 13.015625 20.601562 12.617188 21.039062 12.222656 21.480469 C 11.828125 21.921875 11.433594 22.367188 11.042969 22.816406 C 10.699219 23.207031 10.304688 23.550781 9.949219 23.925781 C 9.859375 24.019531 9.773438 24.117188 9.691406 24.214844 Z M 9.691406 24.214844 " fill-opacity="1" fill-rule="evenodd"/><path fill="#fee3d8" d="M 15.394531 18.207031 C 15.382812 18.214844 15.363281 18.214844 15.351562 18.203125 C 15.339844 18.191406 15.34375 18.171875 15.355469 18.160156 C 15.410156 18.105469 15.464844 18.046875 15.519531 17.992188 C 15.605469 17.910156 15.695312 17.832031 15.78125 17.753906 C 15.820312 17.71875 15.863281 17.683594 15.902344 17.652344 C 15.964844 17.601562 16.03125 17.554688 16.09375 17.511719 C 16.109375 17.5 16.128906 17.5 16.140625 17.515625 C 16.152344 17.527344 16.148438 17.546875 16.136719 17.558594 C 16.074219 17.617188 16.015625 17.675781 15.957031 17.730469 C 15.898438 17.785156 15.835938 17.835938 15.773438 17.890625 C 15.710938 17.945312 15.648438 18 15.585938 18.050781 C 15.523438 18.105469 15.457031 18.15625 15.394531 18.207031 Z M 15.394531 18.207031 " fill-opacity="1" fill-rule="evenodd"/><path fill="#fee3d8" d="M 14.367188 27.980469 C 14.351562 27.988281 14.335938 27.980469 14.328125 27.964844 C 14.320312 27.953125 14.328125 27.933594 14.339844 27.925781 C 14.488281 27.847656 14.636719 27.765625 14.789062 27.691406 C 15.015625 27.574219 15.242188 27.46875 15.472656 27.363281 C 15.578125 27.316406 15.679688 27.269531 15.785156 27.226562 C 15.941406 27.164062 16.097656 27.105469 16.257812 27.046875 C 16.273438 27.042969 16.292969 27.050781 16.300781 27.066406 C 16.304688 27.082031 16.296875 27.101562 16.28125 27.109375 C 16.128906 27.175781 15.972656 27.246094 15.820312 27.3125 C 15.71875 27.359375 15.617188 27.40625 15.515625 27.449219 C 15.285156 27.554688 15.054688 27.664062 14.828125 27.769531 C 14.675781 27.839844 14.519531 27.910156 14.367188 27.980469 Z M 14.367188 27.980469 " fill-opacity="1" fill-rule="evenodd"/><path fill="#372b29" d="M 21 8.082031 C 21.097656 8.082031 21.175781 8.175781 21.175781 8.289062 C 21.175781 8.402344 21.097656 8.496094 21 8.496094 C 20.902344 8.496094 20.824219 8.402344 20.824219 8.289062 C 20.824219 8.175781 20.902344 8.082031 21 8.082031 Z M 21 8.082031 " fill-opacity="1" fill-rule="evenodd"/><path fill="#372b29" d="M 23.324219 8.082031 C 23.421875 8.082031 23.5 8.175781 23.5 8.289062 C 23.5 8.402344 23.421875 8.496094 23.324219 8.496094 C 23.226562 8.496094 23.148438 8.402344 23.148438 8.289062 C 23.148438 8.175781 23.226562 8.082031 23.324219 8.082031 Z M 23.324219 8.082031 " fill-opacity="1" fill-rule="evenodd"/><path fill="#372b29" d="M 25.886719 8.121094 C 25.984375 8.121094 26.0625 8.214844 26.0625 8.328125 C 26.0625 8.441406 25.984375 8.535156 25.886719 8.535156 C 25.789062 8.535156 25.710938 8.441406 25.710938 8.328125 C 25.710938 8.214844 25.789062 8.121094 25.886719 8.121094 Z M 25.886719 8.121094 " fill-opacity="1" fill-rule="evenodd"/><path fill="#372b29" d="M 28.050781 8.4375 C 28.148438 8.4375 28.226562 8.53125 28.226562 8.644531 C 28.226562 8.761719 28.148438 8.851562 28.050781 8.851562 C 27.953125 8.851562 27.875 8.761719 27.875 8.644531 C 27.875 8.53125 27.953125 8.4375 28.050781 8.4375 Z M 28.050781 8.4375 " fill-opacity="1" fill-rule="evenodd"/></svg>