<svg xmlns="http://www.w3.org/2000/svg" xmlns:xlink="http://www.w3.org/1999/xlink" width="50" zoomAndPan="magnify" viewBox="0 0 37.5 37.499999" height="50" preserveAspectRatio="xMidYMid meet" version="1.0"><defs><clipPath id="c3121b4945"><path d="M 0 0 L 37.007812 0 L 37.007812 37.007812 L 0 37.007812 Z M 0 0 " clip-rule="nonzero"/></clipPath><clipPath id="de379e18e1"><path d="M 11 7 L 33 7 L 33 30.4375 L 11 30.4375 Z M 11 7 " clip-rule="nonzero"/></clipPath></defs><g clip-path="url(#c3121b4945)"><path fill="#ffffff" d="M 0 0 L 37.007812 0 L 37.007812 37.007812 L 0 37.007812 Z M 0 0 " fill-opacity="1" fill-rule="nonzero"/><path fill="#344960" d="M 0 0 L 37.007812 0 L 37.007812 37.007812 L 0 37.007812 Z M 0 0 " fill-opacity="1" fill-rule="nonzero"/></g><g clip-path="url(#de379e18e1)"><path fill="#fee3d8" d="M 14.828125 12.261719 C 14.605469 11.601562 14.566406 10.894531 14.578125 10.199219 C 14.59375 8.984375 15.242188 6.757812 16.945312 7.316406 C 18.328125 7.777344 19.351562 10.199219 19.398438 11.5 C 19.421875 12.195312 19.210938 12.921875 18.730469 13.4375 C 18.074219 14.136719 16.929688 14.324219 16.085938 13.863281 C 15.476562 13.535156 15.050781 12.917969 14.828125 12.261719 Z M 22.992188 14.160156 C 23.671875 14.839844 24.820312 14.914062 25.664062 14.445312 C 26.503906 13.976562 27.035156 13.0625 27.195312 12.109375 C 27.417969 10.785156 27.011719 7.925781 25.410156 7.507812 C 23.6875 7.054688 22.265625 8.371094 21.996094 9.972656 C 21.8125 11.082031 21.960938 12.242188 22.417969 13.273438 C 22.566406 13.59375 22.746094 13.90625 22.992188 14.160156 Z M 30.773438 14.375 C 28.683594 14.105469 28.132812 16.949219 28.640625 18.398438 C 28.832031 18.921875 29.164062 19.453125 29.699219 19.605469 C 29.90625 19.660156 30.125 19.65625 30.328125 19.625 C 31.128906 19.523438 31.894531 19.101562 32.359375 18.441406 C 33.296875 17.121094 32.535156 14.605469 30.773438 14.375 Z M 26.972656 22.046875 C 25.695312 20.925781 24.277344 19.871094 23.515625 18.355469 C 23.347656 18.015625 23.207031 17.640625 22.984375 17.328125 C 22.300781 16.347656 20.851562 16.136719 19.753906 16.367188 C 18.4375 16.640625 17.289062 17.480469 16.378906 18.449219 C 15.230469 19.679688 14.367188 21.140625 13.261719 22.410156 C 12.707031 23.046875 12.085938 23.640625 11.707031 24.390625 C 11.1875 25.425781 11.199219 26.703125 11.699219 27.75 C 12.210938 28.789062 13.1875 29.585938 14.308594 29.894531 C 15.597656 30.246094 16.960938 29.984375 18.25 29.628906 C 19.535156 29.277344 20.816406 28.835938 22.148438 28.828125 C 23.464844 28.824219 24.746094 29.246094 26.058594 29.304688 C 27.367188 29.359375 28.859375 28.914062 29.425781 27.730469 C 29.648438 27.269531 29.699219 26.742188 29.648438 26.234375 C 29.484375 24.546875 28.246094 23.167969 26.972656 22.046875 Z M 26.972656 22.046875 " fill-opacity="1" fill-rule="nonzero"/></g><path fill="#f8e3dd" d="M 21.75 9.484375 C 21.859375 9.527344 21.972656 9.570312 22.082031 9.617188 C 23.191406 10.082031 23.496094 11.933594 24.070312 12.980469 C 24.542969 13.820312 25.40625 13.609375 25.359375 14.582031 C 25.335938 15.0625 25.285156 15.542969 25.214844 16.011719 C 25.039062 17.292969 24.816406 18.5625 24.546875 19.828125 C 24.507812 20.019531 22.738281 19.933594 22.695312 20.128906 C 22.28125 21.929688 21.921875 22.144531 20.464844 23.277344 C 19.277344 24.195312 19.035156 23.859375 17.546875 24.078125 C 15.691406 24.351562 15.097656 25.71875 13.371094 24.992188 C 13.066406 24.867188 11.59375 26.152344 11.3125 25.980469 C 10.625 25.546875 10.007812 24.992188 9.402344 24.449219 C 8.429688 23.574219 7.457031 22.699219 6.484375 21.824219 C 5.828125 21.222656 5.152344 20.605469 4.71875 19.828125 C 3.796875 18.167969 4.140625 16.0625 4.996094 14.371094 C 6.863281 10.691406 10.820312 8.855469 14.902344 8.546875 C 16.078125 8.457031 16.75 11.835938 18.414062 8.652344 C 19.582031 8.8125 20.710938 9.089844 21.75 9.484375 Z M 21.75 9.484375 " fill-opacity="1" fill-rule="evenodd"/><path fill="#f1bfa8" d="M 10.328125 20.320312 C 9.46875 19.773438 8.773438 18.953125 8.46875 17.980469 C 8.167969 17.007812 8.28125 15.898438 8.847656 15.058594 C 9.351562 14.3125 10.472656 13.484375 11.324219 14.140625 C 12.101562 14.742188 12.707031 16.132812 12.960938 17.042969 C 13.199219 17.921875 13.234375 18.867188 12.960938 19.734375 C 12.882812 19.957031 12.792969 20.179688 12.640625 20.359375 C 12.359375 20.671875 11.914062 20.800781 11.496094 20.765625 C 11.078125 20.726562 10.683594 20.542969 10.328125 20.320312 Z M 12.191406 26.4375 C 13.921875 27.164062 15.886719 26.90625 17.742188 26.632812 C 19.226562 26.414062 20.785156 26.164062 21.96875 25.242188 C 23.425781 24.109375 24.015625 22.207031 24.425781 20.40625 C 24.472656 20.214844 24.511719 20.019531 24.550781 19.828125 C 24.152344 19.378906 23.792969 18.898438 23.523438 18.355469 C 23.351562 18.015625 23.214844 17.640625 22.992188 17.328125 C 22.304688 16.347656 20.859375 16.136719 19.757812 16.367188 C 18.445312 16.640625 17.292969 17.480469 16.386719 18.449219 C 15.234375 19.679688 14.371094 21.140625 13.269531 22.410156 C 12.714844 23.046875 12.089844 23.640625 11.710938 24.390625 C 11.464844 24.882812 11.339844 25.433594 11.328125 25.980469 C 11.597656 26.152344 11.882812 26.3125 12.191406 26.4375 Z M 19.394531 11.503906 C 19.371094 10.734375 19 9.570312 18.414062 8.65625 C 17.265625 8.503906 16.082031 8.460938 14.902344 8.554688 C 14.679688 9.109375 14.578125 9.730469 14.570312 10.207031 C 14.5625 10.90625 14.601562 11.609375 14.824219 12.265625 C 15.046875 12.921875 15.46875 13.535156 16.082031 13.867188 C 16.921875 14.324219 18.066406 14.140625 18.722656 13.445312 C 19.203125 12.929688 19.417969 12.203125 19.394531 11.503906 Z M 25.359375 14.582031 C 25.398438 13.609375 25.296875 12.644531 24.832031 11.800781 C 24.25 10.761719 23.191406 10.085938 22.082031 9.617188 C 22.046875 9.730469 22.023438 9.847656 22 9.964844 C 21.820312 11.074219 21.96875 12.238281 22.425781 13.265625 C 22.566406 13.585938 22.746094 13.902344 22.992188 14.152344 C 23.589844 14.757812 24.5625 14.886719 25.359375 14.582031 Z M 25.359375 14.582031 " fill-opacity="1" fill-rule="nonzero"/><path fill="#cb836d" d="M 29.367188 19.230469 C 29.132812 19.230469 28.910156 19.179688 28.714844 19.082031 C 27.960938 18.699219 27.761719 17.710938 27.828125 16.910156 C 27.898438 16.132812 28.207031 14.667969 28.945312 14.125 C 29.214844 13.929688 29.511719 13.867188 29.835938 13.941406 C 30.511719 14.089844 31.226562 14.679688 31.652344 15.433594 C 31.988281 16.035156 32.085938 16.640625 31.917969 17.132812 C 31.679688 17.847656 31.171875 18.484375 30.53125 18.878906 C 30.140625 19.113281 29.738281 19.230469 29.367188 19.230469 Z M 29.578125 14.078125 C 29.386719 14.078125 29.207031 14.140625 29.042969 14.261719 C 28.351562 14.769531 28.058594 16.171875 27.996094 16.925781 C 27.933594 17.671875 28.109375 18.589844 28.789062 18.929688 C 29.242188 19.15625 29.859375 19.082031 30.433594 18.722656 C 31.039062 18.351562 31.519531 17.746094 31.746094 17.070312 C 31.894531 16.625 31.8125 16.070312 31.496094 15.507812 C 31.101562 14.804688 30.414062 14.238281 29.796875 14.097656 C 29.722656 14.089844 29.65625 14.078125 29.578125 14.078125 Z M 10.058594 20.03125 C 9.921875 20.03125 9.777344 20.015625 9.648438 19.980469 C 9.378906 19.90625 9.109375 19.765625 8.847656 19.539062 C 8.101562 18.917969 7.65625 17.90625 7.65625 16.835938 C 7.65625 16 7.972656 14.433594 8.816406 13.777344 C 9.035156 13.605469 9.269531 13.535156 9.511719 13.574219 C 10.117188 13.667969 10.625 14.398438 10.996094 14.9375 C 11.042969 15 11.082031 15.058594 11.117188 15.113281 C 11.613281 15.8125 11.914062 16.457031 12.03125 17.085938 C 12.179688 17.875 12.03125 18.65625 11.625 19.214844 C 11.25 19.722656 10.648438 20.03125 10.058594 20.03125 Z M 9.382812 13.734375 C 9.230469 13.734375 9.074219 13.792969 8.925781 13.914062 C 8.21875 14.46875 7.835938 15.828125 7.835938 16.835938 C 7.835938 17.855469 8.257812 18.820312 8.960938 19.410156 C 9.203125 19.609375 9.449219 19.746094 9.691406 19.816406 C 10.328125 19.988281 11.066406 19.695312 11.488281 19.105469 C 11.871094 18.578125 12.003906 17.855469 11.867188 17.109375 C 11.753906 16.503906 11.460938 15.878906 10.980469 15.207031 C 10.941406 15.148438 10.898438 15.089844 10.855469 15.027344 C 10.5 14.519531 10.011719 13.820312 9.488281 13.742188 C 9.453125 13.734375 9.417969 13.734375 9.382812 13.734375 Z M 15.96875 29.320312 C 15.757812 29.320312 15.550781 29.308594 15.339844 29.28125 C 13.789062 29.0625 12.363281 27.902344 11.804688 26.382812 C 11.261719 24.90625 11.5 23.15625 12.4375 21.824219 L 12.507812 21.875 L 12.4375 21.824219 C 13.023438 20.992188 13.824219 20.359375 14.601562 19.746094 C 14.773438 19.613281 14.945312 19.476562 15.117188 19.339844 C 15.542969 18.992188 15.925781 18.589844 16.300781 18.207031 C 16.523438 17.972656 16.757812 17.734375 16.996094 17.5 C 18.476562 16.09375 20.988281 15.445312 22.921875 16.933594 C 23.625 17.476562 24.136719 18.226562 24.625 18.953125 C 24.84375 19.273438 25.066406 19.605469 25.308594 19.914062 C 25.652344 20.359375 26.039062 20.78125 26.421875 21.1875 C 26.949219 21.753906 27.492188 22.34375 27.921875 23.007812 C 28.578125 24.03125 29.070312 25.660156 28.289062 26.914062 C 27.445312 28.257812 25.644531 28.410156 24.90625 28.417969 C 24.371094 28.421875 23.820312 28.371094 23.292969 28.324219 C 22.589844 28.261719 21.859375 28.195312 21.148438 28.257812 C 20.355469 28.324219 19.566406 28.558594 18.796875 28.785156 C 17.871094 29.046875 16.929688 29.320312 15.96875 29.320312 Z M 12.585938 21.921875 C 11.683594 23.210938 11.449219 24.898438 11.976562 26.324219 C 12.511719 27.78125 13.878906 28.902344 15.367188 29.109375 C 16.503906 29.269531 17.59375 28.949219 18.746094 28.613281 C 19.519531 28.390625 20.320312 28.15625 21.132812 28.078125 C 21.859375 28.015625 22.597656 28.085938 23.3125 28.148438 C 23.835938 28.195312 24.375 28.246094 24.90625 28.238281 C 25.617188 28.234375 27.34375 28.085938 28.144531 26.816406 C 28.882812 25.636719 28.414062 24.078125 27.777344 23.097656 C 27.359375 22.445312 26.816406 21.867188 26.296875 21.300781 C 25.914062 20.890625 25.519531 20.46875 25.175781 20.015625 C 24.9375 19.699219 24.707031 19.371094 24.488281 19.042969 C 24.007812 18.328125 23.507812 17.589844 22.824219 17.0625 C 20.964844 15.632812 18.554688 16.257812 17.121094 17.617188 C 16.882812 17.847656 16.652344 18.089844 16.429688 18.324219 C 16.058594 18.710938 15.671875 19.113281 15.234375 19.472656 C 15.0625 19.609375 14.890625 19.746094 14.722656 19.882812 C 13.941406 20.484375 13.152344 21.109375 12.585938 21.921875 Z M 23.375 14.371094 C 22.546875 14.371094 21.824219 13.742188 21.503906 13.050781 C 21.105469 12.195312 21.167969 11.21875 21.257812 10.46875 C 21.382812 9.464844 21.699219 8.148438 22.460938 7.558594 C 22.773438 7.316406 23.144531 7.222656 23.558594 7.277344 C 24.164062 7.363281 24.785156 7.789062 25.308594 8.480469 C 25.769531 9.089844 26.089844 9.824219 26.164062 10.445312 C 26.285156 11.417969 25.886719 12.5 25.066406 13.425781 C 24.59375 13.964844 24.125 14.265625 23.636719 14.347656 C 23.550781 14.359375 23.460938 14.371094 23.375 14.371094 Z M 21.425781 10.488281 C 21.332031 11.21875 21.273438 12.164062 21.652344 12.976562 C 21.980469 13.679688 22.761719 14.320312 23.609375 14.175781 C 24.054688 14.101562 24.488281 13.816406 24.9375 13.3125 C 25.71875 12.425781 26.101562 11.390625 25.988281 10.46875 C 25.855469 9.382812 24.804688 7.628906 23.523438 7.449219 C 23.15625 7.398438 22.832031 7.484375 22.554688 7.695312 C 21.808594 8.273438 21.527344 9.691406 21.425781 10.488281 Z M 15.429688 13.605469 C 15.039062 13.605469 14.644531 13.523438 14.285156 13.316406 C 13.074219 12.589844 13.148438 10.875 13.195312 10.367188 L 13.28125 10.371094 L 13.195312 10.367188 C 13.3125 9.160156 13.910156 7.671875 14.921875 7.261719 C 15.511719 7.019531 16.144531 7.1875 16.808594 7.753906 C 17.660156 8.480469 18.542969 9.753906 18.585938 10.96875 C 18.617188 11.636719 18.386719 12.214844 17.917969 12.683594 C 17.625 12.976562 17.230469 13.199219 16.675781 13.382812 C 16.320312 13.496094 15.882812 13.605469 15.429688 13.605469 Z M 15.453125 7.328125 C 15.292969 7.328125 15.136719 7.359375 14.984375 7.421875 C 14.082031 7.789062 13.484375 9.1875 13.363281 10.382812 C 13.320312 10.863281 13.25 12.496094 14.378906 13.164062 C 15.09375 13.585938 15.992188 13.425781 16.625 13.214844 C 17.152344 13.039062 17.523438 12.832031 17.796875 12.558594 C 18.234375 12.121094 18.4375 11.589844 18.414062 10.96875 C 18.371094 9.804688 17.515625 8.582031 16.695312 7.878906 C 16.265625 7.519531 15.847656 7.328125 15.453125 7.328125 Z M 15.453125 7.328125 " fill-opacity="1" fill-rule="nonzero"/></svg>